<?xml version="1.0" encoding="utf-8"?>
<!-- Generator: Adobe Illustrator 24.3.0, SVG Export Plug-In . SVG Version: 6.00 Build 0)  -->
<svg version="1.1" xmlns="http://www.w3.org/2000/svg" xmlns:xlink="http://www.w3.org/1999/xlink" x="0px" y="0px"
	 viewBox="0 0 500 500" style="enable-background:new 0 0 500 500;" xml:space="preserve">
<style type="text/css">
	.st0{display:none;}
	.st1{display:inline;fill:url(#SVGID_1_);}
	.st2{display:none;opacity:0.5;}
	.st3{display:inline;fill:url(#SVGID_2_);stroke:#565656;stroke-miterlimit:10;}
	.st4{display:none;fill:url(#SVGID_3_);stroke:#565656;stroke-miterlimit:10;}
	.st5{display:none;fill:url(#SVGID_4_);stroke:#565656;stroke-miterlimit:10;}
	.st6{display:none;fill:url(#SVGID_5_);stroke:#565656;stroke-miterlimit:10;}
	.st7{display:none;fill:url(#SVGID_6_);stroke:#565656;stroke-miterlimit:10;}
	.st8{display:none;fill:url(#SVGID_7_);stroke:#565656;stroke-miterlimit:10;}
	.st9{fill:none;stroke:#FFFFFF;stroke-miterlimit:10;}
	.st10{display:inline;}
	.st11{opacity:0.5;fill:#FFFFFF;}
	.st12{display:inline;opacity:0.5;}
	.st13{fill:#FFFFFF;}
	.st14{opacity:0.5;}
	.st15{display:inline;fill:#FFFFFF;}
	.st16{fill:url(#SVGID_8_);}
	.st17{fill:url(#SVGID_9_);}
	.st18{fill:url(#SVGID_10_);}
	.st19{fill:url(#SVGID_11_);}
	.st20{opacity:0.5;fill:url(#SVGID_12_);}
	.st21{fill:url(#SVGID_13_);}
	.st22{opacity:0.5;fill:url(#SVGID_14_);}
	.st23{fill:url(#SVGID_15_);}
	.st24{opacity:0.5;fill:url(#SVGID_16_);}
	.st25{fill:#231F20;}
	.st26{fill:#6D6E70;}
	.st27{fill:#BBBDBF;}
	.st28{fill:none;}
	.st29{fill:url(#SVGID_17_);}
	.st30{fill:#92D275;}
	.st31{fill:#B8B8B8;}
	.st32{fill:url(#SVGID_18_);}
	.st33{opacity:0.5;fill:url(#SVGID_19_);}
	.st34{opacity:0.5;fill:url(#SVGID_20_);}
	.st35{opacity:0.5;fill:url(#SVGID_21_);}
	.st36{opacity:0.5;fill:#92D275;}
	.st37{stroke:#565656;stroke-miterlimit:10;}
	.st38{opacity:0.2;fill:#050006;enable-background:new    ;}
	.st39{fill:#050006;stroke:#565556;stroke-miterlimit:10;}
	.st40{fill:#E5E4E3;stroke:#1F1713;stroke-width:0.25;stroke-miterlimit:10;}
	.st41{fill:#A7A7A7;}
	.st42{fill:#1F1713;stroke:#565556;stroke-miterlimit:10;}
	.st43{fill:#E5E4E3;stroke:#1F1713;stroke-width:0.1;stroke-miterlimit:10;}
	.st44{fill:#30A3DD;}
	.st45{fill:url(#SVGID_22_);stroke:#565556;stroke-width:0.5;stroke-miterlimit:10;}
	.st46{fill:url(#SVGID_23_);stroke:#565556;stroke-width:0.5;stroke-miterlimit:10;}
	.st47{fill:url(#SVGID_24_);stroke:#565556;stroke-width:0.5;stroke-miterlimit:10;}
	.st48{fill:url(#SVGID_25_);stroke:#565556;stroke-width:0.5;stroke-miterlimit:10;}
	.st49{fill:url(#SVGID_26_);stroke:#565556;stroke-width:0.5;stroke-miterlimit:10;}
	.st50{fill:#30A3DD;stroke:#565556;stroke-width:0.25;stroke-miterlimit:10;}
	.st51{fill:url(#SVGID_27_);stroke:#565556;stroke-width:0.5;stroke-miterlimit:10;}
	.st52{fill:url(#SVGID_28_);stroke:#565556;stroke-width:0.5;stroke-miterlimit:10;}
	.st53{fill:url(#SVGID_29_);stroke:#565556;stroke-width:0.5;stroke-miterlimit:10;}
	.st54{fill:url(#SVGID_30_);stroke:#565556;stroke-width:0.5;stroke-miterlimit:10;}
	.st55{fill:url(#SVGID_31_);stroke:#565556;stroke-width:0.5;stroke-miterlimit:10;}
	.st56{fill:#E5E4E3;stroke:#565556;stroke-width:0.25;stroke-miterlimit:10;}
	.st57{fill:#04A6E0;}
	.st58{fill:#05A6E0;}
	.st59{fill:#0BA8E0;}
	.st60{fill:#18ADE2;}
	.st61{fill:#52C1E9;}
</style>
<g id="Camada_4" class="st0">
	<linearGradient id="SVGID_1_" gradientUnits="userSpaceOnUse" x1="-93.0899" y1="250" x2="876.8228" y2="250">
		<stop  offset="0" style="stop-color:#A533FF"/>
		<stop  offset="1" style="stop-color:#15BAFF"/>
	</linearGradient>
	<rect class="st1" width="500" height="500"/>
</g>
<g id="BG" class="st0">
</g>
<g id="Pic">
	<g class="st2">
		<linearGradient id="SVGID_2_" gradientUnits="userSpaceOnUse" x1="-944.9631" y1="300.6763" x2="-306.6465" y2="300.6763">
			<stop  offset="0" style="stop-color:#FFFFFF"/>
			<stop  offset="1" style="stop-color:#000000"/>
		</linearGradient>
		<path class="st3" d="M-336.3,300.5L-626.5,133c-39.4-22.8-103.1-22.8-142.2,0l-147,85.4c-39.1,22.7-38.9,59.6,0.5,82.4
			l290.2,167.5c39.4,22.8,103.1,22.8,142.2,0l147-85.4C-296.7,360.2-296.9,323.3-336.3,300.5"/>
	</g>
	<g>
		<linearGradient id="SVGID_3_" gradientUnits="userSpaceOnUse" x1="-729.1489" y1="865.2856" x2="-978.8477" y2="615.5869">
			<stop  offset="0" style="stop-color:#54AEFF"/>
			<stop  offset="1" style="stop-color:#54FF96"/>
		</linearGradient>
		<path class="st4" d="M-865,738.5c-0.1,20.2-0.1,40.3-0.2,60.4c4.5,3.6,9,7.1,13.6,10.4c4.5,3.3,9,6.5,13.6,9.5
			c0.1-46.6,0.3-93.2,0.4-139.9c-4.6-1.9-9.1-4-13.7-6.3c-4.5-2.2-9-4.6-13.5-7.1c-0.1,16.7-0.1,33.4-0.2,50
			c-16.8-11-33.2-24.1-48.3-39.2c0-15.2,0.1-30.3,0.1-45.5c-4.1-3.7-8-7.5-11.9-11.4c-3.9-3.9-7.6-8-11.2-12.2
			c-0.1,31.8-0.1,63.6-0.2,95.3c1.5,4.1,2.9,7.8,4.1,10.9c4.4,10.9,9.5,23.7,15.6,37.6c1,2.4,2,4.8,2.9,7.1l0.4,0.8
			c0-20.6,0.1-41.1,0.1-61.7C-898.2,713-881.8,726.8-865,738.5z"/>
		<linearGradient id="SVGID_4_" gradientUnits="userSpaceOnUse" x1="-721.7781" y1="857.9191" x2="-971.4825" y2="608.2147">
			<stop  offset="0" style="stop-color:#54AEFF"/>
			<stop  offset="1" style="stop-color:#54FF96"/>
		</linearGradient>
		<path class="st5" d="M-812.1,726.2c-0.1,33.2-0.2,66.3-0.3,99.5c4.2,2.2,8.4,4.4,12.6,6.4c4.1,2,8.2,3.8,12.3,5.5
			c0.1-34.5,0.2-69,0.3-103.6c-4.1-1-8.2-2.2-12.4-3.5C-803.8,729.2-807.9,727.8-812.1,726.2z"/>
		<linearGradient id="SVGID_5_" gradientUnits="userSpaceOnUse" x1="-683.4764" y1="819.6232" x2="-933.1856" y2="569.914">
			<stop  offset="0" style="stop-color:#54AEFF"/>
			<stop  offset="1" style="stop-color:#54FF96"/>
		</linearGradient>
		<path class="st6" d="M-812.4,713.5c8.6,3,17,5.4,25.3,7.4c0-9.2,0-18.4,0.1-27.5c-8.3-1.5-16.7-3.6-25.3-6.2
			C-812.3,695.9-812.3,704.7-812.4,713.5z"/>
		<linearGradient id="SVGID_6_" gradientUnits="userSpaceOnUse" x1="-686.6743" y1="810.7319" x2="-921.1949" y2="576.2114">
			<stop  offset="0" style="stop-color:#54AEFF"/>
			<stop  offset="1" style="stop-color:#54FF96"/>
		</linearGradient>
		<path class="st7" d="M-760.6,698.1c0,12.9-0.1,25.7-0.1,38.6c2.2,25.7,4.3,43.4,6.4,69.5c1.9,0.4,3.8,0.8,5.7,1.1
			c1.9,0.3,3.8,0.6,5.7,0.9c2.1-25.9,4.1-43.9,6.1-70.5c0-13.4,0.1-26.8,0.1-40.2c-3.8,0.4-7.6,0.7-11.6,0.8
			C-752.4,698.4-756.5,698.3-760.6,698.1z"/>
		<linearGradient id="SVGID_7_" gradientUnits="userSpaceOnUse" x1="-728.1266" y1="853.2244" x2="-977.8118" y2="603.5393">
			<stop  offset="0" style="stop-color:#54AEFF"/>
			<stop  offset="1" style="stop-color:#54FF96"/>
		</linearGradient>
		<path class="st8" d="M-760.6,845.7c8.1,2.5,15.9,4.5,23.2,5.9c0-10.8,0-21.7,0.1-32.5c-7.3-0.9-15.1-2.5-23.2-4.6
			C-760.6,824.9-760.6,835.3-760.6,845.7z"/>
	</g>
	<path class="st9" d="M228.2,441.3L42.6,255.8c-14.9-14.9-14.9-39.4,0-54.3L228.2,15.9c14.9-14.9,39.4-14.9,54.3,0l185.6,185.6
		c14.9,14.9,14.9,39.4,0,54.3L282.5,441.3C267.6,456.3,243.1,456.3,228.2,441.3z"/>
	<g id="Balão_4" class="st0">
		<g class="st10">
			<path class="st11" d="M-744.1-443.5l-355.6-205.3c-11.1-6.4-20-1.3-20.1,11.4l-0.1,46.9c0,12.7,8.9,28.2,19.9,34.5l279.8,161.5
				l46.9,81.3l0.2-54.1l28.7,16.6c11.1,6.4,20,1.3,20.1-11.4l0.1-46.9C-724.1-421.7-733-437.1-744.1-443.5"/>
		</g>
		<g class="st12">
			<path class="st13" d="M-1083-596.7l-20-11.5c-2.8-1.6-5-0.3-5,2.9c0,3.2,2.2,7,5,8.6l20,11.5c2.8,1.6,5,0.3,5-2.9
				C-1078-591.3-1080.2-595.1-1083-596.7"/>
			<path class="st13" d="M-1020.2-560.5l-44.9-25.9c-2.8-1.6-5-0.3-5,2.9c0,3.2,2.2,7,5,8.6l44.9,25.9c2.8,1.6,5,0.3,5-2.9
				C-1015.2-555-1017.4-558.9-1020.2-560.5"/>
			<path class="st13" d="M-966.3-529.4l-35.9-20.7c-2.8-1.6-5-0.3-5,2.9c0,3.2,2.2,7,5,8.6l35.9,20.7c2.8,1.6,5,0.3,5-2.9
				C-961.3-523.9-963.6-527.8-966.3-529.4 M-903.5-493.1l-44.9-25.9c-2.8-1.6-5-0.3-5,2.9c0,3.2,2.2,7,5,8.6l44.9,25.9
				c2.8,1.6,5,0.3,5-2.9C-898.5-487.7-900.7-491.5-903.5-493.1 M-849.7-462l-35.9-20.7c-2.8-1.6-5-0.3-5,2.9c0,3.2,2.2,7,5,8.6
				l35.9,20.7c2.8,1.6,5,0.3,5-2.9C-844.7-456.6-846.9-460.4-849.7-462 M-786.9-425.8l-44.9-25.9c-2.8-1.6-5-0.3-5,2.9
				c0,3.2,2.2,7,5,8.6l44.9,25.9c2.8,1.6,5,0.3,5-2.9C-781.9-420.3-784.1-424.2-786.9-425.8"/>
			<path class="st13" d="M-748.9-403.8l-20-11.6c-2.8-1.6-5-0.3-5,2.9c0,3.2,2.2,7,5,8.6l20,11.5c2.8,1.6,5,0.3,5-2.9
				C-743.9-398.4-746.1-402.2-748.9-403.8"/>
		</g>
	</g>
	<g id="Balão_3_1_" class="st0">
		<g class="st12">
			<path class="st13" d="M-1182.2-92.9l-406.9-234.9c-12.7-7.3-22.9-1.4-23,13.1l-0.6,198.3c0,14.5,10.2,32.2,22.8,39.5l320.2,184.9
				l53.7,93l0.2-61.9l32.9,19c12.6,7.3,22.9,1.5,23-13.1l0.6-198.3C-1159.3-67.9-1169.5-85.6-1182.2-92.9"/>
		</g>
		<g class="st12">
			<g>
				<path class="st13" d="M-1567.4-295.3l-22.9-13.2c-3.2-1.8-5.7-0.4-5.7,3.3c0,3.6,2.5,8,5.7,9.9l22.9,13.2
					c3.2,1.8,5.7,0.4,5.7-3.3C-1561.7-289-1564.3-293.5-1567.4-295.3"/>
				<path class="st13" d="M-1495.5-253.8l-51.3-29.6c-3.2-1.8-5.7-0.4-5.7,3.3c0,3.6,2.5,8.1,5.7,9.9l51.3,29.6
					c3.2,1.8,5.7,0.4,5.7-3.3C-1489.8-247.5-1492.4-252-1495.5-253.8"/>
				<path class="st13" d="M-1433.9-218.2l-41.1-23.7c-3.2-1.8-5.7-0.4-5.7,3.3c0,3.6,2.5,8.1,5.7,9.9l41.1,23.7
					c3.2,1.8,5.7,0.4,5.7-3.3C-1428.2-212-1430.8-216.4-1433.9-218.2 M-1362-176.7l-51.3-29.6c-3.2-1.8-5.7-0.4-5.7,3.3
					c0,3.6,2.5,8,5.7,9.9l51.3,29.6c3.2,1.8,5.7,0.4,5.7-3.3C-1356.3-170.5-1358.9-174.9-1362-176.7 M-1300.4-141.1l-41.1-23.7
					c-3.2-1.8-5.7-0.4-5.7,3.3c0,3.6,2.5,8,5.7,9.9l41.1,23.7c3.2,1.8,5.7,0.4,5.7-3.3C-1294.7-134.9-1297.3-139.3-1300.4-141.1
					 M-1228.6-99.6l-51.3-29.6c-3.2-1.8-5.7-0.4-5.8,3.3c0,3.6,2.5,8.1,5.7,9.9l51.3,29.6c3.2,1.8,5.7,0.4,5.7-3.3
					C-1222.8-93.4-1225.4-97.8-1228.6-99.6"/>
				<path class="st13" d="M-1185.1-74.6l-22.9-13.2c-3.2-1.8-5.7-0.4-5.7,3.3c0,3.6,2.5,8.1,5.7,9.9l22.9,13.2
					c3.2,1.8,5.7,0.4,5.7-3.3C-1179.4-68.3-1182-72.7-1185.1-74.6"/>
			</g>
			<g>
				<path class="st13" d="M-1567.4-245.7l-22.9-13.2c-3.2-1.8-5.7-0.4-5.7,3.3c0,3.6,2.5,8.1,5.7,9.9l22.9,13.2
					c3.2,1.8,5.7,0.4,5.7-3.3C-1561.7-239.4-1564.3-243.8-1567.4-245.7"/>
				<path class="st13" d="M-1488.8-200.3l-56.2-32.4c-3.2-1.8-5.7-0.4-5.7,3.3c0,3.6,2.5,8.1,5.7,9.9l56.2,32.4
					c3.2,1.8,5.7,0.4,5.7-3.3C-1483.1-194-1485.6-198.4-1488.8-200.3 M-1410.2-154.9l-22.5-13c-3.2-1.8-5.7-0.4-5.7,3.3
					c0,3.6,2.5,8.1,5.7,9.9l22.5,13c3.2,1.8,5.7,0.4,5.7-3.3C-1404.5-148.6-1407-153-1410.2-154.9 M-1342.8-116l-22.5-13
					c-3.2-1.8-5.7-0.4-5.7,3.3c0,3.6,2.5,8.1,5.7,9.9l22.5,13c3.2,1.8,5.7,0.4,5.7-3.3C-1337.1-109.7-1339.6-114.1-1342.8-116
					 M-1230.5-51.1l-56.2-32.4c-3.2-1.8-5.7-0.4-5.7,3.3c0,3.6,2.5,8.1,5.7,9.9l56.2,32.4c3.2,1.8,5.7,0.4,5.7-3.3
					C-1224.8-44.9-1227.3-49.3-1230.5-51.1"/>
				<path class="st13" d="M-1185.1-24.9l-22.9-13.2c-3.2-1.8-5.7-0.4-5.7,3.3c0,3.6,2.5,8.1,5.7,9.9l22.9,13.2
					c3.2,1.8,5.7,0.4,5.7-3.3C-1179.4-18.7-1182-23.1-1185.1-24.9"/>
			</g>
			<g>
				<path class="st13" d="M-1533.1-176.2l-57.2-33c-3.2-1.8-5.7-0.4-5.7,3.3c0,3.6,2.5,8.1,5.7,9.9l57.2,33c3.2,1.8,5.7,0.4,5.7-3.3
					C-1527.4-170-1529.9-174.4-1533.1-176.2"/>
				<path class="st13" d="M-1451.3-129l-45.4-26.2c-3.2-1.8-5.7-0.4-5.7,3.3c0,3.6,2.5,8.1,5.7,9.9l45.4,26.2
					c3.2,1.8,5.7,0.4,5.7-3.3C-1445.6-122.8-1448.2-127.2-1451.3-129"/>
				<path class="st13" d="M-1342.3-66.1l-90.8-52.5c-3.2-1.8-5.7-0.4-5.7,3.3c0,3.6,2.5,8.1,5.7,9.9l90.8,52.5
					c3.2,1.8,5.7,0.4,5.7-3.3C-1336.6-59.8-1339.1-64.2-1342.3-66.1 M-1260.5-18.8l-45.4-26.2c-3.2-1.8-5.7-0.4-5.7,3.3
					c0,3.6,2.5,8.1,5.7,9.9l45.4,26.2c3.2,1.8,5.7,0.4,5.7-3.3C-1254.8-12.6-1257.4-17-1260.5-18.8"/>
				<path class="st13" d="M-1185.1,24.7l-57.2-33c-3.2-1.8-5.7-0.4-5.7,3.3c0,3.6,2.5,8.1,5.7,9.9l57.2,33c3.2,1.8,5.7,0.4,5.7-3.3
					C-1179.4,30.9-1182,26.5-1185.1,24.7"/>
			</g>
			<g>
				<path class="st13" d="M-1567.4-146.4l-22.9-13.2c-3.2-1.8-5.7-0.4-5.7,3.3c0,3.6,2.5,8.1,5.7,9.9l22.9,13.2
					c3.2,1.8,5.7,0.4,5.7-3.3C-1561.7-140.2-1564.3-144.6-1567.4-146.4"/>
				<path class="st13" d="M-1443-74.6l-69.1-39.9c-3.2-1.8-5.7-0.4-5.7,3.3c0,3.6,2.5,8.1,5.7,9.9l69.1,39.9
					c3.2,1.8,5.7,0.4,5.7-3.3C-1437.3-68.3-1439.9-72.8-1443-74.6"/>
				<path class="st13" d="M-1360.1-26.7l-55.3-31.9c-3.2-1.8-5.7-0.4-5.7,3.3c0,3.6,2.5,8.1,5.7,9.9l55.3,31.9
					c3.2,1.8,5.7,0.4,5.7-3.3C-1354.4-20.5-1356.9-24.9-1360.1-26.7 M-1235.7,45.1l-69.1-39.9c-3.2-1.8-5.7-0.4-5.7,3.3
					c0,3.6,2.5,8.1,5.7,9.9l69.1,39.9c3.2,1.8,5.7,0.4,5.7-3.3C-1230,51.4-1232.5,46.9-1235.7,45.1"/>
				<path class="st13" d="M-1185.1,74.3l-22.9-13.2c-3.2-1.8-5.7-0.4-5.7,3.3c0,3.6,2.5,8.1,5.7,9.9l22.9,13.2
					c3.2,1.8,5.7,0.4,5.7-3.3C-1179.4,80.5-1182,76.1-1185.1,74.3"/>
			</g>
			<g>
				<path class="st13" d="M-1567.4-96.8l-22.9-13.2c-3.2-1.8-5.7-0.4-5.7,3.3c0,3.6,2.5,8,5.7,9.9l22.9,13.2
					c3.2,1.8,5.7,0.4,5.7-3.3C-1561.7-90.5-1564.3-95-1567.4-96.8"/>
				<path class="st13" d="M-1505.5-61l-24.8-14.3c-3.2-1.8-5.7-0.3-5.7,3.3c0,3.6,2.5,8,5.7,9.9l24.8,14.3c3.2,1.8,5.7,0.4,5.7-3.3
					C-1499.7-54.8-1502.3-59.2-1505.5-61"/>
				<path class="st13" d="M-1431.1-18.1l-49.6-28.6c-3.2-1.8-5.7-0.4-5.7,3.3c0,3.6,2.5,8,5.7,9.9l49.6,28.6
					c3.2,1.8,5.7,0.4,5.7-3.3C-1425.4-11.8-1427.9-16.3-1431.1-18.1 M-1369.1,17.7l-24.8-14.3c-3.2-1.8-5.7-0.4-5.7,3.3
					c0,3.6,2.5,8,5.7,9.9l24.8,14.3c3.2,1.8,5.7,0.4,5.7-3.3C-1363.4,23.9-1366,19.5-1369.1,17.7 M-1294.8,60.6l-49.6-28.6
					c-3.2-1.8-5.7-0.4-5.7,3.3c0,3.6,2.5,8,5.7,9.9l49.6,28.6c3.2,1.8,5.7,0.4,5.7-3.3C-1289.1,66.9-1291.6,62.4-1294.8,60.6
					 M-1232.8,96.4l-24.8-14.3c-3.2-1.8-5.7-0.4-5.7,3.3c0,3.6,2.5,8.1,5.7,9.9l24.8,14.3c3.2,1.8,5.7,0.4,5.7-3.3
					C-1227.1,102.6-1229.6,98.2-1232.8,96.4"/>
				<path class="st13" d="M-1185.1,123.9l-22.9-13.2c-3.2-1.8-5.7-0.4-5.7,3.3c0,3.6,2.5,8.1,5.7,9.9l22.9,13.2
					c3.2,1.8,5.7,0.4,5.7-3.3C-1179.4,130.2-1182,125.7-1185.1,123.9"/>
			</g>
		</g>
	</g>
	<g id="Balão_2" class="st0">
		<g class="st14">
			<path class="st15" d="M-321.7-631.6l466.3,269.2c14.5,8.4,26.2,28.6,26.2,45.3l-0.4,136.8c0,16.6-11.8,23.4-26.3,15l-366.9-211.8
				l-61.9,35.3l0.2-70.9l-37.7-21.8c-14.5-8.4-26.2-28.6-26.1-45.3l0.4-136.8C-348-633.3-336.2-640-321.7-631.6"/>
		</g>
	</g>
	<g class="st14">
		<linearGradient id="SVGID_8_" gradientUnits="userSpaceOnUse" x1="40.3559" y1="355.5947" x2="394.7644" y2="389.2563">
			<stop  offset="0" style="stop-color:#FFFFFF"/>
			<stop  offset="1" style="stop-color:#000000"/>
		</linearGradient>
		<path class="st16" d="M437.1,394.4c5.3,3.1,5.4,8.1,0.1,11.2L289,491.7c-5.3,3.1-13.9,3.1-19.3,0L30.4,353.5
			c-5.3-3.1-5.4-8.1-0.1-11.2l148.2-86.1c5.3-3.1,13.9-3.1,19.3,0L437.1,394.4z"/>
	</g>
	<linearGradient id="SVGID_9_" gradientUnits="userSpaceOnUse" x1="51.7128" y1="366.4911" x2="407.5642" y2="445.9968">
		<stop  offset="0" style="stop-color:#D0D2D3"/>
		<stop  offset="1" style="stop-color:#A6A8AB"/>
	</linearGradient>
	<path class="st17" d="M441.1,385c0,0.1,0,0.3,0,0.4c0,0.1-0.1,0.2-0.1,0.3c0,0.1-0.1,0.3-0.1,0.4c0,0.1-0.1,0.2-0.1,0.3
		c-0.1,0.1-0.1,0.3-0.2,0.4c-0.1,0.1-0.1,0.2-0.2,0.3c-0.1,0.2-0.2,0.3-0.3,0.5c-0.1,0.1-0.2,0.3-0.4,0.4c0,0-0.1,0.1-0.1,0.1
		c-0.2,0.2-0.4,0.4-0.6,0.6c-0.1,0.1-0.3,0.2-0.4,0.4c-0.1,0.1-0.2,0.2-0.4,0.3c-0.2,0.1-0.3,0.2-0.5,0.3c-0.2,0.1-0.3,0.2-0.5,0.3
		L289,476.3c-0.4,0.2-0.8,0.4-1.3,0.6c-0.1,0.1-0.3,0.1-0.4,0.2c-0.3,0.1-0.7,0.3-1.1,0.4c-0.1,0-0.3,0.1-0.4,0.1
		c-0.2,0.1-0.5,0.1-0.7,0.2c-0.2,0-0.4,0.1-0.5,0.1c-0.2,0.1-0.5,0.1-0.7,0.2c-0.2,0-0.4,0.1-0.5,0.1c-0.5,0.1-1,0.2-1.5,0.2
		c-0.2,0-0.3,0-0.5,0c-0.3,0-0.6,0-0.9,0.1c-0.2,0-0.4,0-0.6,0c-0.3,0-0.5,0-0.8,0c-0.2,0-0.4,0-0.6,0c-0.2,0-0.5,0-0.7,0
		c-0.2,0-0.4,0-0.6-0.1c-0.2,0-0.5,0-0.7-0.1c-0.2,0-0.4-0.1-0.6-0.1c-0.2,0-0.5-0.1-0.7-0.1c-0.2,0-0.4-0.1-0.6-0.1
		c-0.3-0.1-0.6-0.1-0.8-0.2c-0.2,0-0.3-0.1-0.5-0.1c-0.5-0.1-1-0.3-1.5-0.5c-0.2-0.1-0.5-0.2-0.7-0.3c-0.1,0-0.2-0.1-0.3-0.1
		c-0.3-0.2-0.7-0.3-1-0.5L30.4,338.2c-2.7-1.6-4-3.6-4-5.6c0,2.4,0,4.7,0,7.1c0,2,1.3,4.1,4,5.6l239.2,138.1c0.3,0.2,0.7,0.4,1,0.5
		c0.1,0,0.2,0.1,0.3,0.1c0.2,0.1,0.4,0.2,0.7,0.3c0,0,0.1,0,0.1,0c0.5,0.2,1,0.3,1.5,0.5c0,0,0.1,0,0.1,0c0.1,0,0.2,0.1,0.4,0.1
		c0.3,0.1,0.6,0.1,0.8,0.2c0.1,0,0.2,0,0.2,0.1c0.1,0,0.2,0,0.3,0.1c0.2,0,0.5,0.1,0.7,0.1c0.1,0,0.2,0,0.3,0.1c0.1,0,0.2,0,0.3,0
		c0.2,0,0.5,0.1,0.7,0.1c0.1,0,0.2,0,0.3,0c0.1,0,0.2,0,0.3,0c0.2,0,0.5,0,0.7,0c0.1,0,0.2,0,0.3,0c0.1,0,0.2,0,0.3,0
		c0.2,0,0.5,0,0.7,0c0.1,0,0.3,0,0.4,0c0.1,0,0.1,0,0.2,0c0.3,0,0.6,0,0.9-0.1c0.1,0,0.2,0,0.4,0c0,0,0.1,0,0.1,0
		c0.5-0.1,1-0.1,1.5-0.2c0,0,0.1,0,0.1,0c0.2,0,0.3-0.1,0.4-0.1c0.2-0.1,0.5-0.1,0.7-0.2c0.2,0,0.4-0.1,0.5-0.1
		c0.2-0.1,0.5-0.1,0.7-0.2c0.1,0,0.1,0,0.2,0c0.1,0,0.2-0.1,0.2-0.1c0.4-0.1,0.7-0.3,1.1-0.4c0.1-0.1,0.3-0.1,0.4-0.2
		c0.4-0.2,0.9-0.4,1.3-0.6l148.2-86.1c0.1,0,0.1-0.1,0.2-0.1c0.1-0.1,0.2-0.2,0.4-0.2c0.2-0.1,0.3-0.2,0.5-0.3
		c0.1-0.1,0.3-0.2,0.4-0.3c0.1-0.1,0.3-0.2,0.4-0.3c0,0,0.1,0,0.1-0.1c0.2-0.2,0.3-0.3,0.5-0.5c0,0,0.1-0.1,0.1-0.1
		c0.1-0.1,0.2-0.2,0.3-0.3c0,0,0.1-0.1,0.1-0.1c0.1-0.2,0.2-0.3,0.3-0.5c0-0.1,0.1-0.1,0.1-0.2v0c0,0,0,0,0,0v0c0,0,0-0.1,0.1-0.1
		c0.1-0.1,0.1-0.3,0.2-0.4c0-0.1,0.1-0.2,0.1-0.2c0,0,0-0.1,0-0.1c0-0.1,0.1-0.3,0.1-0.4c0-0.1,0.1-0.2,0.1-0.3c0,0,0,0,0-0.1
		c0-0.1,0-0.3,0-0.4c0-0.1,0-0.2,0-0.3c0,0,0-0.1,0-0.1c0-2.4,0-4.7,0-7.1C441.1,384.7,441.1,384.9,441.1,385z"/>
	<g>
		<linearGradient id="SVGID_10_" gradientUnits="userSpaceOnUse" x1="280.3954" y1="477.5421" x2="174.602" y2="207.6086">
			<stop  offset="0" style="stop-color:#E6E7E8"/>
			<stop  offset="1" style="stop-color:#F1F1F2"/>
		</linearGradient>
		<path class="st18" d="M437.1,379c5.3,3.1,5.4,8.1,0.1,11.2L289,476.3c-5.3,3.1-13.9,3.1-19.3,0L30.4,338.2
			c-5.3-3.1-5.4-8.1-0.1-11.2l148.2-86.1c5.3-3.1,13.9-3.1,19.3,0L437.1,379z"/>
	</g>
	<g>
		<linearGradient id="SVGID_11_" gradientUnits="userSpaceOnUse" x1="62.9675" y1="316.1448" x2="418.8147" y2="395.6495">
			<stop  offset="0" style="stop-color:#D0D2D3"/>
			<stop  offset="1" style="stop-color:#A6A8AB"/>
		</linearGradient>
		<path class="st19" d="M437.3,397.1c0.1-0.1,0.2-0.2,0.4-0.2c0.2-0.1,0.3-0.2,0.5-0.3c0.1-0.1,0.3-0.2,0.4-0.3
			c0.1-0.1,0.3-0.2,0.4-0.3c0,0,0.1,0,0.1-0.1c0.2-0.2,0.3-0.3,0.5-0.5c0,0,0.1-0.1,0.1-0.1c0.1-0.1,0.2-0.2,0.3-0.3
			c0,0,0.1-0.1,0.1-0.1c0.1-0.2,0.2-0.3,0.3-0.5c0-0.1,0.1-0.1,0.1-0.2v0c0,0,0,0,0,0v0c0,0,0-0.1,0.1-0.1c0.1-0.1,0.1-0.3,0.2-0.4
			c0-0.1,0.1-0.2,0.1-0.2c0,0,0-0.1,0-0.1c0-0.1,0.1-0.3,0.1-0.4c0-0.1,0.1-0.2,0.1-0.3c0,0,0,0,0-0.1c0-0.1,0-0.3,0-0.4
			c0-0.1,0-0.2,0-0.3c0,0,0-0.1,0-0.1c0-2.4,0-4.7,0-7.1c0,0.1,0,0.3,0,0.4c0,0.1,0,0.3,0,0.4c0,0.1-0.1,0.2-0.1,0.3
			c0,0.1-0.1,0.3-0.1,0.4c0,0.1-0.1,0.2-0.1,0.3c-0.1,0.1-0.1,0.3-0.2,0.4c-0.1,0.1-0.1,0.2-0.2,0.3c-0.1,0.2-0.2,0.3-0.3,0.5
			c-0.1,0.1-0.2,0.3-0.4,0.4c0,0-0.1,0.1-0.1,0.1c-0.2,0.2-0.4,0.4-0.6,0.6c-0.1,0.1-0.3,0.2-0.4,0.4c-0.1,0.1-0.2,0.2-0.4,0.3
			c-0.2,0.1-0.3,0.2-0.5,0.3c-0.2,0.1-0.3,0.2-0.5,0.3l-23.1,13.4v7l23.1-13.4C437.2,397.2,437.3,397.1,437.3,397.1z"/>
		<linearGradient id="SVGID_12_" gradientUnits="userSpaceOnUse" x1="420.8062" y1="401.7094" x2="442.4461" y2="388.9659">
			<stop  offset="0" style="stop-color:#FFFFFF"/>
			<stop  offset="1" style="stop-color:#58595B"/>
		</linearGradient>
		<path class="st20" d="M437.3,397.1c0.1-0.1,0.2-0.2,0.4-0.2c0.2-0.1,0.3-0.2,0.5-0.3c0.1-0.1,0.3-0.2,0.4-0.3
			c0.1-0.1,0.3-0.2,0.4-0.3c0,0,0.1,0,0.1-0.1c0.2-0.2,0.3-0.3,0.5-0.5c0,0,0.1-0.1,0.1-0.1c0.1-0.1,0.2-0.2,0.3-0.3
			c0,0,0.1-0.1,0.1-0.1c0.1-0.2,0.2-0.3,0.3-0.5c0-0.1,0.1-0.1,0.1-0.2v0c0,0,0,0,0,0v0c0,0,0-0.1,0.1-0.1c0.1-0.1,0.1-0.3,0.2-0.4
			c0-0.1,0.1-0.2,0.1-0.2c0,0,0-0.1,0-0.1c0-0.1,0.1-0.3,0.1-0.4c0-0.1,0.1-0.2,0.1-0.3c0,0,0,0,0-0.1c0-0.1,0-0.3,0-0.4
			c0-0.1,0-0.2,0-0.3c0,0,0-0.1,0-0.1c0-2.4,0-4.7,0-7.1c0,0.1,0,0.3,0,0.4c0,0.1,0,0.3,0,0.4c0,0.1-0.1,0.2-0.1,0.3
			c0,0.1-0.1,0.3-0.1,0.4c0,0.1-0.1,0.2-0.1,0.3c-0.1,0.1-0.1,0.3-0.2,0.4c-0.1,0.1-0.1,0.2-0.2,0.3c-0.1,0.2-0.2,0.3-0.3,0.5
			c-0.1,0.1-0.2,0.3-0.4,0.4c0,0-0.1,0.1-0.1,0.1c-0.2,0.2-0.4,0.4-0.6,0.6c-0.1,0.1-0.3,0.2-0.4,0.4c-0.1,0.1-0.2,0.2-0.4,0.3
			c-0.2,0.1-0.3,0.2-0.5,0.3c-0.2,0.1-0.3,0.2-0.5,0.3l-23.1,13.4v7l23.1-13.4C437.2,397.2,437.3,397.1,437.3,397.1z"/>
		<linearGradient id="SVGID_13_" gradientUnits="userSpaceOnUse" x1="41.6453" y1="411.5617" x2="397.493" y2="491.0665">
			<stop  offset="0" style="stop-color:#D0D2D3"/>
			<stop  offset="1" style="stop-color:#A6A8AB"/>
		</linearGradient>
		<path class="st21" d="M289,476.3c-0.4,0.2-0.8,0.4-1.3,0.6c-0.1,0.1-0.3,0.1-0.4,0.2c-0.3,0.1-0.7,0.3-1.1,0.4
			c-0.1,0-0.3,0.1-0.4,0.1c-0.2,0.1-0.5,0.1-0.7,0.2c-0.2,0-0.4,0.1-0.5,0.1c-0.2,0.1-0.5,0.1-0.7,0.2c-0.2,0-0.4,0.1-0.5,0.1
			c-0.5,0.1-1,0.2-1.5,0.2c-0.2,0-0.3,0-0.5,0c-0.3,0-0.6,0-0.9,0.1c-0.2,0-0.4,0-0.6,0c-0.3,0-0.5,0-0.8,0c-0.2,0-0.4,0-0.6,0
			c-0.2,0-0.5,0-0.7,0c-0.2,0-0.4,0-0.6-0.1c-0.2,0-0.5,0-0.7-0.1c-0.2,0-0.4-0.1-0.6-0.1c-0.2,0-0.5-0.1-0.7-0.1
			c-0.2,0-0.4-0.1-0.6-0.1c-0.3-0.1-0.6-0.1-0.8-0.2c-0.2,0-0.3-0.1-0.5-0.1c-0.5-0.1-1-0.3-1.5-0.5c-0.2-0.1-0.5-0.2-0.7-0.3
			c-0.1,0-0.2-0.1-0.3-0.1c-0.3-0.2-0.7-0.3-1-0.5l-38.3-22.1v7.1l38.3,22.1c0.3,0.2,0.7,0.4,1,0.5c0.1,0,0.2,0.1,0.3,0.1
			c0.2,0.1,0.4,0.2,0.7,0.3c0,0,0.1,0,0.1,0c0.5,0.2,1,0.3,1.5,0.5c0,0,0.1,0,0.1,0c0.1,0,0.2,0.1,0.4,0.1c0.3,0.1,0.6,0.1,0.8,0.2
			c0.1,0,0.2,0,0.2,0.1c0.1,0,0.2,0,0.3,0.1c0.2,0,0.5,0.1,0.7,0.1c0.1,0,0.2,0,0.3,0.1c0.1,0,0.2,0,0.3,0c0.2,0,0.5,0.1,0.7,0.1
			c0.1,0,0.2,0,0.3,0c0.1,0,0.2,0,0.3,0c0.2,0,0.5,0,0.7,0c0.1,0,0.2,0,0.3,0c0.1,0,0.2,0,0.3,0c0.2,0,0.5,0,0.7,0
			c0.1,0,0.3,0,0.4,0c0.1,0,0.1,0,0.2,0c0.3,0,0.6,0,0.9-0.1c0.1,0,0.2,0,0.4,0c0,0,0.1,0,0.1,0c0.5-0.1,1-0.1,1.5-0.2
			c0,0,0.1,0,0.1,0c0.2,0,0.3-0.1,0.4-0.1c0.2-0.1,0.5-0.1,0.7-0.2c0.2,0,0.4-0.1,0.5-0.1c0.2-0.1,0.5-0.1,0.7-0.2
			c0.1,0,0.1,0,0.2,0c0.1,0,0.2-0.1,0.2-0.1c0.4-0.1,0.7-0.3,1.1-0.4c0.1-0.1,0.3-0.1,0.4-0.2c0.4-0.2,0.9-0.4,1.3-0.6l38.6-22.4v-7
			L289,476.3z"/>
		<linearGradient id="SVGID_14_" gradientUnits="userSpaceOnUse" x1="256.6003" y1="469.7619" x2="307.8342" y2="469.7619">
			<stop  offset="0" style="stop-color:#A6A8AB"/>
			<stop  offset="0.5" style="stop-color:#FFFFFF"/>
			<stop  offset="1" style="stop-color:#A6A8AB"/>
		</linearGradient>
		<path class="st22" d="M289,476.3c-0.4,0.2-0.8,0.4-1.3,0.6c-0.1,0.1-0.3,0.1-0.4,0.2c-0.3,0.1-0.7,0.3-1.1,0.4
			c-0.1,0-0.3,0.1-0.4,0.1c-0.2,0.1-0.5,0.1-0.7,0.2c-0.2,0-0.4,0.1-0.5,0.1c-0.2,0.1-0.5,0.1-0.7,0.2c-0.2,0-0.4,0.1-0.5,0.1
			c-0.5,0.1-1,0.2-1.5,0.2c-0.2,0-0.3,0-0.5,0c-0.3,0-0.6,0-0.9,0.1c-0.2,0-0.4,0-0.6,0c-0.3,0-0.5,0-0.8,0c-0.2,0-0.4,0-0.6,0
			c-0.2,0-0.5,0-0.7,0c-0.2,0-0.4,0-0.6-0.1c-0.2,0-0.5,0-0.7-0.1c-0.2,0-0.4-0.1-0.6-0.1c-0.2,0-0.5-0.1-0.7-0.1
			c-0.2,0-0.4-0.1-0.6-0.1c-0.3-0.1-0.6-0.1-0.8-0.2c-0.2,0-0.3-0.1-0.5-0.1c-0.5-0.1-1-0.3-1.5-0.5c-0.2-0.1-0.5-0.2-0.7-0.3
			c-0.1,0-0.2-0.1-0.3-0.1c-0.3-0.2-0.7-0.3-1-0.5l-38.3-22.1v7.1l38.3,22.1c0.3,0.2,0.7,0.4,1,0.5c0.1,0,0.2,0.1,0.3,0.1
			c0.2,0.1,0.4,0.2,0.7,0.3c0,0,0.1,0,0.1,0c0.5,0.2,1,0.3,1.5,0.5c0,0,0.1,0,0.1,0c0.1,0,0.2,0.1,0.4,0.1c0.3,0.1,0.6,0.1,0.8,0.2
			c0.1,0,0.2,0,0.2,0.1c0.1,0,0.2,0,0.3,0.1c0.2,0,0.5,0.1,0.7,0.1c0.1,0,0.2,0,0.3,0.1c0.1,0,0.2,0,0.3,0c0.2,0,0.5,0.1,0.7,0.1
			c0.1,0,0.2,0,0.3,0c0.1,0,0.2,0,0.3,0c0.2,0,0.5,0,0.7,0c0.1,0,0.2,0,0.3,0c0.1,0,0.2,0,0.3,0c0.2,0,0.5,0,0.7,0
			c0.1,0,0.3,0,0.4,0c0.1,0,0.1,0,0.2,0c0.3,0,0.6,0,0.9-0.1c0.1,0,0.2,0,0.4,0c0,0,0.1,0,0.1,0c0.5-0.1,1-0.1,1.5-0.2
			c0,0,0.1,0,0.1,0c0.2,0,0.3-0.1,0.4-0.1c0.2-0.1,0.5-0.1,0.7-0.2c0.2,0,0.4-0.1,0.5-0.1c0.2-0.1,0.5-0.1,0.7-0.2
			c0.1,0,0.1,0,0.2,0c0.1,0,0.2-0.1,0.2-0.1c0.4-0.1,0.7-0.3,1.1-0.4c0.1-0.1,0.3-0.1,0.4-0.2c0.4-0.2,0.9-0.4,1.3-0.6l38.6-22.4v-7
			L289,476.3z"/>
		<linearGradient id="SVGID_15_" gradientUnits="userSpaceOnUse" x1="54.9267" y1="352.1081" x2="410.7823" y2="431.6147">
			<stop  offset="0" style="stop-color:#D0D2D3"/>
			<stop  offset="1" style="stop-color:#A6A8AB"/>
		</linearGradient>
		<path class="st23" d="M30.4,338.2c-2.7-1.6-4-3.6-4-5.6c0,2.4,0,4.7,0,7.1c0,2,1.3,4.1,4,5.6l41.3,23.8V362L30.4,338.2z"/>
		<linearGradient id="SVGID_16_" gradientUnits="userSpaceOnUse" x1="-20.8292" y1="335.1824" x2="71.8159" y2="355.8815">
			<stop  offset="0" style="stop-color:#A6A8AB"/>
			<stop  offset="0.5" style="stop-color:#FFFFFF"/>
			<stop  offset="1" style="stop-color:#A6A8AB"/>
		</linearGradient>
		<path class="st24" d="M30.4,338.2c-2.7-1.6-4-3.6-4-5.6c0,2.4,0,4.7,0,7.1c0,2,1.3,4.1,4,5.6l41.3,23.8V362L30.4,338.2z"/>
	</g>
	<g>
		<g>
			<polyline class="st25" points="162.9,416.7 134.7,400.4 134.7,403.6 162.9,419.9 162.9,416.7 			"/>
		</g>
		<polygon class="st26" points="135.1,403.3 135.1,400.6 134.7,400.4 134.7,403.6 162.9,419.9 162.9,419.4 		"/>
	</g>
	<g>
		<g>
			<polyline class="st25" points="418.5,403.1 430.1,396.4 430.1,399.6 418.5,406.3 418.5,403.1 			"/>
		</g>
		<polygon class="st26" points="429.7,399.3 429.7,396.6 430.1,396.4 430.1,399.6 418.5,406.3 418.5,405.8 		"/>
	</g>
	<g>
		<g>
			<polyline class="st25" points="404.7,411.1 416.2,404.5 416.3,407.6 404.7,414.3 404.7,411.1 			"/>
		</g>
		<polygon class="st26" points="415.9,407.3 415.9,404.7 416.2,404.5 416.3,407.6 404.7,414.3 404.7,413.8 		"/>
	</g>
	<g>
		<polyline class="st27" points="227.1,271.8 211.8,262.9 196.5,271.8 211.9,280.6 227.1,271.8 		"/>
		<polyline class="st27" points="245.5,282.4 230.2,273.5 214.9,282.4 230.3,291.2 245.5,282.4 		"/>
		<polyline class="st27" points="264,293 248.6,284.2 233.4,293 248.7,301.9 264,293 		"/>
		<polyline class="st27" points="282.4,303.7 267,294.8 251.8,303.7 267.1,312.5 282.4,303.7 		"/>
		<polyline class="st27" points="300.8,314.3 285.5,305.4 270.2,314.3 285.6,323.2 300.8,314.3 		"/>
		<polyline class="st27" points="319.2,324.9 303.9,316.1 288.6,324.9 304,333.8 319.2,324.9 		"/>
		<polyline class="st27" points="337.7,335.6 322.3,326.7 307,335.6 322.4,344.4 337.7,335.6 		"/>
		<polyline class="st27" points="356.1,346.2 340.7,337.3 325.5,346.2 340.8,355.1 356.1,346.2 		"/>
		<polyline class="st27" points="374.5,356.8 359.1,348 343.9,356.8 359.2,365.7 374.5,356.8 		"/>
		<polyline class="st27" points="392.9,367.5 377.6,358.6 362.3,367.5 377.7,376.3 392.9,367.5 		"/>
		<polyline class="st27" points="227.9,292.6 212.6,283.8 197.3,292.6 212.7,301.5 227.9,292.6 		"/>
		<polyline class="st27" points="246.3,303.3 231,294.4 215.7,303.3 231.1,312.1 246.3,303.3 		"/>
		<polyline class="st27" points="264.8,313.9 249.4,305 234.2,313.9 249.5,322.8 264.8,313.9 		"/>
		<polyline class="st27" points="283.2,324.5 267.8,315.7 252.6,324.5 267.9,333.4 283.2,324.5 		"/>
		<polyline class="st27" points="301.6,335.2 286.3,326.3 271,335.2 286.4,344 301.6,335.2 		"/>
		<polyline class="st27" points="320,345.8 304.7,336.9 289.4,345.8 304.8,354.7 320,345.8 		"/>
		<polyline class="st27" points="338.4,356.4 323.1,347.6 307.8,356.4 323.2,365.3 338.4,356.4 		"/>
		<polyline class="st27" points="356.9,367.1 341.5,358.2 326.3,367.1 341.6,375.9 356.9,367.1 		"/>
		<polyline class="st27" points="375.3,377.7 359.9,368.9 344.7,377.7 360,386.6 375.3,377.7 		"/>
		<polyline class="st27" points="210.3,302.9 194.9,294 179.7,302.9 195,311.7 210.3,302.9 		"/>
		<polyline class="st27" points="228.7,313.5 213.4,304.6 198.1,313.5 213.5,322.4 228.7,313.5 		"/>
		<polyline class="st27" points="247.1,324.1 231.8,315.3 216.5,324.1 231.9,333 247.1,324.1 		"/>
		<polyline class="st27" points="265.6,334.8 250.2,325.9 235,334.8 250.3,343.6 265.6,334.8 		"/>
		<polyline class="st27" points="284,345.4 268.6,336.6 253.4,345.4 268.7,354.3 284,345.4 		"/>
		<polyline class="st27" points="302.4,356.1 287,347.2 271.8,356.1 287.1,364.9 302.4,356.1 		"/>
		<polyline class="st27" points="320.8,366.7 305.5,357.8 290.2,366.7 305.6,375.5 320.8,366.7 		"/>
		<polyline class="st27" points="339.2,377.3 323.9,368.5 308.6,377.3 324,386.2 339.2,377.3 		"/>
		<polyline class="st27" points="357.7,388 342.3,379.1 327.1,388 342.4,396.8 357.7,388 		"/>
		<polyline class="st27" points="211.1,323.7 195.7,314.9 180.5,323.7 195.8,332.6 211.1,323.7 		"/>
		<polyline class="st27" points="229.5,334.4 214.2,325.5 198.9,334.4 214.3,343.2 229.5,334.4 		"/>
		<polyline class="st27" points="247.9,345 232.6,336.2 217.3,345 232.7,353.9 247.9,345 		"/>
		<polyline class="st27" points="266.4,355.7 251,346.8 235.8,355.7 251.1,364.5 266.4,355.7 		"/>
		<polyline class="st27" points="284.8,366.3 269.4,357.4 254.2,366.3 269.5,375.2 284.8,366.3 		"/>
		<polyline class="st27" points="303.2,376.9 287.8,368.1 272.6,376.9 287.9,385.8 303.2,376.9 		"/>
		<polyline class="st27" points="156.6,312.7 141.3,303.9 126,312.7 141.4,321.6 156.6,312.7 		"/>
		<polyline class="st27" points="175,323.4 159.7,314.5 144.4,323.4 159.8,332.2 175,323.4 		"/>
		<polyline class="st27" points="304,397.8 288.6,388.9 273.4,397.8 288.7,406.7 304,397.8 		"/>
		<polyline class="st27" points="322.4,408.4 307.1,399.6 291.8,408.4 307.2,417.3 322.4,408.4 		"/>
		<polyline class="st27" points="285.6,387.2 178.1,325.1 162.9,334 270.3,396 285.6,387.2 		"/>
		<polyline class="st27" points="192.7,313.1 158.9,293.6 143.6,302.5 177.4,322 192.7,313.1 		"/>
		<polyline class="st27" points="340,398.2 306.3,378.7 291,387.6 324.8,407.1 340,398.2 		"/>
		<polyline class="st27" points="209.5,282 194.1,273.1 161.3,292.2 176.6,301.1 209.5,282 		"/>
		<polyline class="st27" points="243.8,390.1 173.2,349.4 122.7,378.7 193.3,419.5 243.8,390.1 		"/>
	</g>
	<g>
		<polyline class="st13" points="227.1,270.8 211.8,261.9 196.5,270.8 211.9,279.7 227.1,270.8 		"/>
		<polyline class="st13" points="245.5,281.4 230.2,272.6 214.9,281.4 230.3,290.3 245.5,281.4 		"/>
		<polyline class="st13" points="264,292.1 248.6,283.2 233.4,292.1 248.7,300.9 264,292.1 		"/>
		<polyline class="st13" points="282.4,302.7 267,293.8 251.8,302.7 267.1,311.6 282.4,302.7 		"/>
		<polyline class="st13" points="300.8,313.3 285.5,304.5 270.2,313.3 285.6,322.2 300.8,313.3 		"/>
		<polyline class="st13" points="319.2,324 303.9,315.1 288.6,324 304,332.8 319.2,324 		"/>
		<polyline class="st13" points="337.7,334.6 322.3,325.7 307,334.6 322.4,343.5 337.7,334.6 		"/>
		<polyline class="st13" points="356.1,345.2 340.7,336.4 325.5,345.2 340.8,354.1 356.1,345.2 		"/>
		<polyline class="st13" points="374.5,355.9 359.1,347 343.9,355.9 359.2,364.7 374.5,355.9 		"/>
		<polyline class="st13" points="392.9,366.5 377.6,357.6 362.3,366.5 377.7,375.4 392.9,366.5 		"/>
		<polyline class="st13" points="227.9,291.7 212.6,282.8 197.3,291.7 212.7,300.5 227.9,291.7 		"/>
		<polyline class="st13" points="246.3,302.3 231,293.4 215.7,302.3 231.1,311.2 246.3,302.3 		"/>
		<polyline class="st13" points="264.8,312.9 249.4,304.1 234.2,312.9 249.5,321.8 264.8,312.9 		"/>
		<polyline class="st13" points="283.2,323.6 267.8,314.7 252.6,323.6 267.9,332.4 283.2,323.6 		"/>
		<polyline class="st13" points="301.6,334.2 286.3,325.3 271,334.2 286.4,343.1 301.6,334.2 		"/>
		<polyline class="st13" points="320,344.8 304.7,336 289.4,344.8 304.8,353.7 320,344.8 		"/>
		<polyline class="st13" points="338.4,355.5 323.1,346.6 307.8,355.5 323.2,364.3 338.4,355.5 		"/>
		<polyline class="st13" points="356.9,366.1 341.5,357.3 326.3,366.1 341.6,375 356.9,366.1 		"/>
		<polyline class="st13" points="375.3,376.8 359.9,367.9 344.7,376.8 360,385.6 375.3,376.8 		"/>
		<polyline class="st13" points="210.3,301.9 194.9,293 179.7,301.9 195,310.8 210.3,301.9 		"/>
		<polyline class="st13" points="228.7,312.5 213.4,303.7 198.1,312.5 213.5,321.4 228.7,312.5 		"/>
		<polyline class="st13" points="247.1,323.2 231.8,314.3 216.5,323.2 231.9,332 247.1,323.2 		"/>
		<polyline class="st13" points="265.6,333.8 250.2,325 235,333.8 250.3,342.7 265.6,333.8 		"/>
		<polyline class="st13" points="284,344.5 268.6,335.6 253.4,344.5 268.7,353.3 284,344.5 		"/>
		<polyline class="st13" points="302.4,355.1 287,346.2 271.8,355.1 287.1,364 302.4,355.1 		"/>
		<polyline class="st13" points="320.8,365.7 305.5,356.9 290.2,365.7 305.6,374.6 320.8,365.7 		"/>
		<polyline class="st13" points="339.2,376.4 323.9,367.5 308.6,376.4 324,385.2 339.2,376.4 		"/>
		<polyline class="st13" points="357.7,387 342.3,378.1 327.1,387 342.4,395.9 357.7,387 		"/>
		<polyline class="st13" points="211.1,322.8 195.7,313.9 180.5,322.8 195.8,331.7 211.1,322.8 		"/>
		<polyline class="st13" points="229.5,333.4 214.2,324.6 198.9,333.4 214.3,342.3 229.5,333.4 		"/>
		<polyline class="st13" points="247.9,344.1 232.6,335.2 217.3,344.1 232.7,352.9 247.9,344.1 		"/>
		<polyline class="st13" points="266.4,354.7 251,345.8 235.8,354.7 251.1,363.6 266.4,354.7 		"/>
		<polyline class="st13" points="284.8,365.3 269.4,356.5 254.2,365.3 269.5,374.2 284.8,365.3 		"/>
		<polyline class="st13" points="303.2,376 287.8,367.1 272.6,376 287.9,384.8 303.2,376 		"/>
		<polyline class="st13" points="156.6,311.8 141.3,302.9 126,311.8 141.4,320.6 156.6,311.8 		"/>
		<polyline class="st13" points="175,322.4 159.7,313.5 144.4,322.4 159.8,331.3 175,322.4 		"/>
		<polyline class="st13" points="304,396.8 288.6,388 273.4,396.8 288.7,405.7 304,396.8 		"/>
		<polyline class="st13" points="322.4,407.5 307.1,398.6 291.8,407.5 307.2,416.3 322.4,407.5 		"/>
		<polyline class="st13" points="285.6,386.2 178.1,324.2 162.9,333 270.3,395.1 285.6,386.2 		"/>
		<polyline class="st13" points="192.7,312.2 158.9,292.7 143.6,301.5 177.4,321 192.7,312.2 		"/>
		<polyline class="st13" points="340,397.2 306.3,377.7 291,386.6 324.8,406.1 340,397.2 		"/>
		<polyline class="st13" points="209.5,281 194.1,272.2 161.3,291.3 176.6,300.1 209.5,281 		"/>
		<polyline class="st13" points="243.8,389.2 173.2,348.4 122.7,377.7 193.3,418.5 243.8,389.2 		"/>
	</g>
	<path class="st28" d="M-324-1021.8c8.4-4.9,16.7-9.7,25.1-14.6c10.9-6.3,25.9-5.4,42.5,4.2l-25.1,14.6
		C-298.1-1027.2-313.2-1028.1-324-1021.8z"/>
	<g>
		<linearGradient id="SVGID_17_" gradientUnits="userSpaceOnUse" x1="442.1537" y1="188.7407" x2="204.9208" y2="236.1876">
			<stop  offset="0" style="stop-color:#E6E7E8"/>
			<stop  offset="1" style="stop-color:#F1F1F2"/>
		</linearGradient>
		<path class="st29" d="M438.3,185.7c5.3,3.1,9.7,10.6,9.6,16.7l-0.5,171.4c0,6.1-4.4,8.6-9.7,5.5L198.5,241.2
			c-5.3-3.1-9.7-10.6-9.6-16.7l0.5-171.4c0-6.1,4.4-8.6,9.7-5.5L438.3,185.7z"/>
	</g>
	<g>
		<path class="st25" d="M442.1,375.9c-0.2,0-0.9-0.1-1.9-0.7L201,237.1c-3.9-2.2-7.2-8.1-7.2-12.5l0.5-171.4c0-1.3,0.3-1.9,0.4-2.1
			c0,0,0.1,0,0.1,0c0.2,0,0.9,0.1,1.9,0.7l239.2,138.1c3.9,2.2,7.2,8.1,7.2,12.5l-0.5,171.4c0,1.3-0.3,1.9-0.4,2.1
			C442.2,375.9,442.2,375.9,442.1,375.9z"/>
	</g>
	<g>
		<path class="st30" d="M203.4,232.9c-2.4-1.4-4.8-5.6-4.8-8.3L199,58.6l234.5,135.4c2.4,1.4,4.8,5.6,4.8,8.3l-0.5,165.9
			L203.4,232.9z"/>
	</g>
	<g>
		<g>
			<path class="st31" d="M196.3,44.6l-4.1,2.4c0.2-0.1,0.5-0.3,0.8-0.4l4.1-2.4C196.8,44.3,196.5,44.4,196.3,44.6z"/>
			<linearGradient id="SVGID_18_" gradientUnits="userSpaceOnUse" x1="244.2802" y1="18.4756" x2="454.4241" y2="294.9811">
				<stop  offset="0" style="stop-color:#D0D2D3"/>
				<stop  offset="1" style="stop-color:#A6A8AB"/>
			</linearGradient>
			<path class="st32" d="M452,199.6c0-0.2,0-0.3,0-0.5c0-0.1,0-0.1,0-0.2c0,0,0-0.1,0-0.1c0-0.1,0-0.1,0-0.2c0-0.2,0-0.3-0.1-0.5
				c0-0.2,0-0.3-0.1-0.5c0-0.2-0.1-0.3-0.1-0.5c0-0.2-0.1-0.3-0.1-0.5c0-0.1,0-0.1,0-0.2c0,0,0-0.1,0-0.1c0-0.1,0-0.1-0.1-0.2
				c0-0.2-0.1-0.3-0.1-0.5c0-0.1-0.1-0.2-0.1-0.4c0,0,0-0.1,0-0.1c0,0,0,0,0-0.1c-0.1-0.2-0.1-0.3-0.2-0.5c-0.1-0.2-0.1-0.3-0.2-0.5
				c0,0,0-0.1,0-0.1c0,0,0,0,0-0.1c0-0.1-0.1-0.2-0.1-0.3c-0.1-0.2-0.1-0.3-0.2-0.5c0-0.1-0.1-0.2-0.1-0.3c0,0,0,0,0-0.1
				c0,0,0,0,0-0.1c-0.1-0.2-0.1-0.3-0.2-0.5c-0.1-0.2-0.2-0.3-0.2-0.5c0,0,0-0.1,0-0.1c0,0,0-0.1,0-0.1c-0.1-0.1-0.1-0.3-0.2-0.4
				c-0.1-0.2-0.2-0.3-0.3-0.5c0-0.1-0.1-0.2-0.1-0.2c0,0,0-0.1-0.1-0.1c-0.1-0.1-0.2-0.3-0.3-0.4c-0.1-0.2-0.2-0.4-0.4-0.6
				c0,0,0-0.1-0.1-0.1c-0.2-0.3-0.4-0.6-0.6-0.9c-0.1-0.2-0.3-0.4-0.4-0.6c-0.1-0.1-0.2-0.3-0.4-0.4c0,0,0,0,0,0c0,0,0,0,0,0
				c-0.1-0.1-0.2-0.3-0.4-0.4c-0.1-0.1-0.2-0.3-0.4-0.4c0,0,0,0-0.1-0.1c0,0,0,0-0.1-0.1c-0.1-0.1-0.2-0.2-0.3-0.3
				c-0.1-0.1-0.3-0.3-0.4-0.4c0,0-0.1-0.1-0.1-0.1c0,0-0.1-0.1-0.1-0.1c-0.1-0.1-0.1-0.1-0.2-0.2c-0.1-0.1-0.3-0.3-0.4-0.4
				c-0.1-0.1-0.1-0.1-0.2-0.2c0,0-0.1-0.1-0.1-0.1c0,0-0.1-0.1-0.1-0.1c-0.1-0.1-0.3-0.2-0.4-0.3c-0.1-0.1-0.2-0.2-0.3-0.2
				c0,0,0,0,0,0c0,0,0,0-0.1,0c-0.1-0.1-0.3-0.2-0.4-0.3c-0.1-0.1-0.3-0.2-0.4-0.3c0,0-0.1,0-0.1-0.1L203.2,45.2
				c-0.1-0.1-0.2-0.1-0.3-0.2c-0.1-0.1-0.3-0.1-0.4-0.2c-0.1-0.1-0.3-0.1-0.4-0.2c-0.1-0.1-0.3-0.1-0.4-0.2
				c-0.1-0.1-0.3-0.1-0.4-0.1c-0.1,0-0.3-0.1-0.4-0.1c-0.1,0-0.3-0.1-0.4-0.1c-0.1,0-0.3-0.1-0.4-0.1c-0.1,0-0.3-0.1-0.4-0.1
				c-0.1,0-0.3,0-0.4,0c-0.2,0-0.3,0-0.5,0l0,0c-0.2,0-0.3,0-0.5,0c-0.2,0-0.4,0-0.6,0.1c-0.2,0-0.5,0.1-0.7,0.2l-4.1,2.4
				c0.2-0.1,0.4-0.1,0.7-0.2c0.2,0,0.4-0.1,0.6-0.1c0.2,0,0.3,0,0.5,0c0.2,0,0.3,0,0.5,0c0.1,0,0.3,0,0.4,0c0.1,0,0.3,0,0.4,0.1
				c0.1,0,0.3,0.1,0.4,0.1c0.1,0,0.3,0.1,0.4,0.1c0.1,0,0.3,0.1,0.4,0.1c0.1,0,0.3,0.1,0.4,0.1h0c0.1,0.1,0.3,0.1,0.4,0.2
				c0.1,0.1,0.3,0.1,0.4,0.2c0.1,0.1,0.3,0.1,0.4,0.2c0.1,0.1,0.2,0.1,0.3,0.2l239.2,138.1c0.3,0.2,0.7,0.4,1,0.6c0,0,0,0,0,0
				c0.3,0.2,0.6,0.4,0.9,0.7c0,0,0.1,0.1,0.1,0.1c0.3,0.2,0.6,0.5,0.8,0.7c0,0,0.1,0.1,0.1,0.1c0.3,0.3,0.5,0.5,0.8,0.8
				c0,0,0,0,0.1,0.1c0.8,0.9,1.6,1.9,2.3,2.9c0.1,0.2,0.3,0.4,0.4,0.6c0.1,0.2,0.2,0.4,0.3,0.5c0,0.1,0.1,0.2,0.1,0.2
				c0.2,0.3,0.3,0.6,0.5,0.9c0,0,0,0.1,0,0.1c0.2,0.4,0.4,0.8,0.5,1.1c0,0,0,0,0,0c0.2,0.4,0.3,0.7,0.5,1.1c0,0,0,0,0,0.1
				c0.1,0.4,0.3,0.8,0.4,1.1c0,0,0,0.1,0,0.1c0.1,0.4,0.2,0.7,0.3,1.1c0,0,0,0.1,0,0.1c0.1,0.4,0.2,0.7,0.2,1.1c0,0,0,0,0,0.1
				c0.1,0.4,0.1,0.7,0.1,1.1c0,0,0,0.1,0,0.1c0,0.4,0,0.7,0,1.1l-0.5,171.4c0,0.4,0,0.7,0,1.1c0,0,0,0.1,0,0.1
				c0,0.3-0.1,0.6-0.1,0.9c0,0,0,0.1,0,0.1c-0.1,0.3-0.1,0.5-0.2,0.8c0,0,0,0.1,0,0.1c-0.1,0.2-0.2,0.5-0.3,0.7c0,0,0,0,0,0.1
				c-0.1,0.2-0.2,0.5-0.4,0.7c0,0,0,0.1-0.1,0.1c-0.1,0.2-0.2,0.3-0.4,0.5c0,0.1-0.1,0.1-0.2,0.2c-0.1,0.1-0.2,0.2-0.4,0.3
				c-0.1,0-0.1,0.1-0.2,0.1c-0.2,0.1-0.4,0.3-0.6,0.4l4.1-2.4c0.2-0.1,0.4-0.2,0.6-0.4c0.1,0,0.1-0.1,0.2-0.1
				c0.1-0.1,0.2-0.2,0.4-0.4c0.1-0.1,0.1-0.1,0.2-0.2c0.1-0.2,0.3-0.3,0.4-0.5c0,0,0-0.1,0.1-0.1c0,0,0,0,0,0
				c0.1-0.2,0.3-0.4,0.4-0.7c0,0,0,0,0,0c0,0,0,0,0-0.1c0.1-0.1,0.1-0.3,0.2-0.5c0-0.1,0.1-0.2,0.1-0.2c0,0,0-0.1,0-0.1
				c0,0,0-0.1,0-0.1c0-0.2,0.1-0.3,0.1-0.5c0-0.1,0-0.1,0-0.2c0,0,0-0.1,0-0.1c0-0.1,0-0.1,0-0.2c0-0.2,0.1-0.3,0.1-0.5
				c0-0.1,0-0.2,0-0.3c0,0,0-0.1,0-0.1c0,0,0-0.1,0-0.1c0-0.2,0-0.3,0-0.5c0-0.2,0-0.3,0-0.5c0,0,0,0,0,0l0.5-171.4
				C452,199.9,452,199.8,452,199.6z"/>
		</g>
		<g>
			<linearGradient id="SVGID_19_" gradientUnits="userSpaceOnUse" x1="448.1655" y1="344.9552" x2="448.1655" y2="380.8833">
				<stop  offset="0" style="stop-color:#FFFFFF"/>
				<stop  offset="1" style="stop-color:#58595B"/>
			</linearGradient>
			<path class="st33" d="M447.4,374.9c0,0,0,0.1,0,0.1c0,0.3-0.1,0.6-0.1,0.9c0,0,0,0.1,0,0.1c-0.1,0.3-0.1,0.5-0.2,0.8
				c0,0,0,0.1,0,0.1c-0.1,0.2-0.2,0.5-0.3,0.7c0,0,0,0,0,0.1c-0.1,0.2-0.2,0.5-0.4,0.7c0,0,0,0.1-0.1,0.1c-0.1,0.2-0.2,0.3-0.4,0.5
				c0,0.1-0.1,0.1-0.2,0.2c-0.1,0.1-0.2,0.2-0.4,0.3c-0.1,0-0.1,0.1-0.2,0.1c-0.2,0.1-0.4,0.3-0.6,0.4l4.1-2.4
				c0.2-0.1,0.4-0.2,0.6-0.4c0.1,0,0.1-0.1,0.2-0.1c0.1-0.1,0.2-0.2,0.4-0.4c0.1-0.1,0.1-0.1,0.2-0.2c0.1-0.2,0.3-0.3,0.4-0.5
				c0,0,0-0.1,0.1-0.1c0,0,0,0,0,0c0.1-0.2,0.3-0.4,0.4-0.7c0,0,0,0,0,0c0,0,0,0,0-0.1c0.1-0.1,0.1-0.3,0.2-0.5
				c0-0.1,0.1-0.2,0.1-0.2c0,0,0-0.1,0-0.1c0,0,0-0.1,0-0.1c0-0.2,0.1-0.3,0.1-0.5c0-0.1,0-0.1,0-0.2c0,0,0-0.1,0-0.1
				c0-0.1,0-0.1,0-0.2c0-0.2,0.1-0.3,0.1-0.5c0-0.1,0-0.2,0-0.3c0,0,0-0.1,0-0.1c0,0,0-0.1,0-0.1c0-0.2,0-0.3,0-0.5
				c0-0.2,0-0.3,0-0.5c0,0,0,0,0,0l0.1-36.7l-4.1,2.4l-0.1,36.7C447.5,374.2,447.5,374.6,447.4,374.9z"/>
			<linearGradient id="SVGID_20_" gradientUnits="userSpaceOnUse" x1="435.712" y1="179.5329" x2="435.712" y2="225.2733">
				<stop  offset="0" style="stop-color:#A6A8AB"/>
				<stop  offset="0.5" style="stop-color:#FFFFFF"/>
				<stop  offset="1" style="stop-color:#A6A8AB"/>
			</linearGradient>
			<path class="st34" d="M452,200.1c0-0.1,0-0.3,0-0.4c0-0.2,0-0.3,0-0.5c0-0.1,0-0.1,0-0.2c0,0,0-0.1,0-0.1c0-0.1,0-0.1,0-0.2
				c0-0.2,0-0.3-0.1-0.5c0-0.2,0-0.3-0.1-0.5c0-0.2-0.1-0.3-0.1-0.5c0-0.2-0.1-0.3-0.1-0.5c0-0.1,0-0.1,0-0.2c0,0,0-0.1,0-0.1
				c0-0.1,0-0.1-0.1-0.2c0-0.2-0.1-0.3-0.1-0.5c0-0.1-0.1-0.2-0.1-0.4c0,0,0-0.1,0-0.1c0,0,0,0,0-0.1c-0.1-0.2-0.1-0.3-0.2-0.5
				c-0.1-0.2-0.1-0.3-0.2-0.5c0,0,0-0.1,0-0.1c0,0,0,0,0-0.1c0-0.1-0.1-0.2-0.1-0.3c-0.1-0.2-0.1-0.3-0.2-0.5c0-0.1-0.1-0.2-0.1-0.3
				c0,0,0,0,0-0.1c0,0,0,0,0-0.1c-0.1-0.2-0.1-0.3-0.2-0.5c-0.1-0.2-0.2-0.3-0.2-0.5c0,0,0-0.1,0-0.1c0,0,0-0.1,0-0.1
				c-0.1-0.1-0.1-0.3-0.2-0.4c-0.1-0.2-0.2-0.3-0.3-0.5c0-0.1-0.1-0.2-0.1-0.2c0,0,0-0.1-0.1-0.1c-0.1-0.1-0.2-0.3-0.3-0.4
				c-0.1-0.2-0.2-0.4-0.4-0.6c0,0,0-0.1-0.1-0.1c-0.2-0.3-0.4-0.6-0.6-0.9c-0.1-0.2-0.3-0.4-0.4-0.6c-0.1-0.1-0.2-0.3-0.4-0.4
				c0,0,0,0,0,0c0,0,0,0,0,0c-0.1-0.1-0.2-0.3-0.4-0.4c-0.1-0.1-0.2-0.3-0.4-0.4c0,0,0,0-0.1-0.1c0,0,0,0-0.1-0.1
				c-0.1-0.1-0.2-0.2-0.3-0.3c-0.1-0.1-0.3-0.3-0.4-0.4c0,0-0.1-0.1-0.1-0.1c0,0-0.1-0.1-0.1-0.1c-0.1-0.1-0.1-0.1-0.2-0.2
				c-0.1-0.1-0.3-0.3-0.4-0.4c-0.1-0.1-0.1-0.1-0.2-0.2c0,0-0.1-0.1-0.1-0.1c0,0-0.1-0.1-0.1-0.1c-0.1-0.1-0.3-0.2-0.4-0.3
				c-0.1-0.1-0.2-0.2-0.3-0.2c0,0,0,0,0,0c0,0,0,0-0.1,0c-0.1-0.1-0.3-0.2-0.4-0.3c-0.1-0.1-0.3-0.2-0.4-0.3c0,0-0.1,0-0.1-0.1
				l-19-10.9l-4.1,2.4l19,10.9c0.3,0.2,0.7,0.4,1,0.6c0,0,0,0,0,0c0.3,0.2,0.6,0.4,0.9,0.7c0,0,0.1,0.1,0.1,0.1
				c0.3,0.2,0.6,0.5,0.8,0.7c0,0,0.1,0.1,0.1,0.1c0.3,0.3,0.5,0.5,0.8,0.8c0,0,0,0,0.1,0.1c0.8,0.9,1.6,1.9,2.3,2.9
				c0.1,0.2,0.3,0.4,0.4,0.6c0.1,0.2,0.2,0.4,0.3,0.5c0,0.1,0.1,0.2,0.1,0.2c0.2,0.3,0.3,0.6,0.5,0.9c0,0,0,0.1,0,0.1
				c0.2,0.4,0.4,0.8,0.5,1.1c0,0,0,0,0,0c0.2,0.4,0.3,0.7,0.5,1.1c0,0,0,0,0,0.1c0.1,0.4,0.3,0.8,0.4,1.1c0,0,0,0.1,0,0.1
				c0.1,0.4,0.2,0.7,0.3,1.1c0,0,0,0.1,0,0.1c0.1,0.4,0.2,0.7,0.2,1.1c0,0,0,0,0,0.1c0.1,0.4,0.1,0.7,0.1,1.1c0,0,0,0.1,0,0.1
				c0,0.4,0,0.7,0,1.1l-0.1,25.4l4.1-2.4L452,200.1z"/>
			<linearGradient id="SVGID_21_" gradientUnits="userSpaceOnUse" x1="219.3414" y1="27.2544" x2="219.3414" y2="62.4107">
				<stop  offset="0" style="stop-color:#A6A8AB"/>
				<stop  offset="0.5" style="stop-color:#FFFFFF"/>
				<stop  offset="1" style="stop-color:#A6A8AB"/>
			</linearGradient>
			<path class="st35" d="M203.2,45.2c-0.1-0.1-0.2-0.1-0.3-0.2c-0.1-0.1-0.3-0.1-0.4-0.2c-0.1-0.1-0.3-0.1-0.4-0.2
				c-0.1-0.1-0.3-0.1-0.4-0.2c-0.1-0.1-0.3-0.1-0.4-0.1c-0.1,0-0.3-0.1-0.4-0.1c-0.1,0-0.3-0.1-0.4-0.1c-0.1,0-0.3-0.1-0.4-0.1
				c-0.1,0-0.3-0.1-0.4-0.1c-0.1,0-0.3,0-0.4,0c-0.2,0-0.3,0-0.5,0l0,0c-0.2,0-0.3,0-0.5,0c-0.2,0-0.4,0-0.6,0.1
				c-0.2,0-0.5,0.1-0.7,0.2l-4.1,2.4c0.2-0.1,0.4-0.1,0.7-0.2c0.2,0,0.4-0.1,0.6-0.1c0.2,0,0.3,0,0.5,0c0.2,0,0.3,0,0.5,0
				c0.1,0,0.3,0,0.4,0c0.1,0,0.3,0,0.4,0.1c0.1,0,0.3,0.1,0.4,0.1c0.1,0,0.3,0.1,0.4,0.1c0.1,0,0.3,0.1,0.4,0.1
				c0.1,0,0.3,0.1,0.4,0.1h0c0.1,0.1,0.3,0.1,0.4,0.2c0.1,0.1,0.3,0.1,0.4,0.2c0.1,0.1,0.3,0.1,0.4,0.2c0.1,0.1,0.2,0.1,0.3,0.2
				l42.5,24.6l4.1-2.4L203.2,45.2z"/>
		</g>
	</g>
	<path class="st36" d="M201.1,237.2l239.2,138.1c1.1,0.6,1.7,0.7,1.9,0.7c0.1,0,0.1,0,0.1,0c0.1-0.1,0.4-0.7,0.4-2.1l0.5-171.4
		c0-4.4-3.4-10.3-7.2-12.5l-12.9-7.4C380,182.2,286,187,194.4,228C195.5,231.7,198.1,235.5,201.1,237.2z"/>
	<path class="st37" d="M192.2,286.9c0,0,0.1,0,0.2,0l0,0c0.1,0,0.1,0,0.1,0c0.1,0,0.1-0.1,0.1-0.2l0-0.1l-0.1-0.1
		c-0.1-0.1-0.2-0.1-0.3,0c-0.1,0-0.1,0.1-0.1,0.2L192.2,286.9L192.2,286.9z M192.3,286.7l0.1,0.1c0,0-0.1,0-0.1,0
		c0,0-0.1-0.1-0.1-0.1L192.3,286.7z"/>
	<g>
		<path class="st38" d="M182.9,380.4C182.9,380.4,182.9,380.4,182.9,380.4C182.8,380.4,182.8,380.4,182.9,380.4
			C182.8,380.4,182.9,380.4,182.9,380.4C182.9,380.4,182.9,380.4,182.9,380.4 M204.1,392.3c-11.4,6.8-30.1,7-41.9,0.4
			s-12-17.4-0.6-24.2s30.1-7,41.9-0.4C215.2,374.6,215.5,385.5,204.1,392.3L204.1,392.3z"/>
		<path class="st39" d="M158.7,267.7l-2.5,2.2c-1.6,1.4-3.9,3.3-6.6,5.6l-4.5,3.7c-1.6,1.3-3.3,2.7-5,4.1c-1.8,1.4-3.6,2.8-5.4,4.3
			c-1.9,1.4-3.7,2.9-5.7,4.3l-2.9,2.1l-2.9,2.1c-1.9,1.4-3.8,2.7-5.7,4s-3.7,2.5-5.4,3.6l-1.3,0.8l-1.3,0.8l-2.4,1.5
			c-1.5,1-3,1.7-4.3,2.4l-1.8,1l-1.6,0.8l-3,1.4c-1.6,0.8-3.4,0.1-4.2-1.4c-0.7-1.4-0.3-3.1,1-3.9l0.2-0.2l2.5-1.8l1.3-1l1.5-1.2
			c1.1-0.9,2.3-1.8,3.6-3l2-1.8l1-0.9l1.1-1c1.4-1.4,2.9-2.7,4.5-4.3c1.5-1.6,3.1-3.1,4.7-4.8l2.4-2.5c0.8-0.9,1.6-1.7,2.3-2.6
			c1.6-1.7,3.1-3.4,4.6-5.1c1.5-1.7,3-3.4,4.4-5c1.4-1.6,2.8-3.3,4.1-4.8l3.6-4.3c2.2-2.7,4-4.9,5.3-6.5l1.9-2.5l0-0.1
			c3.6-4.3,10-4.9,14.3-1.3c4.2,3.5,4.9,9.6,1.7,13.9C159.6,266.8,159.2,267.3,158.7,267.7z"/>
		<path class="st40" d="M254.5,273.1c0-0.9,0.1-1.7,0.1-2.6c0,0,0-0.1,0-0.1v0c0,0,0,0,0,0c0,0,0,0,0-0.1c0-0.3,0-0.6,0-0.9l0,0
			c0,0.5,0,0.9,0,1.3c0,0,0,0.1,0,0.1v0.2c0,0.1,0,0.2,0,0.3c0,0.3-0.1,0.6-0.1,0.9c0,0,0,0.1,0,0.1c0,0.2,0,0.3-0.1,0.5
			c0,0.3-0.1,0.6-0.1,0.9c0,0.2-0.1,0.4-0.1,0.6c-0.1,0.3-0.1,0.5-0.2,0.8c-0.1,0.2-0.1,0.4-0.2,0.6c-0.1,0.3-0.2,0.6-0.3,0.8
			c-0.1,0.2-0.1,0.4-0.2,0.6l0,0c-0.1,0.3-0.2,0.6-0.3,0.9c-0.1,0.2-0.1,0.3-0.2,0.5c-0.2,0.4-0.3,0.7-0.5,1.1c0,0.1,0,0.1-0.1,0.2
			c0,0.1-0.1,0.2-0.1,0.3c-0.2,0.4-0.4,0.7-0.6,1.1c0,0,0,0.1-0.1,0.1l-0.1,0.1c-0.2,0.3-0.4,0.6-0.5,0.9l-0.1,0.2
			c0,0-0.1,0.1-0.1,0.1c-0.2,0.3-0.4,0.6-0.6,0.9l-0.1,0.1l-0.2,0.3c-0.2,0.3-0.4,0.5-0.6,0.8c-0.1,0.1-0.2,0.2-0.3,0.3
			c-0.2,0.3-0.5,0.6-0.8,1l-0.2,0.3c-0.3,0.3-0.5,0.6-0.8,0.9l-0.2,0.3c-0.3,0.3-0.6,0.7-0.9,1c-0.1,0.1-0.2,0.2-0.2,0.2
			c-0.3,0.3-0.6,0.6-0.9,0.8l-0.1,0.1l-0.4,0.3l-0.6,0.5l-0.3,0.3c-0.3,0.2-0.5,0.4-0.8,0.6l-0.2,0.1c-0.3,0.3-0.6,0.5-1,0.8
			l-0.3,0.2c-0.2,0.2-0.5,0.4-0.7,0.6c-0.1,0.1-0.3,0.2-0.4,0.3l-0.7,0.5l-0.4,0.3l-0.7,0.5l-0.5,0.3l-0.7,0.4l-0.5,0.3
			c-0.7,0.4-1.3,0.8-2,1.2c-5,2.8-10.4,5-15.9,6.6l-0.7,0.2c-0.7,0.2-1.4,0.4-2,0.6c-0.3,0.1-0.7,0.2-1,0.2
			c-0.6,0.1-1.2,0.3-1.8,0.4l-1.1,0.2c-0.6,0.1-1.2,0.3-1.8,0.4l-1,0.2c-0.7,0.1-1.3,0.2-2,0.3l-0.9,0.1c-0.9,0.1-1.7,0.3-2.6,0.4
			c-0.2,0-0.5,0.1-0.8,0.1c-0.7,0.1-1.5,0.2-2.2,0.3l-0.4,0l-0.8,0.1c-0.6,0.1-1.3,0.1-1.9,0.2l-1.1,0.1c-0.6,0-1.2,0.1-1.9,0.1
			l-1.1,0.1l-2,0.1h-1c-0.9,0-1.7,0-2.6,0h-0.8c-0.7,0-1.3,0-2,0l-1.4-0.1l-1.6-0.1l-1.4-0.1l-1.6-0.1c-0.5,0-1-0.1-1.4-0.1
			l-1.6-0.2l-1.4-0.2l-1.6-0.2c-0.5-0.1-0.9-0.1-1.4-0.2l-1.6-0.3l-1.3-0.2l-0.1,0l-1.5-0.3l-1.1-0.2l-0.3-0.1l-0.1,0l-1.3-0.3
			l-1-0.2l-0.5-0.1c-0.5-0.1-0.9-0.2-1.4-0.4l-1-0.3l-0.3-0.1l-1.5-0.5c-0.4-0.1-0.8-0.2-1.1-0.3l-0.2-0.1h0c-0.5-0.2-1-0.3-1.5-0.5
			c-0.3-0.1-0.7-0.2-1-0.4l-0.6-0.2l-1.1-0.4l-0.8-0.3l-0.8-0.3c-0.4-0.1-0.7-0.3-1.1-0.5h0l-0.6-0.3l-0.6-0.3l-0.3-0.1
			c-0.4-0.2-0.8-0.4-1.1-0.5l0,0l-0.4-0.2l-0.4-0.2l-0.5-0.2c-0.5-0.2-0.9-0.5-1.4-0.7l-0.2-0.1L145,297l-0.3-0.1l-0.3-0.2
			c-0.7-0.4-1.5-0.8-2.2-1.2c-12.4-7.4-18.6-17-18.5-26.6c0.1,7.4,0.3,13.3,0.6,18c0,0.4,0,0.7,0.1,1.1c0.1,1.6,0.3,3.3,0.5,5.1
			c0.4,3.7,0.7,6,0.9,7.3c0.1,0.5,0.1,0.9,0.2,1.4c0,0.1,0,0.1,0,0.2c0.7,4.3,1.7,9.6,2.6,13.5c0.1,0.4,0.2,0.8,0.3,1.3
			c1.1,4.6,2.5,9.2,4.2,13.6c0.8,1.9,1.7,4.1,2.7,6.6c0.2,0.4,0.3,0.8,0.5,1.2l0.5,0.9c3.3,7.2,7.5,13.9,12.7,19.9
			c1.5,1.8,3.2,3.5,4.9,5.1c2.2,2,4.5,3.9,6.9,5.6l0,0h0c1,0.7,2.1,1.4,3.4,2.2c2.8,1.7,5.8,3.2,8.9,4.3h0c0.6,0.2,1.5,0.5,2.4,0.8
			l0,0c0.7,0.2,1.5,0.5,2.3,0.6l0,0l0,0c0.8,0.2,1.5,0.4,2.1,0.5h0c0.6,0.1,1.4,0.2,2,0.3h0.1c0.6,0.1,1.3,0.2,1.9,0.2l0,0l0.5,0
			c0.5,0,1,0.1,1.4,0.1c0.6,0,1.3,0.1,1.9,0.1l0,0c0.6,0,1.3,0,1.9,0c0.1,0,1.4,0,3.4-0.3l0.4-0.1h0.1h0.1l0.6-0.1l0.8-0.1l0.4-0.1
			h0h0.1l0.4-0.1l0.4-0.1c0.4-0.1,0.8-0.2,1.3-0.3s0.9-0.2,1.4-0.3l0,0c0.2-0.1,0.5-0.1,0.7-0.2h0.1h0.1l0.1,0l0.4-0.1l0.1,0l0.1,0
			c0.5-0.1,1-0.3,1.5-0.5l0.3-0.1c0.9-0.3,2-0.7,2.8-1.1c1.9-0.8,3.8-1.7,5.7-2.7l0.1-0.1c1.2-0.6,2.6-1.6,3.7-2.3l0.9-0.6
			c1.8-1.3,3.6-2.6,5.2-4.1l0,0c0.8-0.7,1.5-1.4,2.2-2.1s1.3-1.3,1.9-1.9l0,0l0.3-0.3l0,0l0,0c1.3-1.3,2.4-2.6,3.5-4l0.3-0.3
			c0.1-0.1,0.2-0.2,0.3-0.3l0.3-0.4l0-0.1c0.1-0.1,0.2-0.3,0.4-0.5l0.1-0.1c0.1-0.1,0.2-0.3,0.3-0.4l0.2-0.3l0.2-0.2
			c2.7-3.6,5.1-7.3,7.2-11.2c0.2-0.4,0.5-0.9,0.7-1.3l0,0l0,0v0c1.1-2.2,2.5-5,3.4-7.3c0.1-0.2,0.1-0.3,0.2-0.5
			c1.7-3.9,2.8-7.2,3.4-9.2l0-0.1c0-0.1,0.1-0.2,0.1-0.2c0.1-0.5,0.3-0.9,0.4-1.3l0.1-0.5l0.1-0.4c0.1-0.2,0.1-0.4,0.2-0.6l-0.1,0.4
			l0-0.2c0.6-2,1.1-3.7,1.5-5.4c0.4-1.3,0.7-2.6,0.9-3.8c0-0.1,0-0.1,0-0.2c1-4.1,1.5-7.4,2.1-10.7c1-5.6,1.7-11.3,2-17.1
			c0.1-0.8,0.1-1.5,0.2-2.2l0.1-2.7c0,0,0,0,0,0.1C254.4,278.3,254.5,275.6,254.5,273.1z"/>
		<path class="st40" d="M254.3,280.6c0.2-4.2,0.3-7.9,0.3-10.7L254.3,280.6z"/>
		<path class="st40" d="M143.5,241.9c25.9-14.6,67.4-14.1,92.6,0.9c25.2,15.1,24.6,39.1-1.3,53.6s-67.4,14.1-92.6-0.9
			S117.6,256.4,143.5,241.9z M189.1,269.1C189.1,269.1,189.1,269.2,189.1,269.1C189.1,269.2,189.1,269.2,189.1,269.1
			c0,0.1,0.1,0.1,0.1,0.1c0,0,0-0.1,0-0.1C189.2,269.1,189.1,269.1,189.1,269.1"/>
		<path class="st41" d="M127.9,296.5c3.2,4.7,7.9,9,14.1,12.7c12.9,7.7,30.1,11.6,47.3,11.6c3.7,0,7.5-0.2,11.2-0.6v42.6
			c-19.2,1.9-39.6-1.1-55-9.2c-0.1-0.1-0.3,0-0.3,0.1c-0.1,0.1,0,0.3,0.1,0.3c0,0,0,0,0,0c12.5,6.5,28.3,9.8,44,9.8
			c3.7,0,7.5-0.2,11.2-0.6v14c0,0.1,0.1,0.2,0.2,0.2c0.1,0,0.2-0.1,0.2-0.2v-14.1c9.6-1,18.8-3.2,27-6.7v2.9c0,0.1,0.1,0.2,0.2,0.2
			c0.1,0,0.2-0.1,0.2-0.2c0,0,0,0,0,0v-3.1c1.3-0.6,2.5-1.1,3.8-1.7c0.1-0.1,0.2-0.2,0.1-0.3c-0.1-0.1-0.2-0.2-0.3-0.1c0,0,0,0,0,0
			c-1.2,0.6-2.3,1.1-3.5,1.6v-12.9c8.9-5.5,16-18,16-28.4c0-3.8-1-6.8-2.7-8.9c6.4-4.9,10.6-10.5,12.3-16.7c0-0.1,0-0.3-0.2-0.3
			c-0.1,0-0.3,0-0.3,0.2c0,0,0,0,0,0c-1.7,6-5.9,11.6-12.2,16.5c-1.7-1.8-4-2.8-6.4-2.7c-2.3,0.1-4.5,0.7-6.5,1.7v-4.6
			c2.2-0.9,4.3-2,6.4-3.2c12.7-7.1,19.8-16.8,20-27.1c0.1-10.1-6.5-19.7-18.6-27c-12.5-7.5-29.3-11.6-47.3-11.6
			c-17.1,0-33.3,3.8-45.5,10.7c-12.7,7.1-19.8,16.8-20,27.1c-0.1,4.7,1.3,9.2,4,13.5v12.6c-1.3-2.1-2.2-4.4-2.8-6.7
			c0-0.1-0.1-0.2-0.2-0.2c-0.1,0-0.2,0.1-0.2,0.2c0,0,0,0.1,0,0.1c0.7,2.7,1.8,5.2,3.3,7.6L127.9,296.5z M235,303.4
			c2.2-0.1,4.3,0.8,5.8,2.4c-2,1.5-4,2.8-6.2,4c-2,1.1-4.1,2.1-6.2,3.1v-7.6C230.5,304.1,232.7,303.5,235,303.4z M228,313.1
			c-3.6,1.5-7.4,2.8-11.2,3.8c2.9-4.7,6.7-8.8,11-11.3l0.2-0.1 M228,313.6v28.9l-0.5,0.3c-2.5,1.5-5,2.2-7.2,2.2
			c-5.4,0-8.7-4.3-8.8-11.3c0-5.2,1.9-11.1,4.9-16.2C220.4,316.5,224.2,315.2,228,313.6L228,313.6z M228,304.7
			c-0.2,0.1-0.4,0.2-0.6,0.3c-4.5,2.6-8.6,7.1-11.6,12.2c-4.9,1.2-9.8,2.1-14.8,2.6v-13c9.8-1,18.9-3.3,27-6.7V304.7z M142.3,308.9
			c-6.4-3.8-11.3-8.3-14.4-13.2V283c3.2,4.7,7.9,9,14.1,12.7c12.5,7.5,29.3,11.6,47.3,11.6c3.8,0,7.5-0.2,11.2-0.6v13.1
			C180,321.9,158,318.2,142.3,308.9L142.3,308.9z M228,356.1c-8.2,3.5-17.4,5.7-27,6.7v-42.6c4.9-0.5,9.7-1.3,14.5-2.5
			c-2.9,5.1-4.7,10.8-4.6,16c0,7.4,3.7,12,9.5,12c2.4,0,4.9-0.8,7.6-2.3l0.1-0.1L228,356.1z M243.8,314.7c0,9.9-6.7,22-15.3,27.5
			v-28.8c2.2-0.9,4.3-2,6.4-3.2c2.2-1.2,4.3-2.6,6.2-4.1C242.8,308.1,243.8,311.1,243.8,314.7z M143.6,242.1
			c12.2-6.8,28.3-10.6,45.3-10.6c17.9,0,34.6,4.1,47.1,11.5c12,7.2,18.5,16.6,18.4,26.6c-0.1,10.1-7.1,19.6-19.7,26.7
			c-9.4,5.3-21.1,8.7-33.8,10c0,0-0.1,0-0.1,0c-0.1,0-0.1,0-0.2,0.1c-3.7,0.4-7.5,0.6-11.3,0.6c-17.9,0-34.6-4.1-47.1-11.5
			c-6.4-3.9-11.3-8.3-14.4-13.2c0,0,0-0.1-0.1-0.1c-2.6-4.2-4-8.7-3.9-13.2C124.1,258.6,131.1,249.2,143.6,242.1z"/>
		<path class="st42" d="M200.4,363.5v-43.1c-28.8,2.3-47.1-3.9-58.2-10.5c-7.7-4.8-12.3-9.9-14.9-13.7l0-0.1l0,0
			c-2.5-3.7-3.2-6.3-3.2-6.3c0.1,1.2,0.2,2.5,0.4,3.8c0.4,3.7,0.7,6,0.9,7.3c0.1,0.5,0.1,0.9,0.2,1.4c0,0.1,0,0.1,0,0.2
			c0.7,4.3,1.7,9.6,2.6,13.5c0.1,0.4,0.2,0.8,0.3,1.3c1.1,4.6,2.5,9.2,4.2,13.6c0.8,1.9,1.7,4.1,2.7,6.6l0.5,1.2l0.5,0.9
			c2.3,5,5,9.7,8.2,14.2C170.3,367.5,200.4,363.5,200.4,363.5z"/>
		<path class="st39" d="M189,269.4c0.1,0,0.1,0.1,0.2,0.1l0,0c0.1,0,0.1,0,0.2,0c0.1,0,0.1-0.1,0.2-0.2V269l-0.1-0.1
			c-0.1-0.1-0.3-0.1-0.4,0c-0.1,0-0.1,0.1-0.1,0.2v0.2L189,269.4z M189.1,269.2l0.1,0.2c0,0-0.1,0-0.1,0c-0.1,0-0.1-0.1-0.1-0.2
			L189.1,269.2z"/>
		<path class="st43" d="M255.4,213.9c0,0,0-0.1,0-0.1s0-0.2,0-0.2s0-0.2,0-0.3c0-0.1,0-0.2,0-0.2c0-0.1,0-0.2,0-0.3s0-0.1,0-0.2
			c0-0.1,0-0.3,0-0.4c0-0.1,0-0.1,0-0.2c0,0,0-0.1,0-0.1c0-0.2-0.1-0.5-0.1-0.7l0,0v-0.1c0-0.2-0.1-0.4-0.1-0.6c0,0,0-0.1,0-0.1
			c0-0.1,0-0.2-0.1-0.3l-0.1-0.3c0-0.1,0-0.1,0-0.2l-0.1-0.3c0-0.1,0-0.2-0.1-0.2c0-0.1-0.1-0.2-0.1-0.3l-0.1-0.3l0-0.2
			c0-0.1-0.1-0.3-0.1-0.4l-0.1-0.3c0,0,0,0,0-0.1c-0.1-0.2-0.2-0.5-0.2-0.7l0,0c0,0,0,0,0-0.1c-0.1-0.2-0.2-0.5-0.2-0.7l0-0.1
			l-0.1-0.2l-0.1-0.4c0-0.1-0.1-0.2-0.1-0.2l-0.1-0.3c0-0.1-0.1-0.1-0.1-0.2l-0.2-0.4l-0.1-0.2l0-0.1c-0.1-0.2-0.2-0.5-0.3-0.7v0
			l-0.1-0.2l-0.3-0.5l0-0.1l-0.2-0.4l-0.2-0.3c0,0,0,0,0-0.1c-0.2-0.4-0.4-0.7-0.6-1.1c0,0,0-0.1,0-0.1l-0.1-0.1
			c-0.3-0.5-0.6-1-0.9-1.5c0,0,0-0.1-0.1-0.1c0,0-0.1-0.1-0.1-0.1c-0.3-0.4-0.5-0.8-0.8-1.1l0,0l0,0c-0.2-0.3-0.4-0.5-0.6-0.8v0
			l-0.4-0.4c-0.1-0.1-0.1-0.2-0.2-0.3c-0.2-0.2-0.3-0.4-0.5-0.6l0,0l-0.2-0.2c-0.1-0.1-0.2-0.3-0.4-0.4l-0.1-0.1
			c-0.1-0.1-0.2-0.2-0.3-0.3l-0.2-0.3l-0.1-0.1l-0.3-0.3l-0.2-0.2l-0.1-0.1l-0.3-0.3l-0.2-0.2l-0.2-0.1l-0.3-0.3l-0.2-0.1
			c-0.1,0-0.1-0.1-0.2-0.1l-0.3-0.3L244,192l-0.2-0.2l-0.3-0.2l-0.1-0.1l-0.3-0.2l-0.2-0.2l-0.1,0l-0.6-0.4l0,0l-0.1,0
			c-0.2-0.1-0.3-0.2-0.5-0.3l-0.1-0.1L183.8,157l-0.5-0.2l-0.2-0.1l-0.2-0.1l-0.2-0.1l-0.3-0.1l-0.2-0.1l-0.1,0
			c-0.2-0.1-0.4-0.2-0.6-0.2c-0.2-0.1-0.4-0.2-0.6-0.2l-0.1,0l-0.2-0.1l-0.3-0.1l-0.1,0l-0.2-0.1l-0.2-0.1l-0.2,0l-0.3-0.1l-0.1,0
			l-0.2,0l-0.3-0.1h-0.1h-0.2c-0.1,0-0.2,0-0.3,0h-0.1h-0.2h-0.4h-0.1h-0.1c-0.2,0-0.3,0-0.5,0h-0.1c0,0-0.1,0-0.1,0
			c-0.2,0-0.4,0.1-0.7,0.1h-0.1l-0.1,0c-0.1,0-0.3,0.1-0.4,0.1l-0.2,0.1c-0.1,0-0.2,0.1-0.3,0.1l-0.1,0c-0.1,0-0.2,0.1-0.4,0.2
			l-0.2,0.1c-0.2,0.1-0.4,0.2-0.5,0.3L126,183.8c0.2-0.1,0.3-0.2,0.5-0.3l0.2-0.1l0.4-0.2c0.1,0,0.2-0.1,0.3-0.1l0.2-0.1l0.4-0.1
			l0.1,0h0.1c0.2,0,0.5-0.1,0.7-0.1h0.2c0.1,0,0.3,0,0.5,0h0.3h0.4h0.3l0.3,0l0.3,0l0.3,0l0.4,0.1l0.2,0.1l0.4,0.1l0.2,0.1l0.4,0.1
			l0.2,0.1c0.4,0.1,0.9,0.3,1.3,0.5l0.2,0.1c0.1,0.1,0.3,0.1,0.5,0.2l0.2,0.1c0.2,0.1,0.4,0.2,0.6,0.3l57.5,33.2
			c0.2,0.1,0.5,0.3,0.7,0.4h0l0.7,0.5l0.2,0.2l0.4,0.3l0.3,0.2l0.4,0.3l0.3,0.2l0.4,0.3l0.3,0.3l0.4,0.3l0.3,0.3l0.4,0.3l0.3,0.3
			c0.1,0.1,0.3,0.3,0.4,0.4l0.2,0.3c0.1,0.1,0.3,0.3,0.4,0.5l0.2,0.2c0.4,0.5,0.8,0.9,1.1,1.4c0.2,0.2,0.3,0.5,0.5,0.7l0.1,0.1
			c0.3,0.4,0.5,0.7,0.8,1.1l0.2,0.2c0.3,0.5,0.6,1,0.9,1.5l0.1,0.2c0.2,0.4,0.4,0.7,0.6,1.1l0.2,0.4c0.1,0.1,0.1,0.3,0.2,0.4
			c0.1,0.2,0.2,0.4,0.3,0.6l0.1,0.2c0.1,0.3,0.2,0.5,0.4,0.8c0,0.1,0.1,0.1,0.1,0.2c0.1,0.2,0.2,0.4,0.3,0.6l0.1,0.2
			c0.1,0.2,0.2,0.4,0.2,0.6l0.1,0.2c0.2,0.5,0.4,1.1,0.5,1.6l0.1,0.3c0.1,0.2,0.1,0.4,0.2,0.6l0.1,0.3c0,0.2,0.1,0.4,0.1,0.5
			c0,0.1,0.1,0.2,0.1,0.3c0,0.2,0.1,0.4,0.1,0.6c0,0.1,0,0.2,0.1,0.3c0.1,0.2,0.1,0.5,0.1,0.7v0.1c0,0.3,0.1,0.5,0.1,0.8
			c0,0.1,0,0.1,0,0.2c0,0.2,0,0.4,0.1,0.6c0,0.1,0,0.2,0,0.3c0,0.2,0,0.4,0,0.5v0.2c0,0.3,0,0.5,0,0.8l0,33.6c0,0.3,0,0.5,0,0.8v0.2
			c0,0.2,0,0.4,0,0.5l0,0.3l-0.1,0.5c0,0.1,0,0.2,0,0.3c0,0.1,0,0.3-0.1,0.4c0,0.1,0,0.2-0.1,0.3l-0.1,0.3l-0.1,0.4
			c0,0.1-0.1,0.2-0.1,0.3c0,0.1-0.1,0.3-0.2,0.5s-0.1,0.2-0.1,0.2c-0.1,0.2-0.2,0.5-0.3,0.7c-0.2,0.3-0.3,0.7-0.6,1
			c-0.1,0.2-0.3,0.5-0.5,0.6l-0.1,0.1c-0.2,0.2-0.3,0.4-0.5,0.5c0,0,0,0,0,0c-0.2,0.2-0.4,0.3-0.6,0.5l-0.1,0.1
			c-0.2,0.1-0.4,0.3-0.6,0.4l47.7-27.7c0.2-0.1,0.4-0.3,0.6-0.4l0.1-0.1c0.2-0.2,0.4-0.3,0.6-0.5l0,0c0.2-0.2,0.3-0.3,0.5-0.5
			l0.1-0.1c0.2-0.2,0.3-0.4,0.5-0.6l0,0c0.1-0.2,0.2-0.3,0.3-0.5l0,0c0.1-0.2,0.2-0.3,0.3-0.5c0,0,0,0,0,0c0.1-0.2,0.2-0.5,0.3-0.7
			c0,0,0,0,0-0.1c0,0,0-0.1,0.1-0.2c0.1-0.1,0.1-0.3,0.1-0.4c0,0,0-0.1,0-0.1c0-0.1,0-0.1,0-0.2c0-0.1,0.1-0.3,0.1-0.4
			c0-0.1,0-0.1,0-0.2c0-0.1,0-0.1,0-0.2l0.1-0.3c0-0.1,0-0.1,0-0.2c0-0.1,0-0.1,0-0.2l0-0.3l0-0.2l0-0.3l0-0.3v-0.1
			c0-0.1,0-0.3,0-0.4c0-0.1,0-0.1,0-0.2s0,0,0-0.1c0-0.2,0-0.5,0-0.7v0l0.1-33.7C255.4,214.4,255.4,214.1,255.4,213.9z"/>
		<path class="st43" d="M193.5,217.9c7.8,4.5,14.1,15.4,14.1,24.4l-0.1,33.7c0,9-6.4,12.6-14.2,8.1l-57.5-33.2
			c-7.8-4.5-14.1-15.4-14.1-24.4l0.1-33.7c0-9,6.4-12.6,14.2-8.1L193.5,217.9z"/>
		<path class="st39" d="M196,237.7l-63.4-36.6c-2.7-1.6-4.9-0.3-4.9,2.8l-0.1,19.8c0,3.1,2.2,6.9,4.8,8.4l63.4,36.6
			c2.7,1.6,4.9,0.3,4.9-2.8l0.1-19.8C200.8,243,198.6,239.2,196,237.7"/>
		<polyline class="st44" points="154.2,235 150.3,232.7 150.3,234.3 154.2,236.5 154.2,235 		"/>
		<polyline class="st44" points="154.1,237.1 150.3,234.9 150.3,236.4 154.1,238.6 154.1,237.1 		"/>
		<polyline class="st44" points="154.1,239.2 150.3,237 150.3,238.5 154.1,240.7 154.1,239.2 		"/>
		<polyline class="st44" points="154.1,241.3 150.3,239.1 150.3,240.6 154.1,242.8 154.1,241.3 		"/>
		<polyline class="st44" points="159.2,240 155.3,237.8 155.3,239.3 159.2,241.5 159.2,240 		"/>
		<polyline class="st44" points="159.2,242.1 155.3,239.9 155.3,241.4 159.2,243.6 159.2,242.1 		"/>
		<polyline class="st44" points="159.2,244.2 155.3,242 155.3,243.5 159.2,245.7 159.2,244.2 		"/>
		<polyline class="st44" points="164.2,245 160.3,242.8 160.3,244.3 164.2,246.5 164.2,245 		"/>
		<polyline class="st44" points="164.2,247.1 160.3,244.9 160.3,246.4 164.2,248.6 164.2,247.1 		"/>
		<polyline class="st44" points="169.2,245.8 165.4,243.6 165.4,245.1 169.2,247.3 169.2,245.8 		"/>
		<polyline class="st44" points="169.2,247.9 165.4,245.7 165.4,247.2 169.2,249.4 169.2,247.9 		"/>
		<polyline class="st44" points="169.2,250 165.4,247.8 165.4,249.3 169.2,251.5 169.2,250 		"/>
		<polyline class="st44" points="174.2,246.6 170.4,244.3 170.4,245.9 174.2,248.1 174.2,246.6 		"/>
		<polyline class="st44" points="174.2,248.7 170.4,246.5 170.4,248 174.2,250.2 174.2,248.7 		"/>
		<polyline class="st44" points="174.2,250.8 170.4,248.6 170.4,250.1 174.2,252.3 174.2,250.8 		"/>
		<polyline class="st44" points="174.2,252.9 170.4,250.7 170.4,252.2 174.2,254.4 174.2,252.9 		"/>
		<path class="st44" d="M189.7,247.8c0.5,4.4-1,8.2-3.4,8.5s-4.8-3.1-5.3-7.5c-0.5-4.4,1-8.2,3.4-8.5
			C186.8,240.1,189.2,243.4,189.7,247.8z"/>
		<path class="st44" d="M143.3,220.8c0.5,4.4-1,8.2-3.4,8.5s-4.8-3.1-5.3-7.5s1-8.2,3.4-8.5C140.4,213.1,142.8,216.4,143.3,220.8z"
			/>
		<path class="st39" d="M240,322.7c0,0,0,0.1,0.1,0.3c0,0.1,0.1,0.3,0.1,0.5l0.1,0.5c0.2,0.8,0.4,1.8,0.6,3.1
			c0.2,1.3,0.5,2.9,0.6,4.7c0.2,1.8,0.3,3.8,0.4,6c0.1,2.2,0.1,4.6,0,7.1c0,1.2-0.1,2.5-0.2,3.8c-0.1,0.7-0.1,1.3-0.2,2
			c-0.1,0.7-0.1,1.3-0.2,2l-0.3,2c-0.1,0.7-0.2,1.4-0.3,2c-0.2,1.4-0.5,2.7-0.8,4.1c-0.1,0.7-0.3,1.4-0.5,2.1
			c-0.2,0.7-0.4,1.4-0.5,2.1l-0.6,2.1c-0.2,0.7-0.4,1.4-0.7,2c-0.5,1.4-0.9,2.7-1.5,4l-0.8,2c-0.3,0.6-0.6,1.3-0.9,1.9
			c-0.3,0.6-0.6,1.3-0.9,1.9l-1,1.8c-0.6,1.2-1.3,2.4-2,3.5c-0.3,0.6-0.7,1.1-1,1.7c-0.4,0.5-0.7,1.1-1.1,1.6l-1,1.6l-1.1,1.5
			c-1.4,2-2.9,3.7-4.2,5.3l-2,2.2l-0.9,1l-0.9,0.9l-1.7,1.6l-0.8,0.7l-0.7,0.6l-2.8,2.5c-1.3,1.2-3.3,1.1-4.4-0.2
			c-1-1.2-1.1-2.9-0.1-4.1l0.1-0.1l2.2-2.7l0.5-0.7l0.6-0.8l1.3-1.7l0.7-1l0.7-1.1l1.5-2.3c0.9-1.6,2-3.3,2.9-5.3
			c0.2-0.5,0.5-1,0.7-1.4c0.2-0.5,0.5-1,0.7-1.5l0.7-1.5c0.2-0.5,0.4-1.1,0.6-1.6c0.4-1.1,0.8-2.1,1.2-3.3l0.5-1.7
			c0.2-0.6,0.3-1.1,0.5-1.7c0.2-0.6,0.3-1.1,0.5-1.7c0.1-0.6,0.3-1.2,0.4-1.8c0.3-1.2,0.5-2.4,0.7-3.5c0.1-0.6,0.2-1.2,0.3-1.8
			s0.2-1.2,0.2-1.8c0.1-0.6,0.1-1.2,0.2-1.8s0.1-1.2,0.1-1.8c0.1-1.2,0.1-2.3,0.1-3.5c0-0.6,0-1.1,0-1.7s0-1.1-0.1-1.7
			s0-1.1-0.1-1.6s-0.1-1.1-0.1-1.6c-0.1-1.1-0.2-2.1-0.3-3.1c-0.2-2-0.6-3.9-0.9-5.6c-0.3-1.7-0.7-3.3-1.1-4.6
			c-0.4-1.4-0.7-2.5-1.1-3.4c-0.3-0.9-0.6-1.6-0.8-2c0-0.1-0.1-0.2-0.1-0.3l-0.1-0.1v0c0,0,0,0,0-0.1l0-0.1
			c-2.2-5.2,0.1-11.2,5.3-13.4c5.2-2.2,11.2,0.1,13.4,5.3c0.2,0.4,0.4,0.9,0.5,1.4L240,322.7z"/>
		
			<linearGradient id="SVGID_22_" gradientUnits="userSpaceOnUse" x1="75.303" y1="173.0908" x2="81.9005" y2="173.0908" gradientTransform="matrix(1 0 0 -1 0 501.4258)">
			<stop  offset="0" style="stop-color:#F0F0F1"/>
			<stop  offset="1" style="stop-color:#CED0D1"/>
		</linearGradient>
		<polygon class="st45" points="81.9,331.5 75.3,327.6 75.3,325.2 81.9,329 		"/>
		
			<linearGradient id="SVGID_23_" gradientUnits="userSpaceOnUse" x1="86.0327" y1="178.7474" x2="86.0327" y2="193.5175" gradientTransform="matrix(1 0 0 -1 0 501.4258)">
			<stop  offset="0" style="stop-color:#F0F0F1"/>
			<stop  offset="1" style="stop-color:#CED0D1"/>
		</linearGradient>
		<path class="st46" d="M96.7,317.9C96.7,317.8,96.7,317.8,96.7,317.9c0-0.2,0-0.4,0-0.5l0-14c0.1-0.7-0.2-1.3-0.8-1.7l-6.6-3.8
			c0.5,0.3,0.8,0.9,0.8,1.7l0,14c0,0.2,0,0.3,0,0.5v0.1c0,0.1,0,0.1,0,0.2c0,0.1,0,0.1,0,0.2l0,0.1c0,0.1,0,0.1-0.1,0.2l0,0.1
			c0,0.1-0.1,0.2-0.1,0.2l0,0.1c0,0.1-0.1,0.2-0.1,0.3v0c0,0.1-0.1,0.2-0.1,0.3c0,0,0,0,0,0.1l-0.1,0.3v0c-0.1,0.1-0.1,0.2-0.2,0.3
			l0,0.1l-0.1,0.2l-0.1,0.1c0,0.1-0.1,0.1-0.1,0.2l-0.1,0.1l-0.1,0.1l-0.2,0.2l-0.1,0.1c-0.1,0.1-0.2,0.2-0.4,0.3l-0.1,0.1
			c-0.1,0.1-0.3,0.2-0.4,0.3l-12.2,7l6.6,3.8l12.2-7c0.1-0.1,0.3-0.2,0.4-0.3l0.1-0.1c0.1-0.1,0.3-0.2,0.4-0.3h0l0.1-0.1
			c0.1-0.1,0.1-0.1,0.2-0.2l0.1-0.1l0-0.1l0.1-0.1l0.1-0.1l0.1-0.1l0.1-0.1l0.1-0.1l0.1-0.1l0-0.1v0l0.1-0.2l0,0c0,0,0,0,0,0
			l0.1-0.2l0-0.1l0-0.1c0,0,0,0,0-0.1c0-0.1,0.1-0.1,0.1-0.2l0,0l0,0l0.1-0.2v0c0,0,0-0.1,0-0.1l0-0.1l0-0.1c0,0,0-0.1,0-0.1
			c0,0,0,0,0-0.1s0-0.1,0-0.1c0,0,0-0.1,0-0.1v0v-0.1l0-0.2C96.6,317.9,96.7,317.9,96.7,317.9z"/>
		
			<linearGradient id="SVGID_24_" gradientUnits="userSpaceOnUse" x1="90.3661" y1="194.7949" x2="90.3661" y2="183.7425" gradientTransform="matrix(1 0 0 -1 0 501.4258)">
			<stop  offset="0" style="stop-color:#F0F0F1"/>
			<stop  offset="1" style="stop-color:#CED0D1"/>
		</linearGradient>
		<path class="st47" d="M94,299.3c2.7-1.5,4.8-0.3,4.8,2.7l0,14c0,3-2.1,6.8-4.8,8.3l-12.2,7V329l12.2-7c1.6-1,2.6-2.8,2.7-4.7l0-14
			c0-1.7-1.2-2.4-2.7-1.5l-12.2,7v-2.4L94,299.3z"/>
		
			<linearGradient id="SVGID_25_" gradientUnits="userSpaceOnUse" x1="75.2389" y1="195.7357" x2="81.8364" y2="195.7357" gradientTransform="matrix(1 0 0 -1 0 501.4258)">
			<stop  offset="0" style="stop-color:#F0F0F1"/>
			<stop  offset="1" style="stop-color:#CED0D1"/>
		</linearGradient>
		<polygon class="st48" points="81.8,308.8 75.2,305 75.2,302.6 81.8,306.4 		"/>
		
			<linearGradient id="SVGID_26_" gradientUnits="userSpaceOnUse" x1="75.4648" y1="198.4462" x2="91.352" y2="202.1593" gradientTransform="matrix(1 0 0 -1 0 501.4258)">
			<stop  offset="0" style="stop-color:#F0F0F1"/>
			<stop  offset="1" style="stop-color:#CED0D1"/>
		</linearGradient>
		<path class="st49" d="M94.6,299.1l0.2-0.1c0.1,0,0.2-0.1,0.3-0.1l0.2-0.1l0.2,0l0.3,0H96c0.1,0,0.2,0,0.3,0h0.1c0.1,0,0.2,0,0.4,0
			h0.1c0.1,0,0.2,0,0.3,0.1l0.1,0c0.1,0,0.2,0.1,0.3,0.2l-6.6-3.8h0c-0.1,0-0.2-0.1-0.2-0.1h0l-0.1,0l-0.1,0l-0.1,0h-0.1h0
			c-0.1,0-0.2,0-0.3,0h-0.3h-0.1h-0.2h-0.1l-0.1,0c-0.1,0-0.1,0-0.2,0l-0.1,0l-0.1,0c-0.1,0-0.2,0.1-0.3,0.1l-0.1,0l-0.1,0.1
			l-0.1,0.1c-0.1,0.1-0.3,0.1-0.5,0.2l-12.2,7l6.6,3.8l12.2-7C94.2,299.3,94.3,299.2,94.6,299.1L94.6,299.1z"/>
		<path class="st50" d="M221.4,213.6c-2.6-2.9-9.1-7.1-9.4-7.3l-63.3-35.8l-0.9,0.5c0,0.1,0.1,0.1,0.2,0.2l63.6,35.9
			c0.1,0,6.7,4.3,9.2,7.1c3.8,4.3,8.2,10.9,8.2,18.5c0,0.3,0.3,0.5,0.5,0.4c0.2,0,0.4-0.2,0.4-0.4
			C229.9,224.9,225.3,218,221.4,213.6z"/>
		<path class="st50" d="M225.1,212.1c-2.6-2.9-9.1-7.1-9.4-7.3l-63.9-36.1l-0.9,0.5c0,0.1,0.1,0.1,0.2,0.2l64.1,36.2
			c0.1,0,6.7,4.3,9.1,7.1c3.8,4.3,8.2,10.9,8.2,18.5c0,0.3,0.2,0.5,0.5,0.5c0.3,0,0.5-0.2,0.5-0.5
			C233.6,223.3,228.9,216.5,225.1,212.1z"/>
		
			<linearGradient id="SVGID_27_" gradientUnits="userSpaceOnUse" x1="186.4492" y1="74.7481" x2="193.7518" y2="74.7481" gradientTransform="matrix(1 0 0 -1 0 501.4258)">
			<stop  offset="0" style="stop-color:#F0F0F1"/>
			<stop  offset="1" style="stop-color:#CED0D1"/>
		</linearGradient>
		<polygon class="st51" points="193.8,430.1 186.5,425.9 186.4,423.2 193.7,427.4 		"/>
		
			<linearGradient id="SVGID_28_" gradientUnits="userSpaceOnUse" x1="198.3509" y1="81.016" x2="198.3509" y2="97.3748" gradientTransform="matrix(1 0 0 -1 0 501.4258)">
			<stop  offset="0" style="stop-color:#F0F0F1"/>
			<stop  offset="1" style="stop-color:#CED0D1"/>
		</linearGradient>
		<path class="st52" d="M210.2,415.1C210.2,415.1,210.2,415,210.2,415.1c0-0.2,0-0.4,0-0.6l0-15.5c0-0.9-0.3-1.6-0.9-1.9l-7.3-4.2
			c0.5,0.3,0.9,1,0.9,1.9l0,15.5c0,0.2,0,0.3,0,0.5c0,0,0,0.1,0,0.1s0,0.1,0,0.2s0,0.1,0,0.2s0,0.1,0,0.1c0,0,0,0.2-0.1,0.2
			c0,0,0,0.1,0,0.1c0,0.1-0.1,0.2-0.1,0.3l0,0.1c0,0.1-0.1,0.2-0.1,0.3v0c0,0.1-0.1,0.2-0.1,0.3l0,0.1c-0.1,0.1-0.1,0.2-0.2,0.3l0,0
			c-0.1,0.1-0.1,0.2-0.2,0.3l-0.1,0.1c-0.1,0.1-0.1,0.2-0.2,0.2c-0.1,0.1-0.1,0.1-0.1,0.1c0,0-0.1,0.1-0.1,0.2l-0.1,0.1l-0.1,0.1
			c-0.1,0.1-0.1,0.1-0.2,0.2l-0.1,0.1c-0.1,0.1-0.3,0.3-0.4,0.4l-0.1,0.1c-0.1,0.1-0.3,0.2-0.5,0.3l-13.5,7.8l7.3,4.2l13.5-7.8
			c0.2-0.1,0.3-0.2,0.5-0.3l0.1-0.1c0.1-0.1,0.3-0.2,0.4-0.4c0,0,0,0,0,0c0,0,0,0,0.1-0.1c0.1-0.1,0.1-0.1,0.2-0.2l0.1-0.1
			c0,0,0,0,0.1-0.1l0.1-0.1l0.1-0.1l0.1-0.1c0,0,0.1-0.1,0.1-0.1c0,0,0-0.1,0.1-0.1l0.1-0.1c0,0,0-0.1,0.1-0.1l0,0l0.2-0.3l0,0v0
			l0.1-0.2l0-0.1l0.1-0.1l0-0.1c0-0.1,0.1-0.1,0.1-0.2l0,0l0,0l0.1-0.3c0,0,0,0,0,0c0,0,0-0.1,0-0.1c0,0,0-0.1,0-0.1
			c0,0,0-0.1,0-0.1c0,0,0-0.1,0-0.1c0,0,0-0.1,0-0.1c0,0,0-0.1,0-0.1c0-0.1,0-0.1,0-0.2v-0.1v-0.1c0-0.1,0-0.2,0-0.2
			C210.1,415.1,210.2,415.1,210.2,415.1z"/>
		
			<linearGradient id="SVGID_29_" gradientUnits="userSpaceOnUse" x1="203.1308" y1="98.785" x2="203.1308" y2="86.5513" gradientTransform="matrix(1 0 0 -1 0 501.4258)">
			<stop  offset="0" style="stop-color:#F0F0F1"/>
			<stop  offset="1" style="stop-color:#CED0D1"/>
		</linearGradient>
		<path class="st53" d="M207.2,394.6c2.9-1.7,5.3-0.3,5.4,3.1l0,15.5c0,3.4-2.4,7.5-5.3,9.2l-13.5,7.8v-2.7l13.5-7.8
			c1.8-1.1,2.9-3.1,3-5.2l0-15.5c0-1.9-1.4-2.7-3-1.7l-13.5,7.8v-2.7L207.2,394.6z"/>
		
			<linearGradient id="SVGID_30_" gradientUnits="userSpaceOnUse" x1="186.376" y1="99.8288" x2="193.6786" y2="99.8288" gradientTransform="matrix(1 0 0 -1 0 501.4258)">
			<stop  offset="0" style="stop-color:#F0F0F1"/>
			<stop  offset="1" style="stop-color:#CED0D1"/>
		</linearGradient>
		<polygon class="st54" points="193.7,405.1 186.4,400.8 186.4,398.1 193.7,402.4 		"/>
		
			<linearGradient id="SVGID_31_" gradientUnits="userSpaceOnUse" x1="186.6329" y1="102.7998" x2="204.2279" y2="106.9067" gradientTransform="matrix(1 0 0 -1 0 501.4258)">
			<stop  offset="0" style="stop-color:#F0F0F1"/>
			<stop  offset="1" style="stop-color:#CED0D1"/>
		</linearGradient>
		<path class="st55" d="M207.8,394.3l0.3-0.1c0.1,0,0.2-0.1,0.4-0.1l0.2-0.1l0.2-0.1l0.3,0h0.2c0.1,0,0.2,0,0.3,0h0.1
			c0.1,0,0.3,0,0.4,0.1l0.1,0c0.1,0,0.2,0.1,0.3,0.1l0.1,0c0.1,0,0.2,0.1,0.4,0.2l-7.3-4.2h0l-0.3-0.1h-0.1l-0.1,0l-0.1,0l-0.2,0
			h-0.1h-0.1c-0.1,0-0.2,0-0.3,0h-0.4H202h-0.2h-0.1l-0.1,0l-0.2,0.1l-0.1,0c0,0-0.1,0-0.1,0c-0.1,0-0.2,0.1-0.4,0.1l-0.1,0
			l-0.1,0.1l-0.1,0.1c-0.2,0.1-0.3,0.2-0.5,0.3l-13.5,7.8l7.3,4.2l13.5-7.8c0.2-0.1,0.3-0.2,0.5-0.3L207.8,394.3z"/>
		<path class="st44" d="M223.8,250.7c0-0.3,0.1-0.6,0.1-1c0-0.1,0-0.2,0-0.3s0-0.3,0.1-0.4c0-0.1,0-0.2,0.1-0.4c0-0.1,0-0.3,0.1-0.4
			c0-0.1,0-0.2,0.1-0.3c0.1-0.4,0.2-0.7,0.3-1.1c0-0.1,0-0.1,0.1-0.2c0.1-0.3,0.2-0.6,0.3-0.9l0-0.1c0.1-0.3,0.2-0.6,0.3-0.9
			c0-0.1,0.1-0.2,0.1-0.3c0.1-0.2,0.2-0.5,0.3-0.7l0.1-0.2c0.1-0.3,0.2-0.6,0.4-0.8l0.1-0.3c0.1-0.2,0.2-0.4,0.3-0.6l0.1-0.3
			c0.1-0.3,0.3-0.5,0.5-0.8l0.1-0.2c0.1-0.2,0.3-0.5,0.4-0.7l0.1-0.2c0.2-0.3,0.4-0.6,0.6-0.8l0.1-0.2c0.2-0.3,0.4-0.5,0.6-0.8
			c0,0,0.1-0.1,0.1-0.1c0.3-0.3,0.5-0.7,0.8-1l0.1-0.1c0.2-0.2,0.3-0.4,0.5-0.5l0.1-0.1c0.2-0.2,0.4-0.4,0.5-0.6l0.1-0.1
			c0.3-0.2,0.5-0.5,0.8-0.7l0.1,0c0.3-0.2,0.5-0.5,0.8-0.7l0.1-0.1c0.3-0.2,0.5-0.4,0.8-0.6c0,0,0.1-0.1,0.1-0.1
			c0.3-0.2,0.6-0.4,0.9-0.6c0.3-0.2,0.5-0.3,0.7-0.4l0.2-0.1c0.2-0.1,0.4-0.2,0.5-0.2l0.2-0.1c0.2-0.1,0.3-0.1,0.5-0.2l0.1-0.1
			c0.2-0.1,0.4-0.1,0.6-0.2l0.4-0.1l0.1,0c0.2,0,0.4-0.1,0.5-0.1c0.2,0,0.5-0.1,0.7-0.1h0.2c0.2,0,0.4,0,0.6,0h0.1
			c0.2,0,0.3,0,0.5,0.1l0.2,0c0.2,0,0.4,0.1,0.6,0.1h0c0.2,0.1,0.3,0.1,0.5,0.2l0.1,0.1c0.1,0.1,0.3,0.1,0.4,0.2c0,0,0.1,0,0.1,0.1
			l-3.5-2l-0.1,0l-0.1,0c-0.1-0.1-0.3-0.1-0.4-0.2l-0.1,0c0,0-0.1,0-0.1,0c-0.2-0.1-0.3-0.1-0.5-0.2h0l0,0c-0.2-0.1-0.4-0.1-0.5-0.1
			h-0.1h-0.1c-0.2,0-0.3,0-0.5-0.1h-0.1h0c-0.2,0-0.4,0-0.6,0h-0.1h-0.1c-0.2,0-0.5,0-0.7,0.1l0,0c-0.2,0-0.3,0.1-0.5,0.1h-0.1
			l-0.4,0.1h0c-0.2,0.1-0.4,0.1-0.6,0.2c-0.1,0-0.1,0-0.2,0.1l-0.5,0.2l-0.1,0l-0.2,0.1c-0.2,0.1-0.3,0.1-0.5,0.2l-0.2,0.1
			c-0.2,0.1-0.5,0.2-0.7,0.4c-0.3,0.1-0.6,0.4-0.9,0.5l-0.2,0.1c-0.3,0.2-0.5,0.4-0.8,0.6l-0.2,0.1c-0.3,0.2-0.5,0.4-0.8,0.7
			l-0.1,0.1c-0.3,0.2-0.5,0.5-0.8,0.7l-0.1,0.1l0,0c-0.4,0.4-0.8,0.8-1.1,1.2l0,0.1l-0.1,0.1c-0.3,0.3-0.6,0.7-0.8,1l0,0l0,0
			c-0.2,0.3-0.5,0.6-0.6,0.9c0,0-0.1,0.1-0.1,0.1l0,0.1c-0.2,0.3-0.4,0.6-0.6,0.8l-0.1,0.1c0,0,0,0.1-0.1,0.1
			c-0.2,0.3-0.3,0.5-0.5,0.8c0,0,0,0.1-0.1,0.1v0c-0.2,0.3-0.3,0.6-0.5,0.9l0,0.1c0,0,0,0.1-0.1,0.1c-0.1,0.2-0.2,0.5-0.4,0.7
			l-0.1,0.1l0,0.1c-0.1,0.3-0.3,0.6-0.4,0.9l0,0c0,0,0,0.1,0,0.1c-0.1,0.3-0.2,0.5-0.3,0.8c0,0,0,0.1,0,0.1l0,0.1
			c-0.3,0.7-0.5,1.3-0.7,2l0,0.1c0,0,0,0.1,0,0.1c-0.1,0.4-0.2,0.8-0.3,1.1c0,0,0,0.1,0,0.1c0,0,0,0.1,0,0.1c0,0.2-0.1,0.3-0.1,0.5
			c0,0.1,0,0.2,0,0.3c0,0.2-0.1,0.3-0.1,0.5c0,0.1,0,0.1,0,0.2c0,0,0,0,0,0.1c0,0.3-0.1,0.6-0.1,1v0.2c0,0.3,0,0.6,0,1
			c0,3.5,1.3,6,3.3,7.2l3.5,2c-2-1.2-3.3-3.7-3.3-7.2c0-0.3,0-0.6,0-1L223.8,250.7z"/>
		<path class="st56" d="M234.9,232.5c6.2-3.6,11.2-0.7,11.3,6.4c0,7.1-5,15.8-11.2,19.4c-6.2,3.6-11.2,0.7-11.3-6.4
			S228.7,236.1,234.9,232.5z"/>
		<path class="st28" d="M284.6,241.2c3.5,0,6.3-2.8,6.3-6.3c0-3.5-2.8-6.3-6.3-6.3c-3.5,0-6.3,2.8-6.3,6.3
			C278.3,238.4,281.1,241.2,284.6,241.2C284.6,241.2,284.6,241.2,284.6,241.2z"/>
		<path class="st28" d="M183.9,411.5c3.5,0,6.3-2.8,6.3-6.3c0-3.5-2.8-6.3-6.3-6.3c-3.5,0-6.3,2.8-6.3,6.3c0,0,0,0,0,0
			C177.6,408.7,180.4,411.5,183.9,411.5C183.9,411.5,183.9,411.5,183.9,411.5z"/>
		<path class="st57" d="M159.2,325.1c-0.9,3.4,0.5,7-0.2,10.7c-0.2,1.2-0.6,1.6-1.7,1.5s-2.3,0.2-3.2-0.9c-0.4-0.5-0.9-0.4-1.4-0.3
			c-3.8,0.9-6.6-0.5-8.8-3.7c-1.6-2.4-2.7-4.9-2.6-7.9c0.1-3.1,2-5,5.1-5.2c2.2-0.2,4.3,0.6,5.8,2.1c0.6,0.6,1,1,2.1,0.4
			c1.2-0.8,2.7-0.4,3.9,0.2C159.6,322.6,159,323.8,159.2,325.1z M145.4,325.9c0,3.1,0.9,4.7,2.7,5.8c1.3,0.8,2.9,0.7,3.8-0.1
			c0.9-0.8,1.3-2.3,0.7-3.8c-0.7-1.7-2-2.9-3.7-3.4C147,323.7,145.4,324.9,145.4,325.9L145.4,325.9z"/>
		<path class="st58" d="M139.7,342.4c1.8,1.3,2.9,3.2,4.8,4.4c3.6,2.2,8.2,1.9,11.4-0.9c2.1-1.9,3-4.3,3.4-7
			c0.3-1.7,0.4-1.9,2.2-1.8c0.5,0,1,0.2,1.6,0.2c2.4,0.3,2.6,0.5,1.8,2.7c-1.4,4-3.8,7.7-6.9,10.6c-1.6,1.5-3.7,2.1-5.8,2.5
			c-1.8,0.3-3.7,0.3-5.5-0.1c-1.3-0.1-2.5-0.8-3.3-1.9c-2-2.9-3.7-6-5.1-9.3C139,341.4,139.1,342.5,139.7,342.4z"/>
		<path class="st59" d="M135.3,321.5c-0.3-3.3,0.2-6.4,0.7-9.5c0.1-0.7,0.1-1.5,1.1-1.4s1.9,0.2,2.2,1.3c0.1,0.5,0.2,1.1,0.1,1.6
			c-0.1,1.9-0.1,3.8-0.3,5.7c-0.3,3.4,0.4,6.7,0.6,10c0,0.5,0.2,0.9,0.2,1.4c0,0.7,0.5,1.6-0.4,2.1c-0.7,0.4-1.4-0.3-2.1-0.6
			c-0.9-0.5-1.6-1.1-1.6-2.3C135.7,326.9,135.2,324.1,135.3,321.5z"/>
		<path class="st60" d="M135.5,336c-1.8-3.3-2.9-6.9-4.1-10.5c0-0.2,0-0.4,0-0.6l0.6,0.2c2.2,0.8,2.9,2.4,2.9,4.6c0,1.7,0.1,3.4,1,5
			C135.8,335.2,136.1,335.7,135.5,336z"/>
		<path class="st61" d="M135.5,336c0.6-0.3,0.3-0.8,0.4-1.3c0.6,0.2,0.5,0.7,0.6,1.1c0.8,2.3,2,4.5,3.1,6.6
			c-0.5,0.1-0.7-1.1-1.4-0.5C137,340.2,136.3,338.1,135.5,336z"/>
	</g>
</g>
<g id="Text" class="st0">
</g>
</svg>
