<svg id="Camada_1" data-name="Camada 1" xmlns="http://www.w3.org/2000/svg" viewBox="0 0 50 50"><defs><style>.cls-1{fill:#15baff;}.cls-2{fill:#fff;}</style></defs><circle id="Elipse_173" data-name="Elipse 173" class="cls-1" cx="25" cy="25" r="24.9"/><g id="Grupo_408" data-name="Grupo 408"><g id="Grupo_118" data-name="Grupo 118"><path id="Caminho_111" data-name="Caminho 111" class="cls-2" d="M42.63,16.55A8.6,8.6,0,0,0,26,13.66l-2.88-1.28a.36.36,0,0,0-.4,0L10.15,18h0l-.05,0,0,0-.05,0a.18.18,0,0,0,0,.07s0,0,0,0a.2.2,0,0,0,0,.08.06.06,0,0,0,0,0,.31.31,0,0,0,0,.13V33.32a.53.53,0,0,0,.3.46l12.56,5.6,0,0,.18,0h0l.18,0s0,0,0,0l12.56-5.6a.52.52,0,0,0,.3-.46V25.08A8.67,8.67,0,0,0,42.63,16.55ZM22.91,13.36l2.78,1.26a9.6,9.6,0,0,0-.2,1.07,6.3,6.3,0,0,0,0,.75l-9.16,4.1-4.71-2.11Zm-.5,24.81L10.85,33V19.2l7.23,3.23,4.33,1.93Zm.5-14.68L17.5,21.07l8-3.57A8.48,8.48,0,0,0,27,21.59l.05.07ZM35,33,23.41,38.17V24.36l3.68-1.64-.26,2.67a.48.48,0,0,0,.18.43.51.51,0,0,0,.31.11l.16,0,3.2-1a1.1,1.1,0,0,1,.67,0,8.58,8.58,0,0,0,3.56.39H35Zm-.17-8.73a7.59,7.59,0,0,1-3.14-.34,2.15,2.15,0,0,0-1.28,0l-2.49.8.23-2.33A2.08,2.08,0,0,0,27.78,21a7.61,7.61,0,1,1,7,3.24Z"/></g><g id="Grupo_119" data-name="Grupo 119"><path id="Caminho_112" data-name="Caminho 112" class="cls-2" d="M37.72,12.49l-8.08,8.08a.5.5,0,0,0,0,.7h0a.51.51,0,0,0,.35.15.47.47,0,0,0,.35-.15l8.08-8.08a.5.5,0,0,0,0-.71A.5.5,0,0,0,37.72,12.49Z"/></g><g id="Grupo_120" data-name="Grupo 120"><path id="Caminho_113" data-name="Caminho 113" class="cls-2" d="M35.13,18a2,2,0,1,0,1.43-.59A2,2,0,0,0,35.13,18Zm2.14,2.14a1,1,0,0,1-1.44,0,1,1,0,0,1-.3-.71,1,1,0,0,1,.3-.72,1,1,0,0,1,1.74.72,1,1,0,0,1-.3.71Z"/></g><g id="Grupo_121" data-name="Grupo 121"><path id="Caminho_114" data-name="Caminho 114" class="cls-2" d="M31.51,16.38a2,2,0,0,0,1.42-.59,2,2,0,0,0,0-2.83h0a2,2,0,0,0-2.84,0,2,2,0,0,0,1.42,3.43Zm-.72-2.72a1,1,0,0,1,1.75.71,1,1,0,0,1-.31.73,1,1,0,0,1-1.44-1.44Z"/></g></g></svg>