<svg id="Camada_1" data-name="Camada 1" xmlns="http://www.w3.org/2000/svg" viewBox="0 0 50 50"><defs><style>.cls-1{fill:#15baff;}.cls-2{fill:#fff;}</style></defs><circle id="Elipse_172" data-name="Elipse 172" class="cls-1" cx="25" cy="25" r="24.73"/><g id="Grupo_411" data-name="Grupo 411"><g id="Grupo_163" data-name="Grupo 163"><path id="Caminho_149" data-name="Caminho 149" class="cls-2" d="M41,35.88l0-.15a.08.08,0,0,1,0,0v0l-2.45-4.41V14.94a2.1,2.1,0,0,0-2.1-2.09H29.79a6,6,0,0,0,.11-1.11,5.22,5.22,0,1,0-10.32,1.11H13a2.1,2.1,0,0,0-2.11,2.09v16.3L8.47,35.65v0a.09.09,0,0,0,0,0,.37.37,0,0,0,0,.15v1.47a2,2,0,0,0,2,2H39a2,2,0,0,0,2-2h0ZM24.69,7.52a4.24,4.24,0,0,1,4.23,4.22c0,2.92-3.14,7-4.23,8.33-1.1-1.33-4.22-5.41-4.22-8.33a4.23,4.23,0,0,1,4.21-4.22Zm4.17,9.64h2.46l2.76,3.17H30.25L30.12,20Zm-1,.21.05.1,1.26,2.86H25.75a31.23,31.23,0,0,0,2.11-3Zm1.52,4A2.09,2.09,0,0,1,27,23.05a2.12,2.12,0,0,1-1.71-1.71Zm-9.16-1,1.3-3a32.45,32.45,0,0,0,2.1,3Zm3.92,1a2.1,2.1,0,0,1-4.14,0Zm-5-1H15.3l2.76-3.18h2.46Zm-2.1,1H18.9a2.1,2.1,0,0,1-4.14,0Zm-.28,2.73h.1a3.11,3.11,0,0,0,2.61-1.48,3.06,3.06,0,0,0,4.21,1,3,3,0,0,0,1-1,3.11,3.11,0,0,0,2.62,1.48,3.06,3.06,0,0,0,2.62-1.49,3.1,3.1,0,0,0,2.63,1.49h.08v4H16.73Zm15.82-1a2.17,2.17,0,0,1-2.08-1.74h4.14a2.15,2.15,0,0,1-2.07,1.74ZM11.91,14.94A1.11,1.11,0,0,1,13,13.84h6.81a14.47,14.47,0,0,0,1,2.33h-3a.53.53,0,0,0-.38.16l-3.63,4.18a.57.57,0,0,0-.08.13v0a.32.32,0,0,0,0,.14s0,0,0,0a3.24,3.24,0,0,0,2,3v4.68a.5.5,0,0,0,.49.5H33.14a.49.49,0,0,0,.49-.5h0V23.86a3.23,3.23,0,0,0,2-3,0,0,0,0,0,0,0,.59.59,0,0,0,0-.14s0,0,0,0a.33.33,0,0,0-.07-.13l-3.63-4.18a.55.55,0,0,0-.38-.16h-3a14.47,14.47,0,0,0,1-2.33h6.82a1.11,1.11,0,0,1,1.11,1.1v16H11.91ZM11.7,31.88h26l2,3.52H9.75ZM40,37.35a1,1,0,0,1-1,1H10.39a1,1,0,0,1-1-1h0v-1H40Z"/></g><g id="Grupo_164" data-name="Grupo 164"><path id="Caminho_150" data-name="Caminho 150" class="cls-2" d="M27.36,11.79a2.68,2.68,0,1,0-2.68,2.68,2.67,2.67,0,0,0,2.68-2.68Zm-4.35,0a1.68,1.68,0,1,1,1.67,1.68A1.68,1.68,0,0,1,23,11.79Z"/></g></g></svg>