<svg id="Camada_1" data-name="Camada 1" xmlns="http://www.w3.org/2000/svg" viewBox="0 0 50 50"><defs><style>.cls-1{fill:#15baff;}.cls-2{fill:#fff;}</style></defs><circle id="Elipse_175" data-name="Elipse 175" class="cls-1" cx="25" cy="25" r="25"/><g id="Grupo_412" data-name="Grupo 412"><g id="Grupo_166" data-name="Grupo 166"><path id="Caminho_151" data-name="Caminho 151" class="cls-2" d="M9,27.47a.51.51,0,0,0-.5.49v8.77a.5.5,0,0,0,1,0V28a.51.51,0,0,0-.5-.49Z"/></g><g id="Grupo_167" data-name="Grupo 167"><path id="Caminho_152" data-name="Caminho 152" class="cls-2" d="M41,27.47a.49.49,0,0,0-.49.49v8.77a.5.5,0,0,0,.5.5.5.5,0,0,0,.5-.5V28a.51.51,0,0,0-.51-.49Z"/></g><g id="Grupo_168" data-name="Grupo 168"><path id="Caminho_153" data-name="Caminho 153" class="cls-2" d="M12.53,27.47A.49.49,0,0,0,12,28v8.77a.5.5,0,1,0,1,0V28A.49.49,0,0,0,12.53,27.47Z"/></g><g id="Grupo_169" data-name="Grupo 169"><path id="Caminho_154" data-name="Caminho 154" class="cls-2" d="M17,27.47a.51.51,0,0,0-.5.49v8.77a.51.51,0,0,0,.49.51h0a.5.5,0,0,0,.5-.51V28A.5.5,0,0,0,17,27.47Z"/></g><g id="Grupo_170" data-name="Grupo 170"><path id="Caminho_155" data-name="Caminho 155" class="cls-2" d="M19.51,27.47A.49.49,0,0,0,19,28v8.77a.5.5,0,0,0,.5.5.51.51,0,0,0,.5-.49h0V28a.51.51,0,0,0-.5-.49Z"/></g><g id="Grupo_171" data-name="Grupo 171"><path id="Caminho_156" data-name="Caminho 156" class="cls-2" d="M23.5,27.47A.49.49,0,0,0,23,28v8.77a.49.49,0,0,0,.48.51h0a.5.5,0,0,0,.51-.5h0V28A.51.51,0,0,0,23.5,27.47Z"/></g><g id="Grupo_172" data-name="Grupo 172"><path id="Caminho_157" data-name="Caminho 157" class="cls-2" d="M26,27.47a.49.49,0,0,0-.49.49v8.77a.5.5,0,0,0,1,0h0V28a.5.5,0,0,0-.5-.49Z"/></g><g id="Grupo_173" data-name="Grupo 173"><path id="Caminho_158" data-name="Caminho 158" class="cls-2" d="M28.49,27.47A.51.51,0,0,0,28,28v8.77a.51.51,0,0,0,.49.51h0a.51.51,0,0,0,.51-.5h0V28A.52.52,0,0,0,28.49,27.47Z"/></g><g id="Grupo_174" data-name="Grupo 174"><path id="Caminho_159" data-name="Caminho 159" class="cls-2" d="M32.48,27.47A.51.51,0,0,0,32,28v8.77a.5.5,0,0,0,.5.5.49.49,0,0,0,.5-.49h0V28a.5.5,0,0,0-.5-.49Z"/></g><g id="Grupo_175" data-name="Grupo 175"><path id="Caminho_160" data-name="Caminho 160" class="cls-2" d="M35.47,27.47A.5.5,0,0,0,35,28v8.77a.5.5,0,0,0,.48.52.5.5,0,0,0,.52-.48V28a.5.5,0,0,0-.5-.49Z"/></g><g id="Grupo_176" data-name="Grupo 176"><path id="Caminho_161" data-name="Caminho 161" class="cls-2" d="M38,27.47a.49.49,0,0,0-.49.49v8.77a.5.5,0,0,0,.5.5.51.51,0,0,0,.5-.49h0V28a.51.51,0,0,0-.51-.49Z"/></g><g id="Grupo_177" data-name="Grupo 177"><path id="Caminho_162" data-name="Caminho 162" class="cls-2" d="M41,24.56H28a.5.5,0,0,0,0,1H41a.5.5,0,1,0,0-1Z"/></g><g id="Grupo_178" data-name="Grupo 178"><path id="Caminho_163" data-name="Caminho 163" class="cls-2" d="M22,24.56H9a.5.5,0,1,0,0,1H22a.5.5,0,0,0,0-1Z"/></g><g id="Grupo_179" data-name="Grupo 179"><path id="Caminho_164" data-name="Caminho 164" class="cls-2" d="M9,22.63a.5.5,0,0,0,.5-.5V18.78a.5.5,0,0,0-1,0v3.35A.51.51,0,0,0,9,22.63Z"/></g><g id="Grupo_180" data-name="Grupo 180"><path id="Caminho_165" data-name="Caminho 165" class="cls-2" d="M11.94,22.63a.51.51,0,0,0,.51-.5V18.78a.49.49,0,0,0-.51-.48.48.48,0,0,0-.49.48v3.35A.5.5,0,0,0,11.94,22.63Z"/></g><g id="Grupo_181" data-name="Grupo 181"><path id="Caminho_166" data-name="Caminho 166" class="cls-2" d="M14.84,22.63a.5.5,0,0,0,.5-.5V18.78a.49.49,0,0,0-.52-.47.48.48,0,0,0-.47.47v3.35A.5.5,0,0,0,14.84,22.63Z"/></g><g id="Grupo_182" data-name="Grupo 182"><path id="Caminho_167" data-name="Caminho 167" class="cls-2" d="M17.74,22.63a.5.5,0,0,0,.5-.5V18.78a.5.5,0,0,0-1,0v3.35A.5.5,0,0,0,17.74,22.63Z"/></g><g id="Grupo_183" data-name="Grupo 183"><path id="Caminho_168" data-name="Caminho 168" class="cls-2" d="M21.14,22.13v-.34a.5.5,0,1,0-1,0v.34a.5.5,0,1,0,1,0Z"/></g><g id="Grupo_184" data-name="Grupo 184"><path id="Caminho_169" data-name="Caminho 169" class="cls-2" d="M28.85,21.79v.34a.51.51,0,0,0,.5.51.52.52,0,0,0,.5-.51v-.34a.5.5,0,0,0-.5-.51h0a.5.5,0,0,0-.5.5Z"/></g><g id="Grupo_185" data-name="Grupo 185"><path id="Caminho_170" data-name="Caminho 170" class="cls-2" d="M32.25,22.63a.5.5,0,0,0,.5-.5V18.78a.49.49,0,0,0-.5-.49.5.5,0,0,0-.5.49v3.35A.5.5,0,0,0,32.25,22.63Z"/></g><g id="Grupo_186" data-name="Grupo 186"><path id="Caminho_171" data-name="Caminho 171" class="cls-2" d="M35.15,22.63a.5.5,0,0,0,.5-.5V18.78a.48.48,0,0,0-.5-.48.5.5,0,0,0-.5.48v3.35A.5.5,0,0,0,35.15,22.63Z"/></g><g id="Grupo_187" data-name="Grupo 187"><path id="Caminho_172" data-name="Caminho 172" class="cls-2" d="M38.05,22.63a.5.5,0,0,0,.51-.5V18.78a.5.5,0,0,0-1,0v3.35A.5.5,0,0,0,38.05,22.63Z"/></g><g id="Grupo_188" data-name="Grupo 188"><path id="Caminho_173" data-name="Caminho 173" class="cls-2" d="M41,18.29a.49.49,0,0,0-.49.49v3.35a.5.5,0,0,0,.5.5.51.51,0,0,0,.5-.5V18.78a.51.51,0,0,0-.51-.49Z"/></g><g id="Grupo_189" data-name="Grupo 189"><path id="Caminho_174" data-name="Caminho 174" class="cls-2" d="M25,7.6a6.1,6.1,0,0,0-6.1,6.09c0,4.59,5.48,11.39,5.71,11.67a.49.49,0,0,0,.39.19.51.51,0,0,0,.39-.19c.23-.28,5.7-7.08,5.7-11.67A6.09,6.09,0,0,0,25,7.6Zm0,16.63c-1.25-1.64-5.1-7-5.1-10.54a5.1,5.1,0,1,1,10.19,0h0c0,3.55-3.84,8.9-5.09,10.54Z"/></g><g id="Grupo_190" data-name="Grupo 190"><path id="Caminho_175" data-name="Caminho 175" class="cls-2" d="M25,10.66a3.09,3.09,0,1,0,3.08,3.09A3.08,3.08,0,0,0,25,10.66Zm0,5.16a2.08,2.08,0,1,1,2.08-2.07A2.07,2.07,0,0,1,25,15.82Z"/></g></g></svg>