<svg id="Camada_1" data-name="Camada 1" xmlns="http://www.w3.org/2000/svg" viewBox="0 0 50 50"><defs><style>.cls-1{fill:#15baff;}.cls-2{fill:#fff;}</style></defs><circle id="Elipse_174" data-name="Elipse 174" class="cls-1" cx="25" cy="25" r="25"/><g id="Grupo_413" data-name="Grupo 413"><g id="Grupo_192" data-name="Grupo 192"><path id="Caminho_176" data-name="Caminho 176" class="cls-2" d="M38.34,33.3a.4.4,0,0,0-.42.39v3a1.25,1.25,0,0,1-1.24,1.24H31a.41.41,0,0,0-.41.42.41.41,0,0,0,.41.41h5.69a2.09,2.09,0,0,0,2.08-2.07v-3a.4.4,0,0,0-.4-.41Z"/></g><g id="Grupo_193" data-name="Grupo 193"><path id="Caminho_177" data-name="Caminho 177" class="cls-2" d="M36.67,11.25H13.33a2.08,2.08,0,0,0-2.08,2.09v25a.41.41,0,0,0,.41.42h16a.41.41,0,0,0,.41-.41h0V33.86l1.43-1,.17.07L30,35a.4.4,0,0,0,.34.35,7.13,7.13,0,0,0,2.35,0A.4.4,0,0,0,33,35l.33-2.08.18-.07,1.7,1.23a.4.4,0,0,0,.49,0,7,7,0,0,0,1.66-1.65.44.44,0,0,0,0-.49l-1.24-1.7a1.59,1.59,0,0,1,.08-.18l2.08-.33a.43.43,0,0,0,.34-.35,7.13,7.13,0,0,0,0-2.35.4.4,0,0,0-.34-.33l-2.08-.34-.08-.18,1.24-1.7a.42.42,0,0,0,0-.48,7.31,7.31,0,0,0-1.66-1.67.44.44,0,0,0-.49,0l-1.7,1.24-.18-.07L33,21.39a.43.43,0,0,0-.34-.35,7.72,7.72,0,0,0-2.35,0,.41.41,0,0,0-.34.35l-.34,2.08-.17.07-1.43-1v-3a.29.29,0,0,0,0-.09V19.4a1,1,0,0,0-.08-.11l-3.74-3.75a.35.35,0,0,0-.13-.08l0,0h-12V13.34a1.25,1.25,0,0,1,1.25-1.25H36.67a1.24,1.24,0,0,1,1.24,1.24h0v2.08H27.65a.42.42,0,0,0-.42.42.43.43,0,0,0,.42.42H37.91v6.39a.42.42,0,0,0,.41.43.41.41,0,0,0,.43-.4V13.34A2.09,2.09,0,0,0,36.67,11.25ZM12.08,37.92V16.26H23.49v3.31a.42.42,0,0,0,.42.42h3.32v2.36A7.92,7.92,0,0,0,25.63,24a.44.44,0,0,0,0,.49l1.23,1.69-.07.19-2.07.33a.4.4,0,0,0-.35.33,7.13,7.13,0,0,0,0,2.35.41.41,0,0,0,.35.35L26.8,30a1.71,1.71,0,0,1,.07.18l-1.23,1.71a.42.42,0,0,0,0,.48,7.36,7.36,0,0,0,1.6,1.6v3.93ZM29.63,24.39l.54-.22a.41.41,0,0,0,.28-.33l.32-2a7.42,7.42,0,0,1,1.49,0l.32,2a.41.41,0,0,0,.28.33c.18.06.35.14.54.22a.39.39,0,0,0,.43,0l1.65-1.21a6.58,6.58,0,0,1,1.05,1.06l-1.2,1.65a.43.43,0,0,0,0,.44,3.21,3.21,0,0,1,.22.54.4.4,0,0,0,.33.27l2,.32a7,7,0,0,1,0,1.49l-2,.32a.45.45,0,0,0-.33.28,3.6,3.6,0,0,1-.22.54.42.42,0,0,0,0,.43l1.2,1.66a6.52,6.52,0,0,1-1.05,1.05L33.83,32a.44.44,0,0,0-.43,0c-.18.08-.36.16-.54.22a.41.41,0,0,0-.28.34l-.32,2a7.42,7.42,0,0,1-1.49,0l-.32-2a.44.44,0,0,0-.28-.34,3.6,3.6,0,0,1-.54-.22.4.4,0,0,0-.43,0l-1.66,1.2a7,7,0,0,1-1.05-1.05l1.2-1.66a.4.4,0,0,0,0-.43,3.54,3.54,0,0,1-.23-.53.43.43,0,0,0-.33-.29l-2-.32a6.11,6.11,0,0,1,0-1.48l2-.32a.41.41,0,0,0,.33-.28,3.65,3.65,0,0,1,.23-.54.4.4,0,0,0,0-.43l-1.2-1.66a6.52,6.52,0,0,1,1.05-1.05l1.65,1.2A.39.39,0,0,0,29.63,24.39Zm-3-5.24H24.33V16.84Z"/></g><g id="Grupo_194" data-name="Grupo 194"><path id="Caminho_178" data-name="Caminho 178" class="cls-2" d="M36.44,14a.36.36,0,0,0,.12-.28.46.46,0,0,0-.11-.3.46.46,0,0,0-.6,0,.41.41,0,0,0,0,.57h0a.43.43,0,0,0,.3.13A.41.41,0,0,0,36.44,14Z"/></g><g id="Grupo_195" data-name="Grupo 195"><path id="Caminho_179" data-name="Caminho 179" class="cls-2" d="M34.27,13.76a.42.42,0,0,0-.42-.42h0a.41.41,0,0,0-.41.41h0a.42.42,0,0,0,.41.42A.43.43,0,0,0,34.27,13.76Z"/></g><g id="Grupo_196" data-name="Grupo 196"><path id="Caminho_180" data-name="Caminho 180" class="cls-2" d="M31.86,14a.42.42,0,0,0,.12-.28.43.43,0,0,0-.12-.31.47.47,0,0,0-.59,0,.49.49,0,0,0-.13.31.41.41,0,0,0,.13.28.39.39,0,0,0,.29.13A.43.43,0,0,0,31.86,14Z"/></g><g id="Grupo_197" data-name="Grupo 197"><path id="Caminho_181" data-name="Caminho 181" class="cls-2" d="M31.51,30.68A2.5,2.5,0,1,0,29,28.18h0a2.49,2.49,0,0,0,2.49,2.5Zm0-4.17a1.67,1.67,0,1,1-1.66,1.67A1.67,1.67,0,0,1,31.51,26.51Z"/></g><g id="Grupo_198" data-name="Grupo 198"><path id="Caminho_182" data-name="Caminho 182" class="cls-2" d="M14.5,20h6.4a.42.42,0,0,0,.42-.42h0a.43.43,0,0,0-.42-.42H14.5a.42.42,0,0,0-.41.42.41.41,0,0,0,.41.42Z"/></g><g id="Grupo_199" data-name="Grupo 199"><path id="Caminho_183" data-name="Caminho 183" class="cls-2" d="M23.82,22.69H14.5a.42.42,0,0,0,0,.84h9.32a.42.42,0,0,0,.42-.42h0A.42.42,0,0,0,23.82,22.69Z"/></g><g id="Grupo_200" data-name="Grupo 200"><path id="Caminho_184" data-name="Caminho 184" class="cls-2" d="M14.5,27.07h7.65a.44.44,0,0,0,.42-.42.42.42,0,0,0-.41-.42H14.5a.41.41,0,0,0-.41.41h0A.42.42,0,0,0,14.5,27.07Z"/></g><g id="Grupo_201" data-name="Grupo 201"><path id="Caminho_185" data-name="Caminho 185" class="cls-2" d="M14.5,30.59h7.65a.41.41,0,0,0,.42-.41.42.42,0,0,0-.42-.42H14.5a.41.41,0,0,0-.41.42A.41.41,0,0,0,14.5,30.59Z"/></g><g id="Grupo_202" data-name="Grupo 202"><path id="Caminho_186" data-name="Caminho 186" class="cls-2" d="M23.82,33.3H14.5a.4.4,0,0,0-.41.39v0a.42.42,0,0,0,.41.42h9.32a.42.42,0,0,0,.42-.42h0a.4.4,0,0,0-.4-.41Z"/></g></g></svg>