<svg id="Camada_1" data-name="Camada 1" xmlns="http://www.w3.org/2000/svg" viewBox="0 0 50 50"><defs><style>.cls-1{fill:#15baff;}.cls-2{fill:#fff;}</style></defs><circle id="Elipse_176" data-name="Elipse 176" class="cls-1" cx="25" cy="25" r="25"/><g id="Grupo_301" data-name="Grupo 301"><g id="Grupo_299" data-name="Grupo 299"><path id="Caminho_264" data-name="Caminho 264" class="cls-2" d="M25,17.64a4.91,4.91,0,0,0-.67,9.77h.07a.49.49,0,0,0,.48-.5.49.49,0,0,0-.42-.48A3.93,3.93,0,1,1,28.89,22a.48.48,0,0,0,.55.42h0a.49.49,0,0,0,.41-.55A4.91,4.91,0,0,0,25,17.64Z"/></g><g id="Grupo_300" data-name="Grupo 300"><path id="Caminho_265" data-name="Caminho 265" class="cls-2" d="M41.1,15.58s0,0,0,0L41,15.48s0,0,0,0l0,0,0,0h0l-15.69-7a.55.55,0,0,0-.4,0l-15.68,7h0a0,0,0,0,1,0,0l0,0,0,0a.18.18,0,0,0-.05.07l0,0a.2.2,0,0,0,0,.08.09.09,0,0,0,0,.05.2.2,0,0,0,0,.11V32.18a.48.48,0,0,0,.29.45l15.68,7h0a.47.47,0,0,0,.17,0h0l.17,0h0l15.68-7a.46.46,0,0,0,.29-.45V15.82A.42.42,0,0,0,41.1,15.58ZM25,9.36l6.2,2.77L28.81,13.2a.49.49,0,0,0-.25.63h0a.48.48,0,0,0,.45.29.41.41,0,0,0,.19,0l3.19-1.42,7.08,3.15-7.42,3.32a7.84,7.84,0,0,0-14.12,0l-7.42-3.32Zm.79,14,9.39,3.23-4.09,1.82a.39.39,0,0,0-.25.25L29,32.73Zm5.84,1-6.47-2.23a.48.48,0,0,0-.62.3.44.44,0,0,0,0,.32l2.21,6.46a6.12,6.12,0,0,1-1.75.25,6.87,6.87,0,1,1,6.86-6.87h0A7,7,0,0,1,31.63,24.31Zm-14,11.05V27.9a.49.49,0,0,0-1,0v7L9.81,31.86V16.59l7.35,3.27.41.19A7.84,7.84,0,0,0,22.49,30a8.21,8.21,0,0,0,2,.39v8.07Zm22.54-3.5-14.7,6.57V30.36a7.56,7.56,0,0,0,1.58-.26l1.42,4.11a.45.45,0,0,0,.44.34h0a.5.5,0,0,0,.45-.28l2.25-5.08,5.07-2.25a.47.47,0,0,0,.28-.47.45.45,0,0,0-.33-.43l-4.12-1.43a7.52,7.52,0,0,0-.13-4.55l7.77-3.47Z"/></g></g></svg>