<svg id="Camada_1" data-name="Camada 1" xmlns="http://www.w3.org/2000/svg" viewBox="0 0 50 50"><defs><style>.cls-1{fill:#15baff;}.cls-2{fill:#fff;}</style></defs><circle id="Elipse_177" data-name="Elipse 177" class="cls-1" cx="25.04" cy="25.04" r="24.96"/><g id="Grupo_235" data-name="Grupo 235"><path id="Caminho_213" data-name="Caminho 213" class="cls-2" d="M41.78,16.62a.57.57,0,0,0,0-.18l0,0a.18.18,0,0,0,0-.07l-3.19-4.18V10.82A2.54,2.54,0,0,0,36,8.29H14.12a2.53,2.53,0,0,0-2.53,2.53h0v1.34l-3.2,4.17a.22.22,0,0,0-.05.08s0,0,0,0a.58.58,0,0,0,0,.18h0a3.14,3.14,0,0,0,3.21,3.05h.09V33.15a2.54,2.54,0,0,0,2.54,2.54h7.62l-.42,3a13.1,13.1,0,0,0-4.72,2.17.52.52,0,0,0-.18.57.5.5,0,0,0,.48.35H33.16a.51.51,0,0,0,.3-.92,13.1,13.1,0,0,0-4.72-2.17l-.42-3H36a2.53,2.53,0,0,0,2.53-2.54V19.68h.09a3.14,3.14,0,0,0,3.21-3Zm-8.55-4.28,1.83,3.78H30.85l-.93-3.78Zm-4.36,0,.94,3.78H25.54V12.34Zm-4.34,3.78H20.27l.94-3.78h3.32Zm-5.31,0H15l1.83-3.78h3.31Zm-.18,1a2.25,2.25,0,0,1-4.25,0Zm5.42,0a2.26,2.26,0,0,1-4.26,0Zm5.41,0A2.26,2.26,0,0,1,27,18.53a2.3,2.3,0,0,1-1.38-1.38Zm5.42,0a2.26,2.26,0,0,1-2.88,1.38A2.3,2.3,0,0,1,31,17.15Zm.9-1-1.83-3.78h3l2.9,3.78ZM14.12,9.3H36a1.52,1.52,0,0,1,1.52,1.52h0v.51H12.6v-.51A1.52,1.52,0,0,1,14.11,9.3Zm-1.4,3h3l-1.83,3.78H9.82ZM9.37,17.15h4.26a2.26,2.26,0,0,1-2.88,1.38A2.3,2.3,0,0,1,9.37,17.15Zm9.29,23.62a14.13,14.13,0,0,1,12.76,0Zm9-2.29a15.66,15.66,0,0,0-5.29,0l.38-2.79H27.3ZM36,34.67H14.12a1.52,1.52,0,0,1-1.52-1.51H37.47A1.52,1.52,0,0,1,36,34.67Zm-15.18-3.3a.76.76,0,1,1,.76.76.76.76,0,0,1-.76-.76Zm6.7,0a.76.76,0,1,1,.76.76A.76.76,0,0,1,27.47,31.37Zm2-6.31H20.35L20,23.54h9.89Zm-.21,1L29,27.6H21l-.4-1.52Zm8.17,6.06H29.83a1.75,1.75,0,0,0-.34-2l.41-1.92h0L31,23.13h0L31,22.9a1.85,1.85,0,0,1,1.79-1.46.5.5,0,0,0,.5-.5.5.5,0,0,0-.5-.51h0a2.86,2.86,0,0,0-2.73,2.1H19.29a.5.5,0,0,0-.49.63l1.34,5.07a.48.48,0,0,0,.49.38h8.15l-.22,1a1.26,1.26,0,0,0-.33-.05,1.78,1.78,0,0,0-1.77,1.78,1.71,1.71,0,0,0,.18.77H23.13a1.71,1.71,0,0,0,.18-.77,1.78,1.78,0,0,0-3.56,0,2,2,0,0,0,.18.77H12.6V19.48a3.16,3.16,0,0,0,1.61-1.22,3.29,3.29,0,0,0,4.59.83,3.08,3.08,0,0,0,.82-.83,3.3,3.3,0,0,0,4.59.83,3,3,0,0,0,.83-.83,3.29,3.29,0,0,0,4.59.83,3.08,3.08,0,0,0,.82-.83,3.31,3.31,0,0,0,4.6.83,3.46,3.46,0,0,0,.81-.81,3.11,3.11,0,0,0,1.61,1.2Zm1.1-13.48a2.17,2.17,0,0,1-2.13-1.51H40.7A2.18,2.18,0,0,1,38.57,18.66Z"/></g></svg>