<?xml version="1.0" encoding="utf-8"?>
<!-- Generator: Adobe Illustrator 24.3.0, SVG Export Plug-In . SVG Version: 6.00 Build 0)  -->
<svg version="1.1" id="Camada_1" xmlns="http://www.w3.org/2000/svg" xmlns:xlink="http://www.w3.org/1999/xlink" x="0px" y="0px"
	 viewBox="0 0 500 500" style="enable-background:new 0 0 500 500;" xml:space="preserve">
<style type="text/css">
	.st0{fill:#D3D3D3;}
	.st1{fill:#E5E5E5;}
	.st2{fill:#E8E8E8;}
	.st3{fill:#1A2E35;}
	.st4{fill:#D1D1D1;}
	.st5{fill:#9924D0;}
	.st6{fill:#FEBE9C;}
	.st7{fill:#C2AE50;}
	.st8{fill:#FE996C;}
	.st9{fill:#CF94E7;}
	.st10{fill:#CD90E6;}
	.st11{fill:#375A64;}
	.st12{fill:#CD91E5;}
	.st13{fill:#34555F;}
	.st14{fill:#355761;}
	.st15{fill:#305059;}
	.st16{fill:#33545E;}
	.st17{fill:#B0B3B4;}
	.st18{fill:#ADB4B6;}
	.st19{fill:#F2E7F6;}
	.st20{fill:#F0E3F5;}
	.st21{fill:#F6F2F8;}
	.st22{fill:#E3C3EF;}
	.st23{fill:#D298E8;}
	.st24{fill:#263041;}
	.st25{fill:#1F3039;}
	.st26{fill:#E3C2EF;}
	.st27{fill:#DFB9ED;}
	.st28{fill:#DCB3EC;}
	.st29{fill:#223238;}
	.st30{fill:#2B383C;}
	.st31{fill:#243339;}
	.st32{fill:#233338;}
	.st33{fill:#213238;}
	.st34{fill:#26353A;}
	.st35{fill:#2C383C;}
	.st36{fill:#FEA276;}
	.st37{fill:#725F58;}
	.st38{fill:#272D43;}
	.st39{fill:#F4EEF7;}
	.st40{fill:#E4C5F0;}
	.st41{fill:#222D3D;}
	.st42{fill:#2A2D46;}
	.st43{fill:#2B2D48;}
	.st44{fill:#202E3C;}
	.st45{fill:#352C53;}
	.st46{fill:#4C2B6E;}
	.st47{fill:#1D2E38;}
	.st48{fill:#582A7B;}
	.st49{fill:#D096E6;}
	.st50{fill:#442B64;}
	.st51{fill:#54405D;}
	.st52{fill:#55415C;}
	.st53{fill:#54415C;}
	.st54{fill:#1E2E39;}
	.st55{fill:#552A78;}
	.st56{fill:#726587;}
	.st57{fill:#332D50;}
	.st58{fill:#F6F3F8;}
	.st59{fill:#F5EFF7;}
	.st60{fill:#8880FE;}
	.st61{fill:#877FFE;}
	.st62{fill:#8780FE;}
	.st63{fill:#968FFE;}
	.st64{fill:#857EFA;}
	.st65{fill:#CD8FE5;}
	.st66{fill:#34454B;}
	.st67{fill:#3B4B51;}
	.st68{fill:#4B5A5F;}
	.st69{fill:#293B42;}
	.st70{fill:#2D3E45;}
	.st71{fill:#59676C;}
	.st72{fill:#425157;}
	.st73{fill:#212D3D;}
	.st74{fill:#E1BDEE;}
	.st75{fill:#242D40;}
	.st76{fill:#F4F0F5;}
	.st77{fill:#E4C4F0;}
	.st78{fill:#462B66;}
	.st79{fill:#3A2C59;}
	.st80{fill:#80418E;}
	.st81{fill:#5C3E68;}
	.st82{fill:#AC71C1;}
	.st83{fill:#365862;}
	.st84{fill:#2B454F;}
	.st85{fill:#8F2BC1;}
	.st86{fill:#2F4C56;}
	.st87{fill:#2A4750;}
	.st88{fill:#3F4979;}
	.st89{fill:#585BA7;}
	.st90{fill:#F6F7F7;}
	.st91{fill:#F8F9F9;}
	.st92{fill:#867EFB;}
	.st93{fill:#F4F4F5;}
	.st94{fill:#262D41;}
	.st95{fill:#2E2D4B;}
	.st96{fill:#432B62;}
	.st97{fill:#D6A6E8;}
	.st98{fill:#492B6A;}
	.st99{fill:#F4F4F4;}
	.st100{fill:#9B27D0;}
</style>
<g>
	<path class="st0" d="M98.1,22c5,0.5,9.9,1.7,14.6,3.5c8.1,3,15.2,7.6,21.4,13.5c1.4,1.3,2.9,2.7,4.3,4c5.5,5.4,10.9,10.8,16.5,16.1
		c7.1,6.8,14.1,13.6,21.1,20.4c7,6.7,13.9,13.5,20.9,20.2c7.2,7,14.4,13.9,21.5,20.9c7.1,6.9,14.2,13.8,21.3,20.7
		c3,2.9,5.9,5.8,8.9,8.7c0.6,0.6,1.2,0.8,2,0.8c9.1,0,18.1,0,27.2,0c1.6,0,3.1,0,4.7,0c0.7,0,1.4,0,2.1,0c23.6,0,47.2,0,70.8,0
		c30.1,0,60.1,0,90.2,0c1.1,0,2.2,0,3.4,0c9.8,0,19.6,0,29.4,0c0.8,0,1.6-0.2,2.3,0.3c-12.2,0-24.5,0-36.7,0
		c-53.1,0-106.2,0-159.2,0c-2.2,0-4.3,0-6.5,0c-9.8,0-19.6,0-29.4-0.1c-0.5,0-1-0.1-1.6-0.1c-45.8,0-91.5,0-137.3,0
		c-1.3,0-1.9-0.3-2.4-1.6c-1.2-3.3-3.2-6.2-6.1-8.4c-0.3-0.3-0.5-0.6-0.9-0.9c-3.1-2.5-6.5-4.3-10.3-5.5c-3.3-1-6.7-1.6-10.1-1.9
		c-1.4-0.1-2.4-0.3-2.4-2.2c0.1-1.5-0.4-3-0.5-4.6c-0.1-0.7-0.4-0.9-1-0.9c0-0.1,0-0.2,0-0.3c0.3-0.8-0.6-1.8,0.9-2.3
		c6.4-2.1,9-5.8,8.9-12.5c-0.1-4.5-0.3-8.9-0.6-13.4c-0.3-5.3-0.5-10.5-1-15.8c0.1-0.7,0.6-0.9,1.2-1.1c1.1-0.3,1.9-1,2.4-1.9
		c1.6-2.6,1.2-5.2-0.2-7.7c-3.1-5.3-9.5-6.8-14.7-3.5c-0.7,0.4-1.1,0.7-1.7-0.2c-4.6-6.3-13.2-6.1-17.3,0.7c-2.1,3.5-4.6,6-8.4,7.6
		c-2.9,1.2-4.5,3.7-4.5,6.9c0,3.1,1.6,5.4,4.5,6.7c0.4,0.2,0.9,0.3,0.6,1c-0.8,1.7-0.6,3.5-0.3,5.3c-1.2,0.5-2,1.3-2.3,2.6
		c-1.1,3.9,0.9,7.9,5.1,7.3c0.5-0.1,1.2-0.2,1.3,0.7c0.1,0.9,0.2,1.8,0.3,2.7c0.2,3.7,0.3,7.5,0.7,11.2c0.2,1.6-0.1,3.2,0.5,4.7
		c-1.2-0.1-1.4,0.5-1.2,1.6c0.4,2,0.6,4.1,1,6.1c0.1,0.6,0,1-0.7,1.1c-3.5,0.2-6.8,1.3-10.2,2.1c-4.9,1.1-9.3,3.3-12.9,6.9
		c-0.1,0-0.2,0-0.3,0.1c0-0.4-0.1-0.8-0.1-1.3c0-20.1,0-40.3,0-60.4c0-1.3,0.2-2.6,0.4-3.9c1.4-7.9,3.7-15.5,7.8-22.5
		C39,47,43.6,41.5,49.1,36.8c5.1-4.3,10.7-7.7,16.9-10.3c5.7-2.3,11.6-4,17.7-4.6c1.1-0.1,2.2,0.3,3.2-0.3c2.5,0,5.1,0,7.6,0
		C95.7,22.4,96.9,21.9,98.1,22z"/>
	<path class="st1" d="M98.1,22c-1.2-0.1-2.4,0.4-3.5-0.3c1.2,0,2.3,0,3.5,0C98.1,21.8,98.1,21.9,98.1,22z"/>
	<path class="st2" d="M83.7,22c0-0.1,0-0.2,0-0.3c1.1,0,2.1,0,3.2,0C85.9,22.3,84.8,21.9,83.7,22z"/>
	<path class="st3" d="M96.4,478.2c-7.9,0.2-15.7-0.1-23.3-2.3c-4.6-1.3-8.9-3.2-13.2-5.3c-0.4-0.3-0.9-0.6-1.3-0.9
		c0.2-7.5,0.4-14.9,0.7-22.4c0.4-12.1,0.7-24.2,1.1-36.2c0.7-23.7,1.4-47.3,2.1-71c0.3-9.1,0.6-18.1,0.8-27.2
		c0.3-10.2,0.5-20.3,0.8-30.5c0.4-2.2,0.2-4.4,0-6.6c-0.1,0.6-0.2,1.2-0.3,1.8c-0.1,0.5-0.2,0.9-0.3,1.4c-3,15.1-6,30.2-9,45.3
		c-7.4,37.2-14.8,74.3-22.3,111.4c-0.2,0.8,0.1,1.9-0.8,2.5c-1.9-5.2-3.4-10.5-4-16c-0.1-0.8-0.2-1.7-0.2-2.5
		c0-50.8,0-101.6,0-152.4c0-0.4,0-0.7,0-1.1c0.1-0.4,0.2-0.7,0.3-1.1c1.2-6.1,2.3-12.1,3.5-18.2c6.2,0,12.3,0.1,18.5,0.1
		c-0.5,2.1-1.1,4.2,0,6.7c-0.1-2.5,0.2-4.6,0.6-6.7l0,0c3.8,0,7.6,0,11.4,0c10.4,0,20.8,0,31.1,0c1.3,0,1.7,0.4,1.7,1.7
		c0,1.8-0.2,3.6-0.4,5.4c1.4-1.7,1.3-3.8,0.9-5.7c-0.2-1.4,0.3-1.4,1.3-1.4c3,0,6,0,9.1,0c0.1,0,0.1,0,0.2-0.1c0,0.5,0,1.1,0,1.6
		c-0.5,13.2-1,26.4-1.5,39.6c-0.5,12-0.9,24-1.4,36.1c-0.6,14.2-1.2,28.5-1.2,42.8c-0.1-0.3-0.3-0.6-0.5-1.1c0,1.3,0,2.4,0,3.4
		c-0.4,10.4-0.8,20.9-1.2,31.3c-0.1,2.4-0.3,2,2,2c127,0,254,0,380.9,0c1.7,0,2-0.5,2-2.1c0-74.3,0-148.6,0-222.8c0-0.7,0-1.4,0-2.1
		c-0.3-10.3-8.8-18.9-19.1-19.3c-0.9-0.3-1.8-0.2-2.7-0.2c-117,0-234,0-351,0c-0.8,0-1.6-0.1-2.4-0.1c-0.2-1-0.4-2-0.7-2.9
		c-0.5-1.9-0.5-1.9,1.5-1.9c45.6,0,91.2,0,136.8,0c0.6,0,1.2-0.1,1.7-0.1c9.8,0,19.6,0,29.4,0.1c2.2,0,4.3,0,6.5,0
		c53.1,0,106.2,0,159.2,0c12.2,0,24.5,0,36.7,0c6.1,1.2,9.8,5.2,10.5,11.2c0,0.5,0,1,0,1.4c0,89.7,0,179.4,0,269
		c-2.2,7.4-5.5,14.2-10.2,20.3c-1.2,0-2.3,0.1-3.5,0.1c-47.3,0-94.5,0-141.8,0c-0.4,0-0.7,0-1.1,0c-1-0.2-1.5,0.2-1.7,1.3
		c-0.5,2.7-1,5.4-1.1,8.2c-0.2,5.4,1,10.6,3.1,15.6c-31.9,0-63.8,0-95.7,0c-0.8,0-1.7,0-2.5,0c-0.1-0.4,0.1-0.8,0.2-1.2
		c2.5-7.3,2.6-14.7,1.1-22.3c-0.3-1.2-0.7-1.6-2-1.6c-45.6,0-91.2,0-136.8,0c-1.2,0-1.6,0.3-1.6,1.5
		C97.1,462.6,96.7,470.4,96.4,478.2z M282.5,436.3c3.9,0.3,7.3-3,7.4-7.3c0.1-4.3-3.2-7.4-7.4-7.4c-3.9,0-7.2,3.3-7.2,7.3
		C275.2,433.6,277.9,436.3,282.5,436.3z M72.8,251.2c-1.1,5-2,10-2.8,15.1c-0.6,3.3-1.9,6.2-5.9,7c1.1,0.3,1.9,0,2.6-0.4
		c2-1.1,3.2-2.9,3.7-5.1c0.8-3.1,1.1-6.2,1.6-9.3C72.3,255.9,72.9,253.6,72.8,251.2z M89.3,247.6c-0.1,0-0.3,0-0.4-0.1
		c0,2.3,0,4.5,0,6.9C89.9,252.2,90.1,249.9,89.3,247.6z M65.1,250.4c-0.6,1.1-0.4,1.8,0.3,2.4c0.6,0.5,1.3,0.4,1.9,0
		c0.6-0.4,1.1-1,0.8-1.7c-0.3-0.9-1.1-1.4-2.2-1.1c0.7,0.4,1.5,0.7,1.3,1.7c-0.1,0.5-0.4,0.7-0.9,0.7
		C65.1,252.3,65.4,251.4,65.1,250.4z M45.6,247.3c-1.5,1.7-1.8,4.9-0.6,6.4C44.8,251.5,45.1,249.5,45.6,247.3z"/>
	<path class="st0" d="M334.7,478.2c-2.1-5-3.3-10.1-3.1-15.6c0.1-2.8,0.5-5.5,1.1-8.2c0.2-1.1,0.7-1.4,1.7-1.3c0.4,0.1,0.7,0,1.1,0
		c47.3,0,94.5,0,141.8,0c1.2,0,2.3-0.1,3.5-0.1c-9.7,12.7-22.2,20.9-38,23.9c-4.3,0.8-8.5,1.2-12.9,1.2c-30.9,0-61.8,0-92.7,0
		c-0.7,0-1.4,0-2.1,0C335,478.3,334.8,478.3,334.7,478.2z"/>
	<path class="st0" d="M448.8,150.8c-1.1,0-2.2,0-3.4,0c0-0.5,0.1-0.9,0.1-1.4c0-22.2,0-44.4,0-66.6c0-7.1-2.8-13.3-7.6-18.5
		c-5.8-6.2-13.1-9.2-21.7-9.2c-53.6,0-107.1,0-160.7,0c-1.7,0-3.5,0-5.2,0.3c-6.3,1-11.7,3.7-16.1,8.2c-4.8,5-7.6,11.1-8.2,18
		c-0.7,8.3,1.8,15.7,7.6,21.8c3.5,3.6,7.1,7.1,10.8,10.6c7.2,6.9,14.3,14,21.6,20.9c5.5,5.3,10.9,10.7,16.4,16c-1.6,0-3.1,0-4.7,0
		c-0.9-1.5-2.5-2.4-3.7-3.6c-6.5-6.4-12.9-12.8-19.5-19.1c-7.4-7.1-14.8-14.3-22.1-21.5c-4.9-4.8-8.3-10.6-9.1-17.4
		c-1.1-9.3,0.6-18,6.7-25.5c4.1-5,9.1-8.5,15.2-10.4c2.8-0.9,5.6-1.4,8.6-1.4c54.7,0,109.3-0.1,164,0.1c9.6,0,17.7,4.2,23.8,11.7
		c4.9,6,7.2,12.9,7.2,20.7c-0.1,21.5,0,42.9,0,64.4C448.7,149.5,448.7,150.1,448.8,150.8z"/>
	<path class="st4" d="M491,432.8c0-89.7,0-179.4,0-269c0-0.5,0-1,0-1.4c0.5,0.7,0.3,1.4,0.3,2.2c0,76.3,0,152.7,0,229
		c0,2.6,0.4,5,1,7.5c0.8,3.2,1.1,6.4,1.2,9.7c0.3,7.3-0.3,14.6-2.3,21.7C491.2,432.5,491.1,432.7,491,432.8z"/>
	<path class="st5" d="M248.6,151.1c-0.6,0-1.2,0.1-1.7,0.1c-45.6,0-91.2,0-136.8,0c-2,0-2,0-1.5,1.9c0.2,1,0.4,2,0.7,2.9
		c-0.4,0.1-0.9-0.2-1.4,0.4c0.6,0,1.1,0,1.5,0c0.8,4.8,1.7,9.5,2.5,14.3c-0.1,0.6-0.5,0.7-1,0.7c-0.7,0-1.5,0-2.2,0
		c-1.9,0-3.8,0-5.7,0c-2.2,0-4.4-0.1-6.6-0.1c0-0.7,0-1.5,0-2.2c-0.1,0-0.3,0-0.4,0c0,0.7,0,1.4,0,2.2c-0.6,0-1.2,0-1.7,0
		c-13.2,0-26.4,0-39.6-0.1c-6,0-12.1,0-18.1,0c0-1.2,0-2.3,0-3.5c-0.1,0-0.3,0-0.4,0c0,1.2,0,2.3,0,3.5c-4.8,0-9.7,0.1-14.5,0.1
		c-0.7,0-1.4,0-2-0.1c-1.2-0.1-2.4,0.4-3.5-0.3c1.7-6.6,3.5-13.3,5.3-19.9c1-3.8,3.4-6.8,6-9.6c0.1,0,0.2,0,0.3-0.1
		c0.2,0,0.4,0,0.6,0c0.6,0,1.2,0,1.9,0c9.4,0.2,18.8,0.3,28.1,0.3c13.7,0,27.5,0,41.2-0.3c0.7,0,1.4,0.2,1.9-0.3l0,0
		c2.8,2.2,4.8,5.1,6.1,8.4c0.5,1.3,1.2,1.6,2.4,1.6c45.8,0,91.5,0,137.3,0C247.5,151,248.1,151,248.6,151.1z M23,156
		c-0.6-0.1-1.2-0.1-2,0.2c0.9,0,1.5,0,2,0c5.1,0.1,10.2,0.2,15.3,0.2c22.4,0.1,44.8,0.1,67.2-0.2c0.3,0,0.7,0.1,1.1-0.3
		c-0.8,0-1.4,0-2,0c-12-0.1-23.9-0.2-35.9-0.2C53.4,155.6,38.2,155.8,23,156z"/>
	<path class="st6" d="M51.6,123.7c-0.7-1.5-0.3-3.1-0.5-4.7c-0.4-3.7-0.5-7.5-0.7-11.2c-0.1-0.9-0.2-1.8-0.3-2.7
		c-0.1-0.9-0.8-0.8-1.3-0.7c-4.2,0.6-6.2-3.4-5.1-7.3c0.4-1.3,1.1-2.1,2.3-2.6c0.4,0.6,0.8,1.2,0.9,1.9c-1.9,0.9-2.4,2.5-1.4,4.6
		c0.5,1,1.1,1.7,2.4,1c-1.7,0-2-1.2-2.2-2.4c-0.2-1.2,0-2.5,1.5-2.9c0.5,0.5,1,1.1,1.5,1.6c1.6,1.3,2.4,1.2,3.6-0.5
		c2.7-3.9,3.2-8.2,1.8-12.7c-0.1-0.5-0.5-0.9-0.3-1.4c4.8,1.3,6,1.1,9.6-1.9c0.6-0.5,1-0.3,1.6-0.1c2.8,1.4,5.5,1.4,8.2-0.2
		c1.3-0.7,2.3-0.6,3.5,0c2.7,1.3,5.3,1.4,7.6-0.8c0.5,5.2,0.8,10.5,1,15.8c0.2,4.5,0.5,8.9,0.6,13.4c0.1,6.7-2.6,10.4-8.9,12.5
		c-1.5,0.5-0.6,1.6-0.9,2.3c-0.3-0.2-0.3-0.6-0.3-0.9c0.2-1.2-0.4-1.4-1.5-1.4c-1.9-0.1-3.7-0.5-5.5-1.1c-1.8-0.5-3.5-1.5-5.4-2.3
		c0.1,0.4,0.1,0.5,0.2,0.6c1.5,2.5,3.9,3.9,6.5,5C63.9,124.4,57.7,124,51.6,123.7z M76.2,104.2c0.9-0.3,0.9-1,0.6-1.6
		c-1-2.8-2.1-5.5-3.2-8.3c-0.1-0.2-0.2-0.3-0.5-0.3c-0.3,0.2,0,0.4,0.1,0.5c1,2.6,1.9,5.2,2.9,7.9c0.3,0.7,0.5,1.4-0.6,1.5
		c-0.7-0.1-1.3,0.2-2,0.5C74.4,104.4,75.3,104.6,76.2,104.2z M68.1,87.3c-2-1.9-5.6-1.5-6.9,0.8C63.5,87.8,65.7,87.6,68.1,87.3z
		 M79.3,88.5C79.3,88.5,79.3,88.5,79.3,88.5c0.5,0,1,0,1.6,0c0.3,0,0.7,0.2,0.8-0.2c0.2-0.4-0.2-0.7-0.5-0.9
		c-1.2-0.8-2.5-0.8-3.7-0.2c-0.3,0.2-0.7,0.4-0.7,0.8c0.1,0.5,0.6,0.4,0.9,0.4C78.3,88.5,78.8,88.5,79.3,88.5z M63.8,96.2
		c0.8-0.1,1.4-0.5,1.4-1.3c0-0.8-0.5-1.2-1.3-1.3c-0.9,0-1.4,0.5-1.4,1.3C62.5,95.6,63,96.1,63.8,96.2z M80.5,94.4
		c-0.1-0.8-0.6-1.3-1.4-1.3c-0.8,0-1.4,0.4-1.4,1.3c0,0.8,0.5,1.3,1.3,1.3C79.9,95.8,80.3,95.3,80.5,94.4z M68.6,105
		c-0.3,3.3,1.7,5,4.6,4.3C70.9,109,69.4,107.7,68.6,105z M82.3,92.7c-1.7-1.8-3.6-1.8-5.4,0.2C78.9,92.1,80.6,92.1,82.3,92.7z
		 M67.4,92.9c-1.6-1.8-3.6-1.7-5.3,0.2C64,92.4,65.7,92.4,67.4,92.9z"/>
	<path class="st7" d="M84.3,80.8c-2.3,2.2-5,2.1-7.6,0.8c-1.2-0.6-2.3-0.7-3.5,0c-2.6,1.5-5.4,1.5-8.2,0.2c-0.5-0.3-1-0.4-1.6,0.1
		c-3.7,3-4.8,3.2-9.6,1.9c-0.2,0.5,0.1,1,0.3,1.4c1.4,4.5,0.9,8.7-1.8,12.7c-1.2,1.7-2,1.9-3.6,0.5c-0.6-0.5-1-1.1-1.5-1.6
		c-0.1-0.1-0.2-0.2-0.3-0.3c-0.1-0.7-0.5-1.3-0.9-1.9c-0.3-1.8-0.5-3.6,0.3-5.3c0.3-0.7-0.2-0.8-0.6-1c-2.9-1.3-4.4-3.6-4.5-6.7
		c0-3.2,1.6-5.7,4.5-6.9c3.8-1.5,6.3-4.1,8.4-7.6c4.1-6.8,12.7-7,17.3-0.7c0.6,0.9,1,0.6,1.7,0.2c5.2-3.3,11.6-1.8,14.7,3.5
		c1.4,2.5,1.7,5.1,0.2,7.7c-0.6,0.9-1.4,1.6-2.4,1.9C85,79.9,84.4,80.1,84.3,80.8z"/>
	<path class="st5" d="M51.6,123.7c6.2,0.3,12.3,0.7,18.5,1c2,0.1,4,0.2,6,0.3c0.6,0,0.9,0.2,1,0.9c0.1,1.5,0.6,3,0.5,4.6
		c-0.1,1.8,1,2,2.4,2.2c3.4,0.3,6.8,0.9,10.1,1.9c3.8,1.2,7.2,2.9,10.3,5.5c0.3,0.3,0.6,0.6,0.9,0.9c0,0,0,0,0,0
		c-0.6,0-1.3,0-1.9,0.1c-8.5-0.1-17-0.2-25.4-0.3c-14.6-0.1-29.3,0-43.9,0.3c-0.6,0-1.3-0.2-1.9,0.3c-0.2,0-0.4,0-0.6,0
		c3.6-3.6,8-5.8,12.9-6.9c3.4-0.7,6.7-1.9,10.2-2.1c0.8,0,0.8-0.4,0.7-1.1c-0.3-2-0.6-4.1-1-6.1C50.2,124.2,50.4,123.6,51.6,123.7z
		 M76.1,132.7c-7.9-0.4-15.7-0.4-23.6-0.1C60.3,133.1,68.2,133.2,76.1,132.7z"/>
	<path class="st8" d="M76.1,125.1c-2-0.1-4-0.2-6-0.3c-2.6-1.1-5-2.5-6.5-5c-0.1-0.1-0.1-0.2-0.2-0.6c1.9,0.8,3.6,1.8,5.4,2.3
		c1.8,0.5,3.7,1,5.5,1.1c1,0,1.6,0.2,1.5,1.4c0,0.3,0,0.6,0.3,0.9C76.1,124.9,76.1,125,76.1,125.1z"/>
	<path class="st0" d="M64.1,282.4c-0.3,10.2-0.5,20.3-0.8,30.5c-0.3,9.1-0.6,18.1-0.8,27.2c-0.7,23.7-1.4,47.3-2.1,71
		c-0.4,12.1-0.7,24.2-1.1,36.2c-0.2,7.5-0.4,14.9-0.7,22.4c-7.9-4.6-14.5-10.5-19.8-17.9c-3.1-4.2-5.5-8.8-7.5-13.6
		c0.9-0.6,0.7-1.6,0.8-2.5c7.4-37.1,14.9-74.3,22.3-111.4c3-15.1,6-30.2,9-45.3c0.1-0.5,0.2-0.9,0.3-1.4
		C64.4,279.1,63.7,280.8,64.1,282.4z"/>
	<path class="st5" d="M6.4,212.6c0.9-6.5,2-12.9,3.7-19.2c0.6-2.3,1.2-4.6,1.8-6.9c0.8,0,1.7,0,2.5,0c2.9,0.1,5.8,0.2,8.7,0.3
		c4.2,0.1,8.4,0.1,12.7,0.1c0,0.8-0.1,1.6,0.1,2.4c0.3,1.9-0.2,3.9,0.5,5.8c0,0.4,0,0.9-0.3,1.2c-1.5,0.2-3,0.5-4.5,0.7
		c-0.9,0.1-1.9-0.1-2.8,0.3c-0.6,0-1.2,0.1-1.9,0.1c-0.6,0-1.1-0.1-1.7,0.2c-0.5,0-1,0.1-1.5,0.1c-0.5-0.1-0.9-0.1-1.3,0.2
		c-0.5,0-1,0.1-1.5,0.1c-1.1,0.1-2.2,0.2-3.2,0.4c1.1,0.2,2.2,0.5,3.2-0.1c0.6,0,1.3,0,1.9-0.1c0.4,0.1,0.7,0.1,1.1-0.2
		c0.7-0.1,1.4-0.1,2.1-0.2c0.6,0.1,1.2,0.1,1.7-0.2c0.4,0,0.8-0.1,1.2-0.1c1.1-0.1,2.1-0.2,3.2-0.3c2.2-0.2,4.4-0.4,6.7-0.6
		c4.7-0.4,9.4-0.9,14.2-1.3c0.5,0,1-0.4,1.5,0.1c0.3,0.7,0.6,1.5,1.3,2.1c0.2,0.2,0.5,0.3,0.3,0.6c0.3,0.8,0.6,1.6,1.3,2.2
		c0.2,0.2,0.5,0.3,0.3,0.6c0.3,0.8,0.6,1.6,1.3,2.2c0.1,0.1,0.2,0.3,0.3,0.4c0.1,0.9,0.5,1.7,1.3,2.3l0,0c0.3,1.2-0.5,1.7-1.4,2.1
		c-1.6,0.8-3.3,1.3-4.7,2.3c-3.5,0-6.9,0.1-10.4,0.1c-10.8-0.1-21.6-0.2-32.5,0.3c-1,0-2.1,0-3.1,0c0,0.1,0,0.2,0,0.3
		c1,0,2.1,0,3.1,0c2.1,0,4.2,0,6.4,0c0.5,0,1,0,1.4,0c10.9,0,21.9,0.1,32.8,0.1c0,0.1,0,0.1,0,0.2c-3.4,1.5-6.7,3-10.1,4.5
		c-2.1,1-4.2,1.9-6.3,2.9c-1.2,0.6-2.6,0.9-3.6,1.9c-0.5,0-0.7,0.4-1,0.6c-1.3,0.3-2.5,0.9-3.7,1.6c-7.1,2.4-13.2,0.9-17.3-4
		C8.2,217,7.4,214.8,6.4,212.6z"/>
	<path class="st0" d="M27.1,222.8c1.2-0.7,2.4-1.2,3.7-1.6c0,1.6,0.1,3.3,0,4.9c-0.1,1.2,0.4,1.5,1.6,1.5c1.5-0.1,3.1,0,4.6,0
		c0.8,0.5,1.6,0.2,2.5,0.2c2,0.2,4.1-0.3,6.1,0.3c-4.4,0.1-8.8,0.2-13.2-0.2c-1.1-0.1-1.5,0.1-1.5,1.3c0.1,5.9,0.1,11.8,0.1,17.6
		c-1.2,6.1-2.3,12.1-3.5,18.2c-0.1,0.4-0.2,0.7-0.3,1.1c0-11,0-22.1,0-33.1C27.1,229.6,27.1,226.2,27.1,222.8z"/>
	<path class="st5" d="M12.1,185.5c1.2-4.6,2.4-9.3,3.6-13.9c6.7,0.4,13.5,0.2,20.2,0.3c0,4.7-0.1,9.4-0.1,14.1
		c-5.2,0.1-10.4,0.1-15.6,0.2c-1.9,0-3.8,0-5.7,0C13.7,185.9,12.6,186.8,12.1,185.5z"/>
	<path class="st9" d="M35.9,171.9c-6.7-0.1-13.5,0.1-20.2-0.3c0-0.3,0-0.5,0.2-0.7c1.1,0.7,2.3,0.2,3.5,0.3c0.7,0.1,1.4,0.1,2,0.1
		c0.5,0.4,1,0.2,1.5,0.2c3.9,0,7.8,0.1,11.7,0.1c0.6,0,1.2-0.2,1.7,0.2C36.2,171.9,36.1,171.9,35.9,171.9z"/>
	<path class="st10" d="M12.1,185.5c0.4,1.3,1.6,0.4,2.3,0.7c0,0.1,0,0.2,0,0.2c-0.8,0-1.7,0-2.5,0C11.8,186.2,11.8,185.8,12.1,185.5
		z"/>
	<path class="st0" d="M96.4,478.2c0.3-7.8,0.7-15.7,1-23.5c0-1.3,0.4-1.5,1.6-1.5c45.6,0,91.2,0,136.8,0c1.3,0,1.7,0.4,2,1.6
		c1.6,7.5,1.4,14.9-1.1,22.3c-0.1,0.4-0.4,0.8-0.2,1.2c-46.4,0-92.9,0-139.3,0C96.9,478.3,96.7,478.2,96.4,478.2z"/>
	<path class="st5" d="M104.7,224.2c0.2,5,0.1,10.1,0.6,15c0.3,2.6,0,5.1,0,7.7c-0.1,0-0.1,0.1-0.2,0.1c-0.5-0.4-1.1-0.2-1.7-0.2
		c-17.2,0-34.5,0-51.7,0c-0.6,0-1.2-0.2-1.7,0.2c0,0,0,0,0,0c-0.2,0-0.4,0-0.6,0c-6.2,0-12.3-0.1-18.5-0.1c0-5.9,0-11.8-0.1-17.6
		c0-1.2,0.5-1.4,1.5-1.3c4.4,0.4,8.8,0.3,13.2,0.2c13.5,0,27,0,40.4,0c5.9,0.1,11.8,0.2,17.8-0.5c-2.5,0-5.1,0-7.6,0
		c-4.3,0-8.7-0.1-13-0.1c-15.4,0-30.7,0.1-46.1,0.1c-1.5,0-3.1-0.1-4.6,0c-1.2,0.1-1.6-0.2-1.6-1.5c0.1-1.6,0-3.3,0-4.9
		c0.4-0.2,0.6-0.6,1-0.6c1.4-0.3,2.6-1,3.9-1.6c2.2-0.9,4.3-1.8,6.4-2.9c3.5-1.5,7-3,10.5-4.6c0.3-0.2,0.6-0.3,0.9-0.5
		c1.1,0,2.1,0,3.2,0c-1,1.2-2,2.4-2.9,3.7c-0.4,0.5-1.3,0.9-0.6,1.7c0.7,0.7,1.2,2.1,2.6,1.2c0.5,0,1.1-0.1,1.6-0.1
		c7.4-1.1,14.8-2.3,22.3-3.4c0.4,0.1,0.7,0.1,1-0.2c3.4,0.4,6.4,2.2,9.9,2.6c0.4,0.3,0.8,0.6,1.3,0.5c3.6,0.3,7,0.1,10.4-1.1
		c2.4-0.8,4-2.3,4.4-4.9c1.4,0,2.8-0.1,4.2-0.1c2.3,0,4.7,0,7,0c0.7,0,1.3,0.1,2,0c0.7,0,0.9,0.3,0.9,0.9c-1.1,3.1-2.7,5.8-5.4,7.9
		c-2.6,2.2-5.7,3.5-9.1,3.9c-0.5,0.1-0.9,0.2-1.4,0.3c-0.8-0.4-1.6-0.2-2.4-0.2c-3.8-0.3-7.3-1.2-10.1-3.9c-0.6-0.9-1.2-1.8-1.7-2.7
		c0.1,1.2,0.5,2.2,1.4,3c2.1,2.5,4.9,3.4,7.9,3.8C101.5,224.6,103.1,224.4,104.7,224.2z"/>
	<path class="st11" d="M282.5,436.3c-4.6,0-7.2-2.7-7.2-7.3c0-4,3.2-7.3,7.2-7.3c4.2,0,7.5,3.1,7.4,7.4
		C289.7,433.3,286.4,436.6,282.5,436.3z"/>
	<path class="st12" d="M465.2,156.2c-0.4,0-0.8,0.1-1.3,0.1c-118,0-236,0-354,0c-0.2,0-0.4,0-0.6,0c-0.4,0-0.9,0-1.5,0
		c0.5-0.5,1-0.2,1.4-0.4c0.8,0,1.6,0.1,2.4,0.1c117,0,234,0,351,0C463.4,156.1,464.3,155.9,465.2,156.2z"/>
	<path class="st13" d="M50,246.9c0.5-0.4,1.1-0.2,1.7-0.2c17.2,0,34.5,0,51.7,0c0.6,0,1.2-0.2,1.7,0.2c-3,0-6,0-9.1,0
		c-1,0-1.5,0-1.3,1.4c0.3,1.9,0.5,4-0.9,5.7c0.2-1.8,0.4-3.6,0.4-5.4c0-1.3-0.4-1.7-1.7-1.7c-10.4,0.1-20.8,0-31.1,0
		C57.6,247,53.8,247,50,246.9z"/>
	<path class="st14" d="M72.8,251.2c0.1,2.4-0.5,4.8-0.8,7.2c-0.5,3.1-0.9,6.3-1.6,9.3c-0.5,2.2-1.7,4-3.7,5.1
		c-0.7,0.4-1.5,0.8-2.6,0.4c4-0.8,5.4-3.7,5.9-7C70.8,261.2,71.7,256.2,72.8,251.2z"/>
	<path class="st15" d="M89.3,247.6c0.7,2.3,0.5,4.6-0.4,6.9c0-2.4,0-4.7,0-6.9C89.1,247.6,89.2,247.6,89.3,247.6z"/>
	<path class="st16" d="M65.1,250.4c0.3,1,0.1,1.9,1.2,1.9c0.5,0,0.8-0.2,0.9-0.7c0.2-1-0.7-1.3-1.3-1.7c1.1-0.4,1.9,0.2,2.2,1.1
		c0.3,0.7-0.2,1.3-0.8,1.7c-0.6,0.4-1.4,0.5-1.9,0C64.7,252.2,64.4,251.5,65.1,250.4z"/>
	<path class="st16" d="M45.6,247.3c-0.5,2.2-0.8,4.2-0.6,6.4C43.8,252.2,44.1,249,45.6,247.3z"/>
	<path class="st16" d="M49.4,246.9c0.2,0,0.4,0,0.6,0c-0.4,2.1-0.7,4.2-0.6,6.7C48.3,251.2,48.9,249.1,49.4,246.9z"/>
	<path class="st17" d="M64.1,282.4c-0.4-1.6,0.3-3.3-0.3-4.8c0.1-0.6,0.2-1.2,0.3-1.8C64.3,278,64.5,280.2,64.1,282.4z"/>
	<path class="st18" d="M101.2,366.9c0,0.8,0.1,1.6,0,2.3c-0.1,1-0.4,0-0.6,0c0-1,0-2.1,0-3.4C100.9,366.3,101.1,366.6,101.2,366.9z"
		/>
	<path class="st19" d="M23,156c15.2-0.2,30.4-0.4,45.6-0.3c12,0.1,23.9,0.2,35.9,0.2c0.6,0,1.3,0,2,0c-0.4,0.5-0.8,0.3-1.1,0.3
		c-22.4,0.3-44.8,0.3-67.2,0.2c-5.1,0-10.2-0.2-15.3-0.2C23,156.2,23,156.1,23,156z"/>
	<path class="st20" d="M30,141.1c14.6-0.2,29.3-0.4,43.9-0.3c8.5,0.1,17,0.2,25.4,0.3c0,0.1,0,0.1,0,0.2
		c-13.7,0.4-27.5,0.3-41.2,0.3c-9.4,0-18.8-0.1-28.1-0.3C30,141.2,30,141.1,30,141.1z"/>
	<path class="st21" d="M36.4,171.8c-0.5-0.4-1.1-0.2-1.7-0.2c-3.9,0-7.8-0.1-11.7-0.1c-0.5,0-1.1,0.2-1.5-0.2
		c4.8,0,9.7-0.1,14.5-0.1c0.1,0,0.3,0,0.4,0c6,0,12.1,0,18.1,0c13.2,0,26.4,0,39.6,0.1c0.6,0,1.2,0,1.7,0c0.1,0,0.3,0,0.4,0
		c2.2,0,4.4,0.1,6.6,0.1c-0.5,0.4-1,0.2-1.5,0.2c-5.2,0-10.4,0-15.6,0.1c-0.6,0-1.2-0.2-1.7,0.2c-10.1,0-20.1,0-30.2,0
		C48,171.9,42.2,171.9,36.4,171.8L36.4,171.8z"/>
	<path class="st22" d="M84,171.8c0.5-0.4,1.1-0.2,1.7-0.2c5.2,0,10.4,0,15.6-0.1c0.5,0,1.1,0.2,1.5-0.2c1.9,0,3.8,0,5.7,0
		c0,0.1,0,0.2,0,0.3c-4.1,0.4-8.2,0.2-12.3,0.3c-0.2,0-0.3,0-0.5,0C91.9,171.9,87.9,171.9,84,171.8z"/>
	<path class="st23" d="M108.6,171.6c0-0.1,0-0.2,0-0.3c0.7,0,1.5,0,2.2,0c0.5,0,1,0,1-0.7c0.3,0.3,0.3,0.7,0.2,1
		C110.8,171.6,109.7,171.6,108.6,171.6z"/>
	<path class="st24" d="M36.4,171.2c-0.1,0-0.3,0-0.4,0c0-1.2,0-2.3,0-3.5c0.1,0,0.3,0,0.4,0C36.4,168.9,36.4,170,36.4,171.2z"/>
	<path class="st25" d="M96.2,171.2c-0.1,0-0.3,0-0.4,0c0-0.7,0-1.4,0-2.2c0.1,0,0.3,0,0.4,0C96.2,169.7,96.2,170.5,96.2,171.2z"/>
	<path class="st26" d="M23,156c0,0.1,0,0.2,0,0.2c-0.6,0-1.1,0-2,0C21.8,155.9,22.4,156,23,156z"/>
	<path class="st27" d="M30,141.1c0,0.1,0,0.1,0,0.2c-0.6,0-1.2,0-1.9,0C28.7,140.8,29.3,141.1,30,141.1z"/>
	<path class="st28" d="M99.3,141.3c0-0.1,0-0.1,0-0.2c0.6,0,1.3,0,1.9-0.1C100.7,141.5,100,141.3,99.3,141.3z"/>
	<path class="st29" d="M68.1,87.3c-2.4,0.3-4.6,0.5-6.9,0.8C62.5,85.8,66.1,85.4,68.1,87.3z"/>
	<path class="st30" d="M75.5,103.8c1.1-0.1,0.9-0.8,0.6-1.5c-1-2.6-1.9-5.2-2.9-7.9c-0.1-0.2-0.3-0.3-0.1-0.5c0.3-0.1,0.4,0,0.5,0.3
		c1.1,2.8,2.1,5.5,3.2,8.3c0.3,0.7,0.3,1.4-0.6,1.6C75.9,104,75.7,103.9,75.5,103.8z"/>
	<path class="st31" d="M79.3,88.5c-0.5,0-1,0-1.6,0c-0.3,0-0.8,0.1-0.9-0.4c-0.1-0.4,0.3-0.6,0.7-0.8c1.3-0.6,2.5-0.6,3.7,0.2
		c0.3,0.2,0.7,0.4,0.5,0.9c-0.2,0.3-0.5,0.2-0.8,0.2C80.4,88.5,79.9,88.5,79.3,88.5C79.3,88.5,79.3,88.5,79.3,88.5z"/>
	<path class="st32" d="M63.8,96.2c-0.8-0.1-1.3-0.5-1.3-1.3c0-0.8,0.6-1.3,1.4-1.3c0.8,0,1.3,0.5,1.3,1.3
		C65.2,95.7,64.6,96.1,63.8,96.2z"/>
	<path class="st33" d="M80.5,94.4c-0.1,0.8-0.6,1.4-1.5,1.4c-0.8,0-1.3-0.5-1.3-1.3c0-0.9,0.6-1.3,1.4-1.3
		C79.9,93.2,80.4,93.7,80.5,94.4z"/>
	<path class="st34" d="M68.6,105c0.7,2.7,2.2,4,4.6,4.3C70.3,110,68.3,108.3,68.6,105z"/>
	<path class="st35" d="M82.3,92.7c-1.7-0.6-3.4-0.6-5.4,0.2C78.6,90.9,80.6,90.9,82.3,92.7z"/>
	<path class="st35" d="M67.4,92.9c-1.7-0.5-3.4-0.5-5.3,0.2C63.8,91.2,65.8,91.2,67.4,92.9z"/>
	<path class="st36" d="M46.8,96.5c0.1,0.1,0.2,0.2,0.3,0.3c-1.6,0.4-1.7,1.6-1.5,2.9c0.2,1.2,0.6,2.4,2.2,2.4
		c-1.2,0.6-1.9-0.1-2.4-1C44.4,99,44.9,97.3,46.8,96.5z"/>
	<path class="st37" d="M75.5,103.8c0.2,0.1,0.4,0.2,0.7,0.3c-0.8,0.5-1.7,0.2-2.6,0.2C74.2,104,74.8,103.7,75.5,103.8z"/>
	<path class="st38" d="M76.1,132.7c-7.9,0.5-15.7,0.4-23.6-0.1C60.3,132.3,68.2,132.3,76.1,132.7z"/>
	<path class="st6" d="M55.7,198.1c0.2-0.3-0.1-0.5-0.3-0.6c0.1-0.9-0.5-1.4-0.9-2.1c0.1-0.2,0.2-0.3,0.3-0.5c3.6-2.6,6.8-5.9,10.8-8
		c0.5-0.1,1.1-0.2,1.4-0.7c5.2-1.8,10.5-2.4,15.8-0.2c0.3,0.2,0.6,0.4,0.9,0.5c-2,0.3-4,0.8-6,0.9c-1.3,0.1-2.1,0.7-2.9,1.7
		c-4.4,5.5-8.9,10.9-13.4,16.3c-0.3,0.4-0.5,1.2-1.3,0.6c0,0,0,0,0,0c-0.2-0.9-0.6-1.6-1.3-2.3c-0.1-0.1-0.2-0.3-0.3-0.4
		c0-1-0.5-1.7-1.3-2.2c0.2-0.3-0.1-0.5-0.3-0.6C57,199.4,56.5,198.7,55.7,198.1z"/>
	<path class="st5" d="M65.6,186.9c-4,2.1-7.1,5.4-10.8,8c-0.6-0.7-1.4-0.4-2.1-0.3c-1.7,0.2-3.4,0.4-5,0.6
		c-3.4,0.4-6.8,0.8-10.2,1.2c-0.5,0-1,0-1.5-0.1c0.3-0.4,0.4-0.8,0.3-1.2c0-2.7,0.1-5.5,0.1-8.2c4.4,0,8.8-0.1,13.3-0.1
		C55,186.8,60.3,186.8,65.6,186.9z"/>
	<path class="st3" d="M60.2,205.9c0.8,0.6,1-0.2,1.3-0.6c4.5-5.4,9-10.8,13.4-16.3c0.8-1,1.6-1.5,2.9-1.7c2-0.2,4-0.6,6-0.9
		c0.6-0.1,1.3-0.2,1.9-0.3c3-0.5,5.9-1,8.9-1.4c1-0.1,1.3-0.5,1.3-1.5c-0.1-3.8-0.1-7.5-0.1-11.3c0.2,0,0.3,0,0.5,0
		c0.2,3.8,0.2,7.5-0.1,11.3c-0.1,0.9,0.2,1.2,1.2,1.1c3.4-0.6,6.9-1.1,10.3-1.7c1.6-0.3,2.7,0,3.4,1.5c-1,0.1-2,0.2-3,0.3
		c-2,0.3-4,0.4-5.9,0.9c-0.4,0-0.9,0-1.3,0c-5.9,0.8-11.8,1.7-17.6,2.6c-3.2,0.5-6,1.7-8.1,4.2c-4.1,4.8-7.9,9.9-11.8,14.8
		c-1.5,2-3.4,3.8-4.5,6.1l0,0c-0.6,0.4-1.2,0.8-1.3,1.6l0,0c-0.6,0.4-1.2,0.8-1.3,1.6l0,0c-0.3,0.4-1.3,0.4-0.6,1.3
		c0,0.1,0,0.2,0,0.3c-1.5,0.8-1.9-0.5-2.6-1.2c-0.7-0.8,0.3-1.2,0.6-1.7c0.9-1.3,1.9-2.5,2.9-3.7c0.2-0.2,0.4-0.4,0.5-0.6
		c0.3-0.4,0.7-0.8,1-1.3c-0.1-0.1-0.1-0.1-0.2-0.2c-0.9,0.4-1.7,0.8-2.6,1.3c-0.5,0-0.9,0-1.4,0c1.5-1,3.2-1.5,4.7-2.3
		C59.7,207.6,60.4,207.1,60.2,205.9z"/>
	<path class="st39" d="M57.2,210.5c-0.2,0.2-0.4,0.4-0.5,0.6c-1.1,0-2.1,0-3.2,0c-0.5-0.2-1.1-0.2-1.6,0C40.9,211.1,30,211,19,211
		c-0.5,0-1,0-1.4,0c0.5-0.4,1.1-0.2,1.7-0.2c7.6,0,15.1,0,22.7-0.1c0.6,0,1.2,0.2,1.7-0.2c3.5,0,6.9-0.1,10.4-0.1c0.5,0,0.9,0,1.4,0
		C56,210.4,56.6,210.5,57.2,210.5z"/>
	<path class="st40" d="M49.7,186.8c-4.4,0-8.8,0.1-13.3,0.1c-0.2,0-0.5,0-0.7,0c-4.2,0-8.4,0-12.7-0.1c-2.9,0-5.8-0.2-8.7-0.3
		c0-0.1,0-0.2,0-0.2c1.9,0,3.8,0,5.7,0c0.5,0.4,1.1,0.2,1.7,0.2c8.7,0,17.4,0,26,0.1C48.5,186.5,49.1,186.3,49.7,186.8z"/>
	<path class="st40" d="M43.6,210.4c-0.5,0.4-1.1,0.2-1.7,0.2c-7.6,0-15.1,0-22.7,0.1c-0.6,0-1.2-0.2-1.7,0.2c-2.1,0-4.2,0-6.4,0
		c0-0.1,0-0.2,0-0.3C22,210.3,32.8,210.4,43.6,210.4z"/>
	<path class="st41" d="M37.5,196.3c3.4-0.4,6.8-0.8,10.2-1.2c1.7-0.2,3.3-0.4,5-0.6c0.7-0.1,1.5-0.4,2.1,0.3
		c-0.1,0.2-0.2,0.3-0.3,0.5c-0.1,0-0.2,0-0.3,0c-0.5-0.5-1-0.2-1.5-0.1c-4.7,0.4-9.4,0.9-14.1,1.3C38.3,196.3,37.9,196.4,37.5,196.3
		z"/>
	<path class="st42" d="M52.6,211.6c-3.5,1.5-7,3-10.5,4.6c-0.1-0.1-0.2-0.2-0.4-0.3c3.4-1.5,6.7-3,10.1-4.5
		C52.1,211.3,52.4,211.3,52.6,211.6z"/>
	<path class="st43" d="M35.7,186.9c0.2,0,0.5,0,0.7,0c0,2.7-0.1,5.5-0.1,8.2c-0.8-1.9-0.2-3.9-0.5-5.8
		C35.7,188.5,35.7,187.7,35.7,186.9z"/>
	<path class="st44" d="M37.5,196.3c0.4,0.1,0.8,0,1,0.3c-2.2,0.2-4.4,0.4-6.7,0.6c-0.1-0.1-0.3-0.2-0.4-0.3c1.5-0.2,3-0.5,4.5-0.7
		C36.5,196.3,37,196.3,37.5,196.3z"/>
	<path class="st45" d="M41.8,215.8c0.1,0.1,0.2,0.2,0.4,0.3c-2.1,1.1-4.2,2-6.4,2.9c-0.1-0.1-0.2-0.2-0.3-0.3
		C37.5,217.8,39.6,216.8,41.8,215.8z"/>
	<path class="st46" d="M35.4,218.7c0.1,0.1,0.2,0.2,0.3,0.3c-1.3,0.6-2.5,1.3-3.9,1.6C32.8,219.6,34.2,219.3,35.4,218.7z"/>
	<path class="st47" d="M31.5,197c0.1,0.1,0.3,0.2,0.4,0.3c-1.1,0.1-2.1,0.2-3.2,0.3c0-0.1,0-0.2,0-0.3C29.6,196.9,30.5,197,31.5,197
		z"/>
	<path class="st48" d="M20.7,198.3c-1,0.6-2.1,0.3-3.2,0.1c1.1-0.1,2.2-0.2,3.2-0.4C20.8,198.1,20.7,198.2,20.7,198.3z"/>
	<path class="st49" d="M11.2,210.7c0,0.1,0,0.2,0,0.3c-1,0-2.1,0-3.1,0c0-0.1,0-0.2,0-0.3C9.1,210.7,10.1,210.7,11.2,210.7z"/>
	<path class="st50" d="M27.5,197.7c-0.5,0.4-1.1,0.3-1.7,0.2c-0.2-0.1-0.4-0.2-0.6-0.3c0.5-0.4,1.1-0.3,1.7-0.2
		C27,197.5,27.3,197.6,27.5,197.7z"/>
	<path class="st51" d="M58.9,203.7c0.7,0.6,1.1,1.4,1.3,2.3C59.4,205.4,59.1,204.6,58.9,203.7z"/>
	<path class="st52" d="M54.2,195.4c0.1,0,0.2,0,0.3,0c0.4,0.6,1,1.2,0.9,2.1C54.8,196.9,54.5,196.2,54.2,195.4z"/>
	<path class="st53" d="M55.7,198.1c0.8,0.5,1.2,1.3,1.3,2.2C56.3,199.7,56,198.9,55.7,198.1z"/>
	<path class="st51" d="M57.3,201c0.8,0.5,1.2,1.3,1.3,2.2C57.9,202.6,57.6,201.8,57.3,201z"/>
	<path class="st54" d="M25.2,197.6c0.2,0.1,0.4,0.2,0.6,0.3c-0.7,0.1-1.4,0.1-2.1,0.2c0-0.1,0-0.2-0.1-0.4
		C24.1,197.7,24.6,197.6,25.2,197.6z"/>
	<path class="st55" d="M23.6,197.7c0,0.1,0,0.2,0.1,0.4c-0.3,0.2-0.7,0.2-1.1,0.2c-0.1-0.1-0.2-0.2-0.3-0.3
		C22.7,197.6,23.2,197.6,23.6,197.7z"/>
	<path class="st47" d="M27.5,197.7c-0.2-0.1-0.4-0.2-0.7-0.3c0.6,0,1.2-0.1,1.9-0.1c0,0.1,0,0.2,0,0.3
		C28.3,197.6,27.9,197.7,27.5,197.7z"/>
	<path class="st56" d="M52.6,211.6c-0.2-0.3-0.5-0.2-0.7-0.3c0-0.1,0-0.1,0-0.2c0.5-0.1,1.1-0.2,1.6,0
		C53.2,211.3,52.9,211.4,52.6,211.6z"/>
	<path class="st57" d="M22.3,197.9c0.1,0.1,0.2,0.2,0.3,0.3c-0.6,0-1.3,0-1.9,0.1c0-0.1,0-0.2,0-0.3C21.3,198,21.8,198,22.3,197.9z"
		/>
	<path class="st58" d="M37,227.6c15.4,0,30.7-0.1,46.1-0.1c4.3,0,8.7,0.1,13,0.1c-0.9,0.5-1.9,0.2-2.8,0.3c-2.5,0.2-4.9-0.3-7.4,0.3
		c-13.5,0-27,0-40.4,0c-2-0.5-4.1-0.1-6.1-0.3C38.6,227.8,37.8,228.1,37,227.6z"/>
	<path class="st59" d="M49.7,186.8c-0.6-0.5-1.2-0.2-1.8-0.2c-8.7,0-17.4,0-26-0.1c-0.6,0-1.2,0.2-1.7-0.2
		c5.2-0.1,10.4-0.1,15.6-0.2c0.2,0,0.4,0,0.6,0c0.5,0,1.1,0,1.6,0c9.7,0,19.3,0,29,0c-0.3,0.5-0.9,0.6-1.4,0.7
		C60.3,186.8,55,186.8,49.7,186.8z"/>
	<path class="st3" d="M36.4,186.1c-0.2,0-0.4,0-0.6,0c0-4.7,0.1-9.4,0.1-14.1c0.1,0,0.3-0.1,0.4-0.1c0,0,0,0.1,0,0.1
		C36.4,176.6,36.4,181.4,36.4,186.1z"/>
	<path class="st60" d="M115.3,219.8c2.6-2.1,4.2-4.8,5.4-7.9c2.6,0,5.3,0,7.9,0c0.4,0.6,0.2,1.2,0.2,1.8c0,10.1-0.1,20.2,0,30.4
		c0,3.7-0.1,7.4,0,11.1c0.1,3.8,0,7.5,0,11.3c0,3.8,0,7.6,0,11.4s0,7.6,0,11.4c0,3.8,0,7.6,0,11.4c0,3.8,0,7.5,0,11.3
		c0,3.8,0,7.6,0,11.4c0,3.8,0,7.6,0,11.4c0,3.8,0,7.5,0,11.3c0,3.8-0.1,7.6,0,11.4c0,1.5-0.4,2-1.9,1.9c-3.3-0.1-6.6-0.1-9.9,0
		c-1.3,0-1.7-0.4-1.6-1.6c0.1-0.4,0-0.7,0-1.1c0-45,0-90,0-135C115.5,221.2,115.8,220.5,115.3,219.8z M125.1,250.5
		c0.9-0.4,1.6-1,1.8-2C126.3,249.1,125.7,249.8,125.1,250.5z M123.7,252.5c0.3-0.3,0.9-0.4,0.9-1.1C124,251.6,123.7,252,123.7,252.5
		z"/>
	<path class="st60" d="M179.8,231.1c0,12.1,0,24.2,0,36.3c0,30.3,0,60.5,0,90.8c0,0.7,0,1.4-0.1,2.1c-3.5,0-7.1,0-10.6,0
		c-2.6,0-2.3,0.3-2.3-2.3c0-40.5,0-80.9,0-121.4c0-1.6,0-3.2,0-4.8c0-1,0.3-1.4,1.3-1.4c1.4,0,2.7,0.3,4.1-0.2
		C174.8,230.2,177.3,230.6,179.8,231.1z"/>
	<path class="st61" d="M205.3,243.8c0,11.7,0,23.4,0,35.1c0,26.3,0,52.6,0,78.9c0,1.5-0.3,2-1.9,1.9c-3.2-0.1-6.4-0.1-9.5,0
		c-1.4,0-1.8-0.4-1.8-1.8c0-17.3,0-34.7,0-52c0-23.6,0-47.2,0-70.7C197.1,237.3,201.4,240.2,205.3,243.8z"/>
	<path class="st61" d="M409.8,242.3c-0.8,0.5-0.5,1.3-0.5,2c0,37.7,0,75.4,0,113c0,2.6,0.3,2.3-2.2,2.3c-3.2,0-6.4,0-9.5,0
		c-1,0-1.4-0.3-1.4-1.4c0-4.2,0-8.4,0-12.6c0-33.1,0-66.2,0-99.4c0-0.7,0.2-1.4-0.2-2c2.7-2,5.7-3.6,8.6-5.3c0.8-0.5,1-0.1,1.2,0.5
		C406.5,241.3,407.7,242.4,409.8,242.3z"/>
	<path class="st60" d="M268.6,330.3c0-6.3,0-12.5,0-18.8c0-27.6,0-55.1,0-82.7c0-1.6,0.4-2,2-2c3.2,0.1,6.5,0.1,9.7,0
		c1.4,0,1.7,0.4,1.7,1.7c0,18.8,0,37.5,0,56.3c0,18.1,0,36.3,0,54.4C276.9,337.1,272.5,334,268.6,330.3z"/>
	<path class="st60" d="M141,310.8c0-15.7,0-31.4,0-47.1c0-1.4,0.4-1.8,1.8-1.7c3.3,0.1,6.7,0.1,10,0c1.1,0,1.6,0.2,1.6,1.5
		c0,31.6,0,63.2,0,94.8c0,1.2-0.4,1.5-1.5,1.5c-3.4-0.1-6.8-0.1-10.2,0c-1.4,0-1.6-0.5-1.6-1.7C141,342.2,141,326.5,141,310.8z"/>
	<path class="st60" d="M319.6,334.5c0-0.6,0-1.3,0-1.9c0-32.9,0-65.8,0-98.6c0-2.3,0-2.3,2.2-2.3c3.2,0,6.4,0.1,9.5,0
		c1.3,0,1.6,0.4,1.6,1.6c0,12.9,0,25.8,0,38.7c0,16.1,0,32.2,0,48.4c0,0.6-0.2,1.3,0.2,1.9c-0.7,0.8-1.4,1.6-2.1,2.3
		C327.5,328.2,323.9,331.7,319.6,334.5z"/>
	<path class="st62" d="M381.9,255.9c1.6-0.2,2,0.4,2,2c-0.1,33.2,0,66.5,0,99.7c0,2.1,0,2.1-2.2,2.1c-3.2,0-6.4,0-9.5,0
		c-1.1,0-1.5-0.3-1.4-1.4c0.1-4.5,0-9,0-13.5c0-24.6,0-49.3,0-73.9c0-0.7,0.2-1.4-0.2-2C373.9,264.2,377.6,259.7,381.9,255.9z"/>
	<path class="st60" d="M294.1,342.6c0-12.6,0-25.1,0-37.7c0-17.4,0-34.9,0-52.3c0-1.5,0.5-1.9,1.9-1.8c3.1,0.1,6.1,0,9.2,0
		c2.5,0,2.2-0.3,2.2,2.2c0,28.6,0,57.3,0,85.9c0,0.7-0.2,1.4,0.2,2C303.2,342.5,298.7,343,294.1,342.6z"/>
	<path class="st62" d="M231,286.1c-0.4,0.6-0.2,1.2-0.2,1.9c0,23.3,0,46.6,0,69.8c0,1.5-0.3,2-1.9,2c-3.3-0.1-6.6-0.1-9.9,0
		c-1.1,0-1.4-0.4-1.4-1.5c0-30.6,0-61.2,0-91.8c0-1.1,0.4-1.5,1.5-1.4c1.3,0.1,2.6,0,4,0c2.9,4.2,5.4,8.6,7.9,13.1
		c-0.4,1.6-0.3,3.2,0,4.8C230.6,284,230.7,285,231,286.1z"/>
	<path class="st62" d="M423.8,316c0-13.9,0-27.9,0-41.8c0-1.4,0.4-1.8,1.8-1.8c3.3,0.1,6.6,0.1,9.9,0c1.1,0,1.6,0.2,1.6,1.5
		c0,28.1,0,56.2,0,84.3c0,1.2-0.4,1.5-1.5,1.5c-3.3-0.1-6.7-0.1-10,0c-1.4,0-1.6-0.5-1.6-1.7C423.9,344,423.8,330,423.8,316z"/>
	<path class="st61" d="M358.3,287.3c0,0.5,0.1,1,0.1,1.4c0,23,0,46,0,69c0,1.5-0.3,2-1.9,2c-3.2-0.1-6.4-0.1-9.5,0
		c-1.4,0-1.8-0.4-1.8-1.8c0-15.8,0-31.6,0-47.4c0-0.6,0.1-1.3-0.1-1.9c0.9-1.5,1.9-2.9,2.8-4.4C351.3,298.6,354.8,293,358.3,287.3z"
		/>
	<path class="st61" d="M256.5,319.8c-0.4,0.6-0.2,1.2-0.2,1.9c0,12,0,24.1,0,36.1c0,1.5-0.3,2-1.9,2c-3.2-0.1-6.4-0.1-9.5,0
		c-1.4,0-1.8-0.4-1.8-1.8c0-17.2,0-34.4,0-51.5c0-2.1,0-4.2,0.1-6.4C247.3,306.8,251.6,313.5,256.5,319.8z"/>
	<path class="st61" d="M450.2,334.9c0-7,0-14,0-21c0-1.2,0.3-1.5,1.5-1.5c3.4,0.1,6.8,0.1,10.2,0c1,0,1.5,0.2,1.5,1.4
		c0,14.2,0,28.4,0,42.6c0,1-0.3,1.4-1.4,1.4c-3.4-0.1-6.9-0.1-10.3,0c-1.2,0-1.5-0.4-1.5-1.6C450.3,349.1,450.2,342,450.2,334.9z"/>
	<path class="st3" d="M256.5,319.8c-4.9-6.3-9.1-13-13.3-19.7c-2-3.7-4.1-7.5-6.2-11.2c-0.2-0.3-0.3-0.6-0.8-0.5
		c-3,0.6-3.8,0.1-5.2-2.4c-0.3-1-0.4-2.1,0-3.2c1.3-1.6,1.6-3.2,0-4.8c-2.5-4.4-5-8.9-7.9-13.1c-5-7.9-10.5-15.3-17.7-21.3
		c-3.9-3.6-8.3-6.5-13.2-8.6c-3.9-2.1-8-3.3-12.3-4.1c-2.5-0.6-5.1-0.9-7.7-1c-1.9-0.1-3.8-0.1-5.7,0c-9.9,0.5-18.9,3.6-27.3,8.8
		c-1.1,0.7-2.1,1.3-3.2,2c-0.1-0.1-0.2-0.2-0.4-0.3c8.3-6.2,17.6-9.9,27.9-11.2c9.8-1.2,19.3,0.4,28.4,4.2c4.7,2.3,9.1,5.1,13.3,8.3
		c7.8,6.7,14,14.8,19.6,23.2c1.9,3.2,3.9,6.4,5.8,9.5c0.9,1.6,1.7,3.1,2.6,4.7c0.2,0.4,0.5,0.7,1.1,0.7c0.6,0,1.2,0,1.4,0.7
		c-1.7,0-1.7,0-0.9,1.5c0.6,1,1.1,2,1.9,3.3c0.5-2,0.1-3.5-1-4.8c1.8,0.5,2.9,2.4,2.3,4.9c-0.3,1.4,0,2.3,0.6,3.4
		c1.5,2.5,2.8,5.2,4.4,7.7c1.1,2.4,2.6,4.7,4,7c2.8,4.5,5.6,9.1,9.1,13.1c3.6,5,7.7,9.6,12.4,13.6c4,3.7,8.3,6.8,13.3,8.9
		c3.8,2,7.9,3.1,12.2,3.4c4.6,0.4,9.1-0.1,13.5-1.7c4.4-1.4,8.4-3.6,12-6.4c4.3-2.8,7.9-6.3,11.3-10c0.7-0.8,1.4-1.6,2.1-2.3
		c4.5-5.2,8.6-10.7,12.2-16.7c0.7-1,1.4-2.1,2.1-3.2c3.7-6,7.3-12.1,11-18.1c2-3,3.9-6,5.9-9c2.1-3.1,4.3-6.1,6.5-9.2
		c2.9-3.5,5.9-6.9,9.1-10.2c5-4.8,10.5-9.2,16.2-13.2c2.6-1.5,5.3-3.1,7.9-4.6c0.7-0.4,1.1-0.8,1.1-1.7c0.1-1.9,0.9-3.5,2.6-4.4
		c0.4-0.2,1-0.8,1.5,0c0,0,0,0,0,0c-2.1,1.1-3,2.7-2.6,4.8c0.9-0.5,1.8-0.9,2.7-1.3c0.1,0,0.3-0.1,0.4-0.1c0.8-0.4,2.1-0.5,2.3-1.2
		c0.1-0.9-1.1-1.4-1.9-2c1.1-0.3,1.9,0.3,2.4,0.9c0.6,0.8,1.2,0.7,2,0.4c10.5-4,21.4-6,32.6-5.8c2,0,4,0.2,6,0.3
		c-0.6,0.5-1.3,0-2,0.3c-12.4-0.5-24.5,1.4-36.1,5.9c-0.9,0.4-1.3,0.7-1.1,1.8c0.6,3.3-1.1,5.7-4.2,6.3c-2,0.1-3.3-1-4-2.8
		c-0.3-0.6-0.4-1-1.2-0.5c-2.9,1.7-5.9,3.3-8.6,5.3c-5.1,3.3-9.8,7.1-14.1,11.5c-4.3,3.9-7.9,8.3-11.4,12.9
		c-4.4,5.9-8.5,12.1-12.2,18.5c-3.5,5.6-7,11.3-10.5,16.9c-0.9,1.5-1.8,2.9-2.8,4.4c-3.8,5.6-7.8,11-12.3,16.2
		c-4.1,4.3-8.4,8.3-13.3,11.7c-3.8,2.5-7.9,4.6-12.2,6.1c-4.5,1.1-9.1,2-13.8,1.4c-4.1-0.3-7.9-1.6-11.6-3
		c-4.8-2.3-9.2-5.2-13.3-8.6C264.2,328.7,260.2,324.3,256.5,319.8z M409.2,236.8c-0.6,0.3-1.3,0.5-1.9,0.8c-0.3,0.1-0.7,0.3-0.6,0.8
		c0.1,1.3,1.8,2.5,3.3,2.4c2.4-1,3.2-2.8,2.4-5.6C411.4,235.7,410.3,236.2,409.2,236.8z M233.1,281.8c-0.7,0.7-0.9,1.3-1,2
		c-0.3,1.6,0.9,3.4,2.4,3.6c0.6,0.1,1.6,0.2,1.1-0.9C234.9,284.8,234,283.4,233.1,281.8z"/>
	<path class="st60" d="M319.5,336.6c4.9-3.4,9.2-7.5,13.3-11.7c0,11.2,0,22.4,0.1,33.7c0,0.9-0.3,1.2-1.2,1.2c-3.7,0-7.3-0.1-11,0
		c-1.2,0-1.2-0.7-1.2-1.5c0-6.6,0-13.1,0-19.7C319.6,337.9,319.5,337.2,319.5,336.6z"/>
	<path class="st5" d="M114.3,187.1c2.2,4,4.5,7.9,6.1,12.1c1.5,3.7,1.2,7.6,0.6,11.4c-1.1,0-2.1,0-3.2,0c-3.7-0.1-7.4-0.2-11.2-0.3
		c-0.3-2-0.9-3.9-3.4-4.2c-1.2-0.6-2.5,0-3.6-0.4c0-0.1,0-0.2,0.1-0.2c4.2-3.8,8.1-7.8,11.9-12.1c0.4-0.3,0.8-0.6,1-1.3
		c-0.7,0.4-1.1,0.8-1.5,1.3c-3.9,3.5-7.4,7.5-11.1,11.3c0.9-1.9,0.5-3.9,0.8-5.9c0.8,0.1,0.9-0.7,1.2-1.1c2.5-3.7,5-7.5,7.6-11.2
		c1.4,0,2.7,0,4.1,0C113.8,186.7,114,186.9,114.3,187.1z"/>
	<path class="st62" d="M256.2,316.7c-3.5-4.1-6.3-8.6-9.1-13.1c-1.4-2.3-2.9-4.5-4-7c0-3.8,0.1-7.6,0-11.4c0-1.2,0.2-1.7,1.5-1.6
		c3.4,0.1,6.9,0,10.3,0c0.8,0,1.3,0.1,1.3,1.1C256.2,295.3,256.2,306,256.2,316.7z"/>
	<path class="st60" d="M268.6,332.6c4.1,3.4,8.5,6.3,13.3,8.6c0,5.7-0.1,11.3,0,17c0,1.3-0.4,1.6-1.6,1.6c-3.4-0.1-6.9-0.1-10.3,0
		c-1.1,0-1.4-0.3-1.4-1.4C268.6,349.7,268.6,341.1,268.6,332.6z"/>
	<path class="st62" d="M358.4,284.2c-3.7,6-7.3,12.1-11,18.1c-0.7,1.1-1.4,2.1-2.1,3.2c0-10.6,0-21.2-0.1-31.8c0-1,0.3-1.3,1.3-1.3
		c3.5,0,7.1,0,10.6,0c1,0,1.3,0.3,1.3,1.3C358.3,277.2,358.4,280.7,358.4,284.2z"/>
	<path class="st62" d="M205.3,241.9c-4.2-3.2-8.5-6-13.3-8.3c0.3-0.7,0.2-1.4,0.2-2c0-4.3,0-8.6,0-12.9c0-1.1,0.3-1.4,1.4-1.4
		c3.5,0,7.1,0,10.6,0c0.9,0,1.2,0.3,1.2,1.2C205.3,226.3,205.3,234.1,205.3,241.9z"/>
	<path class="st60" d="M293.6,344.1c4.7,0.6,9.3-0.3,13.8-1.4c0,5.2,0,10.4,0,15.6c0,1.1-0.4,1.4-1.5,1.4c-3.4-0.1-6.9-0.1-10.3,0
		c-1.3,0-1.6-0.5-1.6-1.7c0.1-4.1,0-8.2,0-12.2C294.1,345.2,294.3,344.5,293.6,344.1z"/>
	<path class="st5" d="M114.3,187.1c-0.2-0.2-0.4-0.4-0.7-0.6c-1.2-0.6-2.6-0.1-3.8-0.4c0.3-0.6,0.7-1.2,1-1.8
		c0.1-0.1,0.2-0.2,0.2-0.3c-0.7-1.5-1.8-1.8-3.4-1.5c-3.4,0.7-6.9,1.1-10.3,1.7c-0.9,0.2-1.2-0.1-1.2-1.1c0.2-3.8,0.3-7.5,0.1-11.3
		c4.1-0.1,8.2,0,12.3-0.3c1.1,0,2.3,0,3.4,0C112.7,176.8,113.5,182,114.3,187.1z"/>
	<path class="st62" d="M409.2,232c-0.5-0.7-1-0.2-1.5,0c-1.7,1-2.6,2.5-2.6,4.4c0,0.9-0.4,1.3-1.1,1.7c-2.7,1.5-5.3,3.1-7.9,4.6
		c0-4.8,0-9.5,0-14.3c0-1.1,0.2-1.6,1.5-1.6c3.4,0.1,6.9,0.1,10.3,0c1.1,0,1.5,0.3,1.4,1.4C409.2,229.6,409.2,230.8,409.2,232z"/>
	<path class="st63" d="M166.5,230.2c1.9-0.2,3.8-0.2,5.7,0c-1.3,0.5-2.7,0.2-4.1,0.2c-1.1,0-1.4,0.4-1.3,1.4c0.1,1.6,0,3.2,0,4.8
		c0,40.5,0,80.9,0,121.4c0,2.5-0.2,2.3,2.3,2.3c3.5,0,7.1,0,10.6,0c-0.3,0.5-0.7,0.3-1.1,0.3c-3.6,0-7.2,0-10.8,0
		c-1,0-1.5-0.3-1.3-1.3c0-0.4,0-0.7,0-1.1c0-41.9,0-83.7,0-125.6C166.5,231.8,166.5,231,166.5,230.2z"/>
	<path class="st60" d="M379.9,255.9c-3.2,3.3-6.2,6.7-9.1,10.2c0-3.1,0-6.1-0.1-9.2c0-0.9,0.4-1.1,1.1-1.1
		C374.5,255.9,377.2,255.9,379.9,255.9z"/>
	<path class="st61" d="M230.7,274.7c-1.9-3.2-3.9-6.4-5.8-9.5c1.6,0,3.2,0,4.7-0.1c0.9,0,1.2,0.4,1.1,1.2
		C230.7,269.1,230.7,271.9,230.7,274.7z"/>
	<path class="st64" d="M409.3,235.5c-0.9,0.4-1.8,0.9-2.7,1.3c-0.4-2,0.5-3.6,2.6-4.8C409.2,233.2,409.2,234.3,409.3,235.5z"/>
	<path class="st65" d="M117.8,210.7c1.1,0,2.1,0,3.2,0c-0.1,0.9,0.4,1,1.2,1c1.7,0,3.3,0,5,0c0.5,0,1.1-0.2,1.5,0.2
		c-2.6,0-5.3,0-7.9,0c0-0.6-0.2-1-0.9-0.9c-0.7,0-1.3,0-2,0C117.8,210.9,117.8,210.8,117.8,210.7z"/>
	<path class="st66" d="M135.6,240.6c0.1,0.1,0.2,0.2,0.4,0.3c-1.1,0.8-2.1,1.7-3.2,2.5c-0.1-0.1-0.2-0.2-0.3-0.3
		C133.4,242.2,134.4,241.3,135.6,240.6z"/>
	<path class="st67" d="M132.4,243.2c0.1,0.1,0.2,0.2,0.3,0.3c-0.9,0.8-1.8,1.7-2.8,2.5c-0.1-0.1-0.2-0.2-0.3-0.3
		C130.5,244.7,131.4,243.9,132.4,243.2z"/>
	<path class="st68" d="M451.1,228.2c0.6-0.3,1.4,0.2,2-0.3c0.6-0.1,1.1-0.1,1.7,0.2c-0.3,0.2-0.7,0-1,0.3
		C452.9,228.5,452,228.6,451.1,228.2z"/>
	<path class="st69" d="M459.8,229.1c-0.8,0-1.5,0.1-2.4-0.4c0.9-0.3,1.6,0.1,2.4,0.2C459.8,229,459.8,229.1,459.8,229.1z"/>
	<path class="st70" d="M459.8,229.1c0-0.1,0-0.2,0-0.3c0.6,0.1,1.3,0.2,1.9,0.3c0,0.1,0,0.2,0,0.2
		C461.1,229.5,460.4,229.4,459.8,229.1z"/>
	<path class="st68" d="M456,228.2c0.3-0.1,0.7-0.1,0.8,0.2c0.1,0.4-0.3,0.4-0.6,0.4c-0.3,0-0.6-0.2-0.9-0.2
		C455.5,228.5,455.7,228.4,456,228.2z"/>
	<path class="st71" d="M463,229.5c0.5,0.1,1.1,0.2,1.8,0.4c-0.7,0.4-1.3,0.1-1.8-0.1C463,229.7,463,229.6,463,229.5z"/>
	<path class="st3" d="M456,228.2c-0.2,0.1-0.5,0.2-0.7,0.3c-0.5,0-1-0.1-1.5-0.1c0.3-0.3,0.7-0.2,1-0.3
		C455.2,228.2,455.6,228.2,456,228.2z"/>
	<path class="st72" d="M463,229.5c0,0.1,0,0.2,0,0.3c-0.5,0.1-0.9,0-1.3-0.3c0-0.1,0-0.2,0-0.2C462.1,229.3,462.6,229.4,463,229.5z"
		/>
	<path class="st3" d="M110.8,184.3c-0.3,0.6-0.7,1.2-1,1.8c-0.1,0.1-0.2,0.3-0.3,0.4c-2.5,3.7-5,7.5-7.6,11.2
		c-0.3,0.4-0.4,1.2-1.2,1.1c0-0.9,0-1.8,0.1-2.7c0.1-1-0.3-1.2-1.2-0.8c-1.5,0.5-2.1,1.7-2.6,3c-1.7,4.1-6.1,5.2-9.6,2.6
		c-1.9-1.4-3.7-3-5.8-4.2c-0.9-0.5-1.6-0.5-2.2,0.4c-0.6,0.8-0.8,1.7-0.1,2.5c0.6,0.7,1.3,1.2,2,1.8c1.1,0.9,2.3,1.8,3.2,2.9
		c0.3,0.4,0.8,0.8,0.4,1.4c-0.3,0.5-0.9,0.3-1.3,0.2c-0.3,0-0.6-0.1-0.9-0.2c-3.5-1.1-7.1-2.2-10.6-3.3c-1.1-0.3-2.2-0.4-3.2,0.2
		c-0.5,0.3-1,0.6-1,1.2c0,0.6,0.6,0.8,1,1.1c2,0.9,4.1,1.8,6.1,2.8c0.7,0.3,1.4,0.5,1.9,1.2c-0.6,0.2-1,0-1.5-0.1
		c-2.9-0.7-5.8-1.5-8.8-1.9c-0.6-0.1-1.1-0.2-1.6,0.4c-0.8,1.1-0.5,1.9,0.9,2.3c4.5,1.4,9.2,2.4,13.6,4.1c0,0.2,0,0.4,0,0.6
		c-7.4,1.1-14.8,2.3-22.3,3.4c-0.5,0.1-1,0.1-1.6,0.1c0-0.1,0-0.2,0-0.3c0.2-0.4,0.7-0.7,0.6-1.3c0,0,0,0,0,0
		c0.6-0.4,1.2-0.8,1.3-1.6c0,0,0,0,0,0c0.6-0.4,1.2-0.8,1.3-1.6c0,0,0,0,0,0c0.3-0.2,0.6-0.4,0.8-0.7c4.9-6.2,9.9-12.4,14.8-18.5
		c1.7-2.1,3.6-3.9,6.3-4.6c2.1-0.6,4.2-0.8,6.4-1.1c5.3-0.8,10.6-1.6,15.9-2.4C105.7,185.1,108.2,184.7,110.8,184.3z M94.6,191.3
		c-0.1-0.7-0.4-1.1-1-0.9c-0.8,0.2-1.3,0.7-1.3,1.5c0,0.6,0.4,0.9,0.9,0.8C94,192.6,94.6,192.1,94.6,191.3z"/>
	<path class="st6" d="M79.6,213.6c-4.4-1.7-9.1-2.7-13.6-4.1c-1.4-0.4-1.7-1.2-0.9-2.3c0.4-0.6,1-0.5,1.6-0.4c3,0.4,5.9,1.2,8.8,1.9
		c0.5,0.1,0.9,0.3,1.5,0.1c-0.5-0.8-1.3-0.9-1.9-1.2c-2-1-4-1.8-6.1-2.8c-0.5-0.2-1-0.4-1-1.1c0-0.6,0.5-0.9,1-1.2
		c1-0.6,2.1-0.6,3.2-0.2c3.5,1.1,7.1,2.2,10.6,3.3c0.3,0.1,0.6,0.2,0.9,0.2c0.5,0.1,1,0.3,1.3-0.2c0.3-0.6-0.1-1-0.4-1.4
		c-0.9-1.1-2.1-2-3.2-2.9c-0.7-0.6-1.4-1.1-2-1.8c-0.7-0.8-0.5-1.7,0.1-2.5c0.6-0.8,1.3-0.9,2.2-0.4c2.1,1.2,3.9,2.8,5.8,4.2
		c3.5,2.6,7.9,1.5,9.6-2.6c0.6-1.3,1.2-2.5,2.6-3c0.9-0.3,1.3-0.2,1.2,0.8c-0.1,0.9-0.1,1.8-0.1,2.7c-0.3,2,0.2,4-0.8,5.9
		c-0.1,0.3-0.2,0.6-0.3,0.8c-0.1,0.1-0.1,0.1-0.1,0.2c-0.1,0.1-0.1,0.2-0.2,0.4c0,0.1,0,0.3,0,0.4c0,0.9-0.2,1.8,0.2,2.6
		c0,0.4,0,0.8,0,1.3c0,0.2,0,0.4,0,0.6c-0.4,1.8-1.2,3.3-3,4.1c-1.4,0.6-2.8,1.2-4.3,1.3c-0.6,0-1.3,0-1.9,0
		c-3.4-0.4-6.5-2.2-9.9-2.6C80.3,213.8,79.9,213.7,79.6,213.6z"/>
	<path class="st73" d="M106.6,211.1c-0.3,2.6-2,4.1-4.4,4.9c-3.4,1.2-6.9,1.4-10.4,1.1c0.2-0.1,0.4-0.2,0.6-0.3
		c3.4,0.2,6.7-0.4,9.9-1.6c1.9-0.7,3.3-1.9,3.5-4.1C106.1,211.1,106.3,211.1,106.6,211.1z"/>
	<path class="st74" d="M86,228.1c2.4-0.6,4.9-0.1,7.4-0.3c0.9-0.1,1.9,0.3,2.8-0.3c2.5,0,5.1,0,7.6,0
		C97.8,228.4,91.9,228.2,86,228.1z"/>
	<path class="st75" d="M92.3,219.9c2.8,2.7,6.4,3.6,10.1,3.9c-0.8,0.6-1.7,0.1-2.6,0.3c-3.1-0.4-5.9-1.3-7.9-3.8
		C92.1,220.2,92.2,220,92.3,219.9z"/>
	<path class="st76" d="M106.6,211.1c-0.3,0-0.5,0-0.8,0c-2,0-4.1,0-6.1,0c0-0.2,0-0.4,0-0.6c2.1,0.1,4.3-0.2,6.4,0.2
		c1.6,0.2,3.2-0.2,4.7,0.3C109.4,211,108,211,106.6,211.1z"/>
	<path class="st77" d="M110.8,211c-1.5-0.5-3.2-0.1-4.7-0.3c0,0,0-0.1,0-0.1c0.2-0.1,0.4-0.1,0.6-0.2c3.7,0.1,7.4,0.2,11.2,0.3
		c0,0.1,0,0.2,0,0.3C115.4,211,113.1,211,110.8,211z"/>
	<path class="st78" d="M99.9,224.1c0.8-0.2,1.8,0.3,2.6-0.3c0.8,0,1.6-0.2,2.4,0.2c0,0.1-0.1,0.1-0.1,0.2
		C103.1,224.4,101.5,224.6,99.9,224.1z"/>
	<path class="st79" d="M92.3,219.9c-0.1,0.1-0.2,0.2-0.3,0.4c-0.8-0.8-1.3-1.8-1.4-3C91.2,218.2,91.8,219,92.3,219.9z"/>
	<path class="st80" d="M92.3,216.7c-0.2,0.1-0.4,0.2-0.6,0.3c-0.5,0-0.9-0.2-1.3-0.5c0.6,0,1.3,0,1.9,0
		C92.3,216.6,92.3,216.6,92.3,216.7z"/>
	<path class="st81" d="M79.6,213.6c0.3,0.1,0.6,0.2,1,0.3c-0.3,0.3-0.6,0.3-1,0.2C79.6,214,79.6,213.8,79.6,213.6z"/>
	<path class="st5" d="M36.4,186.1c0-4.7,0-9.5,0-14.2c5.8,0,11.7,0,17.5,0c10.1,0,20.1,0,30.2,0c3.9,0,7.8,0.1,11.7,0.1
		c0,3.8,0,7.5,0.1,11.3c0,1-0.3,1.3-1.3,1.5c-3,0.4-6,0.9-8.9,1.4c-0.9-0.4-1.9-0.1-2.8-0.2c-5.3-2.2-10.6-1.6-15.8,0.2
		c-9.7,0-19.3,0-29,0C37.5,186.1,36.9,186.1,36.4,186.1z"/>
	<path class="st82" d="M82.8,185.9c0.9,0,1.9-0.2,2.8,0.2c-0.6,0.1-1.3,0.2-1.9,0.3C83.4,186.3,83.1,186.1,82.8,185.9z"/>
	<path class="st83" d="M103.1,185.5c-5.3,0.8-10.6,1.6-15.9,2.4c-2.1,0.3-4.3,0.6-6.4,1.1c-2.7,0.7-4.6,2.5-6.3,4.6
		c-5,6.2-9.9,12.3-14.8,18.5c-0.2,0.3-0.6,0.5-0.8,0.7c1.1-2.3,2.9-4.1,4.5-6.1c3.9-5,7.7-10,11.8-14.8c2.1-2.5,4.9-3.7,8.1-4.2
		c5.9-0.9,11.7-1.7,17.6-2.6c0.4-0.1,0.8,0,1.3,0C102.5,185.3,102.9,185.2,103.1,185.5z"/>
	<path class="st84" d="M103.1,185.5c-0.2-0.4-0.6-0.3-0.9-0.3c1.9-0.6,3.9-0.6,5.9-0.9c1-0.2,2-0.2,3-0.3c-0.1,0.1-0.2,0.2-0.2,0.3
		C108.2,184.7,105.7,185.1,103.1,185.5z"/>
	<path class="st85" d="M57.2,210.5c-0.6-0.1-1.2-0.1-1.8-0.2c0.9-0.4,1.7-0.8,2.6-1.3c0.1,0.1,0.1,0.1,0.2,0.2
		C57.9,209.7,57.5,210.1,57.2,210.5z"/>
	<path class="st83" d="M58.9,212.9c-0.1,0.8-0.7,1.2-1.3,1.6C57.7,213.7,58.3,213.3,58.9,212.9z"/>
	<path class="st86" d="M57.6,214.5c-0.1,0.8-0.7,1.2-1.3,1.6C56.5,215.3,57,214.9,57.6,214.5z"/>
	<path class="st87" d="M56.4,216.1c0,0.6-0.5,0.8-0.6,1.3C55.1,216.5,56,216.5,56.4,216.1z"/>
	<path class="st88" d="M125.1,250.5c0.6-0.7,1.2-1.3,1.8-2C126.7,249.5,125.9,250.1,125.1,250.5z"/>
	<path class="st89" d="M123.7,252.5c0-0.6,0.3-0.9,0.9-1.1C124.5,252.1,124,252.2,123.7,252.5z"/>
	<path class="st90" d="M231,278.1c1.6,1.6,1.3,3.2,0,4.8C230.7,281.3,230.6,279.7,231,278.1z"/>
	<path class="st91" d="M233.1,281.8c0.9,1.6,1.8,3,2.5,4.6c0.5,1.1-0.5,1-1.1,0.9c-1.5-0.2-2.7-2-2.4-3.6
		C232.2,283.1,232.4,282.5,233.1,281.8z"/>
	<path class="st92" d="M409.2,236.8c0,1,0,2,0,2.9c0,0.6,0.2,1,0.8,1c-1.5,0.2-3.2-1.1-3.3-2.4c-0.1-0.5,0.3-0.6,0.6-0.8
		C408,237.3,408.6,237,409.2,236.8z"/>
	<path class="st93" d="M235.8,280.7c1.2,1.3,1.5,2.8,1,4.8c-0.8-1.3-1.3-2.3-1.9-3.3C234.1,280.7,234.1,280.7,235.8,280.7
		C235.8,280.7,235.8,280.7,235.8,280.7z"/>
	<path class="st94" d="M99.7,205.6c0.1-0.3,0.2-0.6,0.3-0.8c3.7-3.8,7.2-7.7,11.1-11.3c0.2,0,0.3,0,0.5,0
		C107.8,197.8,103.9,201.8,99.7,205.6z"/>
	<path class="st95" d="M106.6,210.4c-0.2,0.1-0.4,0.1-0.6,0.2c-0.4-2-1-3.8-3.5-4c0.2-0.1,0.5-0.2,0.7-0.3
		C105.7,206.5,106.3,208.3,106.6,210.4z"/>
	<path class="st96" d="M103.2,206.2c-0.2,0.1-0.5,0.2-0.7,0.3c-1-0.1-2.1-0.2-3.1-0.3c0.1-0.1,0.1-0.2,0.2-0.4
		C100.8,206.2,102,205.6,103.2,206.2z"/>
	<path class="st97" d="M109.5,186.5c0.1-0.1,0.2-0.3,0.3-0.4c1.3,0.2,2.6-0.3,3.8,0.4C112.2,186.5,110.8,186.5,109.5,186.5z"/>
	<path class="st98" d="M111.5,193.5c-0.2,0-0.3,0-0.5,0c0.3-0.5,0.8-0.9,1.5-1.3C112.4,192.9,111.9,193.2,111.5,193.5z"/>
	<path class="st99" d="M94.6,191.3c0,0.9-0.6,1.3-1.4,1.4c-0.5,0.1-0.9-0.2-0.9-0.8c0-0.9,0.5-1.4,1.3-1.5
		C94.2,190.2,94.5,190.6,94.6,191.3z"/>
	<path class="st5" d="M92.3,216.7c0-0.1,0-0.1,0-0.2c1.5-0.2,2.9-0.7,4.3-1.3c1.8-0.8,2.6-2.3,3-4.1c2,0,4.1,0,6.1,0
		c-0.2,2.2-1.6,3.4-3.5,4.1C99.1,216.3,95.8,216.9,92.3,216.7z"/>
	<path class="st5" d="M99.4,206.2c1,0.1,2.1,0.2,3.1,0.3c2.4,0.2,3.1,2,3.5,4c0,0,0,0.1,0,0.1c-2.1-0.5-4.3-0.1-6.4-0.2
		c0-0.4,0-0.8,0-1.3c-0.1-0.9,0.3-1.8-0.2-2.6C99.4,206.4,99.4,206.3,99.4,206.2z"/>
	<path class="st100" d="M99.4,206.6c0.5,0.8,0.2,1.7,0.2,2.6C99.2,208.3,99.4,207.4,99.4,206.6z"/>
</g>
</svg>
