<?xml version="1.0" encoding="utf-8"?>
<!-- Generator: Adobe Illustrator 24.3.0, SVG Export Plug-In . SVG Version: 6.00 Build 0)  -->
<svg version="1.1" id="Camada_1" xmlns="http://www.w3.org/2000/svg" xmlns:xlink="http://www.w3.org/1999/xlink" x="0px" y="0px"
	 viewBox="0 0 500 500" style="enable-background:new 0 0 500 500;" xml:space="preserve">
<style type="text/css">
	.st0{fill:#D3D3D3;}
	.st1{fill:#1A2E35;}
	.st2{fill:#8B9598;}
	.st3{fill:#EBEBEB;}
	.st4{fill:#BDC3C5;}
	.st5{fill:#375A64;}
	.st6{fill:#F9F9F9;}
	.st7{fill:#C68876;}
	.st8{fill:#BF30FE;}
	.st9{fill:#1E3038;}
	.st10{fill:#415156;}
	.st11{fill:#314248;}
	.st12{fill:#445359;}
	.st13{fill:#273A41;}
	.st14{fill:#505E63;}
	.st15{fill:#546266;}
	.st16{fill:#3E586B;}
	.st17{fill:#2D3F46;}
	.st18{fill:#3C5158;}
	.st19{fill:#2F4A53;}
	.st20{fill:#1E3239;}
	.st21{fill:#81939E;}
	.st22{fill:#DC86FE;}
	.st23{fill:#122329;}
	.st24{fill:#0F1E22;}
	.st25{fill:#BE654E;}
	.st26{fill:#F4F5F5;}
	.st27{fill:#F5F5F5;}
	.st28{fill:#365862;}
	.st29{fill:#33535D;}
	.st30{fill:#F0F1F1;}
	.st31{fill:#355660;}
	.st32{fill:#EAEBEB;}
	.st33{fill:#E3E5E5;}
	.st34{fill:#34555F;}
	.st35{fill:#2E4C56;}
	.st36{fill:#2E4C55;}
	.st37{fill:#2F4D57;}
	.st38{fill:#243D45;}
	.st39{fill:#D4D7D8;}
	.st40{fill:#DADCDD;}
	.st41{fill:#243E46;}
	.st42{fill:#ABB1B3;}
	.st43{fill:#EFEFF0;}
	.st44{fill:#CACDCE;}
	.st45{fill:#2F4D56;}
	.st46{fill:#2F4C56;}
	.st47{fill:#DEE0E1;}
	.st48{fill:#2A464F;}
	.st49{fill:#E5E7E8;}
	.st50{fill:#D7DADB;}
	.st51{fill:#CFD2D4;}
	.st52{fill:#8A9296;}
	.st53{fill:#E9EAEB;}
	.st54{fill:#EEEFEF;}
	.st55{fill:#EDEDEE;}
	.st56{fill:#DFE1E2;}
	.st57{fill:#EFF0F0;}
	.st58{fill:#33545E;}
	.st59{fill:#F2F3F3;}
	.st60{fill:#C4C8C9;}
	.st61{fill:#BDC1C3;}
	.st62{fill:#F3F4F4;}
	.st63{fill:#B1B7B9;}
	.st64{fill:#E6E8E8;}
	.st65{fill:#BCC1C3;}
	.st66{fill:#828C90;}
	.st67{fill:#F4F4F5;}
	.st68{fill:#A4ABAE;}
	.st69{fill:#E3E6E6;}
	.st70{fill:#BABFC1;}
	.st71{fill:#7A8388;}
	.st72{fill:#C4C8CA;}
	.st73{fill:#E4E5E6;}
	.st74{fill:#D1D4D5;}
	.st75{fill:#F4F4F4;}
	.st76{fill:#1A2F36;}
	.st77{fill:#1E343B;}
	.st78{fill:#243C44;}
	.st79{fill:#8780FE;}
	.st80{fill:#1B2E35;}
	.st81{fill:#1E3036;}
	.st82{fill:#223139;}
	.st83{fill:#1E2F38;}
	.st84{fill:#2D383C;}
	.st85{fill:#2C373B;}
	.st86{fill:#373C3F;}
	.st87{fill:#37334F;}
	.st88{fill:#313544;}
	.st89{fill:#434243;}
	.st90{fill:#464444;}
	.st91{fill:#4A4646;}
	.st92{fill:#544850;}
	.st93{fill:#8A685E;}
	.st94{fill:#88675D;}
	.st95{fill:#484545;}
	.st96{fill:#484544;}
	.st97{fill:#292E45;}
	.st98{fill:#563472;}
	.st99{fill:#474545;}
	.st100{fill:#302E4E;}
	.st101{fill:#AE41CF;}
	.st102{fill:#6F2F9A;}
	.st103{fill:#F7EFFA;}
	.st104{fill:#342E52;}
	.st105{fill:#475673;}
	.st106{fill:#3B2E5B;}
	.st107{fill:#555282;}
	.st108{fill:#EED6F8;}
	.st109{fill:#422E63;}
	.st110{fill:#622E8A;}
	.st111{fill:#4A2E6C;}
	.st112{fill:#492F6C;}
	.st113{fill:#F0D2FB;}
	.st114{fill:#DA9CF4;}
	.st115{fill:#782FA5;}
	.st116{fill:#512E76;}
	.st117{fill:#532E77;}
	.st118{fill:#7B2FA9;}
	.st119{fill:#4C2E6F;}
	.st120{fill:#BE30FD;}
	.st121{fill:#EEC9FC;}
	.st122{fill:#3E3159;}
	.st123{fill:#1D2E39;}
	.st124{fill:#202E3B;}
	.st125{fill:#212E3D;}
	.st126{fill:#F6EAFA;}
	.st127{fill:#242E40;}
	.st128{fill:#F5E9FA;}
	.st129{fill:#41576E;}
	.st130{fill:#3F576C;}
	.st131{fill:#362E56;}
	.st132{fill:#F2D8FB;}
	.st133{fill:#555283;}
	.st134{fill:#5C508A;}
	.st135{fill:#5A5087;}
	.st136{fill:#EDC6FC;}
	.st137{fill:#ECCAF9;}
	.st138{fill:#ECC1FC;}
	.st139{fill:#5C2F83;}
	.st140{fill:#252E40;}
	.st141{fill:#E195FE;}
	.st142{fill:#2A2E46;}
	.st143{fill:#7F2FAF;}
	.st144{fill:#542E77;}
	.st145{fill:#E39DFE;}
	.st146{fill:#F6EDFA;}
	.st147{fill:#332E52;}
	.st148{fill:#2B2E48;}
	.st149{fill:#312E4F;}
	.st150{fill:#435670;}
	.st151{fill:#465472;}
	.st152{fill:#F3E0FA;}
	.st153{fill:#F3DCFB;}
	.st154{fill:#DE8EFD;}
	.st155{fill:#3A2E5A;}
	.st156{fill:#3D305D;}
	.st157{fill:#EAB9FD;}
	.st158{fill:#EECBFC;}
	.st159{fill:#473268;}
	.st160{fill:#492E6C;}
	.st161{fill:#4A2E6E;}
	.st162{fill:#462F68;}
	.st163{fill:#662E8F;}
	.st164{fill:#5D508B;}
	.st165{fill:#F8F3F9;}
	.st166{fill:#8A30BD;}
	.st167{fill:#4F2E72;}
	.st168{fill:#4F2F72;}
	.st169{fill:#4E2E71;}
	.st170{fill:#8830BA;}
	.st171{fill:#2C2E49;}
	.st172{fill:#9B30D4;}
	.st173{fill:#622E89;}
	.st174{fill:#432E62;}
	.st175{fill:#4C2F6F;}
	.st176{fill:#5E4F8D;}
	.st177{fill:#EECAFC;}
	.st178{fill:#3B2E59;}
	.st179{fill:#DFA4F7;}
	.st180{fill:#E29BFE;}
	.st181{fill:#482E6A;}
	.st182{fill:#885DB3;}
	.st183{fill:#BF6A53;}
	.st184{fill:#BF6750;}
	.st185{fill:#C2735E;}
	.st186{fill:#282E45;}
	.st187{fill:#222E3E;}
	.st188{fill:#F6EEFA;}
	.st189{fill:#F7EEFA;}
	.st190{fill:#F3DFFA;}
	.st191{fill:#5A5284;}
	.st192{fill:#F2DAFB;}
	.st193{fill:#2F2E4C;}
	.st194{fill:#50537D;}
	.st195{fill:#F1D5FB;}
	.st196{fill:#292E46;}
	.st197{fill:#EFCAFC;}
	.st198{fill:#ECC2FC;}
	.st199{fill:#EEC7FC;}
	.st200{fill:#DD88FE;}
	.st201{fill:#212E3C;}
	.st202{fill:#1F2E3A;}
	.st203{fill:#2E2E4B;}
	.st204{fill:#6C2F96;}
	.st205{fill:#E39EFD;}
	.st206{fill:#8430B5;}
	.st207{fill:#EAB8FD;}
	.st208{fill:#DD9EF6;}
	.st209{fill:#202E3C;}
	.st210{fill:#1B2E36;}
	.st211{fill:#F7F0FA;}
	.st212{fill:#1B2F35;}
	.st213{fill:#F5E7FA;}
	.st214{fill:#F1D4FC;}
	.st215{fill:#482F6B;}
	.st216{fill:#322E4E;}
	.st217{fill:#8F30C4;}
	.st218{fill:#F5EAFA;}
	.st219{fill:#E5A3FE;}
	.st220{fill:#F0D1FB;}
	.st221{fill:#E7AEFD;}
</style>
<g>
	<path class="st0" d="M76.9,16.3c3.5,0,6.9,0,10.4,0c1.1,0.6,2.4,0.2,3.6,0.3c0.1,0,0.2,0,0.3,0c0.5,0.5,1.1,0.3,1.6,0.3
		c1.5,0.3,3,0.5,4.5,0.8c12.3,2.9,22.7,9.2,31.7,18c7,6.8,14,13.6,21,20.4c7.8,7.5,15.6,15.1,23.3,22.7c5.1,5,10.2,10,15.4,15
		c0.3,0.3,0.6,0.5,0.9,0.7c0.1,0.4,0.2,0.8,0.3,1.2c0.9,4.9,5.2,9.2,9.4,9.5c2,0.1,2.1,0.3,1.1,2c-7.3,13-4.1,28.6,7.7,37.3
		c-0.2,0.6-0.3,1.1-0.5,1.7c-2,7.3-0.8,13.9,3.9,19.9c2.7,3.4,6.3,5.6,10.3,7.1c-0.2,1.8,0.3,3.7-0.3,5.5c-2.9,1.2-4.5,3.4-4.3,6.6
		c0.2,3.1,2.2,5.6,5.2,6.6c0.8,3.6,1.2,7.2,2.3,10.8c3.5,11.2,9.9,19.7,20.9,24.4c1.4,0.6,3.4,0.4,4,1.8c0.6,1.3,0.2,3.1,0.2,4.7
		c-4.9,0.7-6.7,3.2-6.1,8.1c0.2,2.1,0.6,4.2,0.6,6.3c-9.4,5.4-19,10.7-28.3,16.3c-12.7,7.7-21,18.8-24.8,33.2
		c-2.2,8.4-3.2,17-4.6,25.6c-1,6-1.8,12-2.7,18c-0.2,1.3-1.3,1-2.1,1c-52.4,0-104.7,0-157.1,0c-2.6,0-5,0.4-7.2,1.6
		c0-45.6,0-91.3,0-136.9c0-0.9,0-1.7,0.1-2.6c0.2,0.3,0.4,0.5,0.6,0.8c4.7,6.8,9.9,13.2,16.5,18.3c22.7,17.7,48.1,22.9,75.7,14.8
		c18.2-5.3,32.6-16.2,43.4-31.8c0.6-0.9,1.3-1.3,2.4-1.3c9.8-0.2,19.5-0.4,29.3-0.7c0.3,0,0.7,0.2,0.9-0.3c-0.3-0.4-0.7-0.9-1.1-1.4
		c-6.1-7.7-12.3-15.3-18.4-23c-0.6-0.7-0.8-1.4-0.6-2.3c1-4.4,1.6-8.9,1.8-13.4c1-18.9-4-36.2-14.9-51.5
		c-20.7-29.1-56.7-41.1-90-30.8c-1,0.3-2,0.6-2.9,1c-0.4,0.3-1.2,0-1,0.9c-0.3,0-0.6-0.1-0.8,0c-2.8,1.1-5.6,2.2-8.3,3.6
		c-0.7-0.1-1.2,0.3-1.7,0.6c-0.4,0.3-1.2,0.1-0.9,1c-0.1,0.1-0.1,0.1-0.2,0c-1.5-0.2-2.4,1-3.5,1.6c-0.9,0.5-1.8,0.9-2.6,1.6
		c-3.6,2.1-6.8,4.8-9.9,7.6c-5.4,4.7-9.8,10.1-13.7,16c0-0.7-0.1-1.4-0.1-2.1c0-11.5,0-23,0-34.5c0-1.9,0-3.8,0.3-5.7
		c0.9-6.9,2.7-13.6,5.7-19.9c4.1-8.7,10-16.1,17.5-22.1c8.3-6.7,17.7-11.2,28.2-13.5C71.8,17.1,74.4,16.7,76.9,16.3z"/>
	<path class="st1" d="M4.9,155c0.7-13.8,4.9-26.6,12.1-38.3c0.3-0.4,0.5-0.8,0.7-1.3c4-5.9,8.4-11.3,13.7-16
		c3.1-2.7,6.3-5.5,9.9-7.6c0.1,0.1,0.2,0.2,0.4,0.3c-0.5,0.4-1.1,0.7-1.6,1.1c-19.8,14.8-31.4,34.3-33.6,59
		c-1.8,19.7,3.2,37.8,14.7,53.9c20.2,28.2,55.4,40.2,88.5,30.1c18.1-5.5,32.5-16.2,43.1-31.8c0.7-1,1.3-1.3,2.5-1.4
		c8.6-0.2,17.1-0.4,25.7-0.6c0.6,0,1.2,0.2,1.8-0.3c-0.5-0.6-0.9-1.2-1.4-1.8c-5.3-6.7-10.7-13.4-16-20.1c-0.8-1-1-1.9-0.7-3.2
		c2.2-9.1,2.7-18.4,1.5-27.6c-3.1-22.9-14-41.4-32.6-55.1c-15.9-11.7-34-16.7-53.7-15.3c-5.4,0.4-10.6,1.5-15.8,2.7
		c-0.2-0.1-0.4-0.2-0.6-0.3c33.3-10.2,69.3,1.7,90,30.8c10.9,15.3,15.9,32.6,14.9,51.5c-0.2,4.5-0.8,9-1.8,13.4
		c-0.2,1,0,1.6,0.6,2.3c6.2,7.7,12.3,15.3,18.4,23c0.4,0.5,0.7,0.9,1.1,1.4c-0.2,0.5-0.6,0.3-0.9,0.3c-9.8,0.2-19.5,0.5-29.3,0.7
		c-1.1,0-1.7,0.4-2.4,1.3c-10.8,15.6-25.2,26.5-43.4,31.8c-27.7,8.1-53,2.9-75.7-14.8c-6.6-5.1-11.8-11.5-16.5-18.3
		c-0.2-0.3-0.4-0.5-0.6-0.8c-3.2-5.3-6-10.7-8.1-16.5c-2.5-7-4-14.1-4.7-21.5c0-0.4,0.3-1-0.4-1.3c0-0.7,0-1.3,0-2
		c0.7-2,0.2-4.1,0.3-6.2C4.9,156.1,4.9,155.6,4.9,155z"/>
	<path class="st2" d="M4.9,156.7c-0.1,2.1,0.4,4.2-0.3,6.2c0-2.1,0-4.1,0-6.2l0.1,0L4.9,156.7z"/>
	<path class="st3" d="M90.9,16.3c0,0.1,0,0.2,0,0.3c-1.2-0.1-2.4,0.3-3.6-0.3C88.6,16.3,89.8,16.3,90.9,16.3z"/>
	<path class="st4" d="M4.9,156.7l-0.1,0l-0.1,0c0-0.5,0-1.1,0-1.6c0.1,0,0.2-0.1,0.3,0C4.9,155.6,4.9,156.1,4.9,156.7z"/>
	<path class="st1" d="M359.3,259.3c3.1,1.2,6.3,2.3,9.4,3.6c11,4.5,19.2,12.1,24.5,22.7c1.4,2.7,2.5,5.4,3.2,8.3
		c4.3,17.6,8.5,35.3,13,52.9c5.9,23.4,12.1,46.8,16.5,70.5c1,5.4,1.9,10.9,2,16.4c0.1,5.6-0.3,11.2-1.6,16.8
		c-2.2,10-5.9,19.1-13.8,26.1c-3.7,3.3-7.9,5.4-12.8,6.2c-1.6,0.3-3.2,0-4.6,0.5c-30.9,0-61.8,0-92.7,0.1c-1.4,0-2.7,0-3.9-0.7
		c4.6-0.4,7.4-3.5,10-6.8c0.3-0.4,0.5-0.8,0.2-1.3c0.9,0,1.1-0.7,1.4-1.3c3.4-7.3,4.6-14.7,1.9-22.5c0.1-0.2,0.2-0.4,0.2-0.6
		c-1.4-3.7-3.2-7.2-6.4-9.8c-3.2-2.6-7-3.8-10.9-4.9c-1.2-0.4-2.3-0.4-3.5,0.2c-1.5,0.7-3.1,1.4-4.5,2.3c-1.1,0.6-2.3,1.1-3.3,2.5
		c2.2,0,4,0,5.9,0c-3.2,0.3-6.3,0.5-9.4-0.7c-9.7-3.5-19.6-6.7-29.7-9.1c-4.4-1-8.4-0.8-12.4,1.6c-3.4,2-7,3.9-10.5,5.9
		c-0.1-0.5-0.2-1.1-0.3-1.6c-2.4-12.9-4.7-25.8-7.1-38.6c-1.3-7.3-2.6-14.6-4-21.9c-1.6-8.5-3.1-17-4.7-25.5c-0.6-2.9-2-5.4-4.7-6.9
		c-0.9-0.5-1-1.1-0.7-2c0.8-2.8,1.6-5.6,2.4-8.4c2-6.1,3.3-12.4,3.8-18.8c-0.9,6.2-2.5,12.2-4.1,18.1c-0.9,3-1.8,6-2.7,9
		c-0.2,0.6-0.3,1.2-1.2,0.9c-3.5-1-7-0.3-10.5-0.5c-1.3,0-2.6,0-3.9,0c-1.4,0-2.9,0-4.3,0c-0.8,0-1.2-0.2-1.3-1c0.9-6,1.7-12,2.7-18
		c1.4-8.6,2.3-17.2,4.6-25.6c3.8-14.3,12-25.5,24.8-33.2c9.3-5.6,18.9-10.9,28.3-16.3c0.3,0.2,0.6,0.4,1,0.7c0.5,0.3,1.1,0.7,1.6,1
		c-0.9,2.7-1.3,5.4-0.6,8.3c0.9,4.3,4.7,7.2,9.1,7.4c4.3,0.2,8.1-1.3,11.7-3.4c4.6-2.7,9.2-5.5,13.9-8c4.4-2.4,9.1-4.3,14.1-5.4
		c2.3-0.5,2.5-0.9,2-2.5c1.5,0,2.9,0,4.4,0c-2.7-0.9-5.5-0.5-8.4-0.7c2.5-6,2.7-12.1,0.4-14.5c0.2,0.7,0.3,1.2,0.4,1.8
		c1,4.5,0.6,8.8-1.7,12.8c-0.7,0.1-1.4,0.2-2.1,0.3c-3.6,0.6-7.2,1-10.6,2.3c-1.2,0.3-2.5,0.4-3.7,0.8c-1.3,0.4-1.3-0.2-1.2-1.1
		c0.4-5.5-0.3-10.8-2.6-15.9c1.8-0.2,3.5-0.4,5.3-0.6c2.4-0.2,4.8-0.4,7.1-0.6c7.8-0.7,15.5-1.4,23.3-2.1c2.5-0.2,3,0.2,4,2.4
		c0,3.4,0,6.8,0.3,10.2c0.1,0.7,0.2,1.1,0.9,1.4c10,3.8,19.7,8.5,29.9,11.8C348.3,255.8,353.8,257.5,359.3,259.3z M201.7,290.3
		c-0.3,0.2-0.9,0-1,0.7c0.5,0,1,0,1.3-0.4c0.3-0.1,0.8,0.1,0.9-0.6C202.5,290.1,202.1,290.2,201.7,290.3z M222.5,333.6
		c-0.5,0-0.9-0.5-1.5-0.2c0.3,0.4,0.7,0.5,1.2,0.5c0.4,0.4,0.9,0.4,1.4,0.5c2.9,0.9,5.9,1.8,8.8,2.6c7.5,2.1,15,3.6,22.8,4.3
		c10.7,1,21.1-0.6,31.4-3.1c10.7-2.6,21.2-6,32.1-8c1.1-0.2,2.3-0.4,3.4-0.5c1.1-0.1,2.2,0,3.3-0.3c2.5,0.1,5.1,0.2,7.6,0.2
		c0.7,0.1,1.4,0.2,2.2,0.3c-0.7-0.6-1.4-0.7-2.1-0.7c-2.9-0.6-5.9-0.4-8.8-0.2c-1.1-0.1-2.2,0.2-3.3,0.3c-1.1,0.1-2.3,0.2-3.3,0.6
		c-1.1,0.2-2.1,0.3-3.2,0.5c-10.5,2.2-20.7,5.5-31.1,7.8c-11.8,2.7-23.6,3.5-35.6,1.5c-4.9-0.8-9.8-1.9-14.6-3c-3-0.9-6-1.8-9.1-2.6
		C223.5,334,223,333.8,222.5,333.6z M351.9,313.3c-0.5-0.4-1.2-0.3-2-0.7c0.7,0.9,1.4,0.9,2,1c0.4,0,0.8,0.6,1.3,0.1
		C352.8,313.3,352.3,313.3,351.9,313.3z M361.3,416.6c-0.1-0.7,0.2-1.4-0.3-2c0-0.8,0.1-1.6-0.4-2.3c0-0.6,0-1.3-0.1-1.9
		c-0.9-6.3-1.9-12.6-2.8-18.9c-1.4-9.6-3.1-19.2-4.8-28.8c-1.8-9.7-3.6-19.5-5.7-29.1c-1-4.5-1.9-9.1-3-14c-0.4,1.2,0,1.8,0.1,2.5
		c0.9,4.1,1.4,8.2,2.6,12.2c0.3,1.6,0.6,3.3,0.9,4.9c0.9,5,2.1,9.9,2.7,14.9c-0.1,0.1-0.2,0.3-0.2,0.4c-0.7,5.1-1.4,10.3-2,15.4
		c-0.7,5.2-1.4,10.4-2.1,15.6c-0.7,5.3-1.5,10.7-2.2,16c-0.6,4.6-1.3,9.2-1.9,13.8c-0.5,3.4-0.9,6.8-1.4,10.3
		c-0.2,1.9,0,2.1,1.9,1.7c3.1-0.7,6.2-1.4,9.3-2.1c0.7-0.1,1.1-0.4,1.2-1.1c0.1-0.9,0.2-1.8,0.3-2.7c0.6-4.9,1.1-9.9,1.7-14.8
		c0.6-5.4,1.7-10.8,1.6-16.3c0.6,1.3,0.6,2.8,0.8,4.2c0.7,4.8,1.4,9.5,2.1,14.3c-0.1,0.2-0.2,0.4-0.3,0.6c-0.7-4-1.4-8-2.1-11.9
		c-0.1,0-0.3,0-0.4,0c-0.2,2.1-0.3,4.3-0.5,6.4c-0.6,6.7-1.3,13.3-2,20c-0.1,1,0.2,1.3,1.1,1.2c1.9-0.3,3.7-0.6,5.6-0.9
		c1.1-0.2,1.3-0.7,1-1.7c-0.3-1.5-0.7-3-0.5-4.5C361.6,417.5,361.7,417,361.3,416.6z M205.9,289.3c-0.8,0.2-1.8,0.1-2.9,1
		c1.3-0.3,2.1-0.5,2.9-0.7c0.5,0,1.1-0.1,1.6-0.1c1.5,0,3.1,0,4.6,0c1,0.1,1.9,0.2,2.9,0.3c-0.6-0.7-1.2-0.6-1.9-0.6
		c-2-0.4-4-0.4-6,0C206.8,289.2,206.3,289.3,205.9,289.3z M356.5,314.3c-1-0.3-2-0.5-3-0.6c0,0.2-0.1,0.3-0.1,0.5
		c0.8,0.1,1.5,0.3,2.3,0.4c0.7,0.1,1.3,0.2,2,0.3c10,1.3,19.3-0.6,28-5.8c2.1-1.1,4-2.5,5.6-4.3c-2,1.4-4,2.6-6,3.9
		c-8.1,4.4-16.7,6.4-25.9,5.9C358.5,314.3,357.5,314.4,356.5,314.3z M218.2,290.6c1.1,0.4,2.2,0.8,3.4,1.2c3.5,1.4,6.8,3.4,10.1,5.2
		c5.1,3.4,10.2,7,15.5,10.1c5.4,3.1,11.1,5.5,17.5,6c6.7,0.4,13-1.2,19.1-3.8c8.8-3.8,16.6-9.5,24.8-14.5c4.9-2.8,10-5.3,15.4-7.1
		c0.3-0.1,0.9,0.1,0.9-0.3c-0.1-0.7-0.6,0-1-0.1c-0.1,0-0.2,0.1-0.3,0.1c-5.5,1.5-10.6,4-15.4,7c-2.9,1.5-5.7,3.4-8.4,5.1
		c-5.5,3.5-11,6.9-17,9.4c-7.7,3.2-15.7,4.6-24,2.4c-5.9-1.6-11.2-4.7-16.3-7.9c-3.5-2.2-6.8-4.7-10.4-6.7c-3.1-2.2-6.5-3.9-10-5.2
		c-1.1-0.6-2.2-0.9-3.4-1.2c-1,0-1.8-0.9-3-0.2C216.5,290.2,217.4,290.4,218.2,290.6z M331.3,285.9c-0.9,0.1-2-0.1-3.2,0.7
		c1.4-0.2,2.5-0.3,3.5-0.4c1.9,0,3.8,0,5.7,0C335.4,285.5,333.3,285.5,331.3,285.9z M205.9,326.4c-5.4-0.4-10.4-2.1-15.2-4.7
		c-0.4-0.4-0.8-0.8-1.6-0.7c0.3,0.6,0.8,0.8,1.2,1c4.1,2.7,8.7,4.3,13.6,4.7c1,0.4,2.1,0.4,3.3,0
		C206.7,326.3,206.3,326.3,205.9,326.4z M387.4,448.2c0.4,1.3,0.9,2.6,1.3,3.9c-0.1-1.6-0.3-3.1-1-4.5c-1.1-4.1-2.9-7.9-5.2-11.5
		c-3.4-5.1-7.7-9.1-13.7-11c-1.8-0.8-3.8-1.1-5.8-0.8c1.8,0.2,3.5,0.6,5.1,1.1c4.3,1.3,7.8,3.9,10.7,7.1
		C382.9,437,385.5,442.4,387.4,448.2z M364.2,265.3c-8,4.6-13.8,11.1-16.8,20c1.9-4,4.2-7.8,7-11.1
		C357.4,270.8,360.6,267.9,364.2,265.3z M325.6,287.1c0.9,0,1.8,0.1,2.8-0.8C327.2,286.5,326.3,286.5,325.6,287.1z M335.6,329.8
		c0.6,0.5,1,0.6,1.6,0.4C336.7,329.8,336.3,329.6,335.6,329.8z M340.4,331.1c-0.1,0.4,0.1,0.5,0.3,0.4c0.2,0,0.6,0.6,0.7,0
		C341.3,331.2,340.8,331.1,340.4,331.1z M338.6,286.1c0.2,0.4,0.6,0.5,0.9,0.4c0,0,0.1-0.3,0.1-0.4
		C339.3,285.9,339,285.9,338.6,286.1z M337.8,330.4c0.6,0.4,1,0.6,1.9,0.5C339,330.5,338.6,330.2,337.8,330.4z M393.1,303
		c-0.2,0.3-1,0.4-0.8,1.1C392.8,303.9,393.1,303.7,393.1,303z M342,286.8c0.3,0.5,0.7,0.5,1.1,0.3C342.8,287,342.4,286.6,342,286.8z
		 M215.2,331.6c-0.7-0.7-1.1-0.8-1.7-0.5C214,331.2,214.4,331.4,215.2,331.6z"/>
	<path class="st5" d="M184.1,341c0,0.8,0.5,1.1,1.3,1c1.4,0,2.9,0,4.3,0c0.4,0.4,0.9,0.3,1.4,0.3c1.6-0.1,3,0.4,4.4,1.1
		c2.3,1.1,3.9,2.9,5.3,4.8c1.2,2.3,2.1,4.7,2.7,7.2c0.6,2.6,0.7,5.2,1.5,7.7c0.3,3.7,1.1,7.4,1.7,11.1c3,16.7,6.4,33.4,9.9,50
		c3.4,16.3,6.9,32.6,9.9,49c0.4,2.3,0.8,4.7,1.3,7c0.2,1-0.1,2.3,0.9,3.1c0,0.1,0,0.2,0,0.3c-0.8,0-1.5,0-2.3,0
		c-48.2,0-96.5,0.1-144.7,0c-19.3-0.1-35.3-7.8-48.2-22.1c-0.5-2.6-1-5.1-1.5-7.7c-3.8-19.6-7.5-39.3-11.3-58.9
		c-1-5.4-2.1-10.8-3.2-16.2c-1-5.6-2.1-11.2-3.1-16.7c-0.5-2.4-1-4.9-1.4-7.3c-0.8-4.6,0.8-8.3,4.5-11.1c2.2-1.3,4.6-1.6,7.2-1.6
		c52.4,0,104.7,0,157.1,0C182.8,342,183.8,342.3,184.1,341z M115.3,403.2c-5.3,0-9.5,4.2-9.6,9.5c0,5.3,4.3,9.7,9.6,9.6
		c5.4,0,9.6-4.3,9.5-9.7C124.8,407.3,120.6,403.1,115.3,403.2z"/>
	<path class="st6" d="M63.9,81.8c5.2-1.2,10.5-2.3,15.8-2.7c19.8-1.4,37.8,3.5,53.7,15.3c18.6,13.7,29.5,32.2,32.6,55.1
		c1.3,9.3,0.7,18.5-1.5,27.6c-0.3,1.3-0.1,2.2,0.7,3.2c5.4,6.7,10.7,13.4,16,20.1c0.5,0.6,0.9,1.2,1.4,1.8c-0.6,0.5-1.2,0.3-1.8,0.3
		c-8.6,0.2-17.1,0.4-25.7,0.6c-1.2,0-1.8,0.4-2.5,1.4c-10.6,15.6-25,26.3-43.1,31.8c-33.1,10-68.2-1.9-88.5-30.1
		C9.7,190.1,4.7,172,6.5,152.3c2.2-24.7,13.8-44.2,33.6-59c0.5-0.4,1.1-0.7,1.6-1.1c0.9-0.5,1.7-1.1,2.6-1.6c1-0.6,2.1-1.3,3.1-1.9
		c0.1,0.1,0.1,0,0.2,0c0.4-0.2,0.8-0.5,1.2-0.7c0.5-0.2,1.1-0.3,1.4-0.9c2.7-1.4,5.5-2.5,8.3-3.6c0.2-0.1,0.5,0,0.8,0
		c0.4-0.2,0.9-0.4,1.3-0.6C61.8,82.4,62.9,82.1,63.9,81.8z M129,180.4c-0.3-0.3-0.5-0.6-0.8-0.9c-1.7-1.8-3.3-3.6-5-5.3
		c-0.5-0.6-0.8-1-0.5-1.9c0.9-2.7,1.4-5.5,1.7-8.3c0.1-0.8,0.4-1.2,1.2-1.5c2.2-1,4.5-2,6.7-2.9c0.8-0.3,1.1-0.7,0.9-1.6
		c-0.9-4.5-1.8-8.9-2.7-13.4c-0.2-1-0.5-1.4-1.6-1.4c-2.4,0-4.8-0.2-7.2-0.2c-1,0-1.5-0.4-1.9-1.2c-1.2-2.4-2.7-4.7-4.5-6.7
		c-0.6-0.6-0.6-1.2-0.3-1.9c0.9-2.3,1.8-4.7,2.7-7c0.3-0.8,0.2-1.2-0.6-1.7c-3.9-2.5-7.7-5.1-11.5-7.7c-0.7-0.5-1.2-0.4-1.8,0.2
		c-1.7,1.7-3.6,3.3-5.3,5.1c-0.6,0.6-1.1,0.8-2,0.5c-2.6-0.9-5.4-1.4-8.1-1.6c-0.8-0.1-1.2-0.4-1.5-1.1c-0.9-2.2-2-4.5-2.9-6.7
		c-0.3-0.7-0.7-1.1-1.6-1c-4.5,0.9-9,1.8-13.6,2.7c-0.9,0.2-1.2,0.6-1.2,1.5c0,2.4-0.2,4.8-0.2,7.2c0,0.9-0.3,1.5-1.1,1.9
		c-2.4,1.2-4.7,2.7-6.7,4.5c-0.6,0.5-1.1,0.6-1.9,0.3c-2.3-0.9-4.6-1.8-6.8-2.7c-0.8-0.3-1.3-0.3-1.9,0.5c-2.5,3.9-5.1,7.7-7.7,11.5
		c-0.5,0.7-0.4,1.2,0.2,1.8c1.7,1.7,3.3,3.6,5,5.3c0.5,0.6,0.8,1.1,0.5,1.9c-0.8,2.6-1.4,5.2-1.6,8c-0.1,1.1-0.6,1.6-1.6,2
		c-2.2,0.9-4.3,1.9-6.4,2.8c-0.7,0.3-1.1,0.6-0.9,1.6c1,4.5,1.8,9,2.7,13.6c0.2,0.9,0.5,1.2,1.4,1.2c2.4,0,4.9,0.2,7.3,0.2
		c1,0,1.4,0.3,1.9,1.2c1.1,2.3,2.5,4.4,4.2,6.4c0.8,0.9,0.9,1.6,0.5,2.7c-0.9,2.1-1.6,4.3-2.5,6.4c-0.3,0.8-0.3,1.4,0.5,1.9
		c3.9,2.5,7.7,5.1,11.5,7.7c0.7,0.5,1.1,0.4,1.7-0.2c1.7-1.7,3.6-3.3,5.3-5.1c0.6-0.6,1.2-0.9,2.1-0.5c2.6,0.9,5.3,1.3,8,1.6
		c0.9,0.1,1.3,0.4,1.7,1.2c0.9,2.3,2,4.5,2.9,6.7c0.3,0.8,0.8,1.1,1.6,0.9c4.5-0.9,8.9-1.8,13.4-2.6c1-0.2,1.3-0.7,1.3-1.6
		c0-2.4,0.2-4.8,0.2-7.2c0-0.9,0.3-1.4,1.1-1.8c2.5-1.3,4.8-2.8,6.9-4.6c0.6-0.6,1.2-0.5,1.9-0.2c2.3,0.9,4.6,1.7,6.8,2.7
		c0.8,0.3,1.3,0.3,1.9-0.6c2.5-3.8,5-7.6,7.6-11.4C128.6,181.1,128.8,180.8,129,180.4z"/>
	<path class="st7" d="M311.8,230.7c-1-2.2-1.5-2.6-4-2.4c-7.8,0.7-15.5,1.4-23.3,2.1c-2.4,0.2-4.7,0.4-7.1,0.6
		c-0.7-0.1-1-0.2-0.2-0.7c3.2-1.8,6-4.1,8.4-6.9c1.2-1.4,2.5-2.8,3.4-5c-0.7,0.4-1.1,0.5-1.5,0.7c-5.2,3-10.7,5.1-16.4,6.6
		c-6.3,1.7-12.7,2.7-19.2,2.5c-1.2,0-1.7,0.4-1.6,1.6c0.1,1.2,0,2.4,0,3.6c-0.1,0-0.2,0-0.3,0c0-1.6,0.4-3.3-0.2-4.7
		c-0.6-1.4-2.6-1.2-4-1.8c-11-4.7-17.4-13.3-20.9-24.4c-1.1-3.5-1.4-7.2-2.3-10.8c-0.2-3.1-0.3-6.1-0.5-9.2c-0.1-1.3,0.2-2.7-0.4-4
		c0.6-1.8,0.1-3.7,0.3-5.5c2.8,0.6,5.6,1,8.4,0.7c6.1-0.5,10.9-3.4,14.7-8.1c1.9-2.3,3.1-4.9,3.9-7.8c0-0.3,0-0.6,0-0.9
		c0.4-0.5,0.3-1.2,0.3-1.8c0.6-0.9,0.5-1.7,0-2.6c0-0.1,0-0.2,0-0.4c0.6-1,0.4-1.9,0-2.9c0.1-0.7,0-1.3-0.3-1.9
		c-0.1-0.3-0.2-0.6-0.3-1c-0.7-3.4-2.5-6.3-4.9-8.8c-0.2-1.6-1.3-2.3-2.6-2.9c-1.1-0.5-2.2-0.9-3.3-1.4c-0.4-0.2-0.7-0.5-1.1-0.6
		c-3.1-1.4-6.3-1.9-9.6-1.8c-0.3,0-1.2,0.6-1-0.5c1.9-2.2,3.8-4.4,5.7-6.6c0.6-0.2,1-0.6,1.4-1c7.5-6.3,15.9-10.8,25.4-13.2
		c0.4,0.2,0.9,0.3,1.3,0.5c0.8,1,2,0.7,2.9,1.1c3.7,1.1,7.1,2.7,10.4,4.6c7.1,4.4,13.3,9.8,18.5,16.3c8.2,10.2,13.7,21.8,18.4,33.9
		c0.2,0.5,0.1,1.2,0.8,1.4l0,0.1c-0.4,0.6,0.2,1.1,0.2,1.7c0.1,0.2,0.2,0.4,0.4,0.7c-0.1,0.6,0.1,1.1,0.4,1.6
		c0.2,1.1,0.5,2.1,0.7,3.2c-0.1,0.7-0.2,1.4,0.3,2c0,0.1,0,0.2,0,0.3c0,0.1,0,0.1,0,0.2c-1.1-0.4-2.2-0.8-3.5-0.5
		c-3.7,1.1-5.6,4.9-4.3,8.7c1.2,3.5,5.1,6.1,8.7,4.3c-0.4,8-0.8,16.1-1.2,24.1C312.4,219.6,312.1,225.1,311.8,230.7z M298.7,155.4
		c0.6-0.9,0.5-1.7,0-2.6c0-0.1,0-0.2,0-0.4c0.6-1,0.4-1.9,0-2.9c0.1-0.7,0-1.3-0.3-1.9c0-0.1,0-0.3,0-0.4c-0.6-2.3-1.5-4.5-2.9-6.5
		c-2.1-3.3-4.9-5.8-8.5-7.4c-4-2.1-8.4-2.6-12.8-1.9c-11.5,2-19.3,12.5-17.7,24c1.5,11.5,11.6,19.5,23.4,18.5
		c6.1-0.5,10.9-3.4,14.7-8.1c1.9-2.2,3-4.7,3.5-7.5c-0.3,0.7-0.6,1.3-0.9,2c-0.7-1-0.6-1.7,0.5-2.3c0.4-0.2,0.8-0.4,0.5-0.9
		C299.2,156.8,298.6,155.9,298.7,155.4z M262.9,188c-2-0.5-3.9-0.5-5.7,0.5c-2.8,1.5-3.7,2.8-1.8,4.7c-1,0.6-2.3,0.2-3.3,1.1
		c2,1.2,3.9,0.8,5.9,0.5c0.9,1,2.1,1.3,3.3,1.6c2.2,0.5,4.2-0.2,5.1-1.8c0.8-1.6,0.2-3.8-1.5-5.3c0.4-1.3,0.9-2.7,0.7-4.1
		c-0.1-0.5,0.1-1.3-0.6-1.3c-0.6-0.1-0.5,0.7-0.7,1.1C263.9,185.9,263.6,187.1,262.9,188z M255.2,147.2c-0.9,0.8-1.1,1.5-1.4,2.2
		c-3.9,8.6-7.3,17.4-10.5,26.2c-0.2,0.6-0.4,1.1-0.4,1.7c-0.2,1.6,0.7,2.8,2.3,3c2.5,0.4,5,0.5,7.7,0.3c-0.6-0.5-1.2-0.5-1.7-0.6
		c-1.7-0.3-3.4-0.5-5.1-0.8c-1.6-0.3-1.9-0.9-1.4-2.4c0.2-0.5,0.4-1,0.6-1.5c2.8-6.9,5.5-13.8,7.9-20.8
		C253.8,152.2,254.7,150,255.2,147.2z"/>
	<path class="st8" d="M189.7,94.5c-0.3-4.2,0.6-8.2,2.1-12.1c3.1-8.4,6.7-16.6,11.8-24c0.3-0.4,0.7-0.9,1-1.3c0,0.8,0,1.6,0,2.4
		c0.1,6.9,2.7,12.5,8.2,16.7c1.2,1,2.4,2,4.1,2.3c0.4,0.2,0.8,0.4,1.2,0.7c-3.1,2.2-6.4,4.3-8.9,7.2c1.2-0.7,2.2-1.6,3.3-2.5
		c1.2-0.9,2.2-1.9,3.6-2.5c0.1,0.1,0.2,0.3,0.3,0.4c-1,2.5,1.6,7.1,4.6,8.1l0,0c0.1,0.7-0.5,0.7-0.9,0.9c-0.9,0.5-1.8,0.9-2.7,1.4
		c-0.5,0.3-1.1,0.6-1.6,0.9c-0.7,0.5-1.7,0.6-1.9,1.6c-0.2,0.1-0.3,0.3-0.5,0.4c-0.4-0.4-0.7-0.3-0.9,0.1c-1,0.6-1.9,1.2-2.7,2.1
		c-0.3,0.3-0.6,0.7-0.9,1c-0.8,0.5-0.7,1.5-1,2.3c-0.1,0.3-0.2,0.7-0.3,1c-0.3,0.6-0.5,1.3-0.6,2c-1.1,4.6-1.3,9.3-0.7,14
		c0.8,5.7,2.7,11,6.8,15.3c0.6,1,1.6,1.5,2.4,2.3c-3.2,2.5-5.5,5.7-7.2,9.3c-11.8-8.7-15.1-24.3-7.7-37.3c1-1.8,0.9-1.9-1.1-2
		c-4.3-0.3-8.5-4.6-9.4-9.5C189.9,95.3,189.8,94.9,189.7,94.5z M204.1,92.2c0.4-0.4,0.8-0.9,1.2-1.3c0.8-0.8,1.5-1.7,2.3-2.5
		c-1.2,0.4-1.9,1.3-2.6,2.2c-0.4,0.5-1,0.9-1.1,1.6c-0.4,0.3-0.9,0.6-0.8,1.3C203.6,93.2,203.8,92.7,204.1,92.2z M205,102
		c0.8-0.7,1.8-1.4,2.1-2.6c-0.8,0.9-1.7,1.8-2.5,2.6c-0.5,0.4-1,0.8-0.9,1.5C204.1,103,204.5,102.5,205,102z M200.8,97.3
		c0.4-0.8,0.9-1.1,0.8-2.1C201.2,96,200.8,96.3,200.8,97.3z M199.4,100c-0.1,0-0.2-0.1-0.2-0.1c-0.2,0.3-0.6,0.6-0.2,1.1
		C199.2,100.7,199.4,100.4,199.4,100z"/>
	<path class="st1" d="M249.9,233.5c0.1,0,0.2,0,0.3,0c2.6-0.2,5.2-0.4,7.8-0.6c0,0.1,0,0.2,0,0.3c-1,0.1-1.6,0.7-2.1,1.6
		c-0.9,1.4-1,2.9-1.1,4.5c-0.2,3.7,0.3,7.4,1.1,11.1c0.2,1-0.1,1.2-1,1c-1.8-0.4-3.6-0.8-5.4-1.2c-1.4-0.5-2.6-1.8-4.3-1.6
		c-0.3-0.2-0.6-0.4-1-0.7c0.1-2.1-0.3-4.2-0.6-6.3C243.2,236.7,245.1,234.2,249.9,233.5z"/>
	<path class="st9" d="M208.2,144.5c1.7-3.7,4.1-6.8,7.2-9.3c0.2-0.1,0.4-0.2,0.5-0.4c2.4-1.5,4.9-2.8,7.7-3.2
		c0.9-0.2,1.6-0.6,2.1-1.3c0.1,0.1,0.2,0.2,0.3,0.3c-0.2,1.1,0.7,0.5,1,0.5c3.3-0.1,6.6,0.4,9.6,1.8c0.4,0.2,0.7,0.4,1.1,0.6
		c-0.2,0.2,0.2,0.8-0.5,0.7c-0.6-0.1-1.3,0-1.9-0.1c0.5-0.1,1-0.3,1.7-0.4c-3.4-1.6-6.9-2.1-10.4-1.9c-1.1,0.1-1.9,0.4-2.3,1.4
		c-0.1-0.1-0.2-0.2-0.3-0.3c0.3-1-0.4-0.7-0.8-0.5c-2.4,0.7-4.7,1.5-6.7,3c-0.1,0.1-0.3,0.2-0.4,0.3c-3.4,2.4-5.9,5.5-7.3,9.4
		c-1.5,3.8-1.9,7.7-1,11.6c1.7,7.8,6.3,13.1,13.9,15.6c1.3,0.7,2.8,0.8,4.3,1c1.3,0.7,2.9-0.2,4.2,0.5c-2.9,0.3-5.6,0-8.4-0.7
		c-4-1.5-7.6-3.6-10.3-7.1c-4.7-6-5.9-12.6-3.9-19.9C207.9,145.7,208.1,145.1,208.2,144.5z"/>
	<path class="st5" d="M221.6,178.7c0.6,1.3,0.3,2.7,0.4,4c0.3,3.1,0.4,6.1,0.5,9.2c-3-1-5-3.5-5.2-6.6
		C217.2,182.1,218.7,180,221.6,178.7z"/>
	<path class="st10" d="M47.5,88.6c-1,0.6-2.1,1.3-3.1,1.9c-0.1-0.1-0.3-0.2-0.4-0.3C45.1,89.5,46,88.4,47.5,88.6z"/>
	<path class="st11" d="M44,90.2c0.1,0.1,0.3,0.2,0.4,0.3c-0.9,0.5-1.7,1.1-2.6,1.6c-0.1-0.1-0.2-0.2-0.4-0.3
		C42.2,91.1,43.1,90.7,44,90.2z"/>
	<path class="st12" d="M63.9,81.8c-1.1,0.3-2.1,0.7-3.2,1c-0.1-0.1-0.3-0.2-0.4-0.3c1-0.3,2-0.6,2.9-1
		C63.5,81.6,63.7,81.7,63.9,81.8z"/>
	<path class="st13" d="M48.9,87.9c-0.4,0.2-0.8,0.5-1.2,0.7c-0.3-0.9,0.5-0.7,0.9-1C48.7,87.7,48.8,87.8,48.9,87.9z"/>
	<path class="st14" d="M48.9,87.9c-0.1-0.1-0.2-0.2-0.3-0.3c0.5-0.4,1-0.7,1.7-0.6C50,87.6,49.4,87.7,48.9,87.9z"/>
	<path class="st15" d="M60.3,82.5c0.1,0.1,0.3,0.2,0.4,0.3c-0.4,0.2-0.9,0.4-1.3,0.6C59.2,82.5,60,82.7,60.3,82.5z"/>
	<path class="st3" d="M91.3,16.6c0.6,0,1.2-0.1,1.6,0.3C92.3,16.9,91.7,17.1,91.3,16.6z"/>
	<path class="st5" d="M395.1,483.3c1.5-0.6,3.1-0.3,4.6-0.5c4.9-0.8,9.1-3,12.8-6.2c7.9-6.9,11.6-16.1,13.8-26.1
		c1.2-5.5,1.7-11.2,1.6-16.8c-0.1-5.5-1-11-2-16.4c-4.5-23.8-10.6-47.1-16.5-70.5c-4.4-17.6-8.7-35.2-13-52.9
		c-0.7-2.9-1.9-5.6-3.2-8.3c0.8,0.3,1.7,0.3,2.6,0.3c6.2,0,12.5,0.4,18.7,0.2c0.9,0,1.7,0.1,2.6,0.2c-0.1,0.1-0.2,0.2-0.3,0.3
		c0,0,0.1,0.1,0.1,0.1c2.2,0,4.4,0,6.6,0c1.3,0,2.6,0,3.9,0c0.8,0.5,1.7,0.2,2.6,0.3c6-0.1,12,0.2,17.9,0.3c3.4,0.2,6.2,2.2,7.1,5.5
		c0.6,2,0.7,4.2,0.6,6.3c-0.1,1.9-0.4,3.9-0.6,5.8c-0.4,3.7-0.7,7.4-1.1,11.1c-0.5,5.2-1,10.3-1.5,15.5c-0.4,3.8-0.7,7.5-1.1,11.3
		c-0.5,5.1-1,10.1-1.5,15.2c-0.4,3.8-0.7,7.6-1.1,11.5c-0.5,5.2-1,10.3-1.5,15.5c-0.4,3.9-0.7,7.9-1.1,11.8
		c-0.5,5.4-1,10.9-1.6,16.3c-0.4,3.8-0.7,7.6-1.1,11.5c-0.5,5.2-1,10.4-1.5,15.7c-0.4,3.9-0.7,7.8-1.1,11.6c-0.5,4.6-1,9.1-1.2,13.7
		c-0.4,0.5-0.3,1.1-0.3,1.7c-0.2,1.9-0.4,3.8-0.5,5.6c-0.2,3.4-0.9,6.8-0.7,10.2c-1.1,0-2.2,0.3-3.2-0.7c-0.4-0.5-1.3-0.4-1.7,0.4
		c-0.3,0.7-0.8,0.7-1.5,0.7C419.7,483.4,407.4,483.3,395.1,483.3z"/>
	<path class="st5" d="M465.1,473.9c-7,4.3-14.5,7.3-22.6,8.8c-0.4,0.1-0.9,0.1-1.3,0.1c-1,0-1.9-0.1-2.8,0.2
		c0.4-3.1,0.7-6.3,1.1-9.4c0.9-0.1,1.5-0.6,1.6-1.5c0.1-0.9-0.7-1.1-1.3-1.4c-0.1-1.4,0.2-2.8,0.3-4.3l0,0c2-0.5,0-1.6,0.3-2.3
		c0-0.3,0-0.6,0-1c2-0.5,0-1.6,0.3-2.3c0-0.3,0-0.6,0-1c2-0.5,0-1.6,0.3-2.3c0-1.3-0.1-2.6,0.3-3.9c0.6,0,1.1-0.1,1.3-0.8
		c0.3-0.9-0.4-1.4-0.9-1.9c0-0.3,0-0.6,0-1c2-0.5,0-1.6,0.3-2.3c0-0.6,0-1.3,0-1.9c0.4-0.5,0.2-1.1,0.3-1.6c0-0.5,0-1.1,0-1.6
		c0.4-0.5,0.3-1.1,0.3-1.6c0-0.2,0-0.4,0-0.6c0.6,0,1.1-0.1,1.3-0.8c0.3-0.9-0.4-1.4-0.9-1.9c0-0.3,0-0.6,0-1c2-0.5,0-1.6,0.3-2.3
		c0-0.6,0-1.3,0-1.9c0.4-0.5,0.2-1.1,0.3-1.6c0-0.5,0-1.1,0-1.6c0.4-0.5,0.3-1.1,0.3-1.6c0-0.2,0-0.4,0-0.6c0.6,0,1.1-0.1,1.3-0.8
		c0.3-0.9-0.4-1.4-0.9-1.9c0-0.3,0-0.6,0-1c2-0.5,0-1.6,0.3-2.3c0-2.5,0.2-5,0.7-7.5c0.6,0,1.1-0.1,1.3-0.8c0.3-0.9-0.4-1.4-0.9-1.9
		c0-0.3,0-0.6,0-1c2-0.5,0-1.6,0.3-2.3c0-2.5,0.2-5,0.7-7.5c0.6,0,1.1-0.1,1.3-0.8c0.3-0.9-0.4-1.4-0.9-1.9c0-0.3,0-0.6,0-1
		c2-0.5,0-1.6,0.3-2.3c0-2.5,0.2-5,0.7-7.5c0.6,0,1.1-0.1,1.3-0.8c0.3-0.9-0.4-1.4-0.9-1.9c0-0.3,0-0.6,0-1c2-0.5,0-1.6,0.3-2.3
		c0-2.5,0.2-5,0.7-7.5c0.6,0,1.1-0.1,1.3-0.8c0.3-0.9-0.4-1.4-0.9-1.9c0-0.3,0-0.6,0-1c0.7-0.2,1.2-0.5,0.6-1.3
		c-0.3-0.4-0.3-0.9-0.3-1.3c0-1.4,0-2.8,0.3-4.2c0.5-0.1,1-0.3,0.9-0.8c-0.1-0.6-0.5-0.2-0.8-0.1c0.2-2,0.4-3.9,0.6-5.9
		c0.5-0.1,1-0.3,0.9-0.8c-0.1-0.6-0.5-0.2-0.8-0.1c0.2-2,0.4-3.9,0.6-5.9c0.5-0.1,1-0.3,0.9-0.8c-0.1-0.6-0.5-0.2-0.8-0.1
		c0.2-2,0.4-3.9,0.6-5.9c2-0.5,0-1.6,0.3-2.3c0-1.5,0-3,0.3-4.5c2-0.5,0-1.6,0.3-2.3c0-1.5,0-3,0.3-4.5c2-0.5,0-1.6,0.3-2.3
		c0-1.5,0-3,0.3-4.5c2-0.5,0-1.6,0.3-2.3c0-1.5,0-3,0.3-4.5c2-0.5,0-1.6,0.3-2.3c0-1.4-0.1-2.8,0.3-4.2c0.6,0,1.1-0.1,1.3-0.8
		c0.3-0.9-0.4-1.4-0.9-1.9c0-1.4-0.1-2.8,0.3-4.2c0.6,0,1.1-0.1,1.3-0.8c0.3-0.9-0.4-1.4-0.9-1.9c0-0.6,0-1.3,0-1.9
		c-0.1-0.8,0.2-1.6-0.3-2.3c0.1-1.5-0.6-2.9-1-4.3c0.4-1,0.6-1.8-1-1.3c-0.2-0.2-0.4-0.4-0.6-0.7c0.5-0.3,0.7-0.7,0.6-1.2
		c-0.2-0.5-0.7-0.4-1.1-0.4c-0.6,0-1.2,0-1.8,0c-0.1,0-0.2,0-0.3,0c0.1-0.1,0.1-0.2,0.2-0.2c6.3-0.2,12.5-0.1,18.1,3.6
		c8.7,5.7,12.3,13.8,11.3,24.1c-1,9.8-1.9,19.7-2.8,29.5c-0.7,7.6-1.4,15.1-2.1,22.7c-0.1,0.9-0.1,1.8-0.2,2.8
		c-0.3,2.7-0.6,5.5-0.9,8.2c-1.4,14.4-2.7,28.8-4,43.3c-1.4,14.9-2.8,29.7-4.2,44.6C465.9,468.4,465.9,471.2,465.1,473.9z"/>
	<path class="st8" d="M218,79.2c-0.4-0.2-0.8-0.4-1.2-0.7c-1.2-0.9-2.5-1.7-3.7-2.6c-5.9-5.1-8.4-11.6-8.1-19.3
		c0.1-0.3,0.2-0.6,0.3-0.9c2.9-3.4,5.8-6.7,9.4-9.4c5-3.7,10.4-6.1,16.6-6.9c0,0.3-0.5,0.5-0.2,1c0.4-0.2,0.5-0.6,0.5-1
		c6.3-1,12.2,0.1,17.7,3.3c1.2-5.2,5.3-6.7,9.5-7.5c15.8-2.7,31-0.6,45.4,6.5c0.6,0.3,1.1,0.6,1.7,1c0,0.1,0,0.3,0,0.4
		c0.4,1.6,0.9,3.2,1.3,4.8c0.6,4.9-0.4,9.5-3.2,13.6c-0.8,0.9-1.5,1.7-2.3,2.6c-2-1-3.9-2.1-5.9-3c-1.6-0.8-3.1-1.9-5-2.2
		c0,0-0.1,0-0.1,0c-0.2-0.2-0.5-0.5-0.7-0.6c-7.3-3.4-14.8-6.6-22.4-9.2c-1.8-0.8-3.7-1.4-5.6-2c-0.5-0.2-0.9-0.3-1.4-0.5
		c-0.5,0-0.9-0.5-1.4-0.2c0.2,0.5,0.7,0.5,1.1,0.5c0.5,0.2,0.9,0.4,1.4,0.5c1.8,0.6,3.7,1.3,5.5,1.9c7.5,2.8,14.9,5.9,22.2,9.3
		c0.4,0.2,0.8,0.2,1.2,0.4c0.7,3.3,0.3,6.5-0.9,9.7c-0.2,0.2-0.4,0.4-0.7,0.7c-0.4,0-0.8,0-1.1-0.1c-7.7-1.3-15.5-1.4-23.3-1.2
		c-0.3-0.1-0.6-0.2-0.2-0.6c0.3-0.3,0.6-0.7,0.9-1.1c3.6-4.4,4.9-9.4,4.1-15c0.1,5.3-1.3,10.2-4.4,14.6c-0.9,1.2-1.9,2.2-3.6,2.2
		c-2.8,0.2-5.6,0.4-8.4,0.6c0.4-0.6,0.8-1.2,1.3-1.8c3.6-5.3,4.6-11,3.2-17.2c-0.2-0.8-0.4-1.5-0.6-2.3c-0.1-0.3-0.3-0.8-0.4-0.7
		c-0.4,0.3-0.1,0.7,0.1,1c0.2,0.9,0.4,1.8,0.6,2.7c0.6,5.7-0.3,11.1-3.2,16.2c-0.5,0.8-1,1.5-1.6,2.3c0,0.1-0.1,0.2-0.1,0.3
		c-0.5-0.3-1-0.3-1.5-0.2c-3.7,0.5-7.4,1-11.1,1.9c-7.5,1.7-14.7,4.1-21.3,8.2C218.2,79.2,218.1,79.2,218,79.2z M227.2,72.3
		c-0.2-0.8-0.5-1.6-1-2.3c-0.8-2.6-1.5-5.2-1.7-7.9c-0.5-5.6,0.6-11,3-16.1c1.1-1.7,2.1-3.4,3.2-5.1c-1.5,1.3-2.7,2.9-3.5,4.7
		c-4.3,8-4.6,16.3-1.3,24.7c0.3,0.7,0.6,1.3,0.9,2c0.2,0.4,0.3,0.9,0.8,1.1C227.7,72.9,227.4,72.6,227.2,72.3z M254.6,45
		c-0.4-0.5-0.9-0.6-1.8-0.6C253.5,45.1,254.1,45,254.6,45z M258,46.1c-0.4-0.5-0.9-0.6-1.5-0.4C257,46,257.4,46.2,258,46.1z
		 M249.2,43.5c0.1,0.1,0.2,0.2,0.2,0.2c0.2,0,0.6,0.3,0.5-0.1C249.9,43.2,249.5,43.2,249.2,43.5z M252.4,44.3
		c-0.3-0.4-0.6-0.4-1-0.2C251.7,44.4,252,44.5,252.4,44.3z"/>
	<path class="st8" d="M289,69.4c0.2-0.2,0.4-0.4,0.7-0.7c0.8-0.3,1-1.1,1.3-1.8c1-2.4,0.9-4.8,0.4-7.3c2,1,4,1.9,6,2.9
		c11.9,6.1,23.4,12.9,32.1,23.4c3.1,4.1,5.8,8.5,7.9,13.2c-1.6-5-4.1-9.6-7.5-13.6c-0.6-0.7-1.1-1.5-1.7-2.2
		c-5-5.7-10.9-10.2-17.3-14.2c-0.5-0.3-1.2-0.5-1.5-1.2c5.4-0.3,10.9-4.5,12.4-9.8c0.3-0.3,0.3-0.6,0.3-1c0.2-0.3,0.5-0.8,0.1-1
		c-0.2-0.1-0.3,0.4-0.4,0.7c-0.1,0.3-0.2,0.6-0.3,1c-2.5,5.4-6.5,8.8-12.5,9.8c-2.5-0.8-4.6-2.4-6.8-3.6c0.9-0.6,1.7-1.4,2.3-2.3
		c3.5-4.5,4.5-9.5,3.2-14.9c-0.3-1.4-0.7-2.7-1.6-3.8c0-0.1,0-0.3,0-0.4c2.8,1.1,5.1,3.1,7.7,4.6c1.4,1.2,2.9,2.3,4.3,3.5
		c6.8,6,12.3,12.9,16.3,21c-0.1,0.3-0.2,0.6-0.3,0.9c-1.3,3.3-3.6,5.5-6.8,6.9c-0.3,0.1-0.6,0.1-0.8,0.4c0.4,0.3,0.8,0.1,1.1-0.1
		c3.5-1.1,5.7-3.4,6.8-6.9c0.1-0.1,0.2-0.2,0.3-0.4c0.3,0.5,0.6,1,0.8,1.6c4,8.9,6.1,18.3,6,28.1c0,1.1,0.2,2.1,0.7,3.1
		c5.4,10.3,1.6,24.4-8.2,30.4c-1.1,0.7-1.4,1.2-1.1,2.4c0.3,1.1,0.3,2.3,0.4,3.4c0.7,16.4-4.4,30.6-16.1,42.3c-0.1-3-1.6-5-4.1-6.5
		c0-0.1,0-0.1,0-0.2c0.5-0.5,0.3-1.1,0.3-1.6c-0.1-0.3-0.3-0.6-0.6-0.7c-0.2-1.1-0.5-2.1-0.7-3.2c0.1-0.6,0.3-1.3-0.4-1.6
		c-0.1-0.2-0.2-0.4-0.4-0.7c0.7-0.7,0.1-1.2-0.2-1.7c0,0,0-0.1,0-0.1c0.1-0.7-0.1-1.3-0.5-1.8c-0.6-1.6-1.1-3.2-1.7-4.8
		c1.2,0.3,1.5,1.3,2,2.2c1.4-0.4,2-1.6,2.9-2.6c1.2-1.3,2.4-2.7,3.3-4.2c1.3-1.6,2.3-3.3,3.3-5c3.8-7,6.2-14.4,6.8-22.3
		c0-0.3,0.1-0.6,0.1-0.9c0.5-1.5,0.2-3.1,0.3-4.6c0.5,0.3,0.3,1.2,1.4,1.6c-0.5-1-0.9-1.8-1.3-2.6c-0.5-1.4-1.2-2.7-2-3.9
		c-0.5-1.2-1.2-2.3-2-3.2c-2.4-4-5.4-7.5-8.7-10.8c0.5-0.1,1.1-0.1,1.6-0.2c3.8-0.2,7.2-1.7,10-4.3c0.7-0.4,1.2-1,1.6-1.7
		c0.2-0.2,0.4-0.4,0.6-0.6c0.2,0.4,0.2,0.9,0.9,1.2c-0.2-0.7-0.3-1.3-0.8-1.6c0-0.2-0.1-0.3-0.1-0.5c-0.2-0.6-0.4-1.3-0.9-1.8
		l-0.1-0.1c-0.4-0.8-0.4-1.9-1.6-2.2c-0.1-0.2-0.3-0.3-0.4-0.5c1.2-2.5,1.7-5,1-7.7c0-0.4-0.1-0.8-0.6-1.2c0,1-0.1,1.8,0.3,2.6
		c-0.2,1.7,0.1,3.5-0.9,5.1c-0.3-0.4-0.7-0.9-1-1.3c-3.1-4.2-6.7-7.8-11.1-10.7c-1.9-1.6-4.2-2.5-6.2-3.9c2.2,0,3.9-0.8,5.3-2.4
		c-1.7,1-3.7,1.2-5.3,2.5c-1.6-0.7-3.2-1.3-4.7-2C298.1,71.5,293.5,70.4,289,69.4z M339.2,108.4c0,0.4-0.1,0.9,0.4,1
		c0.3-0.4,0-0.7-0.1-1c-0.1-0.7,0.3-1.4-0.3-1.9c0-0.8,0.1-1.6-0.3-2.3c0-0.4,0.2-0.9-0.5-1.1c0.1,0.4,0.2,0.7,0.2,1.1
		c0.3,0.7,0.1,1.6,0.6,2.3C339.2,107.1,339.2,107.8,339.2,108.4z M337.9,100.6c-0.1-0.3,0-0.9-0.4-0.7c-0.5,0.2,0,0.7,0.1,1.1
		c0.2,0.4,0.1,1,0.7,1.3C338.3,101.6,338.2,101.1,337.9,100.6z M332,135.5c0.1-0.9-0.3-1.6-0.8-2.3c0.2,0.8,0.3,1.5,0.5,2.3
		c0.1,0.5,0.3,1.1,0.4,1.8C332.5,136.5,332.3,136,332,135.5z M331.4,107.4c0.3-0.6,0.5-1.1-0.1-1.9
		C331.3,106.3,331.3,106.8,331.4,107.4z M329.2,126.2c-0.2,0.6-0.1,1.1,0.6,1.5C329.5,127,329.4,126.6,329.2,126.2z M330.6,102.9
		c0.1-0.7,0.2-1.1-0.5-1.4C330.3,101.9,330.4,102.3,330.6,102.9z M330.5,130.7c0.2,0.4,0,0.8,0.5,1.1
		C331,131.4,331.2,131,330.5,130.7z"/>
	<path class="st0" d="M465.1,473.9c0.8-2.7,0.7-5.5,1-8.2c1.5-14.8,2.8-29.7,4.2-44.6c1.4-14.4,2.7-28.8,4-43.3
		c0.3-2.7,0.6-5.5,0.9-8.2c-0.4,2.3,1.5,3.5,2.8,4.8c7.6,8.1,12.9,17.5,15.5,28.4c3.3,14.2,2.2,28.1-3.6,41.7
		c-3.9,9-9.5,16.7-16.8,23.3C470.6,470,468,472.1,465.1,473.9z"/>
	<path class="st0" d="M318,50.8c-1.4-1.2-2.9-2.3-4.3-3.5c0.8,0,1.6-0.1,2.4-0.1c33.2,0,66.4,0,99.7,0c9.9,0,18.3,3.3,25,10.6
		c5.4,5.9,8.5,12.8,8.5,20.9c0,54.6,0,109.2,0,163.8c0,7.4-2.7,14-7.5,19.6c-5.5,6.5-12.6,10.4-20.9,11.4
		c-9.8,1.2-18.7-1.3-26.1-8.3c-7.6-7.2-15.1-14.6-22.7-22c-7.4-7.2-14.8-14.3-22.2-21.5c-7.3-7.2-14.6-14.4-22.1-21.4
		c-4.1-3.9-7.9-8-12.2-11.8c0.6-1,1.1-2.1,1.4-3.2c3.9,3.5,7.4,7.3,11.2,10.9c8,7.6,15.9,15.4,23.8,23.1
		c6.8,6.6,13.6,13.2,20.5,19.8c7.6,7.4,15.3,14.7,22.7,22.1c6.5,6.5,14.1,9.8,23.4,9.1c7.6-0.5,14.1-3.6,19.3-9
		c5.6-5.7,8.1-12.6,8.1-20.6c-0.1-53.6,0-107.1,0-160.7c0-5.5-1.2-10.7-4.2-15.3c-5.7-9.1-14-14.1-24.7-14.2
		c-32.5-0.2-65-0.1-97.5-0.1C319.1,50.5,318.5,50.3,318,50.8z"/>
	<path class="st5" d="M438.4,483c0.9-0.3,1.9-0.3,2.8-0.2c-2.8,0.7-5.7,0.9-8.5,0.9c-43.7,0-87.4,0-131,0c-23.7,0-47.3,0-71,0
		c-0.7,0-1.3,0-2,0c0-0.1,0-0.2,0-0.3c-0.1-0.7-0.2-1.4-0.3-2.1c-0.6-2.9-0.8-5.8-1.6-8.7c0-0.2,0-0.4,0-0.6
		c-1.9-10.4-3.9-20.8-6.1-31.2c-5.3-26.1-11.1-52.2-15.4-78.5c-0.8-5-1.5-9.9-4.2-14.3c-1.7-2.9-4.5-4.5-7.5-5.9
		c3.5,0.2,7-0.5,10.5,0.5c0.9,0.2,1-0.4,1.2-0.9c0.9-3,1.8-6,2.7-9c0.1,0.2,0.2,0.4,0.3,0.6c-0.8,2.8-1.5,5.6-2.4,8.4
		c-0.3,0.9-0.2,1.5,0.7,2c2.7,1.5,4.2,3.9,4.7,6.9c1.6,8.5,3.2,17,4.7,25.5c1.3,7.3,2.6,14.6,4,21.9c2.4,12.9,4.7,25.8,7.1,38.6
		c0.1,0.5,0.2,1.1,0.3,1.6c0.2,1.2,0.4,2.3,0.7,3.5c0,0.2,0,0.5,0.1,0.7c0.4,2.3,0.8,4.6,1.3,6.8c0.1,0.2,0.1,0.5,0.2,0.7
		c0.5,3.5,1,7.1,2,10.5c0.2,3.2,0.9,6.3,1.6,9.4c0.3,2.9,0.9,5.8,1.6,8.7c-0.1,1,0.4,1.3,1.3,1.3c7.7,0.2,15.5,0.4,23.2,0.6
		c2.5,0.1,5.1,0.2,7.6,0.2c7.7,0.2,15.5,0.4,23.2,0.7c2.8,0.1,5.4,0.8,8.1,1.3c1.2,0.7,2.6,0.7,3.9,0.7c30.9,0,61.8,0,92.7-0.1
		c12.3,0,24.6,0,36.9,0c0.6,0,1.1-0.1,1.5-0.7c0.4-0.7,1.2-0.8,1.7-0.4c1,1,2.1,0.8,3.2,0.7C438.3,483,438.3,483,438.4,483
		L438.4,483z"/>
	<path class="st0" d="M311.8,230.7c0.3-5.6,0.7-11.1,1-16.7c0.2,0.2,0.5,0.4,0.7,0.6c6.1,5.9,12.1,11.9,18.2,17.8
		c7.5,7.2,14.9,14.3,22.3,21.6c1.8,1.7,3.7,3.3,5.3,5.2c-5.5-1.7-11-3.5-16.5-5.2c-10.2-3.2-19.9-7.9-29.9-11.8
		c-0.7-0.3-0.8-0.7-0.9-1.4C311.7,237.5,311.8,234.1,311.8,230.7z"/>
	<path class="st0" d="M17.7,378.8c1.1,5.4,2.2,10.8,3.2,16.2c3.8,19.6,7.5,39.3,11.3,58.9c0.5,2.6,1,5.1,1.5,7.7
		c-6.8-7.7-11.5-16.6-14.1-26.6c-1.3-4.9-1.9-9.9-1.9-15.1C17.7,406.2,17.7,392.5,17.7,378.8z"/>
	<path class="st5" d="M317,185.3c-0.3,1.1-0.8,2.2-1.4,3.2c-0.5,0.5-1.1,0.9-1.6,1.4c-3.6,1.9-7.5-0.7-8.7-4.3
		c-1.2-3.8,0.6-7.6,4.3-8.7c1.2-0.4,2.3,0.1,3.5,0.5c2.5,1.5,4,3.5,4.1,6.5C317.1,184.4,317.1,184.9,317,185.3z"/>
	<path class="st1" d="M450.9,356.3c-0.2,2-0.4,3.9-0.6,5.9c0,0.3,0,0.7,0,1c-0.4,1.4-0.4,2.8-0.3,4.2c-0.5,0.8-0.2,1.7-0.3,2.6
		c0,0.3,0,0.6,0,1c-0.5,0.8-0.2,1.7-0.3,2.6c-0.4,2.5-0.7,5-0.7,7.5c-0.5,0.7-0.2,1.5-0.3,2.3c0,0.3,0,0.6,0,1
		c-0.5,0.8-0.2,1.7-0.3,2.6c-0.4,2.5-0.7,5-0.7,7.5c-0.5,0.7-0.2,1.5-0.3,2.3c0,0.3,0,0.6,0,1c-0.5,0.8-0.2,1.7-0.3,2.6
		c-0.4,2.5-0.7,5-0.7,7.5c-0.5,0.7-0.2,1.5-0.3,2.3c0,0.3,0,0.6,0,1c-0.5,0.8-0.2,1.7-0.3,2.6c-0.4,2.5-0.7,5-0.7,7.5
		c-0.5,0.7-0.2,1.5-0.3,2.3c0,0.3,0,0.6,0,1c-0.5,0.8-0.2,1.7-0.3,2.6c0,0.2,0,0.4,0,0.6c-0.4,0.5-0.3,1.1-0.3,1.6
		c0,0.5,0,1.1,0,1.6c-0.4,0.5-0.3,1.1-0.3,1.6c0,0.6,0,1.3,0,1.9c-0.5,0.7-0.2,1.5-0.3,2.3c0,0.3,0,0.6,0,1
		c-0.5,0.8-0.2,1.7-0.3,2.6c0,0.2,0,0.4,0,0.6c-0.4,0.5-0.3,1.1-0.3,1.6c0,0.5,0,1.1,0,1.6c-0.4,0.5-0.3,1.1-0.3,1.6
		c0,0.6,0,1.3,0,1.9c-0.5,0.7-0.2,1.5-0.3,2.3c0,0.3,0,0.6,0,1c-0.5,0.8-0.2,1.7-0.3,2.6c-0.5,1.3-0.3,2.6-0.3,3.9
		c-0.5,0.7-0.2,1.5-0.3,2.3c0,0.3,0,0.6,0,1c-0.5,0.7-0.2,1.5-0.3,2.3c0,0.3,0,0.6,0,1c-0.5,0.7-0.2,1.5-0.3,2.3c0,0,0,0,0,0
		c-0.3-0.3-0.3-0.6-0.3-1c0.2-4.6,0.8-9.2,1.2-13.7c0.4-3.9,0.7-7.8,1.1-11.6c0.5-5.2,1-10.4,1.5-15.7c0.4-3.8,0.7-7.6,1.1-11.5
		c0.5-5.4,1.1-10.9,1.6-16.3c0.4-3.9,0.7-7.9,1.1-11.8c0.5-5.2,1-10.3,1.5-15.5c0.4-3.8,0.7-7.6,1.1-11.5c0.5-5.1,1-10.1,1.5-15.2
		c0.4-3.8,0.7-7.5,1.1-11.3c0.5-5.2,1-10.3,1.5-15.5c0.4-3.7,0.7-7.4,1.1-11.1c0.2-1.9,0.5-3.9,0.6-5.8c0.1-2.1,0-4.2-0.6-6.3
		c-1-3.3-3.7-5.3-7.1-5.5c0.1-0.1,0.2-0.2,0.3-0.3c0.9-0.2,1.7,0,2.5,0.3c0.1,0,0.2,0.1,0.3,0c0.8,0.5,1.6,1.1,2.3,1.6
		c0.2,0.2,0.4,0.4,0.6,0.7c0.3,0.4,0.6,0.9,1,1.3c0.5,1.4,1.2,2.7,1,4.3c0,0.8-0.2,1.6,0.3,2.3c0,0.6,0,1.3,0,1.9
		c-0.5,0.8-0.2,1.7-0.3,2.6c-0.5,1.4-0.3,2.8-0.3,4.2c-0.5,0.8-0.2,1.7-0.3,2.6c-0.5,1.4-0.3,2.8-0.3,4.2c-0.5,0.7-0.2,1.5-0.3,2.3
		c-0.4,1.5-0.4,3-0.3,4.5c-0.5,0.7-0.2,1.5-0.3,2.3c-0.4,1.5-0.4,3-0.3,4.5c-0.5,0.7-0.2,1.5-0.3,2.3c-0.4,1.5-0.4,3-0.3,4.5
		c-0.5,0.7-0.2,1.5-0.3,2.3c-0.4,1.5-0.4,3-0.3,4.5c-0.5,0.7-0.2,1.5-0.3,2.3c-0.2,2-0.4,3.9-0.6,5.9c0,0.3,0,0.7,0,1
		c-0.2,2-0.4,3.9-0.6,5.9C450.9,355.7,450.9,356,450.9,356.3z"/>
	<path class="st16" d="M205,56.6c-0.3,7.7,2.2,14.2,8.1,19.3c-0.1,0.1-0.2,0.2-0.3,0.3c-5.4-4.2-8.1-9.9-8.2-16.7c0-0.8,0-1.6,0-2.4
		c0-0.1,0.1-0.3,0.1-0.4C204.8,56.7,204.9,56.6,205,56.6z"/>
	<path class="st17" d="M448.3,286.9c-0.1,0.1-0.2,0.2-0.3,0.3c-6-0.2-12-0.4-17.9-0.3c0-0.1,0-0.2,0-0.3l0,0c3.1,0,6.2,0,9.3,0
		c2.8,0,5.7,0,8.5,0C448,286.6,448.2,286.7,448.3,286.9z"/>
	<path class="st18" d="M439.3,286.6c-3.1,0-6.2,0-9.3,0c0-0.1,0-0.2,0-0.3C433.1,286.3,436.2,286.3,439.3,286.6z"/>
	<path class="st19" d="M423.5,286.6c-2.2,0-4.4,0-6.6,0c0,0-0.1,0-0.1-0.1c0.1-0.1,0.2-0.2,0.3-0.3c2.1,0,4.3,0.1,6.4,0.1
		C423.5,286.4,423.5,286.5,423.5,286.6z"/>
	<path class="st20" d="M423.5,286.6c0-0.1,0-0.2,0-0.3c2.2,0,4.3,0,6.5,0c0,0.1,0,0.2,0,0.3c0,0,0,0,0,0c-0.9,0-1.7,0-2.6,0
		C426.1,286.7,424.8,286.6,423.5,286.6z"/>
	<path class="st21" d="M205,56.6c-0.1,0-0.2,0-0.3,0.1c0.1-0.6,0.2-1.2,0.3-1.8c0.4,0.3,0.3,0.6,0.3,0.9
		C205.2,56,205.1,56.3,205,56.6z"/>
	<path class="st22" d="M231.7,39.4c0,0.4-0.1,0.7-0.5,1c-0.3-0.4,0.2-0.6,0.2-1C231.4,39.4,231.5,39.4,231.7,39.4z"/>
	<path class="st7" d="M229.5,449.2c-0.4-2.3-0.8-4.6-1.3-6.8c6.3-3.9,13-6.3,20.7-4.7c-7.5-1.9-14.4-0.2-20.7,4.1
		c-0.2-1.2-0.4-2.3-0.7-3.5c3.5-2,7-3.8,10.5-5.9c3.9-2.3,8-2.6,12.4-1.6c10.1,2.4,19.9,5.6,29.7,9.1c3.2,1.1,6.3,0.9,9.4,0.7
		c4.4,0,8.9,0,13.3-0.2c1.2,0,2,0.3,2.8,1.2c2.7,2.7,4.9,5.8,6.3,9.4c2.7,7.8,1.5,15.2-1.9,22.5c-0.3,0.6-0.5,1.4-1.4,1.3
		c-5.9-0.6-11.9-1.2-17.8-1.7c-0.7-0.1-1.2,0-1.9,0.3c-2,1.1-4.1,2.1-6.1,3.1c-0.8,0.3-1.6,0.6-2.4,0.9c-4,1.6-7.7,1.2-11.3-1
		c-1.2-0.8-2.5-1.5-3.7-2.4c-4.8-3.5-9.9-3.6-15.1-1.3c-5.1,2.2-10.2,4.3-15.4,6.1c-0.8-2.9-1.3-5.8-1.6-8.7
		c6.6-3.2,13-6.9,19.9-9.5c0.8-0.3,0.7-0.7,0.3-1.2c-0.9-1.2-2.1-1.8-3.6-1.8c-2.7,0-5.4,0-8.1,0.1c-3.6,0.1-7.2,0.5-10.1,3
		c-1-3.4-1.5-7-2-10.5c5.8-3.5,12.2-4.9,18.9-4.6c1.3,0.6,2.8,0.2,4.1,0.7c0-0.1,0-0.3,0.1-0.4c-1.1-0.2-2.2-0.4-3.2-0.6
		c-3-0.3-5.9-0.3-8.9,0.2C236.7,445.7,233,447.2,229.5,449.2z"/>
	<path class="st23" d="M356.8,390.2c0.1,5.5-0.9,10.9-1.6,16.3c-0.6,4.9-1.1,9.9-1.7,14.8c-0.1,0.9-0.2,1.8-0.3,2.7
		c-0.1,0.7-0.5,0.9-1.2,1.1c-3.1,0.7-6.2,1.4-9.3,2.1c-1.8,0.4-2.1,0.2-1.9-1.7c0.4-3.4,0.9-6.8,1.4-10.3c0.6-4.6,1.2-9.2,1.9-13.8
		c0.7-5.3,1.5-10.7,2.2-16c0.7-5.2,1.4-10.4,2.1-15.6c0.7-5.1,1.3-10.3,2-15.4c0-0.1,0.2-0.3,0.2-0.4c0,0.6,0.2,1.2,0.3,1.7
		c0.8,3.7,1.6,7.5,2,11.3c0,0.5,0,1.1,0.1,1.6c0.7,4.5,1.4,9,2.3,13.5C355.7,384.9,355.8,387.6,356.8,390.2L356.8,390.2z"/>
	<path class="st24" d="M297.1,245.9c0.5,1.7,0.2,2.1-2,2.5c-5,1.1-9.6,3-14.1,5.4c-4.7,2.5-9.3,5.3-13.9,8
		c-3.6,2.1-7.4,3.5-11.7,3.4c-4.4-0.2-8.2-3.1-9.1-7.4c-0.6-2.8-0.3-5.6,0.6-8.3c0.8,0.3,1.5,0.6,2.3,0.9c3.3,1.3,6.7,1.8,10.2,1.7
		c6.6-0.2,12.8-1.8,19.1-3.6c1.1,0,2.2-0.5,3.3-0.7c3.6-0.6,7.2-1.3,10.8-1.9C294.1,245.9,295.6,245.9,297.1,245.9z"/>
	<path class="st25" d="M258,232.9c-2.6,0.2-5.2,0.4-7.8,0.6c0-1.2,0-2.4,0-3.6c-0.1-1.2,0.4-1.6,1.6-1.6c6.6,0.2,12.9-0.8,19.2-2.5
		c5.7-1.5,11.2-3.6,16.4-6.6c0.4-0.2,0.8-0.4,1.5-0.7c-0.8,2.1-2.1,3.6-3.4,5c-2.4,2.7-5.2,5-8.4,6.9c-0.8,0.5-0.5,0.6,0.2,0.7
		c-1.8,0.2-3.5,0.4-5.3,0.6c-0.1,0-0.2,0-0.3,0C267.2,232.1,262.6,232.5,258,232.9z"/>
	<path class="st24" d="M282.8,476.3c2-1,4.1-2,6.1-3.1c0.6-0.3,1.2-0.4,1.9-0.3c5.9,0.6,11.9,1.2,17.8,1.7c0.3,0.5,0.2,0.9-0.2,1.3
		c-2.6,3.3-5.4,6.4-10,6.8c-2.7-0.6-5.4-1.2-8.1-1.3c-0.3-0.1-0.6-0.2-0.9-0.3C286.8,480,284.3,478.8,282.8,476.3z"/>
	<path class="st5" d="M361.6,417.9c-0.2,1.5,0.2,3,0.5,4.5c0.2,1,0.1,1.6-1,1.7c-1.9,0.3-3.7,0.6-5.6,0.9c-0.9,0.1-1.2-0.1-1.1-1.2
		c0.7-6.7,1.3-13.3,2-20c0.2-2.1,0.3-4.3,0.5-6.4c0.1,0,0.3,0,0.4,0c0.7,4,1.4,8,2.1,11.9c0.5,2.7,0.8,5.5,1.6,8.2l0,0
		c0,0.4,0,0.8,0,1.5C361.3,418.5,361.5,418.2,361.6,417.9z"/>
	<path class="st24" d="M311.9,450.8c-1.4-3.6-3.5-6.7-6.3-9.4c-0.8-0.8-1.6-1.2-2.8-1.2c-4.4,0.1-8.9,0.1-13.3,0.2
		c-1.9,0-3.7,0-5.9,0c1-1.4,2.3-1.8,3.3-2.5c1.4-0.9,3-1.6,4.5-2.3c1.1-0.5,2.2-0.5,3.5-0.2c3.9,1.1,7.7,2.4,10.9,4.9
		c3.2,2.6,5,6,6.4,9.8C312.1,450.3,311.9,450.6,311.9,450.8z"/>
	<path class="st26" d="M233,336.8c4.9,1.1,9.7,2.2,14.6,3c12,2,23.8,1.1,35.6-1.5c10.4-2.4,20.7-5.6,31.1-7.8
		c1.1-0.2,2.1-0.4,3.2-0.5c0.3,0.1,0.7,0.2,1,0.3c-10.9,2-21.4,5.5-32.1,8c-10.3,2.5-20.7,4.1-31.4,3.1c-7.7-0.7-15.3-2.2-22.8-4.3
		C232.6,337,232.8,336.9,233,336.8z"/>
	<path class="st27" d="M232.1,296.7c3.6,2,6.9,4.5,10.4,6.7c5.1,3.3,10.4,6.3,16.3,7.9c8.3,2.3,16.2,0.8,24-2.4
		c6-2.5,11.5-5.9,17-9.4c2.8-1.8,5.5-3.6,8.4-5.1c0.1,0.1,0.3,0.2,0.4,0.3c-8.2,5-15.9,10.7-24.8,14.5c-6.1,2.6-12.4,4.2-19.1,3.8
		c-6.4-0.4-12.1-2.8-17.5-6c-5.4-3.1-10.4-6.7-15.5-10.1C231.8,296.9,231.9,296.8,232.1,296.7z"/>
	<path class="st28" d="M352.8,367.1c-0.4-3.8-1.2-7.5-2-11.3c-0.1-0.6-0.3-1.1-0.3-1.7c-0.7-5-1.8-10-2.7-14.9
		c-0.3-1.6-0.6-3.3-0.9-4.9c0.1-0.2,0.2-0.4,0.3-0.7c2,9.7,3.9,19.4,5.7,29.1c1.7,9.6,3.4,19.2,4.8,28.8c0.9,6.3,1.9,12.6,2.8,18.9
		c0.1,0.6,0,1.3,0.1,1.9c-0.1,0-0.2,0-0.3,0c-0.1-1.2-0.2-2.4-0.7-3.6c-0.7-4.8-1.4-9.6-2.1-14.3c-0.2-1.4-0.2-2.9-0.8-4.2
		c0,0,0,0,0,0c0-0.4,0-0.9,0-1.3c-0.7-4.2-1.4-8.3-2.1-12.5C354,373.3,353.8,370.1,352.8,367.1z"/>
	<path class="st29" d="M278.6,248.5c-6.3,1.7-12.5,3.4-19.1,3.6c-3.5,0.1-6.9-0.4-10.2-1.7c0.1-0.1,0.2-0.2,0.3-0.3
		c1.8,0.4,3.6,0.8,5.4,1.2c0.9,0.2,1.2,0,1-1c-0.8-3.6-1.3-7.3-1.1-11.1c0.1-1.6,0.3-3.1,1.1-4.5c0.5-0.8,1.1-1.4,2.1-1.6
		c-1.8,1.6-2.4,3.6-2.3,5.9c0.1,3.6,0.1,7.2,0.6,10.8c0.2,1.2,0.6,1.5,1.7,1.5c5.1,0.1,10-1.1,14.9-2.1c0.8-0.2,1.1-0.7,1.1-1.5
		c0-1.6,0-3.2,0-4.9c0.4,0.5,0.2,1.1,0.3,1.7c0.1,0.9-0.3,1.9,0.3,2.8c-0.1,0.9-0.1,1.6,1.2,1.1c1.2-0.4,2.5-0.5,3.7-0.8
		C279.2,248.1,278.9,248.3,278.6,248.5z"/>
	<path class="st28" d="M368.8,425.1c6,1.9,10.3,5.9,13.7,11c2.3,3.5,4.1,7.4,5.2,11.5c-0.1,0.2-0.2,0.4-0.3,0.6
		c-1.9-5.8-4.5-11.2-8.5-15.7c-2.9-3.2-6.4-5.8-10.7-7.1C368.4,425.3,368.6,425.2,368.8,425.1z"/>
	<path class="st30" d="M385.7,309.1c-8.7,5.2-18,7.1-28,5.8c0.5-0.4,1.2-0.2,1.7-0.3c9.2,0.5,17.8-1.5,25.9-5.9
		C385.5,308.9,385.6,309,385.7,309.1z"/>
	<path class="st31" d="M364.2,265.3c-3.6,2.6-6.9,5.5-9.7,8.8c-2.9,3.4-5.2,7.1-7,11.1C350.5,276.5,356.3,270,364.2,265.3z"/>
	<path class="st29" d="M297.1,245.9c-1.5,0-3,0-4.6,0c-0.1,0-0.2,0-0.3-0.1c0-0.2,0-0.4,0-0.6c2.4-4,2.8-8.3,1.7-12.8
		c-0.1-0.6-0.3-1.1-0.4-1.8c2.3,2.4,2.2,8.5-0.4,14.5c2.8,0.2,5.6-0.2,8.4,0.7C300.1,245.9,298.6,245.9,297.1,245.9z"/>
	<path class="st32" d="M190.7,321.8c4.8,2.6,9.8,4.3,15.2,4.7c-0.6,0.5-1.3,0.1-1.9,0.3c-4.9-0.4-9.5-1.9-13.6-4.7
		C190.4,322,190.6,321.9,190.7,321.8z"/>
	<path class="st33" d="M308.5,294.7c-0.1-0.1-0.3-0.2-0.4-0.3c4.8-3.1,9.9-5.5,15.4-7c0.1,0.1,0.3,0.2,0.4,0.3
		C318.5,289.4,313.5,291.9,308.5,294.7z"/>
	<path class="st34" d="M274.6,247.5c-0.6-0.9-0.2-1.9-0.3-2.8c-0.1-0.6,0.1-1.2-0.3-1.7c-0.1-0.7-0.2-1.4-0.2-2.1
		c-0.3-3.2-1.3-6.2-2.1-9.3c0.1,0,0.2,0,0.3,0C274.4,236.7,275,242,274.6,247.5z"/>
	<path class="st35" d="M208.2,333.2c-0.1-0.2-0.2-0.4-0.3-0.6c1.7-6,3.2-12,4.1-18.1C211.5,320.9,210.2,327.1,208.2,333.2z"/>
	<path class="st36" d="M347.3,333.6c-0.1,0.2-0.2,0.4-0.3,0.7c-1.1-4-1.7-8.1-2.6-12.2c-0.1-0.7-0.5-1.3-0.1-2.5
		C345.3,324.5,346.3,329,347.3,333.6z"/>
	<path class="st33" d="M232.1,296.7c-0.1,0.1-0.3,0.2-0.4,0.3c-3.3-1.9-6.6-3.8-10.1-5.2c0.1-0.1,0.3-0.2,0.4-0.3
		C225.6,292.8,228.9,294.5,232.1,296.7z"/>
	<path class="st37" d="M292.3,245.3c0,0.2,0,0.4,0,0.6c-3.6,0.3-7.1,0.6-10.4,2c-1.1,0.2-2.1,0.7-3.3,0.7c0.3-0.2,0.7-0.5,1-0.7
		c3.5-1.2,7.1-1.7,10.6-2.3C290.9,245.5,291.6,245.4,292.3,245.3z"/>
	<path class="st38" d="M193.6,342c3,1.3,5.7,2.9,7.5,5.9c-0.1,0.1-0.2,0.2-0.3,0.3c-1.5-2-3.1-3.8-5.3-4.8c-1.4-0.7-2.8-1.2-4.4-1.1
		c-0.5,0-1,0.1-1.4-0.3C190.9,342,192.3,342,193.6,342z"/>
	<path class="st39" d="M233,336.8c-0.2,0.1-0.5,0.2-0.7,0.3c-2.9-0.9-5.9-1.8-8.8-2.6c0.1-0.1,0.3-0.2,0.4-0.3
		C227,335,230,335.9,233,336.8z"/>
	<path class="st40" d="M385.7,309.1c-0.1-0.1-0.3-0.2-0.4-0.3c1.9-1.4,4-2.6,6-3.9C389.7,306.6,387.8,308,385.7,309.1z"/>
	<path class="st41" d="M359.7,408.8c0.4,1.2,0.6,2.4,0.7,3.6c0.1,0.8,0.2,1.5,0.3,2.3c0.3,1,0.4,1.9,0.3,2.9
		c-0.8-2.7-1.1-5.4-1.6-8.2C359.5,409.2,359.6,409,359.7,408.8z"/>
	<path class="st42" d="M331.3,285.9c2-0.5,4.1-0.4,6.1,0.3c-1.9,0-3.8,0-5.7,0C331.5,286.2,331.4,286,331.3,285.9z"/>
	<path class="st43" d="M324.2,329c2.9-0.2,5.9-0.4,8.8,0.2c0,0.1,0,0.2,0,0.3c-2.5-0.1-5.1-0.2-7.6-0.2
		C324.9,329.3,324.5,329.3,324.2,329z"/>
	<path class="st44" d="M212.1,289.5c-1.5,0-3.1,0-4.6,0c-0.1-0.1-0.3-0.2-0.4-0.3c2-0.4,4-0.4,6,0
		C212.8,289.3,212.5,289.4,212.1,289.5z"/>
	<path class="st45" d="M368.8,425.1c-0.2,0.1-0.4,0.2-0.6,0.3c-1.7-0.5-3.4-1-5.1-1.1C365.1,423.9,367,424.3,368.8,425.1z"/>
	<path class="st46" d="M387.4,448.2c0.1-0.2,0.2-0.4,0.3-0.6c0.7,1.4,0.9,2.9,1,4.5C388.3,450.7,387.8,449.5,387.4,448.2z"/>
	<path class="st47" d="M318.6,330.2c-0.3-0.1-0.7-0.2-1-0.3c1.1-0.4,2.2-0.5,3.3-0.6c0.4,0.1,0.7,0.2,1.1,0.3
		C320.9,329.9,319.8,330.1,318.6,330.2z"/>
	<path class="st39" d="M222,291.5c-0.1,0.1-0.3,0.2-0.4,0.3c-1.1-0.4-2.2-0.8-3.4-1.2c0.1-0.1,0.3-0.2,0.4-0.4
		C219.8,290.5,221,290.9,222,291.5z"/>
	<path class="st48" d="M249.6,250.2c-0.1,0.1-0.2,0.2-0.3,0.3c-0.8-0.3-1.5-0.6-2.3-0.9c-0.5-0.3-1.1-0.7-1.6-1
		C247,248.3,248.2,249.7,249.6,250.2z"/>
	<path class="st49" d="M322,329.7c-0.4-0.1-0.7-0.2-1.1-0.3c1.1-0.1,2.1-0.4,3.3-0.3c0.3,0.3,0.8,0.3,1.2,0.3
		C324.3,329.7,323.1,329.6,322,329.7z"/>
	<path class="st50" d="M218.6,290.3c-0.1,0.1-0.3,0.2-0.4,0.4c-0.9-0.2-1.7-0.4-2.6-0.6C216.8,289.3,217.6,290.3,218.6,290.3z"/>
	<path class="st51" d="M355.8,314.6c-0.8-0.1-1.5-0.3-2.3-0.4c0-0.2,0.1-0.3,0.1-0.5c1,0.1,2,0.2,3,0.6
		C356.3,314.4,356,314.5,355.8,314.6z"/>
	<path class="st52" d="M203.9,326.8c0.6-0.2,1.4,0.1,1.9-0.3c0.4-0.1,0.8-0.1,1.3,0.3C206,327.1,205,327.1,203.9,326.8z"/>
	<path class="st53" d="M355.8,314.6c0.3-0.1,0.5-0.2,0.8-0.3c1,0.1,2,0,2.9,0.4c-0.6,0.1-1.2-0.1-1.7,0.3
		C357.1,314.8,356.4,314.7,355.8,314.6z"/>
	<path class="st54" d="M325.6,287.1c0.7-0.6,1.6-0.6,2.8-0.8C327.3,287.2,326.4,287.1,325.6,287.1z"/>
	<path class="st55" d="M331.3,285.9c0.1,0.1,0.2,0.2,0.4,0.3c-1,0.1-2.1,0.2-3.5,0.4C329.3,285.8,330.3,286,331.3,285.9z"/>
	<path class="st56" d="M205.9,289.6c-0.8,0.2-1.6,0.4-2.9,0.7c1.1-0.9,2-0.9,2.9-1C205.9,289.4,205.9,289.5,205.9,289.6z"/>
	<path class="st57" d="M212.1,289.5c0.3-0.1,0.7-0.2,1-0.3c0.7,0,1.3-0.1,1.9,0.6C214.1,289.7,213.1,289.6,212.1,289.5z"/>
	<path class="st58" d="M361,417.6c0.1-1,0-2-0.3-2.9c0.1,0,0.2,0,0.3,0c0.5,0.6,0.2,1.3,0.3,2C361.3,417,361.3,417.3,361,417.6
		L361,417.6z"/>
	<path class="st41" d="M361,417.6c0.3-0.3,0.3-0.6,0.3-1c0.4,0.4,0.3,0.9,0.3,1.3c-0.2,0.3-0.3,0.6-0.6,1.2
		C361,418.4,361,418,361,417.6z"/>
	<path class="st59" d="M333,329.6c0-0.1,0-0.2,0-0.3c0.8,0,1.5,0,2.1,0.7C334.4,329.8,333.7,329.7,333,329.6z"/>
	<path class="st60" d="M351.9,313.6c-0.6-0.1-1.3-0.2-2-1c0.9,0.4,1.5,0.3,2,0.7C351.9,313.4,351.9,313.5,351.9,313.6z"/>
	<path class="st61" d="M190.7,321.8c-0.1,0.1-0.2,0.2-0.4,0.3c-0.5-0.2-0.9-0.4-1.2-1C189.8,321,190.2,321.4,190.7,321.8z"/>
	<path class="st34" d="M361,414.6c-0.1,0-0.2,0-0.3,0c-0.1-0.8-0.2-1.5-0.3-2.3c0.1,0,0.2,0,0.3,0C361.1,413.1,361,413.9,361,414.6z
		"/>
	<path class="st62" d="M335.6,329.8c0.7-0.1,1.2,0.1,1.6,0.4C336.6,330.4,336.1,330.2,335.6,329.8z"/>
	<path class="st63" d="M340.4,331.1c0.4,0,1,0,0.9,0.4c0,0.6-0.4,0-0.7,0C340.5,331.6,340.3,331.5,340.4,331.1z"/>
	<path class="st64" d="M222.1,333.9c-0.4,0-0.9-0.1-1.2-0.5c0.6-0.3,1,0.2,1.5,0.2C222.4,333.7,222.3,333.8,222.1,333.9z"/>
	<path class="st65" d="M222.1,333.9c0.1-0.1,0.2-0.2,0.4-0.3c0.5,0.2,1,0.3,1.5,0.5c-0.1,0.1-0.3,0.2-0.4,0.3
		C223.1,334.3,222.5,334.3,222.1,333.9z"/>
	<path class="st66" d="M338.6,286.1c0.4-0.3,0.7-0.2,1,0.1c0,0-0.1,0.4-0.1,0.4C339.2,286.6,338.8,286.6,338.6,286.1z"/>
	<path class="st67" d="M323.9,287.7c-0.1-0.1-0.3-0.2-0.4-0.3c0.1,0,0.2-0.1,0.3-0.1c0.3,0.1,0.9-0.6,1,0.1
		C324.9,287.7,324.2,287.6,323.9,287.7z"/>
	<path class="st68" d="M202.1,290.6c-0.4,0.4-0.8,0.4-1.3,0.4c0.1-0.7,0.7-0.5,1-0.7C201.8,290.4,202,290.5,202.1,290.6z"/>
	<path class="st49" d="M351.9,313.6c0-0.1,0-0.2,0-0.3c0.5,0,1,0,1.3,0.4C352.7,314.2,352.3,313.6,351.9,313.6z"/>
	<path class="st69" d="M337.8,330.4c0.8-0.1,1.2,0.1,1.9,0.5C338.8,331,338.4,330.7,337.8,330.4z"/>
	<path class="st70" d="M393.1,303c0.1,0.6-0.3,0.9-0.8,1.1C392.1,303.4,392.8,303.4,393.1,303z"/>
	<path class="st71" d="M342,286.8c0.5-0.2,0.8,0.1,1.1,0.3C342.7,287.3,342.3,287.3,342,286.8z"/>
	<path class="st72" d="M215.2,331.6c-0.7-0.2-1.2-0.3-1.7-0.5C214.1,330.8,214.5,330.9,215.2,331.6z"/>
	<path class="st73" d="M205.9,289.6c0-0.1,0-0.2,0-0.3c0.4,0,0.8-0.1,1.2-0.1c0.1,0.1,0.3,0.2,0.4,0.3
		C207,289.5,206.5,289.6,205.9,289.6z"/>
	<path class="st74" d="M202.1,290.6c-0.1-0.1-0.2-0.2-0.3-0.3c0.4-0.1,0.8-0.2,1.2-0.4C202.8,290.6,202.4,290.5,202.1,290.6z"/>
	<path class="st75" d="M115.3,403.2c5.3,0,9.5,4.2,9.6,9.4c0,5.4-4.1,9.7-9.5,9.7c-5.3,0-9.7-4.3-9.6-9.6
		C105.8,407.4,110,403.2,115.3,403.2z"/>
	<path class="st76" d="M205.3,362.2c4.4,26.3,10.1,52.4,15.4,78.5c2.1,10.4,4.2,20.8,6.1,31.2c0,0.2,0,0.4,0,0.6
		c-0.1,0.2-0.2,0.4-0.3,0.6c-3-16.4-6.5-32.7-9.9-49c-3.5-16.6-6.9-33.3-9.9-50c-0.7-3.7-1.4-7.3-1.7-11.1
		C205,362.8,204.9,362.5,205.3,362.2z"/>
	<path class="st77" d="M205.3,362.2c-0.3,0.3-0.3,0.6-0.3,1c-0.8-2.5-0.9-5.2-1.5-7.7c-0.6-2.5-1.5-5-2.7-7.2
		c0.1-0.1,0.2-0.2,0.3-0.3C203.7,352.3,204.5,357.3,205.3,362.2z"/>
	<path class="st78" d="M226.5,473.3c0.1-0.2,0.2-0.4,0.3-0.6c0.8,2.8,1,5.8,1.6,8.7c0.1,0.7,0.2,1.4,0.3,2.1
		c-1.1-0.8-0.7-2.1-0.9-3.1C227.2,477.9,226.9,475.6,226.5,473.3z"/>
	<path class="st79" d="M129,180.4c-0.2,0.4-0.4,0.7-0.6,1c-2.5,3.8-5.1,7.6-7.6,11.4c-0.5,0.8-1,0.9-1.9,0.6
		c-2.3-0.9-4.6-1.8-6.8-2.7c-0.7-0.3-1.2-0.3-1.9,0.2c-2.1,1.8-4.4,3.4-6.9,4.6c-0.8,0.4-1.1,0.9-1.1,1.8c0,2.4-0.2,4.8-0.2,7.2
		c0,1-0.3,1.5-1.3,1.6c-4.5,0.8-8.9,1.7-13.4,2.6c-0.9,0.2-1.3-0.1-1.6-0.9c-0.9-2.3-2-4.5-2.9-6.7c-0.3-0.8-0.8-1.1-1.7-1.2
		c-2.7-0.3-5.4-0.7-8-1.6c-0.9-0.3-1.5-0.1-2.1,0.5c-1.7,1.7-3.6,3.3-5.3,5.1c-0.6,0.6-1,0.6-1.7,0.2c-3.8-2.6-7.6-5.2-11.5-7.7
		c-0.8-0.5-0.9-1.1-0.5-1.9c0.9-2.1,1.6-4.3,2.5-6.4c0.5-1.1,0.3-1.9-0.5-2.7c-1.7-1.9-3.1-4.1-4.2-6.4c-0.4-0.8-0.9-1.2-1.9-1.2
		c-2.4,0-4.9-0.2-7.3-0.2c-0.9,0-1.2-0.3-1.4-1.2c-0.8-4.5-1.7-9.1-2.7-13.6c-0.2-0.9,0.1-1.2,0.9-1.6c2.1-0.9,4.3-1.9,6.4-2.8
		c1-0.4,1.5-0.9,1.6-2c0.2-2.7,0.8-5.4,1.6-8c0.3-0.8,0-1.3-0.5-1.9c-1.7-1.8-3.3-3.6-5-5.3c-0.6-0.6-0.7-1.1-0.2-1.8
		c2.6-3.8,5.2-7.6,7.7-11.5c0.5-0.8,1.1-0.8,1.9-0.5c2.3,0.9,4.6,1.7,6.8,2.7c0.8,0.3,1.3,0.2,1.9-0.3c2.1-1.8,4.3-3.3,6.7-4.5
		c0.8-0.4,1.1-1,1.1-1.9c0-2.4,0.2-4.8,0.2-7.2c0-0.9,0.3-1.3,1.2-1.5c4.5-0.9,9-1.8,13.6-2.7c0.9-0.2,1.3,0.2,1.6,1
		c1,2.2,2,4.5,2.9,6.7c0.3,0.7,0.7,1.1,1.5,1.1c2.8,0.3,5.5,0.7,8.1,1.6c0.9,0.3,1.4,0.1,2-0.5c1.7-1.7,3.6-3.3,5.3-5.1
		c0.6-0.6,1-0.7,1.8-0.2c3.8,2.6,7.6,5.2,11.5,7.7c0.7,0.5,0.9,0.9,0.6,1.7c-1,2.3-1.8,4.7-2.7,7c-0.3,0.7-0.2,1.3,0.3,1.9
		c1.8,2.1,3.3,4.3,4.5,6.7c0.4,0.8,0.9,1.2,1.9,1.2c2.4,0,4.8,0.2,7.2,0.2c1,0,1.4,0.4,1.6,1.4c0.8,4.5,1.7,8.9,2.7,13.4
		c0.2,0.9-0.2,1.3-0.9,1.6c-2.2,1-4.5,2-6.7,2.9c-0.7,0.3-1.1,0.7-1.2,1.5c-0.3,2.8-0.8,5.6-1.7,8.3c-0.3,0.8,0,1.3,0.5,1.9
		c1.7,1.8,3.4,3.5,5,5.3C128.5,179.8,128.8,180.1,129,180.4z M85.5,142.6c-9.6,0-17.3,7.5-17.3,17c0,9.6,7.6,17.4,17.1,17.5
		c9.4,0.1,17.4-7.8,17.4-17.3C102.6,150.4,94.9,142.6,85.5,142.6z"/>
	<path class="st8" d="M310.8,163.1c-0.4-1-0.7-2-2-2.2c-0.2-0.5-0.5-1-0.7-1.5c-2.3-5.5-4.9-10.9-7.8-16.1c0.1-1.1,0.2-2.2,0.2-3.4
		c0.1-2.4,0.4-4.8-0.2-7.2c-0.3-6.7-2.1-13.1-5-19.1c-0.9-2.3-2.2-4.4-3.8-6.3c1.2,2.2,2.3,4.4,3.5,6.7c2.9,7.1,4.7,14.4,5,22
		c-0.3,2.1,0.3,4.2-0.4,6.2c-2.6-4.5-5.6-8.7-9.1-12.6c-4.9-5.5-10.4-10.4-16.9-14.1c-3.3-2.1-6.9-3.7-10.8-4.6
		c-0.9-0.5-1.9-0.5-2.9-0.8c-0.4-0.2-0.9-0.3-1.3-0.5c0.7-0.2,1.3-0.5,2-0.7c8.6-2.3,17.4-4,26.3-4.3c1.2,0,2.4,0,3.6,0
		c1.8,0.1,3.7,0.2,5.5,0.3c0.5,0,1,0.1,1.6,0.1c0.7,0.4,1.5,0.3,2.3,0.3c0.8,0.4,1.7,0.4,2.6,0.6c0.4,0,0.7,0.4,1.2,0.2
		c-0.3-0.6-0.8-0.4-1.2-0.4c-0.8-0.4-1.7-0.5-2.6-0.6c-0.7-0.1-1.3-0.2-2-0.3c-0.4,0-0.8-0.1-1.2-0.1c-1-0.4-2.1-0.3-3.2-0.3
		c-3.2-0.6-6.4-0.2-9.6-0.2c0.1-0.2,0.2-0.5,0.3-0.7c2.5-3.7,3.6-7.8,2.9-12.2c-0.2,2-0.4,4-0.9,6c-0.5,2.1-1.4,4-2.3,5.9
		c-0.4,0.3-0.5,0.8-0.6,1.2c-1.6,0.2-3.1,0.2-4.7,0.5c-10.2,1.4-20.2,3.4-29.7,7.5c-6.5,2.8-12.4,6.4-17.4,11.4
		c-0.2-0.1-0.3-0.2-0.5-0.3c-2.1-1.9-4.2-3.7-6.3-5.6c-1.9-2.3-3.8-4.7-5.3-7.4c-2.2-3.9-3.5-8.1-4.5-12.5c0-0.5-0.1-1-0.1-1.5
		c0.2-0.7-0.3-1.3-0.3-2c0.4-0.3,0.9-0.7,1.3-1c0.6-0.3,1.1-0.6,1.7-1c1.3-0.6,2.6-1.3,3.9-1.9c3.4-1.3,6.8-2.6,10.2-3.7
		c5.7-1.7,11.5-2.5,17.4-3.4c0.8,1.3,1.9,2.3,2.9,3.4c4.3,5.1,7.8,10.7,10.5,16.9c0.2,0.6,0.5,1.2,0.7,1.8c0.2-0.8,0-1.5-0.4-2.1
		c-2.3-6.4-5.9-12-10.5-16.9c-0.9-1-1.8-1.9-2.7-2.9c1.4-0.4,2.9-0.2,4.4-0.4c3.2,0,6.5,0.1,9.7,0.1c3.4,0,6.8,0.6,10.1,1.1
		c3.6,0.6,7.1,1.7,10.7,2.4c0.4,0.5,1,0.5,1.4,0.6c4.7,1.6,9.1,3.6,13.5,6c5.3,2.9,9.9,6.7,14.4,10.7c3.3,3.6,6.5,7.2,9.2,11.3
		c0.7,1.1,1.3,2.2,2,3.3c0.6,1.2,1.2,2.3,1.8,3.5c-0.4,1.1-0.3,2.2-0.2,3.4c0,0.9-0.1,1.9-0.1,2.8c-0.5,2.5-0.8,5.1-1.4,7.6
		c-1.6,7.1-4.7,13.7-8.6,19.8c-1.1,1.4-2.2,2.8-3.2,4.3C312.6,161.2,311.7,162.2,310.8,163.1z M312.1,109.2c0.4,0.4,0.8,0.6,1.6,0.5
		c-0.7-0.3-1.1-0.6-1.6-0.8c-0.6-0.2-1.1-0.6-1.8-0.6C310.8,108.9,311.5,109,312.1,109.2z M233.3,89.9c0.3-0.5,0.6-1.1,0.6-1.8
		c-0.6,0.4-0.7,1-0.9,1.5c-0.6,1.6-1.3,3.2-1.6,4.9c-2.3,8.1-2.4,16.2-0.3,24.4c0.2,0.9,0.3,1.7,1,2.8c0-1.4-0.3-2.4-0.7-3.4
		c-0.4-2.8-0.9-5.6-1-8.5c-0.2-4.9,0.4-9.7,1.4-14.5C232.3,93.4,232.8,91.7,233.3,89.9z M273.3,88c-0.1-0.7-0.1-1.4-0.8-2.1
		c0.2,1.1,0,2.1,0.5,2.9c0.4,4.8,0.2,9.5-0.6,14.2c-0.3,0.5-0.4,0.9-0.1,1.6c0.2-0.5,0.3-0.9,0.4-1.3
		C274.2,98.2,274.4,93.1,273.3,88z M306.1,106.6c-0.5-0.1-1-0.3-2-0.5C305,106.9,305.5,106.9,306.1,106.6z"/>
	<path class="st7" d="M298.4,147.2c0,0.1,0,0.3,0,0.4c-0.7,0.7,0,1.3,0,1.9c0.1,1,0.2,2,0.3,2.9c0,0.1,0,0.2,0,0.4
		c-0.1,0.9-0.2,1.8-0.3,2.6c-0.1,0.5-0.3,1-0.4,1.5c0.2,0.5-0.1,0.7-0.5,0.9c-1,0.6-1.2,1.4-0.5,2.3c-0.5,2-1.8,3.6-2.9,5.2
		c-1.7,2-3.7,3.8-6,5.1c-3.9,2.3-8.2,2.9-12.6,2.7c-0.2,0-0.3,0-0.5-0.1c-9.8-1.5-17.3-9.2-18.1-18.6c-0.8-10,4.9-18.8,14.3-21.9
		c5.2-1.7,10.3-1.2,15.2,0.8c3.4,1.9,6.4,4.2,8.6,7.4c0.7,1.4,1.4,2.8,2.1,4.1C297.7,145.8,297.5,146.8,298.4,147.2z M283.1,146.2
		c0.4,0,1,0.1,1.3-0.4c0.3-0.6-0.1-1-0.5-1.4c-3.2-3.8-12.7-4.9-16.8-2c-0.4,0.3-1,0.6-0.8,1.2c0.2,0.6,0.8,0.6,1.4,0.7
		c2.2,0.2,4.4,0.3,6.6,0.5C277.2,145,280.1,145.8,283.1,146.2z M279.3,156.9c0-2-1.7-3.7-3.7-3.7c-2,0-3.7,1.6-3.7,3.5
		c0,2,1.7,3.6,3.8,3.7C277.7,160.4,279.3,158.9,279.3,156.9z M268,150.7c2.5-0.5,4.8-1.5,7.4-1.5c2.5,0,4.8,1.1,7.3,1.4
		c-2.1-3-5-4-8.4-3.7C271.7,147.2,269.3,148.1,268,150.7z"/>
	<path class="st7" d="M224.4,133.2c0.4-1,1.2-1.3,2.3-1.4c3.6-0.2,7,0.3,10.4,1.9c-0.7,0.2-1.2,0.3-1.7,0.4
		c-1.9,0.1-3.4,0.8-4.8,2.1c-0.5,0.4-1,1-0.8,1.7c0.3,0.8,1.1,0.7,1.7,0.6c3.9-0.5,7.9-0.2,11.8-0.3c1.2,1.4,2.3,2.7,3.1,4.3
		c0.7,1.4,1.4,2.8,2.1,4.2c0.1,0.3,0.2,0.6,0.3,1c-0.7,0.7,0,1.3,0,1.9c0.1,1,0.2,2,0.3,2.9c0,0.1,0,0.2,0,0.4
		c-0.1,0.9-0.2,1.8-0.3,2.6c0,0.6,0,1.2-0.1,1.8c0,0.3,0,0.6,0,0.9c-0.4,0.1-0.5,0.3-0.6,0.7c-0.7,2.5-2.1,4.7-3.5,6.8
		c-1.7,2-3.7,3.8-6,5.1c-3.9,2.3-8.2,2.9-12.6,2.7c-1.4-0.3-2.9-0.4-4.3-1c-0.1-6.8,0.4-13.7,0.4-20.5c0.3-5.4,0.7-10.8,1-16.2
		C223.6,134.7,224,134,224.4,133.2z M236.8,159.7c2.1,0,3.7-1.6,3.6-3.5c-0.1-2-1.8-3.6-3.9-3.6c-2,0-3.7,1.7-3.6,3.6
		C233,158.2,234.7,159.7,236.8,159.7z M235.6,145.9c-2.6,0-4.9,0.7-6.8,2.7c-0.3,0.3-0.7,0.7-0.4,1.1c0.3,0.4,0.7,0.1,1-0.1
		c4.1-1.8,8.2-1.7,12.3,0c0.4,0.2,0.9,0.5,1.1,0c0.2-0.4-0.2-0.8-0.5-1.1C240.5,146.7,238.2,145.9,235.6,145.9z"/>
	<path class="st80" d="M255.2,147.2c-0.6,2.8-1.4,5-2.2,7.3c-2.4,7-5.1,13.9-7.9,20.8c-0.2,0.5-0.4,1-0.6,1.5
		c-0.5,1.5-0.1,2.1,1.4,2.4c1.7,0.3,3.4,0.5,5.1,0.8c0.6,0.1,1.2,0.1,1.7,0.6c-2.7,0.2-5.2,0.1-7.7-0.3c-1.6-0.2-2.4-1.5-2.3-3
		c0.1-0.6,0.2-1.2,0.4-1.7c3.2-8.8,6.6-17.7,10.5-26.2C254.1,148.7,254.4,148,255.2,147.2z"/>
	<path class="st81" d="M286.7,133.6c-5-2.1-10.1-2.5-15.2-0.8c-9.4,3.1-15.2,11.9-14.3,21.9c0.8,9.4,8.2,17.1,18.1,18.6
		c0.2,0,0.3,0,0.5,0.1c1.3,0.7,2.9-0.2,4.2,0.5c-11.7,1-21.8-7-23.4-18.5c-1.5-11.4,6.2-22,17.7-24c4.4-0.8,8.8-0.3,12.8,1.9
		C286.9,133.4,286.8,133.5,286.7,133.6z"/>
	<path class="st80" d="M243.4,138.1c-3.9,0.1-7.9-0.2-11.8,0.3c-0.6,0.1-1.4,0.2-1.7-0.6c-0.2-0.7,0.3-1.2,0.8-1.7
		c1.3-1.3,2.9-2,4.8-2.1c0.6,0,1.3,0,1.9,0.1c0.7,0.1,0.3-0.5,0.5-0.7c1.1,0.5,2.2,0.8,3.3,1.4c1.2,0.6,2.4,1.3,2.6,2.9
		C243.6,137.9,243.5,138,243.4,138.1z"/>
	<path class="st82" d="M300.4,143.4c3,5.2,5.5,10.6,7.8,16.1c0.2,0.5,0.5,1,0.7,1.5c0.6,1.6,1.1,3.2,1.7,4.8
		c-0.1,0.1-0.2,0.2-0.3,0.4c-4.7-12.1-10.2-23.7-18.4-33.9c-5.2-6.5-11.4-11.9-18.5-16.3c0.1-0.1,0.2-0.2,0.4-0.3
		c6.5,3.6,12,8.5,16.9,14.1c3.5,3.9,6.5,8.1,9.1,12.6C299.8,142.7,300,143.1,300.4,143.4z"/>
	<path class="st83" d="M231.6,123.8c5-5,11-8.6,17.4-11.4c9.5-4.1,19.5-6.1,29.7-7.5c1.6-0.2,3.1-0.3,4.7-0.5c0.1,0,0.2,0.1,0.3,0.1
		c1.1,0.2,2.2-0.3,3.3,0.3c-9,0.4-17.7,2.1-26.3,4.3c-0.7,0.2-1.3,0.4-2,0.7c-9.5,2.4-17.9,6.9-25.4,13.2c-0.4,0.4-0.8,0.9-1.4,1
		c-0.1,0-0.1,0-0.2,0C231.7,124,231.7,123.9,231.6,123.8z"/>
	<path class="st80" d="M258,194.8c-1.9,0.2-3.9,0.7-5.9-0.5c1-0.8,2.4-0.5,3.3-1.1c3.4-0.5,5.8-2.3,7.5-5.2c0.7-0.9,1-2,1.4-3
		c0.2-0.4,0.1-1.2,0.7-1.1c0.6,0.1,0.5,0.8,0.6,1.3c0.2,1.4-0.3,2.7-0.7,4.1C263.4,192,261,193.8,258,194.8z"/>
	<path class="st25" d="M258,194.8c3-1,5.3-2.8,6.9-5.6c1.7,1.5,2.4,3.7,1.5,5.3c-0.8,1.6-2.9,2.4-5.1,1.8
		C260.1,196.1,258.9,195.8,258,194.8z"/>
	<path class="st25" d="M262.9,188c-1.7,2.9-4.1,4.7-7.5,5.2c-1.9-1.9-1-3.2,1.8-4.7C259,187.5,261,187.5,262.9,188z"/>
	<path class="st84" d="M226.1,173.3c4.4,0.2,8.7-0.4,12.6-2.7c2.3-1.4,4.3-3.1,6-5.1c0.1,0.1,0.2,0.2,0.3,0.3
		c-3.8,4.7-8.6,7.6-14.7,8.1C229,173.2,227.5,174.1,226.1,173.3z"/>
	<path class="st85" d="M279.9,173.9c-1.3-0.7-2.9,0.2-4.2-0.5c4.4,0.2,8.7-0.4,12.6-2.7c2.3-1.4,4.3-3.1,6-5.1
		c0.1,0.1,0.2,0.2,0.3,0.3C290.8,170.5,285.9,173.3,279.9,173.9z"/>
	<path class="st86" d="M286.7,133.6c0.1-0.1,0.2-0.2,0.4-0.3c3.6,1.6,6.4,4.1,8.5,7.4c-0.1,0.1-0.2,0.2-0.3,0.3
		C293,137.8,290.1,135.4,286.7,133.6z"/>
	<path class="st87" d="M273.7,115.6c-0.1,0.1-0.2,0.2-0.4,0.3c-3.3-1.8-6.7-3.5-10.4-4.6c0-0.1,0-0.2,0-0.3
		C266.8,111.9,270.4,113.5,273.7,115.6z"/>
	<path class="st88" d="M231.7,124.1c0.1,0,0.1,0,0.2,0c-1.9,2.2-3.8,4.4-5.7,6.6c-0.1-0.1-0.2-0.2-0.3-0.3c0.9-1.5,2.1-2.8,3.3-4.1
		C229.9,125.4,230.4,124.3,231.7,124.1z"/>
	<path class="st89" d="M243.4,138.1c0.1-0.1,0.2-0.2,0.3-0.3c2.4,2.5,4.2,5.4,4.9,8.8c-0.7-1.4-1.4-2.8-2.1-4.2
		C245.7,140.8,244.5,139.5,243.4,138.1z"/>
	<path class="st90" d="M294.5,165.8c-0.1-0.1-0.2-0.2-0.3-0.3c1.1-1.7,2.3-3.3,2.9-5.2c0.3-0.7,0.6-1.3,0.9-2
		C297.6,161.1,296.4,163.6,294.5,165.8z"/>
	<path class="st90" d="M245,165.8c-0.1-0.1-0.2-0.2-0.3-0.3c1.5-2.1,2.8-4.3,3.5-6.8c0.1-0.3,0.3-0.6,0.6-0.7
		C248.1,160.9,247,163.5,245,165.8z"/>
	<path class="st91" d="M295.2,141c0.1-0.1,0.2-0.2,0.3-0.3c1.4,2,2.3,4.1,2.9,6.5c-0.9-0.4-0.7-1.4-1.1-2
		C296.6,143.8,295.9,142.4,295.2,141z"/>
	<path class="st92" d="M262.9,111c0,0.1,0,0.2,0,0.3c-1-0.4-2.2-0.1-2.9-1.1C261,110.5,262,110.5,262.9,111z"/>
	<path class="st93" d="M249.3,152.4c-0.1-1-0.2-2-0.3-2.9c0,0,0.1,0,0.1,0l0.1,0C249.7,150.5,249.8,151.4,249.3,152.4z"/>
	<path class="st94" d="M298.8,152.4c-0.1-1-0.2-2-0.3-2.9c0,0,0.1,0,0.1,0l0.1,0C299.2,150.5,299.3,151.4,298.8,152.4z"/>
	<path class="st93" d="M249,155.4c0.1-0.9,0.2-1.8,0.3-2.6c0.5,0.9,0.5,1.7,0,2.6C249.2,155.4,249.1,155.4,249,155.4z"/>
	<path class="st94" d="M298.5,155.4c0.1-0.9,0.2-1.8,0.3-2.6c0.5,0.9,0.5,1.7,0,2.6C298.7,155.4,298.6,155.4,298.5,155.4z"/>
	<path class="st95" d="M249.2,149.5l-0.1,0c0,0-0.1,0-0.1,0c0-0.6-0.7-1.3,0-1.9C249.2,148.2,249.3,148.8,249.2,149.5z"/>
	<path class="st96" d="M298.8,149.5l-0.1,0c0,0-0.1,0-0.1,0c0-0.6-0.7-1.3,0-1.9C298.7,148.2,298.8,148.8,298.8,149.5z"/>
	<path class="st97" d="M311,167.7c0.4,0.5,0.9,1,0.2,1.7C311.3,168.8,310.7,168.3,311,167.7z"/>
	<path class="st98" d="M310.2,166.1c0.1-0.1,0.2-0.2,0.3-0.4c0.4,0.5,0.6,1.1,0.5,1.8C310.3,167.3,310.4,166.6,310.2,166.1z"/>
	<path class="st99" d="M298.5,155.4c0.1,0,0.2,0,0.2,0c-0.1,0.6,0.5,1.4-0.6,1.6C298.3,156.5,298.4,155.9,298.5,155.4z"/>
	<path class="st100" d="M311.6,170c0.8,0.4,0.6,1,0.4,1.6C311.8,171.2,311.6,170.6,311.6,170z"/>
	<path class="st101" d="M312.8,174.9c0.3,0.1,0.5,0.4,0.6,0.7c-0.4,0.4-0.2,0.9-0.3,1.3C312.6,176.3,312.7,175.6,312.8,174.9z"/>
	<path class="st95" d="M249,155.4c0.1,0,0.2,0,0.2,0c0,0.6,0.1,1.3-0.3,1.8C248.9,156.6,249,156,249,155.4z"/>
	<path class="st102" d="M313.1,176.9c0.1-0.5-0.1-1,0.3-1.3c0,0.6,0.2,1.1-0.3,1.6C313.1,177.1,313.1,177,313.1,176.9z"/>
	<path class="st8" d="M216.3,81.8c-0.1-0.1-0.2-0.3-0.3-0.4c0.9-0.6,1.8-1.3,2.7-1.9c0.5-0.3,1.1-0.5,1.6-0.8c6.3-3.4,13-5.8,20.1-7
		c0.4,0,0.8,0,1.1,0.4c-0.8,0.6-0.6,1.4-0.6,2.2c-0.3,3.2-1.1,6.3-2,9.4c1.3-2.1,2.2-4.5,2.3-7c0.3-0.5,0.3-1.1,0.2-1.7
		c0-0.5,0-1.1,0-1.6c0-0.4,0-0.9,0-1.3c0.4-0.1,0.6-0.3,0.7-0.7c0.5-0.4,1-0.3,1.6-0.3c0.7,0.4,1.6,1.3,2-0.3
		c2.1-0.7,4.4-0.5,6.5-1.1c0.5,0,1,0,1.5,0c0.6,0,1.2,0.2,1.8-0.2c0.3,0,0.7-0.1,1-0.1c0.4,0,0.8,0.1,1.3,0.1
		c0.1,0.8-0.2,1.7,0.3,2.5c0.2,3.9,2.1,7.2,4.2,10.5c-2.6,0-4.9,0-7.3,0c-0.8,0-1.6-0.2-2.4,0.2c-0.7,0-1.4,0.1-2.2,0.1
		c-0.6,0-1.2-0.2-1.8,0.2c-1.3,0.2-2.5,0.5-3.8,0.4c-1.5-0.9-3.2-0.7-4,0.6c-0.1,0.1-0.3,0.2-0.4,0.2c-6.6,1.2-13,3.2-19.1,5.9
		c-0.1-0.1-0.2-0.2-0.3-0.3l0,0C218.7,87.6,216.7,85.2,216.3,81.8z"/>
	<path class="st8" d="M231.7,124.1c-1.2,0.2-1.8,1.3-2.5,2.1c-1.2,1.3-2.4,2.6-3.3,4.1c-0.5,0.7-1.2,1.2-2.1,1.3
		c-2.8,0.5-5.3,1.8-7.7,3.2c-0.8-0.8-1.7-1.5-2.5-2.3c-3.5-4.2-5.5-9.1-6.3-14.5c-0.7-4.6-0.4-9.2,0.1-13.7c0.2-0.9,0.8-1.7,0.3-2.7
		c0.1-0.3,0.2-0.7,0.3-1c0.9-0.5,0.9-1.4,1-2.3c0.3-0.3,0.6-0.7,0.9-1c1.2,0,1.8-1.1,2.7-1.6c0.3-0.2,0.6-0.4,0.9-0.6
		c0.2-0.1,0.3-0.3,0.5-0.4c0.2,0,0.4,0,0.5-0.1c0.1,0.9-0.2,1.9,0.3,2.7c0,0.2,0.1,0.4,0.1,0.6c0.9,7.8,4.2,14.5,9.7,20.2
		c1.9,2.1,4,4.1,6.7,5.2c0.2,0.1,0.3,0.2,0.5,0.3C231.7,123.9,231.7,124,231.7,124.1z"/>
	<path class="st103" d="M207.3,104.3c-0.6,4.6-0.9,9.1-0.1,13.7c0.9,5.4,2.8,10.3,6.3,14.5c-0.1,0.1-0.2,0.2-0.4,0.4
		c-4.1-4.3-6-9.6-6.8-15.3c-0.7-4.7-0.4-9.4,0.7-14C207.1,103.8,207.2,104.1,207.3,104.3z"/>
	<path class="st104" d="M218.7,79.5c-0.9,0.6-1.8,1.3-2.7,1.9c-1.3,0.6-2.4,1.6-3.6,2.5c-1.1,0.8-2.1,1.7-3.3,2.5
		c2.5-3,5.8-5,8.9-7.2c0.1,0,0.2,0,0.3,0C218.4,79.3,218.6,79.4,218.7,79.5z"/>
	<path class="st105" d="M216.3,81.8c0.3,3.4,2.3,5.8,4.6,8.1C217.9,88.9,215.3,84.3,216.3,81.8z"/>
	<path class="st106" d="M220.9,89.9c0.1,0.1,0.2,0.2,0.3,0.3c0.1,0.1,0.3,0.3,0.4,0.4c-1.3,0.6-2.6,1.3-3.9,1.9
		c-0.1-0.1-0.2-0.2-0.4-0.3c0.9-0.5,1.8-0.9,2.7-1.4C220.4,90.6,221,90.5,220.9,89.9z"/>
	<path class="st107" d="M212.7,76.2c0.1-0.1,0.2-0.2,0.3-0.3c1.2,0.9,2.5,1.7,3.7,2.6C215.2,78.3,213.9,77.3,212.7,76.2z"/>
	<path class="st108" d="M213.1,132.9c0.1-0.1,0.2-0.2,0.4-0.4c0.8,0.8,1.7,1.5,2.5,2.3c-0.2,0.1-0.4,0.2-0.5,0.4
		C214.7,134.4,213.7,133.9,213.1,132.9z"/>
	<path class="st109" d="M205,90.6c0.7-0.9,1.3-1.8,2.6-2.2c-0.8,0.8-1.5,1.7-2.3,2.5C205.1,90.8,205.1,90.7,205,90.6z"/>
	<path class="st110" d="M204.6,101.9c0.8-0.9,1.7-1.8,2.5-2.6c-0.3,1.2-1.3,1.9-2.1,2.6C204.8,102,204.7,101.9,204.6,101.9z"/>
	<path class="st111" d="M212.4,95.8c-0.9,0.6-1.5,1.6-2.7,1.6c0.8-0.9,1.7-1.5,2.7-2.1C212.4,95.5,212.4,95.6,212.4,95.8z"/>
	<path class="st112" d="M214.3,94.7c-0.2,0-0.4,0-0.5,0.1c0.2-1,1.2-1.1,1.9-1.6c0.1,0.1,0.2,0.2,0.3,0.3c-0.4,0.3-0.9,0.7-1.3,1
		C214.6,94.6,214.5,94.6,214.3,94.7z"/>
	<path class="st113" d="M207.3,104.3c-0.1-0.2-0.2-0.4-0.3-0.7c0-0.7,0.3-1.3,0.6-2C208.1,102.6,207.5,103.4,207.3,104.3z"/>
	<path class="st114" d="M208.8,98.4c-0.1,0.9-0.1,1.7-1,2.3C208.1,99.8,208,98.9,208.8,98.4z"/>
	<path class="st106" d="M216.1,93.5c-0.1-0.1-0.2-0.2-0.3-0.3c0.5-0.3,1.1-0.6,1.6-0.9c0.1,0.1,0.2,0.2,0.4,0.3
		C217.2,92.9,216.6,93.2,216.1,93.5z"/>
	<path class="st115" d="M204.6,101.9c0.1,0,0.3,0,0.4,0c-0.5,0.5-0.9,1-1.4,1.5C203.6,102.7,204,102.3,204.6,101.9z"/>
	<path class="st116" d="M205,90.6c0.1,0.1,0.2,0.2,0.3,0.3c-0.4,0.4-0.8,0.9-1.2,1.3c-0.1,0-0.2,0-0.3,0
		C203.9,91.5,204.5,91.1,205,90.6z"/>
	<path class="st117" d="M200.8,97.3c0-1,0.4-1.4,0.8-2.1C201.7,96.2,201.2,96.5,200.8,97.3z"/>
	<path class="st111" d="M203.8,92.2c0.1,0,0.2,0,0.3,0c-0.3,0.4-0.4,1-1,1.3C202.9,92.8,203.4,92.5,203.8,92.2z"/>
	<path class="st118" d="M199.4,100c0,0.4-0.2,0.7-0.5,1c-0.4-0.5,0-0.8,0.2-1.1C199.2,99.9,199.3,100,199.4,100z"/>
	<path class="st119" d="M212.4,95.8c0-0.1,0-0.3,0-0.4c0.3-0.4,0.6-0.5,0.9-0.1C213.1,95.4,212.7,95.6,212.4,95.8z"/>
	<path class="st1" d="M271.7,231.6c0.7,3.1,1.7,6.1,2.1,9.3c0.1,0.7,0.2,1.4,0.2,2.1c0,1.6,0,3.3,0,4.9c0,0.8-0.3,1.3-1.1,1.5
		c-4.9,1-9.8,2.2-14.9,2.1c-1.1,0-1.5-0.3-1.7-1.5c-0.5-3.6-0.5-7.2-0.6-10.8c-0.1-2.4,0.5-4.4,2.3-5.9c0-0.1,0-0.2,0-0.3
		C262.6,232.5,267.2,232.1,271.7,231.6z"/>
	<path class="st0" d="M222.3,151.8c-0.1,6.8-0.5,13.7-0.4,20.5c-7.6-2.5-12.2-7.9-13.9-15.6c-0.9-3.9-0.5-7.8,1-11.6
		c1.5,0.8,2.8,1.8,4.4,2.4C216.5,148.6,219.4,150,222.3,151.8z"/>
	<path class="st8" d="M222.3,151.8c-2.8-1.8-5.8-3.2-9-4.3c-1.5-0.6-2.9-1.6-4.4-2.4c1.5-3.9,3.9-7.1,7.3-9.4
		c1.3,0.9,2.7,1.7,4.3,1.8c0.3,0,0.6,0,0.9,0c0.1,0.6-0.6,1.1-0.3,1.9c0.2-0.1,0.3-0.2,0.4-0.3c0.3-0.8,0.7-1.7,1-2.5
		c0-0.3,0-0.5,0.1-0.8c0.2-0.1,0.5-0.2,0.7-0.2C222.9,140.9,222.6,146.4,222.3,151.8z M220.2,142.4c-0.6,0.4-0.6,0.8-0.3,1.3
		C220,143.3,220.1,142.9,220.2,142.4z M218.5,149c0.2-0.3,0.3-0.5,0.3-0.7c0.1-0.2,0-0.3-0.2-0.2c-0.1,0.1-0.2,0.2-0.2,0.4
		C218.3,148.6,218.4,148.8,218.5,149z"/>
	<path class="st120" d="M222.6,135.8c0,0.3,0,0.5-0.1,0.8c-0.7-0.1-0.6,0.7-1,0.9c-0.3,0-0.6,0-0.9,0c-1.3-0.7-2.6-1.4-3.9-2.1
		c2-1.6,4.3-2.4,6.7-3c0.4-0.1,1.1-0.4,0.8,0.5C223.5,133.7,222.9,134.7,222.6,135.8z"/>
	<path class="st121" d="M216.7,135.4c1.3,0.7,2.6,1.4,3.9,2.1c-1.6-0.2-3-0.9-4.3-1.8C216.4,135.5,216.6,135.4,216.7,135.4z"/>
	<path class="st122" d="M222.6,135.8c0.3-1.1,0.9-2,1.6-2.9c0.1,0.1,0.2,0.2,0.3,0.3c-0.4,0.8-0.8,1.6-1.2,2.3
		C223,135.6,222.8,135.7,222.6,135.8z"/>
	<path class="st41" d="M439.8,465.5c0,0.3,0,0.7,0.3,1c-0.1,1.4-0.4,2.8-0.3,4.3c-0.5,0.9-0.3,1.9-0.3,2.9c-0.4,3.1-0.7,6.3-1.1,9.4
		c0,0-0.1,0-0.1,0s-0.1,0-0.1,0c-0.2-3.4,0.5-6.8,0.7-10.2c0.1-1.9,0.3-3.8,0.5-5.6C439.5,466.6,439.4,466,439.8,465.5z"/>
	<path class="st18" d="M427.4,286.7c0.9,0,1.7,0,2.6,0c0,0.1,0,0.2,0,0.3C429.2,286.9,428.3,287.2,427.4,286.7z"/>
	<path class="st5" d="M439.5,473.6c0.1-1-0.2-2,0.3-2.9c0.6,0.3,1.4,0.5,1.3,1.4C441,473,440.4,473.5,439.5,473.6z"/>
	<path class="st5" d="M453.5,288.9c-0.8-0.5-1.6-1.1-2.3-1.6c0.6,0,1.2,0,1.8,0c0.4,0,0.9-0.1,1.1,0.4
		C454.2,288.3,454,288.7,453.5,288.9z"/>
	<path class="st5" d="M442.7,440.4c0.1-0.9-0.2-1.8,0.3-2.6c0.6,0.5,1.2,0.9,0.9,1.9C443.8,440.3,443.3,440.4,442.7,440.4z"/>
	<path class="st5" d="M444,427c0.1-0.9-0.2-1.8,0.3-2.6c0.6,0.5,1.2,0.9,0.9,1.9C445.1,426.9,444.6,427,444,427z"/>
	<path class="st5" d="M445.4,413.7c0.1-0.9-0.2-1.8,0.3-2.6c0.6,0.5,1.2,0.9,0.9,1.9C446.4,413.6,445.9,413.7,445.4,413.7z"/>
	<path class="st5" d="M446.7,400.3c0.1-0.9-0.2-1.8,0.3-2.6c0.6,0.5,1.2,0.9,0.9,1.9C447.7,400.2,447.2,400.3,446.7,400.3z"/>
	<path class="st5" d="M448,387c0.1-0.9-0.2-1.8,0.3-2.6c0.6,0.5,1.2,0.9,0.9,1.9C449,386.9,448.5,387,448,387z"/>
	<path class="st5" d="M449.3,373.6c0.1-0.9-0.2-1.8,0.3-2.6c0.6,0.5,1.2,0.9,0.9,1.9C450.3,373.5,449.8,373.6,449.3,373.6z"/>
	<path class="st5" d="M441.4,453.7c0.1-0.9-0.2-1.8,0.3-2.6c0.6,0.5,1.2,0.9,0.9,1.9C442.5,453.6,442,453.7,441.4,453.7z"/>
	<path class="st5" d="M455.4,308.8c0.1-0.9-0.2-1.8,0.3-2.6c0.6,0.5,1.2,0.9,0.9,1.9C456.5,308.7,456,308.8,455.4,308.8z"/>
	<path class="st5" d="M456.1,301.9c0.1-0.9-0.2-1.8,0.3-2.6c0.6,0.5,1.2,0.9,0.9,1.9C457.2,301.9,456.7,301.9,456.1,301.9z"/>
	<path class="st5" d="M449.6,370c0.1-0.9-0.2-1.8,0.3-2.6c0,0.5,0,0.9,0.3,1.3C450.8,369.5,450.3,369.9,449.6,370z"/>
	<path class="st5" d="M454.2,322.1c0.1-0.8-0.2-1.6,0.3-2.3C454.1,320.6,456.2,321.6,454.2,322.1z"/>
	<path class="st5" d="M440.1,466.4c0.1-0.8-0.2-1.6,0.3-2.3C440.1,464.9,442.1,465.9,440.1,466.4z"/>
	<path class="st5" d="M440.5,463.2c0.1-0.8-0.2-1.6,0.3-2.3C440.5,461.6,442.5,462.7,440.5,463.2z"/>
	<path class="st5" d="M453.5,329c0.1-0.8-0.2-1.6,0.3-2.3C453.5,327.4,455.5,328.5,453.5,329z"/>
	<path class="st5" d="M440.8,459.9c0.1-0.8-0.2-1.6,0.3-2.3C440.8,458.4,442.8,459.4,440.8,459.9z"/>
	<path class="st5" d="M454.8,315.3c0.1-0.8-0.2-1.6,0.3-2.3C454.8,313.7,456.8,314.8,454.8,315.3z"/>
	<path class="st5" d="M452.9,335.8c0.1-0.8-0.2-1.6,0.3-2.3C452.8,334.3,454.9,335.3,452.9,335.8z"/>
	<path class="st5" d="M441.8,450.2c0.1-0.8-0.2-1.6,0.3-2.3C441.8,448.6,443.8,449.6,441.8,450.2z"/>
	<path class="st5" d="M452.2,342.7c0.1-0.8-0.2-1.6,0.3-2.3C452.2,341.1,454.2,342.1,452.2,342.7z"/>
	<path class="st5" d="M448.3,383.4c0.1-0.8-0.2-1.6,0.3-2.3C448.3,381.8,450.3,382.9,448.3,383.4z"/>
	<path class="st5" d="M447,396.7c0.1-0.8-0.2-1.6,0.3-2.3C447,395.2,449,396.2,447,396.7z"/>
	<path class="st5" d="M445.7,410.1c0.1-0.8-0.2-1.6,0.3-2.3C445.7,408.5,447.7,409.6,445.7,410.1z"/>
	<path class="st5" d="M444.4,423.4c0.1-0.8-0.2-1.6,0.3-2.3C444.4,421.9,446.4,422.9,444.4,423.4z"/>
	<path class="st5" d="M443.1,436.8c0.1-0.8-0.2-1.6,0.3-2.3C443.1,435.2,445.1,436.3,443.1,436.8z"/>
	<path class="st5" d="M455.1,290.9c-0.3-0.4-0.6-0.9-1-1.3C455.7,289.1,455.5,289.9,455.1,290.9z"/>
	<path class="st5" d="M451.5,349.5c0-0.3,0-0.7,0-1c0.3-0.1,0.7-0.5,0.8,0.1C452.5,349.2,452,349.4,451.5,349.5z"/>
	<path class="st5" d="M450.9,356.3c0-0.3,0-0.7,0-1c0.3-0.1,0.7-0.5,0.8,0.1C451.9,356.1,451.4,356.3,450.9,356.3z"/>
	<path class="st5" d="M450.2,363.2c0-0.3,0-0.7,0-1c0.3-0.1,0.7-0.5,0.8,0.1C451.2,362.9,450.7,363.1,450.2,363.2z"/>
	<path class="st5" d="M456.4,297.4c-0.5-0.7-0.2-1.5-0.3-2.3C456.6,295.9,456.3,296.7,456.4,297.4z"/>
	<path class="st5" d="M443.4,432.5c0-0.6-0.1-1.1,0.3-1.6C443.7,431.5,443.9,432.1,443.4,432.5z"/>
	<path class="st5" d="M442.4,442.6c0-0.6-0.1-1.1,0.3-1.6C442.7,441.6,442.9,442.2,442.4,442.6z"/>
	<path class="st5" d="M442.1,445.9c0-0.6-0.1-1.1,0.3-1.6C442.4,444.8,442.6,445.4,442.1,445.9z"/>
	<path class="st5" d="M443.8,429.3c0-0.6-0.1-1.1,0.3-1.6C444,428.2,444.2,428.8,443.8,429.3z"/>
	<path class="st123" d="M256.5,69.3c-0.3,0-0.7,0.1-1,0.1c-0.6,0-1.2-0.1-1.8,0.2c-0.5,0-1,0-1.5,0c0-0.1,0-0.2,0-0.3
		c0-0.1,0-0.2,0.1-0.3c0.2,0,0.4-0.1,0.6-0.1c2.8-0.2,5.6-0.4,8.4-0.6c1.1,0.1,2.2,0.2,3.3-0.2c7.8-0.3,15.6-0.1,23.3,1.2
		c0.4,0.1,0.8,0.1,1.1,0.1c4.6,1,9.1,2.1,13.5,3.9c1.6,0.7,3.2,1.3,4.7,2l0,0c2,1.4,4.3,2.3,6.2,3.9c-0.1,0.1-0.2,0.2-0.3,0.3
		c-10.4-6.9-22.1-9.7-34.3-10.5c-6.8-0.5-13.5-0.2-20.3,0.1C257.8,69,257.1,68.9,256.5,69.3z"/>
	<path class="st124" d="M302,64.2c2.2,1.3,4.3,2.8,6.8,3.6c0.1,0.1,0.2,0.2,0.4,0.3c0.3,0.7,1,0.8,1.5,1.2c6.4,4,12.3,8.5,17.3,14.2
		c0.6,0.7,1.1,1.4,1.7,2.2c-0.1,0.1-0.2,0.2-0.3,0.3c-8.7-10.5-20.2-17.3-32.1-23.4c-2-1-4-2-6-2.9c-0.1-0.3-0.3-0.5-0.4-0.8
		c1.8,0.3,3.3,1.4,5,2.2c2,0.9,3.9,2,5.9,3C301.8,64.2,301.9,64.2,302,64.2z"/>
	<path class="st125" d="M252.2,69.4c0,0.1,0,0.2,0,0.3c-2.1,0.6-4.4,0.4-6.5,1.1c-0.7,0-1.4,0-2,0.3c-0.6,0-1.1-0.1-1.6,0.3
		c-0.6,0-1.2,0-1.7,0.3c-7.1,1.2-13.8,3.7-20.1,7c-0.5,0.3-1.1,0.5-1.6,0.8c-0.1-0.1-0.2-0.2-0.4-0.3c6.6-4.1,13.8-6.5,21.3-8.2
		c3.6-0.8,7.3-1.4,11.1-1.9C251.2,69.1,251.7,69,252.2,69.4z"/>
	<path class="st126" d="M227.5,46c-2.4,5.1-3.5,10.4-3,16.1c0.2,2.7,0.9,5.3,1.7,7.9c-0.1,0.1-0.2,0.2-0.3,0.3
		c-3.4-8.4-3.1-16.7,1.3-24.7C227.2,45.7,227.4,45.9,227.5,46z"/>
	<path class="st127" d="M290.6,59.1c-0.4-0.1-0.8-0.2-1.2-0.4c-7.3-3.4-14.7-6.4-22.2-9.3c0.1-0.1,0.3-0.2,0.4-0.3
		c7.7,2.6,15.1,5.8,22.4,9.2c0.3,0.1,0.5,0.4,0.7,0.6C290.7,59,290.6,59,290.6,59.1z"/>
	<path class="st128" d="M253.8,66.7c3-5,3.8-10.4,3.2-16.2c0.1-0.2,0.2-0.5,0.3-0.7c1.4,6.2,0.3,11.9-3.2,17.2
		C254,67,253.9,66.9,253.8,66.7z"/>
	<path class="st129" d="M307.5,46.9c1.3,5.5,0.3,10.5-3.2,14.9c-0.1-0.1-0.2-0.2-0.3-0.3c2.8-4.1,3.8-8.7,3.2-13.6
		C307.3,47.6,307.2,47.2,307.5,46.9z"/>
	<path class="st130" d="M264.9,66.1c3-4.4,4.5-9.3,4.4-14.6c0.9,5.6-0.5,10.6-4.1,15C265.1,66.3,265,66.2,264.9,66.1z"/>
	<path class="st128" d="M290.8,58.9c0.1,0.3,0.3,0.5,0.4,0.8c0.5,2.5,0.7,4.9-0.4,7.3c-0.3,0.7-0.4,1.5-1.3,1.8
		c1.3-3.1,1.7-6.3,0.9-9.7C290.6,59,290.7,59,290.8,58.9C290.8,58.9,290.8,58.9,290.8,58.9z"/>
	<path class="st131" d="M267.6,49.1c-0.1,0.1-0.3,0.2-0.4,0.3c-1.8-0.6-3.7-1.3-5.5-1.9c0.1-0.1,0.3-0.2,0.4-0.3
		C263.9,47.7,265.8,48.3,267.6,49.1z"/>
	<path class="st132" d="M227.5,46c-0.1-0.1-0.2-0.3-0.3-0.4c0.8-1.8,2-3.4,3.5-4.7C229.6,42.6,228.5,44.3,227.5,46z"/>
	<path class="st133" d="M307.5,46.9c-0.3,0.3-0.2,0.7-0.3,1c-0.4-1.6-0.9-3.2-1.3-4.8C306.8,44.2,307.2,45.6,307.5,46.9z"/>
	<path class="st134" d="M264.9,66.1c0.1,0.1,0.2,0.2,0.3,0.3c-0.3,0.4-0.6,0.8-0.9,1.1c-0.4,0.4,0,0.5,0.2,0.6
		c-1.1,0.4-2.2,0.3-3.3,0.2C262.9,68.3,264,67.3,264.9,66.1z"/>
	<path class="st135" d="M304,61.6c0.1,0.1,0.2,0.2,0.3,0.3c-0.6,0.9-1.4,1.7-2.3,2.3c-0.1,0-0.2,0-0.3,0
		C302.4,63.3,303.2,62.4,304,61.6z"/>
	<path class="st136" d="M257.3,49.9c-0.1,0.2-0.2,0.5-0.3,0.7c-0.2-0.9-0.4-1.8-0.6-2.7c0.1-0.1,0.2-0.2,0.3-0.3
		C256.9,48.3,257.1,49.1,257.3,49.9z"/>
	<path class="st137" d="M253.8,66.7c0.1,0.1,0.2,0.2,0.3,0.3c-0.4,0.6-0.8,1.2-1.3,1.8c-0.2,0-0.4,0.1-0.6,0.1
		C252.8,68.3,253.3,67.5,253.8,66.7z"/>
	<path class="st138" d="M225.9,70.3c0.1-0.1,0.2-0.2,0.3-0.3c0.5,0.7,0.7,1.5,1,2.3c-0.1,0-0.3,0-0.4,0
		C226.5,71.6,226.2,71,225.9,70.3z"/>
	<path class="st139" d="M254.6,45c-0.5,0-1.1,0-1.8-0.6C253.7,44.5,254.2,44.5,254.6,45z"/>
	<path class="st116" d="M262,47.2c-0.1,0.1-0.3,0.2-0.4,0.3c-0.5-0.2-0.9-0.4-1.4-0.5c0.1-0.1,0.2-0.2,0.4-0.3
		C261.1,46.8,261.6,47,262,47.2z"/>
	<path class="st140" d="M258,46.1c-0.6,0.1-1-0.1-1.5-0.4C257.1,45.5,257.6,45.6,258,46.1z"/>
	<path class="st141" d="M226.8,72.3c0.1,0,0.3,0,0.4,0c0.3,0.3,0.5,0.6,0.4,1.1C227.1,73.2,227,72.7,226.8,72.3z"/>
	<path class="st142" d="M260.6,46.7c-0.1,0.1-0.2,0.2-0.4,0.3c-0.4-0.1-0.8-0.1-1.1-0.5C259.7,46.1,260.1,46.6,260.6,46.7z"/>
	<path class="st143" d="M249.2,43.5c0.3-0.2,0.7-0.2,0.8,0c0.1,0.5-0.3,0.1-0.5,0.1C249.4,43.7,249.3,43.5,249.2,43.5z"/>
	<path class="st144" d="M252.4,44.3c-0.4,0.2-0.7,0.1-1-0.2C251.8,43.9,252.1,43.9,252.4,44.3z"/>
	<path class="st145" d="M256.7,47.6c-0.1,0.1-0.2,0.2-0.3,0.3c-0.2-0.3-0.5-0.8-0.1-1C256.4,46.8,256.6,47.3,256.7,47.6z"/>
	<path class="st8" d="M258.4,69.1c6.8-0.3,13.5-0.6,20.3-0.1c12.3,0.8,23.9,3.6,34.3,10.5c4.2,3.1,8,6.6,11.1,10.7
		c0.4,0.6,0.8,1.1,1.2,1.7c0.1,0.2,0.2,0.4,0.3,0.6c0.1,0.2,0.3,0.3,0.4,0.5c0.4,0.8,0.5,1.8,1.6,2.2c0,0,0.1,0.1,0.1,0.1
		c-0.2,0.9,0,1.5,0.9,1.8c0,0.2,0.1,0.3,0.1,0.5l0,0c-0.5,0-0.8,0.3-1,0.6c-0.6,0.5-1.1,1.1-1.7,1.6c-3.4,2.7-7.3,4.2-11.7,4.3
		c-0.1-0.1-0.2-0.1-0.3-0.2c-0.4-0.4-0.8-0.9-1.2-1.3c-7.4-6.9-16-11.9-25.5-15.3c-0.6-0.2-1.3-0.1-1.7-0.9c0.5-0.1,1-0.3,1.3-0.7
		c4-2.5,7.6-8.8,6.7-11.9c-1,4.9-3.4,8.7-7,11.6c-0.5,0.3-0.9,0.6-1.4,0.9c-0.3,0-0.6,0-0.9,0.1c-6.8-2.2-13.7-3.4-20.9-3.6
		C260.3,78.8,258.5,74.3,258.4,69.1z M266.9,71.1c-1.1,3.4-1.1,6.7,0.3,10c0.2,0.5,0.3,1.1,0.9,1.5c0-0.7-0.2-1.3-0.5-1.8
		c-0.7-3-0.9-6-0.3-9c0.3-0.4,0.5-0.9,0.2-1.4C267,70.5,267,70.8,266.9,71.1z M319.7,88.3c0.4-0.7,0.3-1.5,0.2-2.4
		c-0.5,0.5-0.5,1-0.5,1.4c-1.1,5.3-4.3,9.1-9.5,11.7C314.7,98.2,318.9,93.3,319.7,88.3z"/>
	<path class="st103" d="M316.7,156c4-6.1,7-12.7,8.6-19.8c0.6-2.5,1-5.1,1.4-7.6c0.1,0.1,0.2,0.3,0.3,0.4c-0.6,8-3,15.4-6.8,22.3
		c-1,1.8-2,3.5-3.3,5C316.9,156.2,316.8,156.1,316.7,156z"/>
	<path class="st146" d="M309.2,68.1c-0.1-0.1-0.2-0.2-0.4-0.3c6-1,10-4.4,12.5-9.8c0.1,0.1,0.2,0.2,0.3,0.4
		C320.1,63.6,314.6,67.8,309.2,68.1z"/>
	<path class="st147" d="M324.2,90.2c-3.2-4.1-7-7.6-11.1-10.7c0.1-0.1,0.2-0.2,0.3-0.3c4.4,2.9,8,6.5,11.1,10.7
		C324.4,90,324.3,90.1,324.2,90.2z"/>
	<path class="st126" d="M314.4,104c4.4-0.1,8.2-1.7,11.7-4.3c0.1,0.1,0.3,0.3,0.4,0.4c-2.8,2.6-6.2,4-10,4.3c-0.5,0-1.1,0.1-1.6,0.2
		C314.7,104.3,314.6,104.1,314.4,104z"/>
	<path class="st148" d="M314.4,104c0.1,0.2,0.3,0.3,0.4,0.5c3.3,3.3,6.3,6.8,8.7,10.8c-0.1,0.1-0.2,0.2-0.3,0.3
		c-2.7-4.1-5.9-7.7-9.2-11.3c0-0.2,0.1-0.3,0.1-0.5C314.2,103.8,314.3,103.9,314.4,104z"/>
	<path class="st149" d="M329.4,86c0.1-0.1,0.2-0.2,0.3-0.3c3.4,4,5.9,8.6,7.5,13.6C335.2,94.4,332.5,90.1,329.4,86z"/>
	<path class="st150" d="M334.3,73c-1.1,3.5-3.3,5.8-6.8,6.9c-0.1-0.1-0.2-0.2-0.4-0.3c3.2-1.4,5.5-3.6,6.8-6.9
		C334.1,72.8,334.2,72.9,334.3,73z"/>
	<path class="st151" d="M325.7,92.5c-0.1-0.2-0.2-0.4-0.3-0.6c0.3-0.2,0.1-0.4,0.1-0.7c1-1.6,0.7-3.4,0.9-5.1c0.1-0.5-0.1-1,0.3-1.4
		C327.5,87.4,327,90,325.7,92.5z"/>
	<path class="st152" d="M307.2,75.3c1.6-1.2,3.6-1.5,5.3-2.5C311.1,74.4,309.3,75.2,307.2,75.3C307.2,75.3,307.2,75.3,307.2,75.3z"
		/>
	<path class="st153" d="M316.7,156c0.1,0.1,0.2,0.2,0.3,0.4c-0.9,1.6-2.1,2.9-3.3,4.2c-0.1-0.1-0.2-0.2-0.3-0.3
		C314.5,158.8,315.6,157.4,316.7,156z"/>
	<path class="st154" d="M326.8,125.8c0-1.1-0.2-2.3,0.2-3.4c0,0,0.1,0.1,0.1,0.1c0.1,0.3,0.2,0.7,0.3,1c-0.1,1.5,0.2,3.1-0.3,4.6
		C326.9,127.3,327.3,126.5,326.8,125.8z"/>
	<path class="st155" d="M323.2,115.6c0.1-0.1,0.2-0.2,0.3-0.3c0.8,1,1.4,2.1,2,3.2c-0.1,0.1-0.2,0.2-0.3,0.4
		C324.6,117.8,323.9,116.7,323.2,115.6z"/>
	<path class="st156" d="M325.2,118.9c0.1-0.1,0.2-0.2,0.3-0.4c0.8,1.2,1.5,2.5,2,3.9c-0.1,0-0.2,0-0.4,0c0,0-0.1-0.1-0.1-0.1
		C326.4,121.2,325.8,120.1,325.2,118.9z"/>
	<path class="st157" d="M313.4,160.2c0.1,0.1,0.2,0.2,0.3,0.3c-0.9,1-1.5,2.2-2.9,2.6C311.7,162.2,312.6,161.2,313.4,160.2z"/>
	<path class="st158" d="M326.5,100c-0.1-0.1-0.3-0.3-0.4-0.4c0.6-0.5,1.1-1.1,1.7-1.6c0.1,0.1,0.2,0.2,0.3,0.3
		C327.6,99,327.2,99.6,326.5,100z"/>
	<path class="st159" d="M327.2,122.5c0.1,0,0.2,0,0.4,0c0.4,0.8,0.8,1.5,1.3,2.6c-1.1-0.4-0.9-1.2-1.4-1.6
		C327.3,123.1,327.3,122.8,327.2,122.5z"/>
	<path class="st160" d="M327.7,95.1c-1-0.4-1.1-1.4-1.6-2.2C327.3,93.2,327.3,94.3,327.7,95.1z"/>
	<path class="st161" d="M328.7,96.9c-0.9-0.3-1.1-0.9-0.9-1.8C328.3,95.7,328.5,96.3,328.7,96.9z"/>
	<path class="st162" d="M325.5,91.2c0.1,0.2,0.2,0.5-0.1,0.7c-0.4-0.6-0.8-1.1-1.2-1.7c0.1-0.1,0.2-0.2,0.3-0.3
		C324.8,90.3,325.2,90.8,325.5,91.2z"/>
	<path class="st163" d="M331.7,135.5c-0.2-0.8-0.3-1.5-0.5-2.3c0.5,0.7,0.9,1.4,0.8,2.3C331.9,135.5,331.8,135.5,331.7,135.5z"/>
	<path class="st164" d="M326.7,84.7c-0.4,0.4-0.2,0.9-0.3,1.4c-0.4-0.8-0.3-1.6-0.3-2.6C326.6,83.9,326.7,84.3,326.7,84.7z"/>
	<path class="st165" d="M326.8,125.8c0.5,0.7,0.1,1.5,0.3,2.3c0,0.3-0.1,0.6-0.1,0.9c-0.1-0.1-0.2-0.3-0.3-0.4
		C326.8,127.6,326.8,126.7,326.8,125.8z"/>
	<path class="st166" d="M331.4,107.4c0-0.5-0.1-1.1-0.1-1.9C331.9,106.3,331.7,106.8,331.4,107.4z"/>
	<path class="st167" d="M338.8,104.2c0.4,0.7,0.4,1.5,0.3,2.3c0,0,0,0,0,0c-0.6-0.7-0.4-1.5-0.6-2.3l0.1,0L338.8,104.2z"/>
	<path class="st168" d="M337.9,100.6c0.3,0.5,0.4,1,0.4,1.7c-0.6-0.3-0.5-0.9-0.7-1.3C337.7,100.8,337.8,100.7,337.9,100.6z"/>
	<path class="st169" d="M328.8,97.4c0.5,0.4,0.6,0.9,0.8,1.6c-0.7-0.3-0.7-0.9-0.9-1.2C328.7,97.7,328.7,97.5,328.8,97.4
		C328.8,97.4,328.8,97.4,328.8,97.4z"/>
	<path class="st170" d="M331.7,135.5c0.1,0,0.2,0,0.3,0c0.3,0.5,0.5,1,0.1,1.7C332,136.6,331.8,136,331.7,135.5z"/>
	<path class="st171" d="M329.2,126.2c0.2,0.4,0.3,0.8,0.6,1.5C329.1,127.2,329,126.7,329.2,126.2z"/>
	<path class="st172" d="M339.5,108.4c0.1,0.3,0.5,0.6,0.1,1c-0.6-0.2-0.4-0.6-0.4-1c0,0,0.1,0,0.1,0L339.5,108.4z"/>
	<path class="st173" d="M339.5,108.4l-0.1,0c0,0-0.1,0-0.1,0c0-0.6,0-1.3,0-1.9c0,0,0,0,0,0C339.7,107.1,339.4,107.8,339.5,108.4z"
		/>
	<path class="st174" d="M330.6,102.9c-0.2-0.6-0.3-1-0.5-1.4C330.8,101.7,330.7,102.2,330.6,102.9z"/>
	<path class="st175" d="M337.9,100.6c-0.1,0.1-0.2,0.3-0.3,0.4c0-0.4-0.6-0.8-0.1-1.1C337.9,99.7,337.8,100.3,337.9,100.6z"/>
	<path class="st176" d="M327.2,79.6c0.1,0.1,0.2,0.2,0.4,0.3c-0.4,0.3-0.7,0.4-1.1,0.1C326.5,79.6,326.9,79.7,327.2,79.6z"/>
	<path class="st177" d="M321.6,58.4c-0.1-0.1-0.2-0.2-0.3-0.4c0.1-0.3,0.2-0.6,0.3-1c0.1,0.1,0.2,0.2,0.3,0.3
		C321.9,57.7,321.9,58.1,321.6,58.4z"/>
	<path class="st178" d="M338.8,104.2l-0.1,0l-0.1,0c-0.1-0.3-0.1-0.7-0.2-1.1C339,103.3,338.8,103.8,338.8,104.2z"/>
	<path class="st179" d="M328.8,97.4c0,0.1-0.1,0.3-0.1,0.4c-0.2,0.2-0.4,0.4-0.6,0.6c-0.1-0.1-0.2-0.2-0.3-0.3
		C328,97.7,328.3,97.4,328.8,97.4z"/>
	<path class="st180" d="M322,57.4c-0.1-0.1-0.2-0.2-0.3-0.3c0.1-0.3,0.3-0.8,0.4-0.7C322.5,56.6,322.2,57,322,57.4z"/>
	<path class="st181" d="M330.5,130.7c0.7,0.3,0.5,0.7,0.5,1.1C330.5,131.5,330.7,131.1,330.5,130.7z"/>
	<path class="st182" d="M334.3,73c-0.1-0.1-0.2-0.2-0.3-0.3c0.1-0.3,0.2-0.6,0.3-0.9c0.4,0.2,0.3,0.5,0.4,0.9
		C334.5,72.7,334.4,72.8,334.3,73z"/>
	<path class="st1" d="M282.8,476.3c1.5,2.5,4,3.7,6.6,4.8c0.3,0.1,0.6,0.2,0.9,0.3c-7.7-0.4-15.5-0.5-23.2-0.7
		c-2.5-0.1-5.1-0.2-7.6-0.2c-7.7-0.2-15.5-0.5-23.2-0.6c-0.9,0-1.5-0.3-1.3-1.3c5.2-1.8,10.3-4,15.4-6.1c5.2-2.2,10.3-2.2,15.1,1.3
		c1.2,0.9,2.4,1.6,3.7,2.4c3.6,2.3,7.4,2.6,11.3,1C281.2,476.8,282,476.6,282.8,476.3z"/>
	<path class="st1" d="M231.7,460.4c2.9-2.5,6.5-2.8,10.1-3c2.7-0.1,5.4-0.1,8.1-0.1c1.5,0,2.7,0.6,3.6,1.8c0.4,0.5,0.5,0.9-0.3,1.2
		c-6.9,2.6-13.3,6.3-19.9,9.5C232.6,466.7,231.9,463.6,231.7,460.4z"/>
	<path class="st183" d="M228.1,441.7c6.3-4.3,13.2-5.9,20.7-4.1c-7.6-1.6-14.3,0.8-20.7,4.7C228.2,442.1,228.1,441.9,228.1,441.7z"
		/>
	<path class="st184" d="M229.5,449.2c3.5-2,7.2-3.4,11.2-4c3-0.4,5.9-0.5,8.9-0.2c-0.3,0.3-0.6,0.3-1,0.3
		c-6.8-0.3-13.1,1.1-18.9,4.6C229.6,449.6,229.5,449.4,229.5,449.2z"/>
	<path class="st185" d="M248.6,445.3c0.4,0,0.7,0,1-0.3c1.1,0.2,2.2,0.4,3.2,0.6c0,0.1,0,0.3-0.1,0.4
		C251.4,445.5,249.9,445.9,248.6,445.3z"/>
	<path class="st1" d="M352.8,367.1c1,3.1,1.2,6.2,1.7,9.4c0.8,4.1,1.4,8.3,2.1,12.5c0.1,0.4,0,0.9,0,1.3c-1-2.6-1.1-5.3-1.6-8
		c-0.9-4.5-1.5-9-2.3-13.5C352.8,368.2,352.9,367.6,352.8,367.1z"/>
	<path class="st1" d="M281.8,247.9c3.3-1.4,6.9-1.7,10.4-2c0.1,0,0.2,0,0.3,0.1C289,246.6,285.4,247.2,281.8,247.9z"/>
	<path class="st6" d="M85.5,142.6c9.5,0,17.2,7.7,17.2,17.2c0,9.5-8,17.4-17.4,17.3c-9.5-0.1-17.2-7.9-17.1-17.5
		C68.2,150.2,75.9,142.6,85.5,142.6z"/>
	<path class="st186" d="M221.6,90.6c-0.1-0.1-0.3-0.3-0.4-0.4c6.2-2.7,12.5-4.8,19.1-5.9c0.1,0,0.3-0.2,0.4-0.2c1.4,0,2.7-0.3,4-0.6
		c1.3,0.1,2.6-0.3,3.8-0.4c0.6,0.1,1.2,0,1.8-0.2c0.7,0,1.4-0.1,2.2-0.1c0.7,0,1.5,0,2.2,0c2.6,0,5.2,0,7.8,0
		c-0.7,0.4-1.4,0.4-2,0.4c-2.1,0.1-4.2-0.3-6.3,0.2c-1.5,0.2-3,0-4.4,0.4c-0.2-0.1-0.4-0.1-0.6-0.2c-5.8,0.8-11.7,1.7-17.4,3.4
		C228.4,88,225,89.3,221.6,90.6z"/>
	<path class="st187" d="M314.1,103.8c0,0.2-0.1,0.3-0.1,0.5c-4.5-4-9.1-7.8-14.4-10.7c-4.3-2.4-8.8-4.4-13.5-6
		c-0.5-0.2-1.1-0.2-1.4-0.6c-0.1-0.2-0.2-0.4-0.3-0.6c0.3,0,0.6,0,0.9-0.1c0.1,0,0.3,0.1,0.4,0.1c0.3,0.7,1.1,0.7,1.7,0.9
		c9.5,3.4,18.1,8.3,25.5,15.3C313.3,102.9,313.7,103.4,314.1,103.8z"/>
	<path class="st129" d="M254.2,83.3c2.1-0.5,4.2-0.2,6.3-0.2c0.7,0,1.4,0,2-0.4c-2.6,0-5.2,0-7.8,0c0-0.1,0.1-0.1,0.1-0.2
		c2.4,0,4.8,0,7.3,0c-2.1-3.3-4-6.6-4.2-10.5c-0.1-0.8,0.3-1.7-0.3-2.5c-0.4,0-0.8-0.1-1.3-0.1c0.6-0.4,1.3-0.3,2-0.2
		c0.1,5.2,1.9,9.6,5.1,13.6c0.1,0.2,0.2,0.5,0.4,0.7C260.7,83.4,257.4,83.3,254.2,83.3z"/>
	<path class="st188" d="M231.1,118.8c-2.1-8.1-2-16.3,0.3-24.4c0.1,0.2,0.2,0.5,0.3,0.7c-1,4.8-1.6,9.6-1.4,14.5
		c0.1,2.9,0.6,5.7,1,8.5C231.3,118.4,231.2,118.6,231.1,118.8z"/>
	<path class="st146" d="M224.5,118.3c-5.5-5.7-8.7-12.4-9.7-20.2c0.1,0,0.2,0,0.3,0c1,4.3,2.3,8.5,4.5,12.5c1.5,2.7,3.4,5,5.3,7.4
		C224.7,118,224.6,118.1,224.5,118.3z"/>
	<path class="st125" d="M263.9,83.4c-0.1-0.2-0.2-0.5-0.4-0.7c7.1,0.2,14.1,1.5,20.9,3.6c0.1,0.2,0.2,0.4,0.3,0.6
		c-3.6-0.7-7.1-1.9-10.7-2.4C270.7,84,267.3,83.4,263.9,83.4z"/>
	<path class="st16" d="M295.5,113.7c2.9,6.1,4.6,12.4,5,19.1c-0.3,1.1,0.3,2.3-0.3,3.3c-0.3-7.7-2.1-15-5-22
		C295.2,114,295.4,113.8,295.5,113.7z"/>
	<path class="st189" d="M252.5,86.6c4.6,4.9,8.2,10.5,10.5,16.9c-0.1,0.1-0.2,0.2-0.3,0.3c-2.7-6.1-6.2-11.7-10.5-16.9
		C252.3,86.9,252.4,86.8,252.5,86.6z"/>
	<path class="st152" d="M272.3,102.9c0.9-4.7,1-9.4,0.6-14.2c0.1-0.2,0.2-0.5,0.3-0.7c1.1,5.1,0.9,10.2-0.6,15.3
		C272.6,103.1,272.5,103,272.3,102.9z"/>
	<path class="st190" d="M284.1,103.2c1-1.9,1.8-3.8,2.3-5.9c0.5-2,0.7-4,0.9-6c0.7,4.5-0.4,8.5-2.9,12.2
		C284.3,103.4,284.2,103.3,284.1,103.2z"/>
	<path class="st191" d="M300.1,136.1c0.6-1.1,0.1-2.2,0.3-3.3c0.5,2.4,0.3,4.8,0.2,7.2c0,1.1-0.2,2.2-0.2,3.4
		c-0.3-0.3-0.5-0.6-0.6-1.1C300.4,140.3,299.9,138.2,300.1,136.1z"/>
	<path class="st192" d="M224.5,118.3c0.1-0.1,0.3-0.3,0.4-0.4c2.1,1.9,4.2,3.7,6.3,5.6C228.4,122.4,226.4,120.4,224.5,118.3z"/>
	<path class="st193" d="M287,104.8c-1.1-0.6-2.2-0.1-3.3-0.3c0.1-0.1,0.2-0.2,0.3-0.3c3.2,0.1,6.4-0.3,9.6,0.2c-1,0.2-2.1-0.2-3,0.3
		C289.4,104.8,288.2,104.8,287,104.8z"/>
	<path class="st194" d="M295.5,113.7c-0.1,0.1-0.2,0.3-0.3,0.4c-1.2-2.2-2.3-4.4-3.5-6.7C293.3,109.3,294.5,111.4,295.5,113.7z"/>
	<path class="st195" d="M231.7,95.2c-0.1-0.2-0.2-0.5-0.3-0.7c0.3-1.7,1-3.3,1.6-4.9c0.1,0.1,0.2,0.2,0.3,0.3
		C232.8,91.7,232.3,93.4,231.7,95.2z"/>
	<path class="st196" d="M290.6,104.8c1-0.6,2-0.1,3-0.3c1.1,0,2.2-0.1,3.2,0.3c-0.2,0.1-0.5,0.2-0.7,0.3
		C294.3,105,292.5,104.9,290.6,104.8z"/>
	<path class="st197" d="M252.5,86.6c-0.1,0.1-0.2,0.2-0.3,0.4c-1-1.1-2.2-2.1-2.9-3.4c0.2,0.1,0.4,0.1,0.6,0.2
		C250.7,84.7,251.6,85.7,252.5,86.6z"/>
	<path class="st198" d="M231.1,118.8c0.1-0.2,0.2-0.4,0.3-0.7c0.4,1,0.7,2,0.7,3.4C231.4,120.6,231.3,119.7,231.1,118.8z"/>
	<path class="st199" d="M273.3,88c-0.1,0.2-0.2,0.5-0.3,0.7c-0.4-0.8-0.2-1.7-0.5-2.9C273.2,86.6,273.2,87.3,273.3,88z"/>
	<path class="st200" d="M214.3,94.7c0.1-0.1,0.2-0.1,0.4-0.2c0,0.7,0.5,1.3,0.3,2c-0.1,0.3-0.2,0.6-0.3,0.9
		C214.2,96.6,214.5,95.6,214.3,94.7z"/>
	<path class="st201" d="M302.7,106.1c-0.9-0.1-1.8-0.2-2.6-0.6c0-0.1,0-0.2,0-0.3c0.9,0.1,1.8,0.2,2.6,0.6
		C302.7,106,302.7,106,302.7,106.1z"/>
	<path class="st202" d="M300.1,105.3c0,0.1,0,0.2,0,0.3c-0.8,0-1.6,0-2.3-0.3c0.1-0.1,0.3-0.2,0.4-0.3
		C298.8,105.1,299.4,105.2,300.1,105.3z"/>
	<path class="st136" d="M262.7,103.9c0.1-0.1,0.2-0.2,0.3-0.3c0.4,0.6,0.6,1.3,0.4,2.1C263.1,105.1,262.9,104.5,262.7,103.9z"/>
	<path class="st203" d="M306.1,106.6c-0.6,0.3-1.2,0.3-2-0.5C305.1,106.4,305.6,106.5,306.1,106.6z"/>
	<path class="st204" d="M312.1,109.2c-0.6-0.2-1.3-0.2-1.8-0.9c0.8,0,1.3,0.4,1.8,0.6C312.1,108.9,312.1,109,312.1,109.2z"/>
	<path class="st205" d="M233.3,89.9c-0.1-0.1-0.2-0.2-0.3-0.3c0.2-0.5,0.3-1.1,0.9-1.5C233.9,88.9,233.7,89.4,233.3,89.9z"/>
	<path class="st206" d="M312.1,109.2c0-0.1,0-0.2,0-0.3c0.5,0.2,0.9,0.5,1.6,0.8C312.9,109.8,312.5,109.5,312.1,109.2z"/>
	<path class="st207" d="M272.3,102.9c0.1,0.1,0.2,0.2,0.3,0.4c-0.1,0.4-0.3,0.7-0.4,1.3C271.9,103.8,272.1,103.3,272.3,102.9z"/>
	<path class="st208" d="M284.1,104.3c-0.1,0.1-0.2,0.2-0.3,0.3c-0.1,0-0.2-0.1-0.3-0.1c0.1-0.4,0.3-0.9,0.6-1.2
		c0.1,0.1,0.2,0.2,0.3,0.3C284.3,103.8,284.2,104,284.1,104.3z"/>
	<path class="st209" d="M302.7,106.1c0-0.1,0-0.2,0-0.3c0.4,0,0.9-0.1,1.2,0.4C303.4,106.5,303.1,106.2,302.7,106.1z"/>
	<path class="st210" d="M298.1,104.9c-0.1,0.1-0.3,0.2-0.4,0.3c-0.5,0-1-0.1-1.6-0.1c0.2-0.1,0.5-0.2,0.7-0.3
		C297.3,104.9,297.7,104.9,298.1,104.9z"/>
	<path class="st211" d="M214.7,97.4c0.1-0.3,0.2-0.6,0.3-0.9c0,0.5,0.1,1,0.1,1.5c-0.1,0-0.2,0-0.3,0
		C214.7,97.8,214.7,97.6,214.7,97.4z"/>
	<path class="st80" d="M283.1,146.2c-3-0.4-5.9-1.2-8.9-1.4c-2.2-0.2-4.4-0.3-6.6-0.5c-0.5,0-1.2-0.1-1.4-0.7
		c-0.2-0.6,0.4-0.9,0.8-1.2c4.1-2.9,13.6-1.8,16.8,2c0.3,0.4,0.8,0.8,0.5,1.4C284.1,146.3,283.5,146.2,283.1,146.2z"/>
	<path class="st1" d="M279.3,156.9c0,2-1.6,3.5-3.6,3.5c-2.1,0-3.8-1.7-3.8-3.7c0-1.9,1.7-3.5,3.7-3.5
		C277.6,153.2,279.3,154.9,279.3,156.9z"/>
	<path class="st212" d="M268,150.7c1.3-2.6,3.7-3.5,6.3-3.7c3.4-0.3,6.4,0.7,8.4,3.7c-2.5-0.3-4.8-1.4-7.3-1.4
		C272.8,149.2,270.5,150.2,268,150.7z"/>
	<path class="st1" d="M236.8,159.7c-2.1,0-3.8-1.6-3.8-3.6c0-1.9,1.6-3.6,3.6-3.6c2,0,3.8,1.6,3.9,3.6
		C240.5,158.1,238.9,159.7,236.8,159.7z"/>
	<path class="st212" d="M235.6,145.9c2.6,0,4.9,0.8,6.8,2.6c0.3,0.3,0.8,0.7,0.5,1.1c-0.3,0.5-0.8,0.1-1.1,0
		c-4.1-1.7-8.2-1.8-12.3,0c-0.3,0.1-0.8,0.5-1,0.1c-0.3-0.4,0.1-0.8,0.4-1.1C230.7,146.6,233.1,145.9,235.6,145.9z"/>
	<path class="st213" d="M241.2,76.6c-0.1,2.5-1,4.9-2.3,7c0.9-3.1,1.7-6.2,2-9.4c0.2-0.3,0.4-0.6,0.5-0.9c0,0.5,0,1.1,0,1.6
		C241,75.5,241.1,76.1,241.2,76.6z"/>
	<path class="st8" d="M244.8,83.4c-1.3,0.4-2.6,0.6-4,0.6C241.5,82.7,243.2,82.5,244.8,83.4z"/>
	<path class="st8" d="M243.7,71c0.6-0.3,1.3-0.3,2-0.3C245.2,72.3,244.4,71.4,243.7,71z"/>
	<path class="st214" d="M241.4,73.3c-0.2,0.3-0.4,0.6-0.5,0.9c0-0.8-0.2-1.6,0.6-2.2c0,0,0,0,0,0C241.4,72.4,241.4,72.9,241.4,73.3z
		"/>
	<path class="st8" d="M257.7,69.4c0.6,0.8,0.1,1.7,0.3,2.5C257.5,71.2,257.8,70.3,257.7,69.4z"/>
	<path class="st8" d="M254.9,82.4c0,0.1-0.1,0.1-0.1,0.2c-0.7,0-1.5,0-2.2,0C253.3,82.2,254.1,82.5,254.9,82.4z"/>
	<path class="st8" d="M240.4,71.6c0.5-0.3,1.1-0.4,1.7-0.3c0,0.4-0.3,0.6-0.7,0.7c0,0,0,0,0,0C241.2,71.6,240.8,71.7,240.4,71.6z"/>
	<path class="st8" d="M250.4,82.8c-0.6,0.3-1.2,0.3-1.8,0.2C249.2,82.6,249.8,82.8,250.4,82.8z"/>
	<path class="st8" d="M253.7,69.7c0.6-0.3,1.2-0.3,1.8-0.2C254.9,69.9,254.3,69.7,253.7,69.7z"/>
	<path class="st214" d="M241.2,76.6c0-0.6-0.2-1.2,0.2-1.7C241.4,75.5,241.5,76.1,241.2,76.6z"/>
	<path class="st215" d="M221.5,137.5c0.4-0.2,0.3-1,1-0.9c-0.3,0.8-0.6,1.7-1,2.5c0,0.1-0.2,0.2-0.4,0.3
		C220.9,138.6,221.5,138.1,221.5,137.5z"/>
	<path class="st216" d="M220.2,142.4c-0.1,0.5-0.2,0.9-0.3,1.3C219.6,143.2,219.6,142.8,220.2,142.4z"/>
	<path class="st217" d="M218.5,149c-0.1-0.3-0.1-0.4-0.1-0.5c0-0.1,0.1-0.3,0.2-0.4c0.2-0.1,0.3,0.1,0.2,0.2
		C218.8,148.6,218.7,148.7,218.5,149z"/>
	<path class="st126" d="M319.7,88.3c-0.8,5-5,9.9-9.8,10.7c5.2-2.6,8.4-6.3,9.5-11.7C319.5,87.7,319.6,88,319.7,88.3z"/>
	<path class="st126" d="M286.7,85.4c3.6-3,6-6.8,7-11.6c0.9,3.2-2.7,9.4-6.7,11.9C287,85.6,286.8,85.5,286.7,85.4z"/>
	<path class="st218" d="M267.2,81.1c-1.4-3.3-1.4-6.6-0.3-10c0.1,0.2,0.2,0.4,0.3,0.6c-0.6,3-0.4,6,0.3,9
		C267.4,80.8,267.3,81,267.2,81.1z"/>
	<path class="st219" d="M319.7,88.3c-0.1-0.3-0.2-0.6-0.3-1c0-0.5,0.1-0.9,0.5-1.4C320,86.8,320.1,87.6,319.7,88.3z"/>
	<path class="st220" d="M267.2,81.1c0.1-0.1,0.2-0.3,0.3-0.4c0.3,0.6,0.5,1.1,0.5,1.8C267.5,82.2,267.4,81.6,267.2,81.1z"/>
	<path class="st121" d="M286.7,85.4c0.1,0.1,0.2,0.2,0.3,0.3c-0.3,0.4-0.8,0.6-1.3,0.7c-0.1,0-0.3-0.1-0.4-0.1
		C285.8,86,286.3,85.7,286.7,85.4z"/>
	<path class="st221" d="M267.2,71.7c-0.1-0.2-0.2-0.4-0.3-0.6c0.1-0.3,0.1-0.6,0.5-0.8C267.7,70.8,267.5,71.3,267.2,71.7z"/>
</g>
</svg>
